<svg width="69" height="68" viewBox="0 0 69 68" fill="none" xmlns="http://www.w3.org/2000/svg">
<g clip-path="url(#clip0_20494_25818)">
<path d="M64.561 67.5753C45.5384 60.4399 25.1991 72.4976 6.13292 66.0005C3.11609 64.9724 1.21926 61.9825 1.52911 58.8103C2.52481 48.6145 3.52063 38.4187 4.51633 28.2229C4.6947 26.3959 6.44105 25.162 8.23043 25.5713C26.309 29.7076 43.0705 14.6006 61.1314 18.4789C63.3325 18.9515 64.9534 20.8283 65.1257 23.073C66.1911 36.9572 67.2565 50.8415 68.322 64.7258C68.4781 66.761 66.4722 68.2922 64.561 67.5753Z" fill="url(#paint0_linear_20494_25818)"/>
<path d="M35.5789 21.8398C26.5737 24.7059 17.5782 27.712 8.23043 25.5732C6.44105 25.1637 4.6947 26.3978 4.51633 28.2248C3.52063 38.4206 2.52494 48.6164 1.52911 58.8122C1.21926 61.9844 3.11609 64.9743 6.13292 66.0024C15.7355 69.2746 25.6611 67.8403 35.5789 66.5218V21.8398Z" fill="url(#paint1_linear_20494_25818)"/>
<path d="M1.52911 58.8122C1.21926 61.9845 3.11609 64.9743 6.13292 66.0024C25.1989 72.4995 45.5384 60.4419 64.561 67.5772C66.4722 68.2941 68.4781 66.7629 68.322 64.7277C67.8153 58.1251 67.3086 51.5226 66.8021 44.9199H2.88592C2.4337 49.5508 1.98134 54.1815 1.52911 58.8122Z" fill="url(#paint2_linear_20494_25818)"/>
<path d="M65.1271 23.0729C64.9549 20.8283 63.3338 18.9515 61.1328 18.4788C56.056 17.3887 51.0818 17.7987 46.1523 18.8596V65.3744C52.3664 64.9809 58.5306 65.3126 64.5624 67.5751C66.4736 68.292 68.4796 66.7608 68.3234 64.7256C67.2578 50.8415 66.1926 36.9573 65.1271 23.0729Z" fill="url(#paint3_linear_20494_25818)"/>
<path d="M65.1218 23.0728C64.9495 20.8281 63.3284 18.9514 61.1275 18.4787C54.8675 17.1345 48.7637 18.0716 42.707 19.6971V30.1674H65.6663C65.4848 27.8027 65.3032 25.4378 65.1218 23.0728Z" fill="url(#paint4_linear_20494_25818)"/>
<path d="M62.555 51.8829L54.1734 43.5012C50.9514 40.2792 46.6668 38.5048 42.1114 38.5048C36.1008 38.5048 30.9799 34.6257 29.1211 29.2388L30.2139 26.9873C32.1217 26.4289 34.0105 25.8274 35.8811 25.2316C42.4527 23.1371 48.6603 21.1582 54.9251 21.1582C56.8549 21.1582 58.6598 21.3441 60.4421 21.7266C61.1965 21.8887 61.7636 22.5474 61.8234 23.3284L63.9069 50.4831L62.555 51.8829Z" fill="url(#paint5_linear_20494_25818)"/>
<path d="M62.555 51.8829L54.1734 43.5012C50.9514 40.2792 46.6668 38.5048 42.1114 38.5048C36.1008 38.5048 30.9799 34.6257 29.1211 29.2388L30.2139 26.9873C32.1217 26.4289 34.0105 25.8274 35.8811 25.2316C42.4527 23.1371 48.6603 21.1582 54.9251 21.1582C56.8549 21.1582 58.6598 21.3441 60.4421 21.7266C61.1965 21.8887 61.7636 22.5474 61.8234 23.3284L63.9069 50.4831L62.555 51.8829Z" fill="url(#paint6_linear_20494_25818)"/>
<path d="M63.9001 50.4832L62.548 51.883L54.1663 43.5012C51.9217 41.2567 49.1605 39.7148 46.1523 38.987V22.2579C49.0915 21.5872 51.9988 21.1582 54.918 21.1582C56.8477 21.1582 58.6527 21.3441 60.435 21.7266C61.1894 21.8887 61.7565 22.5474 61.8163 23.3284L63.9001 50.4832Z" fill="url(#paint7_linear_20494_25818)"/>
<path d="M64.7856 62.0446C64.8632 63.0549 63.9091 63.8288 62.9353 63.5491C59.1176 62.4526 54.9849 61.9162 50.3902 61.9162C45.0259 61.9162 39.6364 62.6347 34.4235 63.3293C29.1973 64.0252 24.2607 64.6827 19.3373 64.6827C19.336 64.6827 19.3347 64.6827 19.3347 64.6827C14.7659 64.6827 10.7988 64.0877 7.20358 62.8631C5.64569 62.3319 4.67084 60.8005 4.8342 59.1377L7.78928 28.8804C10.0418 29.3718 12.4019 29.6202 14.8111 29.6202C18.9458 29.6202 23.0468 28.8877 27.0006 27.875L29.1123 29.2412C30.9775 34.6476 36.1283 38.5355 42.1667 38.5077C46.6857 38.487 51.0103 40.3497 54.2058 43.5451L62.5465 51.8859L64.2918 55.6113L64.7856 62.0446Z" fill="url(#paint8_linear_20494_25818)"/>
<path d="M64.7856 62.0446C64.8632 63.0549 63.9091 63.8288 62.9353 63.5491C59.1176 62.4526 54.9849 61.9162 50.3902 61.9162C45.0259 61.9162 39.6364 62.6347 34.4235 63.3293C29.1973 64.0252 24.2607 64.6827 19.3373 64.6827C19.336 64.6827 19.3347 64.6827 19.3347 64.6827C14.7659 64.6827 10.7988 64.0877 7.20358 62.8631C5.64569 62.3319 4.67084 60.8005 4.8342 59.1377L7.78928 28.8804C10.0418 29.3718 12.4019 29.6202 14.8111 29.6202C18.9458 29.6202 23.0468 28.8877 27.0006 27.875L29.1123 29.2412C30.9775 34.6476 36.1283 38.5355 42.1667 38.5077C46.6857 38.487 51.0103 40.3497 54.2058 43.5451L62.5465 51.8859L64.2918 55.6113L64.7856 62.0446Z" fill="url(#paint9_linear_20494_25818)"/>
<path d="M4.8342 59.1344C4.67084 60.7973 5.64569 62.3286 7.20358 62.8598C10.7988 64.0844 14.7659 64.6794 19.3347 64.6794H19.3373C24.2607 64.6794 29.1973 64.0219 34.4235 63.326C39.6364 62.6314 45.0259 61.9129 50.3902 61.9129C54.9849 61.9129 59.1176 62.4493 62.9353 63.5458C63.9092 63.8255 64.8633 63.0516 64.7856 62.0413L64.2917 55.6083L62.5464 51.8829L55.5835 44.9199H6.22249L4.8342 59.1344Z" fill="url(#paint10_linear_20494_25818)"/>
<path d="M64.7871 62.0389C64.8647 63.0492 63.9107 63.8231 62.9368 63.5434C59.1191 62.4469 54.9864 61.9105 50.3917 61.9105C48.9786 61.9105 47.5641 61.9596 46.1523 62.0473V38.9844C49.1605 39.7122 51.9217 41.2541 54.1662 43.4987L62.548 51.8805L64.2932 55.6059L64.7871 62.0389Z" fill="url(#paint11_linear_20494_25818)"/>
<path d="M64.295 55.5988L53.1826 44.4863C50.5874 41.8925 47.1383 40.4634 43.4687 40.4634C35.6088 40.4634 28.9722 35.1191 27.0039 27.8728C27.5471 27.7334 28.089 27.5886 28.6295 27.4385C29.1568 27.2924 29.6827 27.1423 30.206 26.9883C31.7852 32.832 37.1322 37.1431 43.4687 37.1431C48.0255 37.1431 52.3087 38.9175 55.5307 42.1395L63.9045 50.5134L64.295 55.5988Z" fill="url(#paint12_linear_20494_25818)"/>
<path d="M53.1814 44.4862L64.2938 55.5987L63.9033 50.5133L55.5295 42.1394C52.3075 38.9174 48.0243 37.143 43.4675 37.143C39.6207 37.143 36.1403 35.5522 33.6445 32.9961V34.4917L39.0298 39.877C40.4455 40.2588 41.933 40.4633 43.4673 40.4633C47.1371 40.4633 50.5862 41.8924 53.1814 44.4862Z" fill="url(#paint13_linear_20494_25818)"/>
<path d="M8.52457 7.42188C3.99991 7.42188 0.332031 11.0898 0.332031 15.6144V58.2518C0.332031 62.7764 3.99991 66.4443 8.52457 66.4443C13.0492 66.4443 16.7171 62.7764 16.7171 58.2518V15.6144C16.7171 11.0898 13.0492 7.42188 8.52457 7.42188Z" fill="url(#paint14_linear_20494_25818)"/>
<path d="M8.51821 7.42188C7.26632 7.42188 6.0807 7.7037 5.01953 8.20573V65.6604C6.0807 66.1625 7.26632 66.4443 8.51821 66.4443C13.0429 66.4443 16.7107 62.7764 16.7107 58.2518V15.6144C16.7107 11.0898 13.0429 7.42188 8.51821 7.42188Z" fill="url(#paint15_linear_20494_25818)"/>
<path d="M8.52457 66.4456C13.0492 66.4456 16.7171 62.7777 16.7171 58.2531C16.7171 53.7285 13.0492 50.0605 8.52457 50.0605C3.99996 50.0605 0.332031 53.7285 0.332031 58.2531C0.332031 62.7777 3.99996 66.4456 8.52457 66.4456Z" fill="url(#paint16_linear_20494_25818)"/>
<path d="M8.52457 66.4456C13.0492 66.4456 16.7171 62.7777 16.7171 58.2531C16.7171 53.7285 13.0492 50.0605 8.52457 50.0605C3.99996 50.0605 0.332031 53.7285 0.332031 58.2531C0.332031 62.7777 3.99996 66.4456 8.52457 66.4456Z" fill="url(#paint17_linear_20494_25818)"/>
<path d="M16.2931 55.6518C16.7724 57.0853 16.3844 58.658 15.3213 59.7325C13.7401 61.3309 11.4901 62.3298 8.99348 62.3298C8.38334 62.3298 7.78767 62.2699 7.21299 62.1564C6.60524 62.0364 6.17188 61.4952 6.17188 60.8757V50.4037C6.91576 50.1795 7.70586 50.0605 8.52266 50.0605C12.1382 50.0603 15.2064 52.4022 16.2931 55.6518Z" fill="url(#paint18_linear_20494_25818)"/>
<path d="M16.2931 55.6518C16.7724 57.0853 16.3844 58.658 15.3213 59.7325C13.7401 61.3309 11.4901 62.3298 8.99348 62.3298C8.38334 62.3298 7.78767 62.2699 7.21299 62.1564C6.60524 62.0364 6.17188 61.4952 6.17188 60.8757V50.4037C6.91576 50.1795 7.70586 50.0605 8.52266 50.0605C12.1382 50.0603 15.2064 52.4022 16.2931 55.6518Z" fill="url(#paint19_linear_20494_25818)"/>
<path d="M55.5289 42.1399C52.949 39.5601 49.6886 37.9095 46.1523 37.3535V40.7247C48.7982 41.2462 51.2306 42.5374 53.1808 44.4866L64.2932 55.599L63.9027 50.5136L55.5289 42.1399Z" fill="url(#paint20_linear_20494_25818)"/>
<path d="M35.0076 0.00034479C27.4722 -0.0527802 21.3477 6.03999 21.3477 13.5629C21.3477 16.6234 22.3614 19.4464 24.0699 21.7157L32.8435 33.7734C33.8648 35.1777 35.9573 35.1777 36.9785 33.7734L45.7521 21.7157C47.4399 19.4737 48.4503 16.6916 48.4743 13.675C48.5344 6.20946 42.4732 0.051876 35.0076 0.00034479ZM34.9111 21.0252C30.7902 21.0252 27.4497 17.6846 27.4497 13.5629C27.4497 9.44199 30.7904 6.10149 34.9111 6.10149C39.0319 6.10149 42.3727 9.44212 42.3727 13.5629C42.3727 17.6846 39.032 21.0252 34.9111 21.0252Z" fill="url(#paint21_linear_20494_25818)"/>
<path d="M34.9109 3.98438C29.6208 3.98438 25.332 8.27236 25.332 13.5624C25.332 18.8525 29.6208 23.1412 34.9109 23.1412C40.2009 23.1412 44.4897 18.8525 44.4897 13.5624C44.4897 8.27236 40.2009 3.98438 34.9109 3.98438ZM34.9109 20.2902C31.1954 20.2902 28.184 17.2778 28.184 13.5624C28.184 9.84712 31.1956 6.83559 34.9109 6.83559C38.6262 6.83559 41.6377 9.84712 41.6377 13.5624C41.6378 17.2778 38.6263 20.2902 34.9109 20.2902Z" fill="url(#paint22_linear_20494_25818)"/>
<path d="M41.6378 13.5623C41.6378 17.2777 38.6263 20.2901 34.911 20.2901C31.1957 20.2901 28.1842 17.2777 28.1842 13.5623C28.1842 12.5968 28.3891 11.6797 28.7553 10.8497H21.6193C21.4413 11.7263 21.3477 12.6333 21.3477 13.5623C21.3477 16.6228 22.3614 19.4458 24.0699 21.7151L32.8435 33.7728C33.8648 35.1771 35.9573 35.1771 36.9785 33.7728L45.7521 21.7151C47.4399 19.4731 48.4503 16.691 48.4743 13.6744C48.482 12.7073 48.3863 11.7624 48.1989 10.8496H41.0667C41.4329 11.6797 41.6378 12.5968 41.6378 13.5623Z" fill="url(#paint23_linear_20494_25818)"/>
<path d="M35.0119 0.000336407C34.2141 -0.00524172 33.4324 0.0586411 32.6719 0.185211V7.22069C33.3738 6.97233 34.1286 6.83593 34.9156 6.83593C38.631 6.83593 41.6424 9.84745 41.6424 13.5628C41.6424 17.2782 38.6309 20.2905 34.9156 20.2905C34.1286 20.2905 33.3738 20.1541 32.6719 19.9057V33.5312L32.848 33.7734C33.8693 35.1777 35.9618 35.1777 36.983 33.7734L45.7566 21.7157C47.4443 19.4737 48.4548 16.6915 48.4788 13.675C48.5387 6.20945 42.4776 0.0518677 35.0119 0.000336407Z" fill="url(#paint24_linear_20494_25818)"/>
<path d="M35.0119 0.000336407C34.2141 -0.00524172 33.4324 0.0586411 32.6719 0.185211V7.22069C33.3738 6.97233 34.1286 6.83593 34.9156 6.83593C38.631 6.83593 41.6424 9.84745 41.6424 13.5628C41.6424 17.2782 38.6309 20.2905 34.9156 20.2905C34.1286 20.2905 33.3738 20.1541 32.6719 19.9057V33.5312L32.848 33.7734C33.8693 35.1777 35.9618 35.1777 36.983 33.7734L45.7566 21.7157C47.4443 19.4737 48.4548 16.6915 48.4788 13.675C48.5387 6.20945 42.4776 0.0518677 35.0119 0.000336407Z" fill="url(#paint25_linear_20494_25818)"/>
</g>
<defs>
<linearGradient id="paint0_linear_20494_25818" x1="26.3822" y1="23.5798" x2="44.8147" y2="71.5776" gradientUnits="userSpaceOnUse">
<stop stop-color="#EAF9FA"/>
<stop offset="1" stop-color="#B3DAFE"/>
</linearGradient>
<linearGradient id="paint1_linear_20494_25818" x1="25.3319" y1="44.8519" x2="13.4975" y2="43.3539" gradientUnits="userSpaceOnUse">
<stop stop-color="#7BACDF" stop-opacity="0"/>
<stop offset="1" stop-color="#7BACDF"/>
</linearGradient>
<linearGradient id="paint2_linear_20494_25818" x1="34.6112" y1="58.0443" x2="35.5101" y2="69.1296" gradientUnits="userSpaceOnUse">
<stop stop-color="#7BACDF" stop-opacity="0"/>
<stop offset="1" stop-color="#7BACDF"/>
</linearGradient>
<linearGradient id="paint3_linear_20494_25818" x1="61.0878" y1="42.6943" x2="67.3795" y2="42.2448" gradientUnits="userSpaceOnUse">
<stop stop-color="#7BACDF" stop-opacity="0"/>
<stop offset="1" stop-color="#7BACDF"/>
</linearGradient>
<linearGradient id="paint4_linear_20494_25818" x1="49.1047" y1="22.5911" x2="46.3275" y2="21.0132" gradientUnits="userSpaceOnUse">
<stop stop-color="#7BACDF" stop-opacity="0"/>
<stop offset="1" stop-color="#7BACDF"/>
</linearGradient>
<linearGradient id="paint5_linear_20494_25818" x1="39.5206" y1="36.5205" x2="59.6377" y2="36.5205" gradientUnits="userSpaceOnUse">
<stop stop-color="#BBEC6C"/>
<stop offset="1" stop-color="#81B823"/>
</linearGradient>
<linearGradient id="paint6_linear_20494_25818" x1="46.5148" y1="28.3351" x2="40.8972" y2="24.9266" gradientUnits="userSpaceOnUse">
<stop stop-color="#026841" stop-opacity="0"/>
<stop offset="0.2391" stop-color="#0A6644" stop-opacity="0.239"/>
<stop offset="0.6113" stop-color="#20604D" stop-opacity="0.611"/>
<stop offset="1" stop-color="#3E5959"/>
</linearGradient>
<linearGradient id="paint7_linear_20494_25818" x1="58.0542" y1="36.5355" x2="63.8296" y2="36.2515" gradientUnits="userSpaceOnUse">
<stop stop-color="#026841" stop-opacity="0"/>
<stop offset="0.2391" stop-color="#0A6644" stop-opacity="0.239"/>
<stop offset="0.6113" stop-color="#20604D" stop-opacity="0.611"/>
<stop offset="1" stop-color="#3E5959"/>
</linearGradient>
<linearGradient id="paint8_linear_20494_25818" x1="23.6616" y1="46.279" x2="59.8328" y2="46.279" gradientUnits="userSpaceOnUse">
<stop stop-color="#62DBFB"/>
<stop offset="0.1912" stop-color="#57D5FA"/>
<stop offset="0.5232" stop-color="#3BC5F7"/>
<stop offset="0.954" stop-color="#0DABF2"/>
<stop offset="1" stop-color="#08A9F1"/>
</linearGradient>
<linearGradient id="paint9_linear_20494_25818" x1="24.4695" y1="46.279" x2="13.6745" y2="46.279" gradientUnits="userSpaceOnUse">
<stop stop-color="#0593FC" stop-opacity="0"/>
<stop offset="0.6831" stop-color="#0389FC" stop-opacity="0.683"/>
<stop offset="1" stop-color="#0182FC"/>
</linearGradient>
<linearGradient id="paint10_linear_20494_25818" x1="34.6109" y1="57.7439" x2="35.0844" y2="65.4128" gradientUnits="userSpaceOnUse">
<stop stop-color="#0593FC" stop-opacity="0"/>
<stop offset="0.6831" stop-color="#0389FC" stop-opacity="0.683"/>
<stop offset="1" stop-color="#0182FC"/>
</linearGradient>
<linearGradient id="paint11_linear_20494_25818" x1="55.6597" y1="51.1971" x2="62.5712" y2="50.4397" gradientUnits="userSpaceOnUse">
<stop stop-color="#0593FC" stop-opacity="0"/>
<stop offset="0.6831" stop-color="#0389FC" stop-opacity="0.683"/>
<stop offset="1" stop-color="#0182FC"/>
</linearGradient>
<linearGradient id="paint12_linear_20494_25818" x1="32.1418" y1="41.2935" x2="58.9598" y2="41.2935" gradientUnits="userSpaceOnUse">
<stop stop-color="#FEF0AE"/>
<stop offset="1" stop-color="#FBC56D"/>
</linearGradient>
<linearGradient id="paint13_linear_20494_25818" x1="42.214" y1="36.2762" x2="35.6496" y2="30.1536" gradientUnits="userSpaceOnUse">
<stop stop-color="#DC8758" stop-opacity="0"/>
<stop offset="0.2153" stop-color="#DD8654" stop-opacity="0.215"/>
<stop offset="0.4291" stop-color="#E28448" stop-opacity="0.429"/>
<stop offset="0.6424" stop-color="#EA8034" stop-opacity="0.642"/>
<stop offset="0.8543" stop-color="#F47B18" stop-opacity="0.854"/>
<stop offset="1" stop-color="#FE7701"/>
</linearGradient>
<linearGradient id="paint14_linear_20494_25818" x1="5.02589" y1="36.9331" x2="11.9175" y2="36.9331" gradientUnits="userSpaceOnUse">
<stop stop-color="#EAF9FA"/>
<stop offset="1" stop-color="#B3DAFE"/>
</linearGradient>
<linearGradient id="paint15_linear_20494_25818" x1="8.91439" y1="36.9331" x2="18.3068" y2="36.9331" gradientUnits="userSpaceOnUse">
<stop stop-color="#7BACDF" stop-opacity="0"/>
<stop offset="1" stop-color="#7BACDF"/>
</linearGradient>
<linearGradient id="paint16_linear_20494_25818" x1="3.98809" y1="52.944" x2="16.1055" y2="67.1254" gradientUnits="userSpaceOnUse">
<stop stop-color="#7BACDF" stop-opacity="0"/>
<stop offset="1" stop-color="#7BACDF"/>
</linearGradient>
<linearGradient id="paint17_linear_20494_25818" x1="9.70474" y1="59.5407" x2="2.38106" y2="51.5512" gradientUnits="userSpaceOnUse">
<stop stop-color="#7BACDF" stop-opacity="0"/>
<stop offset="1" stop-color="#7BACDF"/>
</linearGradient>
<linearGradient id="paint18_linear_20494_25818" x1="5.87265" y1="56.195" x2="15.5851" y2="56.195" gradientUnits="userSpaceOnUse">
<stop stop-color="#EAF9FA"/>
<stop offset="1" stop-color="#B3DAFE"/>
</linearGradient>
<linearGradient id="paint19_linear_20494_25818" x1="11.334" y1="58.4896" x2="11.334" y2="48.4311" gradientUnits="userSpaceOnUse">
<stop stop-color="#7BACDF" stop-opacity="0"/>
<stop offset="1" stop-color="#7BACDF"/>
</linearGradient>
<linearGradient id="paint20_linear_20494_25818" x1="59.2495" y1="46.4764" x2="63.4728" y2="46.4764" gradientUnits="userSpaceOnUse">
<stop stop-color="#DC8758" stop-opacity="0"/>
<stop offset="0.2153" stop-color="#DD8654" stop-opacity="0.215"/>
<stop offset="0.4291" stop-color="#E28448" stop-opacity="0.429"/>
<stop offset="0.6424" stop-color="#EA8034" stop-opacity="0.642"/>
<stop offset="0.8543" stop-color="#F47B18" stop-opacity="0.854"/>
<stop offset="1" stop-color="#FE7701"/>
</linearGradient>
<linearGradient id="paint21_linear_20494_25818" x1="21.2936" y1="17.4134" x2="43.2706" y2="17.4134" gradientUnits="userSpaceOnUse">
<stop stop-color="#FD4755"/>
<stop offset="0.3362" stop-color="#E43F48"/>
<stop offset="1" stop-color="#A72B2B"/>
</linearGradient>
<linearGradient id="paint22_linear_20494_25818" x1="41.6147" y1="20.2664" x2="28.9724" y2="7.6241" gradientUnits="userSpaceOnUse">
<stop stop-color="#FD4755"/>
<stop offset="0.3362" stop-color="#E43F48"/>
<stop offset="1" stop-color="#A72B2B"/>
</linearGradient>
<linearGradient id="paint23_linear_20494_25818" x1="38.4609" y1="20.697" x2="43.7926" y2="25.0214" gradientUnits="userSpaceOnUse">
<stop stop-color="#A72B2B" stop-opacity="0"/>
<stop offset="1" stop-color="#481F05"/>
</linearGradient>
<linearGradient id="paint24_linear_20494_25818" x1="40.3122" y1="18.1728" x2="47.3024" y2="19.2392" gradientUnits="userSpaceOnUse">
<stop stop-color="#A72B2B" stop-opacity="0"/>
<stop offset="1" stop-color="#481F05"/>
</linearGradient>
<linearGradient id="paint25_linear_20494_25818" x1="43.558" y1="17.2754" x2="49.2009" y2="17.1859" gradientUnits="userSpaceOnUse">
<stop stop-color="#A72B2B" stop-opacity="0"/>
<stop offset="1" stop-color="#481F05"/>
</linearGradient>
<clipPath id="clip0_20494_25818">
<rect width="68" height="68" fill="white" transform="translate(0.332031)"/>
</clipPath>
</defs>
</svg>
