<svg width="1440" height="361" viewBox="0 0 1440 361" fill="none" xmlns="http://www.w3.org/2000/svg">
<g clip-path="url(#clip0_22536_49558)">
<rect width="1440" height="360.729" fill="#252736"/>
<g opacity="0.6">
<path opacity="0.7" d="M0 -190C187.617 -24.1559 321.854 379.245 393.21 410.079H409C404.136 412.627 398.871 412.525 393.21 410.079L183.764 410.079C145.328 421.994 16.0291 110.04 0 -190Z" fill="#EDF2F7" fill-opacity="0.05"/>
<path opacity="0.8" d="M1000.3 385.5C946.295 388.707 590.825 236 393.324 63C342.697 272.5 752.629 409 789.796 398L1000.3 385.5Z" fill="#EDF2F7" fill-opacity="0.05"/>
<path d="M135 -88C310.001 82.6502 717.77 387.446 802.453 378.54L810 376.5C807.879 377.561 805.356 378.234 802.453 378.54L440.001 476.5C402.834 487.5 164 188 135 -88Z" fill="#1E1D2A"/>
</g>
</g>
<defs>
<clipPath id="clip0_22536_49558">
<rect width="1440" height="360.729" fill="white"/>
</clipPath>
</defs>
</svg>
