<svg width="905" height="532" viewBox="0 0 905 532" fill="none" xmlns="http://www.w3.org/2000/svg">
<g opacity="0.7" filter="url(#filter0_d_26404_52627)">
<path d="M335.465 -188.209C504.343 -161.267 338.325 -28.7742 458.061 72.8842C567.793 166.048 793.78 12.1786 792.625 265.817C791.834 439.469 839.867 509.525 976.253 562.453" stroke="#1E1D2A" stroke-width="0.578559"/>
<path d="M344.207 -196.543C513.085 -169.601 347.067 -37.1082 466.804 64.5502C576.535 157.714 802.522 3.84457 801.367 257.483C800.576 431.135 848.61 501.191 984.995 554.119" stroke="#1E1D2A" stroke-width="0.578559"/>
<path d="M352.953 -204.879C521.831 -177.937 355.814 -45.4441 475.55 56.2143C585.281 149.378 811.269 -4.49137 810.113 249.147C809.322 422.799 857.356 492.855 993.741 545.783" stroke="#1E1D2A" stroke-width="0.578559"/>
<path d="M361.699 -213.213C530.577 -186.271 364.56 -53.7781 484.296 47.8803C594.027 141.044 820.015 -12.8253 818.859 240.813C818.068 414.465 866.102 484.521 1002.49 537.449" stroke="#1E1D2A" stroke-width="0.578559"/>
<path d="M370.441 -221.547C539.319 -194.605 373.302 -62.1121 493.038 39.5463C602.769 132.71 828.757 -21.1593 827.601 232.479C826.81 406.131 874.844 476.187 1011.23 529.115" stroke="#1E1D2A" stroke-width="0.578559"/>
<path d="M379.188 -229.881C548.066 -202.94 382.048 -70.4466 501.784 31.2118C611.515 124.376 837.503 -29.4938 836.347 224.145C835.556 397.797 883.59 467.852 1019.98 520.781" stroke="#1E1D2A" stroke-width="0.578559"/>
<path d="M387.934 -238.215C556.812 -211.273 390.794 -78.7801 510.53 22.8783C620.262 116.043 846.249 -37.8273 845.093 215.811C844.302 389.464 892.336 459.519 1028.72 512.447" stroke="#1E1D2A" stroke-width="0.578559"/>
<path d="M396.676 -246.551C565.554 -219.609 399.536 -87.116 519.272 14.5424C629.004 107.707 854.991 -46.1632 853.836 207.475C853.045 381.128 901.078 451.183 1037.46 504.111" stroke="#1E1D2A" stroke-width="0.578559"/>
<path d="M405.422 -254.885C574.3 -227.943 408.282 -95.4505 528.018 6.20792C637.75 99.3721 863.737 -54.4977 862.582 199.141C861.791 372.793 909.824 442.848 1046.21 495.777" stroke="#1E1D2A" stroke-width="0.578559"/>
<path d="M414.164 -263.219C583.042 -236.277 417.024 -103.784 536.761 -2.12606C646.492 91.0381 872.479 -62.8317 871.324 190.807C870.533 364.459 918.567 434.514 1054.95 487.443" stroke="#1E1D2A" stroke-width="0.578559"/>
<path d="M422.906 -271.553C591.784 -244.611 425.767 -112.118 545.503 -10.46C655.234 82.7041 881.222 -71.1657 880.066 182.473C879.275 356.125 927.309 426.18 1063.69 479.109" stroke="#1E1D2A" stroke-width="0.578559"/>
<path d="M431.652 -279.887C600.53 -252.945 434.513 -120.452 554.249 -18.7935C663.98 74.3706 889.968 -79.4992 888.812 174.139C888.021 347.792 936.055 417.847 1072.44 470.775" stroke="#1E1D2A" stroke-width="0.578559"/>
<path d="M440.402 -288.221C609.28 -261.279 443.263 -128.786 562.999 -27.128C672.73 66.0362 898.718 -87.8337 897.562 165.805C896.771 339.457 944.805 409.512 1081.19 462.441" stroke="#1E1D2A" stroke-width="0.578559"/>
<path d="M449.141 -296.555C618.019 -269.613 452.001 -137.12 571.737 -35.4615C681.469 57.7027 907.456 -96.1671 906.301 157.471C905.509 331.124 953.543 401.179 1089.93 454.107" stroke="#1E1D2A" stroke-width="0.578559"/>
<path d="M457.887 -304.891C626.765 -277.949 460.747 -145.456 580.483 -43.7979C690.215 49.3663 916.202 -104.504 915.047 149.135C914.255 322.787 962.289 392.843 1098.67 445.771" stroke="#1E1D2A" stroke-width="0.578559"/>
<path d="M466.637 -313.225C635.515 -286.283 469.497 -153.79 589.233 -52.1314C698.965 41.0328 924.952 -112.837 923.797 140.801C923.005 314.454 971.039 384.509 1107.42 437.437" stroke="#1E1D2A" stroke-width="0.578559"/>
<path d="M475.379 -321.559C644.257 -294.617 478.239 -162.124 597.975 -60.4654C707.707 32.6988 933.694 -121.171 932.539 132.467C931.748 306.12 979.781 376.175 1116.17 429.103" stroke="#1E1D2A" stroke-width="0.578559"/>
<path d="M484.121 -329.893C652.999 -302.951 486.981 -170.458 606.718 -68.7994C716.449 24.3648 942.437 -129.505 941.281 124.133C940.49 297.786 988.524 367.841 1124.91 420.769" stroke="#1E1D2A" stroke-width="0.578559"/>
<path d="M492.863 -338.227C661.741 -311.285 495.724 -178.792 615.46 -77.1334C725.191 16.0308 951.179 -137.839 950.023 115.799C949.232 289.452 997.266 359.507 1133.65 412.435" stroke="#1E1D2A" stroke-width="0.578559"/>
<path d="M501.609 -346.561C670.487 -319.619 504.47 -187.126 624.206 -85.4679C733.937 7.69633 959.925 -146.173 958.769 107.465C957.978 281.117 1006.01 351.173 1142.4 404.101" stroke="#1E1D2A" stroke-width="0.578559"/>
</g>
<defs>
<filter id="filter0_d_26404_52627" x="331.418" y="-346.847" width="815.086" height="917.569" filterUnits="userSpaceOnUse" color-interpolation-filters="sRGB">
<feFlood flood-opacity="0" result="BackgroundImageFix"/>
<feColorMatrix in="SourceAlpha" type="matrix" values="0 0 0 0 0 0 0 0 0 0 0 0 0 0 0 0 0 0 127 0" result="hardAlpha"/>
<feOffset dy="4"/>
<feGaussianBlur stdDeviation="2"/>
<feComposite in2="hardAlpha" operator="out"/>
<feColorMatrix type="matrix" values="0 0 0 0 0 0 0 0 0 0.509804 0 0 0 0 0.627451 0 0 0 0.6 0"/>
<feBlend mode="normal" in2="BackgroundImageFix" result="effect1_dropShadow_26404_52627"/>
<feBlend mode="normal" in="SourceGraphic" in2="effect1_dropShadow_26404_52627" result="shape"/>
</filter>
</defs>
</svg>
