<svg width="888" height="532" viewBox="0 0 888 532" fill="none" xmlns="http://www.w3.org/2000/svg">
<g opacity="0.7" filter="url(#filter0_d_26404_52649)">
<path d="M552.395 710.101C383.517 683.159 549.534 550.666 429.798 449.007C320.067 355.843 94.0791 509.713 95.2347 256.075C96.0258 82.4222 47.992 12.3669 -88.3934 -40.5614" stroke="#1E1D2A" stroke-width="0.578559"/>
<path d="M543.652 718.435C374.774 691.493 540.792 559 421.056 457.341C311.324 364.177 85.3369 518.047 86.4925 264.409C87.2836 90.7562 39.2498 20.7009 -97.1356 -32.2274" stroke="#1E1D2A" stroke-width="0.578559"/>
<path d="M534.906 726.771C366.028 699.829 532.046 567.336 412.31 465.677C302.578 372.513 76.5908 526.383 77.7464 272.745C78.5375 99.0921 30.5037 29.0369 -105.882 -23.8915" stroke="#1E1D2A" stroke-width="0.578559"/>
<path d="M526.16 735.104C357.282 708.163 523.3 575.67 403.564 474.011C293.832 380.847 67.8447 534.717 69.0003 281.079C69.7914 107.426 21.7576 37.3709 -114.628 -15.5575" stroke="#1E1D2A" stroke-width="0.578559"/>
<path d="M517.418 743.438C348.54 716.497 514.558 584.004 394.821 482.345C285.09 389.181 59.1025 543.051 60.2581 289.413C61.0492 115.76 13.0154 45.7048 -123.37 -7.22352" stroke="#1E1D2A" stroke-width="0.578559"/>
<path d="M508.672 751.773C339.794 724.832 505.811 592.339 386.075 490.68C276.344 397.516 50.3564 551.386 51.512 297.748C52.3031 124.095 4.26934 54.0398 -132.116 1.11144" stroke="#1E1D2A" stroke-width="0.578559"/>
<path d="M499.926 760.106C331.048 733.165 497.065 600.672 377.329 499.013C267.598 405.849 41.6103 559.719 42.7659 306.081C43.557 132.428 -4.47676 62.3728 -140.862 9.44445" stroke="#1E1D2A" stroke-width="0.578559"/>
<path d="M491.184 768.442C322.306 741.501 488.323 609.008 368.587 507.349C258.856 414.185 32.8682 568.055 34.0237 314.416C34.8149 140.764 -13.2189 70.7087 -149.604 17.7804" stroke="#1E1D2A" stroke-width="0.578559"/>
<path d="M482.438 776.777C313.559 749.836 479.577 617.343 359.841 515.684C250.11 422.52 24.1221 576.39 25.2776 322.751C26.0688 149.099 -21.965 79.0437 -158.35 26.1154" stroke="#1E1D2A" stroke-width="0.578559"/>
<path d="M473.695 785.111C304.817 758.169 470.835 625.677 351.099 524.018C241.367 430.854 15.3799 584.724 16.5354 331.085C17.3266 157.433 -30.7072 87.3777 -167.093 34.4493" stroke="#1E1D2A" stroke-width="0.578559"/>
<path d="M464.953 793.445C296.075 766.503 462.093 634.011 342.357 532.352C232.625 439.188 6.63769 593.058 7.79325 339.419C8.58439 165.767 -39.4494 95.7117 -175.835 42.7833" stroke="#1E1D2A" stroke-width="0.578559"/>
<path d="M456.207 801.778C287.329 774.836 453.347 642.344 333.61 540.685C223.879 447.521 -2.1084 601.391 -0.952845 347.752C-0.1617 174.1 -48.1955 104.045 -184.581 51.1163" stroke="#1E1D2A" stroke-width="0.578559"/>
<path d="M447.457 810.113C278.579 783.171 444.597 650.679 324.86 549.02C215.129 455.856 -10.8584 609.726 -9.70285 356.087C-8.9117 182.435 -56.9455 112.38 -193.331 59.4513" stroke="#1E1D2A" stroke-width="0.578559"/>
<path d="M438.719 818.446C269.841 791.504 435.858 659.012 316.122 557.353C206.391 464.189 -19.5967 618.059 -18.4411 364.42C-17.65 190.768 -65.6838 120.713 -202.069 67.7843" stroke="#1E1D2A" stroke-width="0.578559"/>
<path d="M429.973 826.783C261.095 799.841 427.112 667.348 307.376 565.69C197.645 472.526 -28.3428 626.396 -27.1872 372.757C-26.3961 199.105 -74.4299 129.05 -210.815 76.1212" stroke="#1E1D2A" stroke-width="0.578559"/>
<path d="M421.223 835.116C252.345 808.174 418.362 675.681 298.626 574.023C188.895 480.859 -37.0928 634.729 -35.9372 381.09C-35.1461 207.438 -83.1799 137.383 -219.565 84.4542" stroke="#1E1D2A" stroke-width="0.578559"/>
<path d="M412.48 843.45C243.602 816.508 409.62 684.015 289.884 582.357C180.153 489.193 -45.835 643.063 -44.6794 389.424C-43.8883 215.772 -91.9221 145.717 -228.307 92.7882" stroke="#1E1D2A" stroke-width="0.578559"/>
<path d="M403.738 851.784C234.86 824.842 400.878 692.349 281.142 590.691C171.41 497.527 -54.5772 651.397 -53.4216 397.758C-52.6305 224.106 -100.664 154.051 -237.05 101.122" stroke="#1E1D2A" stroke-width="0.578559"/>
<path d="M394.996 860.118C226.118 833.176 392.136 700.683 272.4 599.025C162.668 505.861 -63.3193 659.731 -62.1638 406.092C-61.3726 232.44 -109.406 162.385 -245.792 109.456" stroke="#1E1D2A" stroke-width="0.578559"/>
<path d="M386.25 868.453C217.372 841.511 383.39 709.018 263.653 607.36C153.922 514.196 -72.0654 668.066 -70.9099 414.427C-70.1187 240.775 -118.153 170.719 -254.538 117.791" stroke="#1E1D2A" stroke-width="0.578559"/>
</g>
<defs>
<filter id="filter0_d_26404_52649" x="-258.645" y="-40.8311" width="815.086" height="917.57" filterUnits="userSpaceOnUse" color-interpolation-filters="sRGB">
<feFlood flood-opacity="0" result="BackgroundImageFix"/>
<feColorMatrix in="SourceAlpha" type="matrix" values="0 0 0 0 0 0 0 0 0 0 0 0 0 0 0 0 0 0 127 0" result="hardAlpha"/>
<feOffset dy="4"/>
<feGaussianBlur stdDeviation="2"/>
<feComposite in2="hardAlpha" operator="out"/>
<feColorMatrix type="matrix" values="0 0 0 0 0 0 0 0 0 0.509804 0 0 0 0 0.627451 0 0 0 0.6 0"/>
<feBlend mode="normal" in2="BackgroundImageFix" result="effect1_dropShadow_26404_52649"/>
<feBlend mode="normal" in="SourceGraphic" in2="effect1_dropShadow_26404_52649" result="shape"/>
</filter>
</defs>
</svg>
