<svg width="60" height="60" viewBox="0 0 60 60" fill="none" xmlns="http://www.w3.org/2000/svg">
<g opacity="0.7" clip-path="url(#clip0_22363_29191)">
<path d="M38.4646 0.160433L0.151535 38.4735C-0.05944 38.6844 -0.05944 39.0265 0.151535 39.2375L20.7573 59.8433C20.9683 60.0543 21.3104 60.0543 21.5214 59.8433L59.8344 21.5302C60.0454 21.3193 60.0454 20.9772 59.8344 20.7662L39.2286 0.160431C39.0176 -0.0505438 38.6755 -0.050544 38.4646 0.160433Z" fill="url(#paint0_linear_22363_29191)"/>
<path d="M38.8516 4.35156L55.6423 21.1423L21.1443 55.6403L4.35359 38.8495L38.8516 4.35156Z" fill="url(#paint1_linear_22363_29191)"/>
<path d="M42.2987 10.8549L49.6709 18.2272C49.3255 18.391 49.0123 18.6157 48.7463 18.8905C47.5674 20.101 47.5252 22.0534 48.6549 23.3096C48.7885 23.4584 48.9327 23.592 49.085 23.7104C49.3674 23.9295 49.4014 24.342 49.1495 24.594L24.594 49.1495C24.3409 49.4026 23.9295 49.3674 23.7104 49.085C23.592 48.9327 23.4584 48.7885 23.3096 48.6549C22.0534 47.5252 20.0998 47.5686 18.8905 48.7463C18.7768 48.8577 18.6725 48.9748 18.5788 49.0967C18.3655 49.3745 17.953 49.3967 17.7057 49.1483L10.8561 42.2987C10.6077 42.0502 10.6299 41.6389 10.9077 41.4256C11.0295 41.3319 11.1467 41.2276 11.2581 41.1139C12.437 39.9045 12.4791 37.951 11.3495 36.6948C11.2183 36.5486 11.0744 36.4145 10.9194 36.294C10.637 36.0748 10.603 35.6623 10.8549 35.4104L35.4092 10.8549C35.6623 10.6018 36.0737 10.637 36.2928 10.9194C36.4112 11.0717 36.5448 11.2147 36.6936 11.3495C37.9498 12.4791 39.9034 12.437 41.1127 11.2581C41.2264 11.1467 41.3307 11.0295 41.4245 10.9077C41.6377 10.6299 42.0502 10.6077 42.2975 10.8561L42.2987 10.8549Z" fill="url(#paint2_linear_22363_29191)"/>
<path d="M30.0016 38.0969C34.4725 38.0969 38.0969 34.4725 38.0969 30.0016C38.0969 25.5306 34.4725 21.9062 30.0016 21.9062C25.5306 21.9062 21.9062 25.5306 21.9062 30.0016C21.9062 34.4725 25.5306 38.0969 30.0016 38.0969Z" fill="url(#paint3_linear_22363_29191)"/>
<path d="M40.7223 21.9758C42.2128 21.9758 43.4211 20.7675 43.4211 19.277C43.4211 17.7864 42.2128 16.5781 40.7223 16.5781C39.2317 16.5781 38.0234 17.7864 38.0234 19.277C38.0234 20.7675 39.2317 21.9758 40.7223 21.9758Z" fill="url(#paint4_linear_22363_29191)"/>
<path d="M19.277 43.425C20.7675 43.425 21.9758 42.2167 21.9758 40.7262C21.9758 39.2357 20.7675 38.0273 19.277 38.0273C17.7864 38.0273 16.5781 39.2357 16.5781 40.7262C16.5781 42.2167 17.7864 43.425 19.277 43.425Z" fill="url(#paint5_linear_22363_29191)"/>
<path d="M59.4141 13.5938H0.585938C0.262333 13.5938 0 13.8561 0 14.1797V45.8203C0 46.1439 0.262333 46.4062 0.585938 46.4062H59.4141C59.7377 46.4062 60 46.1439 60 45.8203V14.1797C60 13.8561 59.7377 13.5938 59.4141 13.5938Z" fill="url(#paint6_linear_22363_29191)"/>
<path d="M56.4844 17.1094V42.8906H3.51562V17.1094L56.4844 17.1094Z" fill="url(#paint7_linear_22363_29191)"/>
<path d="M54.1395 24.6844V35.3156C54.1395 35.6754 53.8195 35.9449 53.4633 35.8945C53.2629 35.8664 53.0566 35.8547 52.8469 35.8617C51.0422 35.9215 49.5539 37.3781 49.4578 39.1805C49.4449 39.4184 49.4555 39.6504 49.4883 39.8766C49.5387 40.2305 49.2668 40.5469 48.9094 40.5469H11.0895C10.732 40.5469 10.4602 40.2305 10.5105 39.8766C10.5434 39.6504 10.5539 39.4172 10.541 39.1805C10.4449 37.377 8.95664 35.9215 7.15195 35.8617C6.94219 35.8547 6.73594 35.8664 6.53555 35.8945C6.1793 35.9449 5.85938 35.6754 5.85938 35.3156V24.6844C5.85938 24.3246 6.1793 24.0551 6.53555 24.1055C6.73594 24.1336 6.94219 24.1453 7.15195 24.1383C8.95664 24.0785 10.4449 22.623 10.541 20.8195C10.5539 20.5816 10.5434 20.3484 10.5105 20.1234C10.4602 19.7695 10.732 19.4531 11.0895 19.4531H48.9082C49.2656 19.4531 49.5375 19.7695 49.4871 20.1234C49.4555 20.3496 49.4437 20.5816 49.4566 20.8195C49.5527 22.623 51.041 24.0785 52.8457 24.1383C53.0555 24.1453 53.2617 24.1336 53.4621 24.1055C53.8184 24.0551 54.1383 24.3246 54.1383 24.6844H54.1395Z" fill="url(#paint8_linear_22363_29191)"/>
<path d="M30 38.7891C34.8541 38.7891 38.7891 34.8541 38.7891 30C38.7891 25.1459 34.8541 21.2109 30 21.2109C25.1459 21.2109 21.2109 25.1459 21.2109 30C21.2109 34.8541 25.1459 38.7891 30 38.7891Z" fill="url(#paint9_linear_22363_29191)"/>
<path d="M46.4648 32.9297C48.0829 32.9297 49.3945 31.618 49.3945 30C49.3945 28.382 48.0829 27.0703 46.4648 27.0703C44.8468 27.0703 43.5352 28.382 43.5352 30C43.5352 31.618 44.8468 32.9297 46.4648 32.9297Z" fill="url(#paint10_linear_22363_29191)"/>
<path d="M13.5352 32.9297C15.1532 32.9297 16.4648 31.618 16.4648 30C16.4648 28.382 15.1532 27.0703 13.5352 27.0703C11.9171 27.0703 10.6055 28.382 10.6055 30C10.6055 31.618 11.9171 32.9297 13.5352 32.9297Z" fill="url(#paint11_linear_22363_29191)"/>
<path d="M33.7668 25.7625H32.0254C32.2773 26.1656 32.4402 26.6203 32.5141 27.1266H34.2297L33.7574 28.9371H32.4965C32.3652 29.7316 32.0605 30.3809 31.5824 30.8848C31.1043 31.3875 30.4258 31.7742 29.5457 32.0426L33.0285 36.3152V36.4441H29.8035L25.866 31.7437L25.8578 30.0879H27.8828C28.7008 30.0703 29.2293 29.6871 29.4695 28.9383H25.6094L26.0816 27.1277H29.4016C29.1496 26.584 28.6586 26.3016 27.9262 26.2781H25.6188L26.1672 23.9531H34.2391L33.7668 25.7625Z" fill="url(#paint12_linear_22363_29191)"/>
</g>
<defs>
<linearGradient id="paint0_linear_22363_29191" x1="19.3036" y1="19.3124" x2="40.6739" y2="40.6828" gradientUnits="userSpaceOnUse">
<stop stop-color="#91C553"/>
<stop offset="1" stop-color="#60A113"/>
</linearGradient>
<linearGradient id="paint1_linear_22363_29191" x1="21.5984" y1="21.5964" x2="38.389" y2="38.387" gradientUnits="userSpaceOnUse">
<stop stop-color="#408336"/>
<stop offset="1" stop-color="#0A4B00"/>
</linearGradient>
<linearGradient id="paint2_linear_22363_29191" x1="30.0019" y1="20.2814" x2="30.0019" y2="39.7098" gradientUnits="userSpaceOnUse">
<stop stop-color="#91C553"/>
<stop offset="1" stop-color="#60A113"/>
</linearGradient>
<linearGradient id="paint3_linear_22363_29191" x1="21.8991" y1="30.0016" x2="38.0908" y2="30.0016" gradientUnits="userSpaceOnUse">
<stop stop-color="#408336"/>
<stop offset="1" stop-color="#0A4B00"/>
</linearGradient>
<linearGradient id="paint4_linear_22363_29191" x1="27.293" y1="14.8347" x2="32.6907" y2="14.8347" gradientUnits="userSpaceOnUse">
<stop stop-color="#408336"/>
<stop offset="1" stop-color="#0A4B00"/>
</linearGradient>
<linearGradient id="paint5_linear_22363_29191" x1="27.2941" y1="45.1673" x2="32.6919" y2="45.1673" gradientUnits="userSpaceOnUse">
<stop stop-color="#408336"/>
<stop offset="1" stop-color="#0A4B00"/>
</linearGradient>
<linearGradient id="paint6_linear_22363_29191" x1="6.96797" y1="6.96797" x2="53.032" y2="53.032" gradientUnits="userSpaceOnUse">
<stop stop-color="#AEED64"/>
<stop offset="1" stop-color="#78C918"/>
</linearGradient>
<linearGradient id="paint7_linear_22363_29191" x1="10.3125" y1="10.3125" x2="49.6875" y2="49.6875" gradientUnits="userSpaceOnUse">
<stop stop-color="#53AB46"/>
<stop offset="1" stop-color="#107300"/>
</linearGradient>
<linearGradient id="paint8_linear_22363_29191" x1="15.15" y1="15.15" x2="44.8488" y2="44.8488" gradientUnits="userSpaceOnUse">
<stop stop-color="#AEED64"/>
<stop offset="1" stop-color="#78C918"/>
</linearGradient>
<linearGradient id="paint9_linear_22363_29191" x1="23.7855" y1="36.2145" x2="36.2145" y2="23.7855" gradientUnits="userSpaceOnUse">
<stop stop-color="#53AB46"/>
<stop offset="1" stop-color="#107300"/>
</linearGradient>
<linearGradient id="paint10_linear_22363_29191" x1="27.9281" y1="15.607" x2="32.0719" y2="11.4633" gradientUnits="userSpaceOnUse">
<stop stop-color="#53AB46"/>
<stop offset="1" stop-color="#107300"/>
</linearGradient>
<linearGradient id="paint11_linear_22363_29191" x1="27.9281" y1="48.5367" x2="32.0719" y2="44.393" gradientUnits="userSpaceOnUse">
<stop stop-color="#53AB46"/>
<stop offset="1" stop-color="#107300"/>
</linearGradient>
<linearGradient id="paint12_linear_22363_29191" x1="25.9715" y1="24.1477" x2="35.6477" y2="33.8238" gradientUnits="userSpaceOnUse">
<stop stop-color="#AEED64"/>
<stop offset="1" stop-color="#78C918"/>
</linearGradient>
<clipPath id="clip0_22363_29191">
<rect width="60" height="60" fill="white"/>
</clipPath>
</defs>
</svg>
