<svg width="46" height="46" viewBox="0 0 46 46" fill="none" xmlns="http://www.w3.org/2000/svg">
<g clip-path="url(#clip0_20472_24195)">
<path d="M23 46C35.7025 46 46 35.7025 46 23C46 10.2975 35.7025 0 23 0C10.2975 0 0 10.2975 0 23C0 35.7025 10.2975 46 23 46Z" fill="#EAB14D"/>
<path d="M22.9992 0C22.5887 0 22.1807 0.0112305 21.7754 0.0324336C33.909 0.668707 43.5516 10.708 43.5516 23C43.5516 35.292 33.909 45.3313 21.7754 45.9676C22.1807 45.9888 22.5887 46 22.9992 46C35.7018 46 45.9992 35.7026 45.9992 23C45.9992 10.2974 35.7018 0 22.9992 0Z" fill="#E49542"/>
<path d="M23.0008 40.9234C32.8992 40.9234 40.9234 32.8992 40.9234 23.0008C40.9234 13.1024 32.8992 5.07812 23.0008 5.07812C13.1024 5.07812 5.07812 13.1024 5.07812 23.0008C5.07812 32.8992 13.1024 40.9234 23.0008 40.9234Z" fill="#F4FBFF"/>
<path d="M22.9993 5.07812C22.5029 5.07812 22.0115 5.09924 21.5254 5.13877C30.7343 5.88843 37.9743 13.5987 37.9743 23.0008C37.9743 32.4028 30.7343 40.1131 21.5254 40.8628C22.0115 40.9024 22.5029 40.9235 22.9993 40.9235C32.8977 40.9235 40.9219 32.8992 40.9219 23.0009C40.9219 13.1025 32.8977 5.07812 22.9993 5.07812Z" fill="#DAF1F4"/>
<path d="M22.9988 10.5926C22.6155 10.5926 22.3047 10.2819 22.3047 9.89851V8.87968C22.3047 8.49632 22.6155 8.18555 22.9988 8.18555C23.3822 8.18555 23.693 8.49632 23.693 8.87968V9.89851C23.693 10.2819 23.3822 10.5926 22.9988 10.5926Z" fill="#2B4D66"/>
<path d="M32.2254 14.4447C32.0477 14.4447 31.8701 14.3768 31.7345 14.2414C31.4635 13.9702 31.4635 13.5308 31.7346 13.2596L32.4551 12.5393C32.7261 12.2681 33.1657 12.2682 33.4368 12.5393C33.7079 12.8104 33.7079 13.2498 33.4367 13.521L32.7163 14.2414C32.5807 14.3768 32.4031 14.4447 32.2254 14.4447Z" fill="#2B4D66"/>
<path d="M37.043 23.693H36.0242C35.6408 23.693 35.3301 23.3822 35.3301 22.9988C35.3301 22.6155 35.6408 22.3047 36.0242 22.3047H37.043C37.4265 22.3047 37.7372 22.6155 37.7372 22.9988C37.7372 23.3822 37.4264 23.693 37.043 23.693Z" fill="#2B4D66"/>
<path d="M32.8911 33.64C32.7135 33.64 32.5358 33.5721 32.4002 33.4367L31.6799 32.7163C31.4088 32.4451 31.4088 32.0057 31.6799 31.7345C31.951 31.4635 32.3904 31.4635 32.6617 31.7345L33.382 32.4548C33.6531 32.726 33.6531 33.1654 33.382 33.4367C33.2465 33.5721 33.0688 33.64 32.8911 33.64Z" fill="#2B4D66"/>
<path d="M22.9226 37.7372C22.5393 37.7372 22.2285 37.4264 22.2285 37.043V36.0242C22.2285 35.6408 22.5393 35.3301 22.9226 35.3301C23.306 35.3301 23.6168 35.6408 23.6168 36.0242V37.043C23.6168 37.4264 23.306 37.7372 22.9226 37.7372Z" fill="#2B4D66"/>
<path d="M12.9773 33.5853C12.7997 33.5853 12.622 33.5175 12.4865 33.3819C12.2154 33.1108 12.2155 32.6713 12.4865 32.4002L13.207 31.6798C13.4781 31.4088 13.9176 31.4088 14.1887 31.6799C14.4598 31.951 14.4598 32.3905 14.1886 32.6616L13.4682 33.382C13.3327 33.5176 13.155 33.5853 12.9773 33.5853Z" fill="#2B4D66"/>
<path d="M9.89851 23.6168H8.87968C8.49632 23.6168 8.18555 23.306 8.18555 22.9226C8.18555 22.5393 8.49632 22.2285 8.87968 22.2285H9.89851C10.2819 22.2285 10.5926 22.5393 10.5926 22.9226C10.5927 23.306 10.2819 23.6168 9.89851 23.6168Z" fill="#2B4D66"/>
<path d="M13.7505 14.3919C13.5729 14.3919 13.3953 14.3242 13.2597 14.1886L12.5393 13.4683C12.2682 13.1971 12.2681 12.7577 12.5392 12.4865C12.8103 12.2155 13.2498 12.2154 13.5209 12.4865L14.2414 13.2069C14.5124 13.478 14.5125 13.9175 14.2415 14.1886C14.1058 14.3241 13.9282 14.3919 13.7505 14.3919Z" fill="#2B4D66"/>
<path d="M22.9998 23.6951H17.1043C16.7209 23.6951 16.4102 23.3842 16.4102 23.0009C16.4102 22.6175 16.7209 22.3068 17.1043 22.3068H22.3056V13.4754C22.3056 13.092 22.6164 12.7812 22.9997 12.7812C23.3831 12.7812 23.6939 13.092 23.6939 13.4754V23.0009C23.694 23.3842 23.3832 23.6951 22.9998 23.6951Z" fill="#2B4D66"/>
<path d="M30.1225 27.3557C30.0156 27.3557 29.9072 27.3309 29.8056 27.2787L22.6835 23.6163C22.3425 23.441 22.2083 23.0225 22.3836 22.6816C22.5589 22.3406 22.9774 22.2063 23.3184 22.3817L30.4405 26.044C30.7815 26.2194 30.9158 26.6379 30.7404 26.9787C30.6173 27.2182 30.3743 27.3557 30.1225 27.3557Z" fill="#DA4A54"/>
<path d="M22.9992 24.852C24.0225 24.852 24.852 24.0225 24.852 22.9992C24.852 21.976 24.0225 21.1465 22.9992 21.1465C21.976 21.1465 21.1465 21.976 21.1465 22.9992C21.1465 24.0225 21.976 24.852 22.9992 24.852Z" fill="#365E7D"/>
</g>
<defs>
<clipPath id="clip0_20472_24195">
<rect width="46" height="46" fill="white"/>
</clipPath>
</defs>
</svg>
