<svg width="235" height="82" viewBox="0 0 235 82" fill="none" xmlns="http://www.w3.org/2000/svg">
<g clip-path="url(#clip0_74_14131)">
<path d="M92.6446 63.467C92.6446 63.7034 92.6825 63.9019 92.7676 64.0721C92.8526 64.2423 92.9661 64.3747 93.0985 64.4881C93.2403 64.5827 93.401 64.6678 93.5806 64.7245C93.7603 64.7907 93.9588 64.819 94.1668 64.819C94.1763 64.819 94.1952 64.819 94.2141 64.819C94.233 64.819 94.2519 64.819 94.2708 64.819C94.5923 64.8096 94.8854 64.7339 95.1501 64.5921C95.4148 64.4503 95.5472 64.2045 95.5472 63.8452C95.5472 63.5238 95.3581 63.2969 94.9705 63.1456C94.5828 63.0038 94.129 62.8714 93.5806 62.7579C93.3537 62.7201 93.1363 62.6729 92.8999 62.635C92.673 62.5972 92.4366 62.5405 92.2003 62.4838C91.3494 62.2758 90.5835 61.9449 89.8839 61.5005C89.1843 61.0561 88.8439 60.3092 88.8439 59.2503C88.8439 58.0969 89.2505 57.2554 90.073 56.7259C90.8956 56.1965 91.7937 55.8656 92.7676 55.7238C92.9756 55.6954 93.1836 55.6765 93.3916 55.6576C93.5996 55.6387 93.8075 55.6387 94.0155 55.6387C94.1857 55.6387 94.3559 55.6387 94.5261 55.6481C94.6963 55.6576 94.8665 55.667 95.0366 55.6765C96.0766 55.7616 97.0505 56.0358 97.9392 56.499C98.8279 56.9623 99.329 57.8227 99.4425 59.0801H95.4999C95.4905 58.9099 95.4432 58.7587 95.3676 58.6358C95.2919 58.5129 95.1974 58.3994 95.0839 58.2954C94.9705 58.2009 94.8381 58.1252 94.6868 58.0779C94.5355 58.0401 94.3748 58.0118 94.2046 58.0118C93.8265 58.0118 93.5334 58.0685 93.3065 58.1914C93.0795 58.3143 92.9756 58.5034 92.9756 58.787C92.9756 59.0423 93.1457 59.2314 93.4861 59.3732C93.8265 59.515 94.2519 59.6379 94.753 59.7514C95.0177 59.8081 95.2919 59.8649 95.5756 59.931C95.8592 59.9972 96.1523 60.0634 96.4454 60.1296C97.3057 60.3565 98.0999 60.6969 98.809 61.1507C99.5181 61.6045 99.8868 62.3514 99.8868 63.3819C99.8868 64.5259 99.4046 65.443 98.4497 66.1332C97.4854 66.8329 96.0105 67.1732 94.0061 67.1732C93.8926 67.1732 93.7792 67.1732 93.6752 67.1732C93.5617 67.1732 93.4483 67.1638 93.3159 67.1543C92.1719 67.0881 91.1225 66.7856 90.1486 66.2656C89.1748 65.7456 88.6359 64.8096 88.5225 63.467H92.6446Z" fill="#059BB6"/>
<path d="M101.513 55.9318H105.493V57.5579C105.55 57.4918 105.616 57.4161 105.682 57.331C105.749 57.2459 105.824 57.1609 105.909 57.0569C106.24 56.707 106.675 56.3856 107.214 56.083C107.753 55.7805 108.33 55.6387 108.954 55.6387C109.937 55.6387 110.712 55.8278 111.279 56.2059C111.847 56.5841 112.253 57.0663 112.518 57.643C112.991 56.9907 113.539 56.4896 114.154 56.1492C114.768 55.8089 115.487 55.6387 116.29 55.6387C117.888 55.6387 118.985 56.0641 119.59 56.915C120.186 57.7659 120.488 58.9289 120.488 60.4227V66.8707H116.149V61.3019C116.149 60.5078 116.045 59.9405 115.846 59.5907C115.647 59.2409 115.26 59.0707 114.693 59.0707C114.05 59.0707 113.643 59.307 113.454 59.7892C113.265 60.2714 113.17 60.8387 113.17 61.491V66.8707H108.831V61.3019C108.831 60.5078 108.727 59.9405 108.528 59.5907C108.33 59.2409 107.942 59.0707 107.375 59.0707C106.732 59.0707 106.325 59.307 106.136 59.7892C105.947 60.2714 105.853 60.8387 105.853 61.491V66.8707H101.513V55.9318Z" fill="#059BB6"/>
<path d="M130.179 66.8612L129.971 65.6889C129.357 66.275 128.723 66.6627 128.071 66.8707C127.418 67.0692 126.681 67.1732 125.858 67.1732C124.828 67.1732 123.92 66.9085 123.135 66.3885C122.351 65.8685 121.954 65.0365 121.954 63.8925C121.954 62.6539 122.36 61.803 123.173 61.3492C123.986 60.8954 124.885 60.5739 125.858 60.4132C126.095 60.3849 126.331 60.3565 126.577 60.3187C126.823 60.2809 127.059 60.2525 127.295 60.2241C127.976 60.139 128.553 60.035 129.026 59.9027C129.498 59.7703 129.735 59.515 129.735 59.1463C129.735 58.8816 129.65 58.683 129.47 58.5601C129.3 58.4372 129.101 58.3521 128.893 58.3143C128.78 58.2859 128.676 58.267 128.581 58.2576C128.487 58.2481 128.392 58.2481 128.307 58.2481C128.241 58.2481 128.165 58.2481 128.099 58.2576C128.033 58.267 127.957 58.267 127.872 58.267C127.626 58.3049 127.39 58.3994 127.173 58.5507C126.955 58.6925 126.832 58.9478 126.785 59.307H122.615C122.615 58.163 123.069 57.2649 123.986 56.6125C124.903 55.9601 126.435 55.6387 128.591 55.6387C131.181 55.6387 132.741 56.0641 133.28 56.9245C133.819 57.7754 134.084 58.8627 134.084 60.1674V65.2539C134.084 65.4809 134.093 65.6605 134.112 65.8212C134.131 65.9725 134.188 66.1238 134.273 66.2561C134.311 66.3223 134.367 66.3979 134.443 66.4641C134.509 66.5303 134.585 66.6059 134.67 66.6721V66.8612H130.179ZM129.319 64.0627C129.621 63.6278 129.763 63.0699 129.763 62.4081C129.763 62.3798 129.763 62.3514 129.763 62.323C129.763 62.2947 129.763 62.2663 129.763 62.2379C129.754 62.2096 129.744 62.1812 129.744 62.1434C129.744 62.1056 129.744 62.0772 129.744 62.0489C129.602 62.115 129.461 62.1812 129.319 62.2285C129.177 62.2758 129.026 62.323 128.874 62.3609C128.751 62.3892 128.619 62.4176 128.487 62.4459C128.354 62.4743 128.222 62.5027 128.099 62.531C127.655 62.6256 127.267 62.7579 126.946 62.9187C126.615 63.0794 126.454 63.3819 126.454 63.8263C126.454 64.091 126.577 64.3085 126.823 64.4692C127.069 64.6299 127.399 64.715 127.834 64.715C128.515 64.715 129.016 64.4976 129.319 64.0627Z" fill="#059BB6"/>
<path d="M136.438 55.9318H140.381V58.1441H140.418C140.721 57.2932 141.146 56.6692 141.695 56.2532C142.234 55.8467 142.933 55.6387 143.784 55.6387C143.85 55.6387 143.917 55.6387 143.983 55.6481C144.049 55.6576 144.106 55.667 144.162 55.6765C144.191 55.6765 144.219 55.6765 144.257 55.6859C144.295 55.6954 144.323 55.6954 144.351 55.6954V60.0161C144.314 60.0161 144.257 60.0161 144.21 60.0067C144.153 59.9972 144.106 59.9972 144.068 59.9972C144.039 59.9878 144.011 59.9783 143.983 59.9783C143.954 59.9783 143.935 59.9689 143.917 59.9594C143.831 59.9499 143.756 59.931 143.68 59.931C143.605 59.9216 143.529 59.9216 143.463 59.9216C142.574 59.9216 141.903 60.1579 141.458 60.6307C141.014 61.1034 140.787 61.9354 140.787 63.1172V66.8707H136.447V55.9318H136.438Z" fill="#059BB6"/>
<path d="M145.259 51.8379H159.035V55.7804H154.61V66.8612H149.684V55.7804H145.259V51.8379Z" fill="#FEFEFE"/>
<path d="M161.635 66.8517L164.764 51.9513H170.106L170.815 62.5687H170.853L175.987 51.9513H181.338L178.227 66.8517H174.559L177.348 55.024H177.31L171.429 66.8517H168.442L167.563 55.024H167.525L165.312 66.8517H161.635Z" fill="#F89822"/>
<path d="M180.96 66.8517L184.07 51.9513H195.151L194.461 55.2887H187.266L186.68 58.1062H192.872L192.248 61.1127H186.056L184.846 66.8517H180.96Z" fill="#F89822"/>
<path d="M193.733 66.8517L196.881 51.9513H202.478C204.52 51.9513 206.109 52.424 207.234 53.3695C208.482 54.4378 209.115 56.064 209.115 58.248C209.115 60.7062 208.397 62.72 206.969 64.28C205.4 65.9913 203.206 66.8422 200.398 66.8422H193.733V66.8517ZM200.048 55.2887L198.318 63.5142H200.88C202.384 63.5142 203.518 62.928 204.303 61.7651C204.917 60.8575 205.22 59.7986 205.22 58.5695C205.22 56.3855 204.237 55.2982 202.28 55.2982H200.048V55.2887Z" fill="#F89822"/>
<path d="M126.435 40.71C128.298 40.0482 129.338 38.5638 129.338 36.55V36.4743C129.338 35.2169 128.893 34.1012 128.146 33.3543C127.258 32.39 125.915 31.9362 124.204 31.9362H117.964V45.5318H120.781V41.0787H123.381L126.35 45.5318H126.36V45.6831H129.631L126.284 40.7762L126.435 40.71ZM123.986 38.6205H120.791L120.8 34.3943H123.92C125.556 34.3943 126.445 35.1412 126.445 36.4743V36.5405C126.435 37.798 125.471 38.6205 123.986 38.6205Z" fill="#FEFEFE"/>
<path d="M138.546 31.7092C134.462 31.7092 131.266 34.8292 131.266 38.7623V38.838C131.266 42.7805 134.396 45.8249 138.546 45.8249C142.631 45.8249 145.826 42.6954 145.751 38.7623C145.76 34.763 142.706 31.7092 138.546 31.7092ZM142.791 38.6961C142.791 41.2205 141.014 43.1492 138.556 43.1492C136.107 43.1492 134.245 41.2205 134.245 38.6961C134.245 36.1718 136.098 34.243 138.556 34.243C140.929 34.243 142.867 36.2474 142.791 38.6205V38.6961Z" fill="#FEFEFE"/>
<path d="M158.165 38.63L157.938 38.5543L158.165 38.4031C159.356 37.7318 159.952 36.7674 159.952 35.5005V35.4343C159.952 34.47 159.658 33.7231 159.063 33.1274C158.25 32.3805 157.058 31.9362 155.498 31.9362H149.183V45.5318H149.173V45.6831H155.64C158.836 45.6831 160.698 44.35 160.698 41.9674C160.689 40.2656 159.942 39.3012 158.165 38.63ZM151.934 34.3092H155.054C156.387 34.3092 157.134 34.9049 157.134 35.8692V35.9449C157.134 36.6162 156.756 37.5049 154.827 37.5049H151.934V34.3092ZM157.938 41.4474C157.938 42.1943 157.493 43.0831 155.631 43.0831H151.915V39.7362H155.555C157.56 39.7362 157.928 40.6249 157.928 41.3718V41.4474H157.938Z" fill="#FEFEFE"/>
<path d="M164.631 45.5412H174.89V43.083H167.458V39.9536H174.89V37.4292H164.631V45.5412Z" fill="#FEFEFE"/>
<path d="M185.819 43.1586C183.446 43.1586 181.659 41.2299 181.659 38.7056C181.659 36.1812 183.446 34.2525 185.819 34.2525C187.077 34.2525 188.192 34.6968 189.383 35.7368L191.17 33.6568C189.677 32.2386 188.041 31.6525 185.819 31.6525C181.735 31.6525 178.681 34.6968 178.681 38.715V38.7906C178.681 42.7994 181.659 45.8532 185.668 45.8532C187.975 45.8532 189.61 45.1063 191.246 43.395L189.459 41.6081C188.343 42.563 187.379 43.1586 185.819 43.1586Z" fill="#FEFEFE"/>
<path d="M201.05 31.7092C196.966 31.7092 193.77 34.8292 193.77 38.7623V38.838C193.77 42.7805 196.815 45.8249 200.975 45.8249C205.059 45.8249 208.255 42.6954 208.34 38.7623C208.34 34.763 205.21 31.7092 201.05 31.7092ZM205.286 38.6961C205.286 41.2205 203.499 43.1492 201.05 43.1492C198.677 43.1492 196.739 41.2205 196.739 38.6961C196.739 36.1718 198.526 34.243 200.975 34.243C203.348 34.243 205.286 36.2474 205.286 38.6205V38.6961Z" fill="#FEFEFE"/>
<path d="M174.89 31.9362H164.631V34.4605H174.89V31.9362Z" fill="#0B9BB6"/>
<path d="M28.1267 43.1587C25.7536 43.1587 23.9667 41.2299 23.9667 38.7056V38.6205C23.9667 36.0961 25.8198 34.1674 28.1267 34.1674C29.3842 34.1674 30.4998 34.6117 31.6911 35.6517L33.478 33.5717C31.9842 32.1536 30.3485 31.5674 28.1267 31.5674C24.0423 31.5674 20.9885 34.6117 20.9885 38.6299V38.7056C20.9885 42.6481 23.9667 45.6925 27.9754 45.6925C30.2823 45.6925 31.918 45.0212 33.5536 43.3856L31.7667 41.5987C30.6511 42.563 29.6867 43.1587 28.1267 43.1587Z" fill="#0B9BB6"/>
<path d="M40.8998 31.7092L35.019 45.4561H37.9216L39.1885 42.3361H45.211L46.478 45.4561H49.4467L43.5754 31.7092H40.8998ZM40.2285 39.8874L42.2329 34.9805L44.2372 39.8874H40.2285Z" fill="#0B9BB6"/>
<path d="M61.1893 40.5492L54.505 31.7848H51.8955V45.4561H54.6468V36.3892L61.5581 45.4561H64.0162V31.7848H61.1893V40.5492Z" fill="#0B9BB6"/>
<path d="M72.2512 31.7092L66.3799 45.4561H69.2824L70.5493 42.3361H76.5719L77.8388 45.4561H80.7981L74.9268 31.7092H72.2512ZM71.5137 39.8874L73.5181 34.9805L75.5224 39.8874H71.5137Z" fill="#0B9BB6"/>
<path d="M90.8482 40.483C92.7108 39.8212 93.7508 38.3369 93.7508 36.323V36.2474C93.7508 34.9899 93.3064 33.8743 92.5595 33.1274C91.6708 32.2387 90.3282 31.7943 88.617 31.7943H82.377V45.4656H85.1944V41.0125H87.7944L90.7631 45.4656L94.0344 45.475L90.6875 40.5681L90.8482 40.483ZM88.4657 38.5543H85.27L85.2795 34.3187H88.3995C90.0351 34.3187 90.9239 35.0656 90.9239 36.3987V36.4743C90.9144 37.7318 89.95 38.5543 88.4657 38.5543Z" fill="#0B9BB6"/>
<path d="M101.456 31.7092L95.585 45.4561H98.4875L99.7544 42.3361H105.777L107.044 45.4561H110.003L104.132 31.7092H101.456ZM100.728 39.8874L102.733 34.9805L104.737 39.8874H100.728Z" fill="#0B9BB6"/>
<path d="M144.257 51.2517H144.191V51.2612H144.257V51.2517Z" fill="#0B9BB6"/>
<path d="M156.009 51.2517H155.943V51.2612H156.009V51.2517Z" fill="#0B9BB6"/>
<path d="M185.649 51.2517H185.583V51.2612H185.649V51.2517Z" fill="#0B9BB6"/>
<path d="M-0.871094 4.17495C-0.871094 1.77312 1.07597 -0.17395 3.4778 -0.17395H229.62C232.022 -0.17395 233.969 1.77312 233.969 4.17494V21.5705H-0.871094V4.17495Z" fill="#979591" fill-opacity="0.7"/>
<path d="M59.4858 6.88904V10.8109H64.0965V12.0477H59.4858V16.8698H57.9672V5.65221H64.8793V6.88904H59.4858ZM69.1453 8.81473C69.7246 8.81473 70.2465 8.91127 70.7109 9.10437C71.1754 9.29746 71.572 9.57144 71.9008 9.92631C72.2296 10.2812 72.4801 10.7117 72.6523 11.2179C72.8297 11.7189 72.9184 12.2799 72.9184 12.9009C72.9184 13.5272 72.8297 14.0908 72.6523 14.5918C72.4801 15.0928 72.2296 15.5207 71.9008 15.8756C71.572 16.2305 71.1754 16.5044 70.7109 16.6975C70.2465 16.8854 69.7246 16.9793 69.1453 16.9793C68.5609 16.9793 68.0338 16.8854 67.5641 16.6975C67.0996 16.5044 66.703 16.2305 66.3742 15.8756C66.0455 15.5207 65.7923 15.0928 65.6149 14.5918C65.4427 14.0908 65.3566 13.5272 65.3566 12.9009C65.3566 12.2799 65.4427 11.7189 65.6149 11.2179C65.7923 10.7117 66.0455 10.2812 66.3742 9.92631C66.703 9.57144 67.0996 9.29746 67.5641 9.10437C68.0338 8.91127 68.5609 8.81473 69.1453 8.81473ZM69.1453 15.8912C69.9281 15.8912 70.5126 15.6303 70.8988 15.1084C71.285 14.5814 71.4781 13.8481 71.4781 12.9088C71.4781 11.9642 71.285 11.2284 70.8988 10.7013C70.5126 10.1742 69.9281 9.91065 69.1453 9.91065C68.7487 9.91065 68.4017 9.97849 68.1042 10.1142C67.812 10.2499 67.5667 10.4456 67.3684 10.7013C67.1753 10.957 67.0292 11.2727 66.93 11.6485C66.8361 12.019 66.7891 12.4391 66.7891 12.9088C66.7891 13.8481 66.9822 14.5814 67.3684 15.1084C67.7598 15.6303 68.3521 15.8912 69.1453 15.8912ZM76.0087 10.5291C76.2592 9.98632 76.5671 9.56361 76.9324 9.26093C77.2977 8.95302 77.7439 8.79907 78.271 8.79907C78.438 8.79907 78.5971 8.81734 78.7485 8.85387C78.905 8.8904 79.0433 8.9478 79.1634 9.02608L79.0616 10.0672C79.0303 10.1977 78.952 10.2629 78.8268 10.2629C78.7537 10.2629 78.6467 10.2473 78.5058 10.2159C78.3649 10.1846 78.2057 10.169 78.0283 10.169C77.7778 10.169 77.5534 10.2055 77.3551 10.2786C77.162 10.3516 76.9872 10.4612 76.8306 10.6073C76.6793 10.7482 76.541 10.9257 76.4157 11.1396C76.2957 11.3484 76.1861 11.5885 76.087 11.8598V16.8698H74.6857V8.93998H75.4842C75.6355 8.93998 75.7399 8.96868 75.7973 9.02608C75.8547 9.08349 75.8939 9.18265 75.9147 9.32355L76.0087 10.5291ZM94.1091 11.2649C94.1091 12.1051 93.976 12.8696 93.7099 13.5585C93.4437 14.2474 93.068 14.8371 92.5827 15.3276C92.0973 15.8182 91.5128 16.1992 90.8292 16.4705C90.1508 16.7367 89.3993 16.8698 88.5747 16.8698H84.3867V5.65221H88.5747C89.3993 5.65221 90.1508 5.7879 90.8292 6.05927C91.5128 6.32542 92.0973 6.70638 92.5827 7.20216C93.068 7.69271 93.4437 8.28242 93.7099 8.97129C93.976 9.66015 94.1091 10.4247 94.1091 11.2649ZM92.5513 11.2649C92.5513 10.576 92.4574 9.96023 92.2695 9.41749C92.0817 8.87474 91.8155 8.4155 91.4711 8.03976C91.1266 7.66401 90.7091 7.37698 90.2186 7.17867C89.728 6.98037 89.1801 6.88121 88.5747 6.88121H85.9054V15.6408H88.5747C89.1801 15.6408 89.728 15.5416 90.2186 15.3433C90.7091 15.145 91.1266 14.8606 91.4711 14.49C91.8155 14.1143 92.0817 13.655 92.2695 13.1123C92.4574 12.5696 92.5513 11.9538 92.5513 11.2649ZM97.2869 8.93998V16.8698H95.8935V8.93998H97.2869ZM97.5844 6.45067C97.5844 6.58636 97.5557 6.71421 97.4983 6.83424C97.4461 6.94905 97.373 7.05343 97.2791 7.14736C97.1904 7.23608 97.0834 7.30653 96.9581 7.35872C96.8381 7.41091 96.7103 7.437 96.5746 7.437C96.4389 7.437 96.311 7.41091 96.191 7.35872C96.0762 7.30653 95.9744 7.23608 95.8857 7.14736C95.797 7.05343 95.7265 6.94905 95.6743 6.83424C95.6222 6.71421 95.5961 6.58636 95.5961 6.45067C95.5961 6.31498 95.6222 6.18713 95.6743 6.0671C95.7265 5.94185 95.797 5.83487 95.8857 5.74615C95.9744 5.65221 96.0762 5.57915 96.191 5.52696C96.311 5.47478 96.4389 5.44868 96.5746 5.44868C96.7103 5.44868 96.8381 5.47478 96.9581 5.52696C97.0834 5.57915 97.1904 5.65221 97.2791 5.74615C97.373 5.83487 97.4461 5.94185 97.4983 6.0671C97.5557 6.18713 97.5844 6.31498 97.5844 6.45067ZM104.195 10.2473C104.132 10.3621 104.036 10.4195 103.905 10.4195C103.827 10.4195 103.738 10.3908 103.639 10.3334C103.54 10.276 103.417 10.2133 103.271 10.1455C103.13 10.0724 102.961 10.0072 102.762 9.94979C102.564 9.88717 102.329 9.85585 102.058 9.85585C101.823 9.85585 101.612 9.88717 101.424 9.94979C101.236 10.0072 101.074 10.0881 100.938 10.1925C100.808 10.2968 100.706 10.4195 100.633 10.5604C100.565 10.6961 100.531 10.8448 100.531 11.0066C100.531 11.2101 100.589 11.3797 100.704 11.5154C100.824 11.6511 100.98 11.7685 101.173 11.8677C101.366 11.9668 101.586 12.0555 101.831 12.1338C102.076 12.2069 102.327 12.2878 102.582 12.3765C102.843 12.46 103.096 12.5539 103.342 12.6583C103.587 12.7627 103.806 12.8931 103.999 13.0497C104.192 13.2062 104.346 13.3993 104.461 13.629C104.581 13.8534 104.641 14.1247 104.641 14.4431C104.641 14.8084 104.576 15.1476 104.445 15.4607C104.315 15.7686 104.122 16.0374 103.866 16.267C103.61 16.4914 103.297 16.6688 102.927 16.7993C102.556 16.9298 102.128 16.995 101.643 16.995C101.09 16.995 100.589 16.9063 100.14 16.7288C99.6912 16.5462 99.3102 16.314 98.9971 16.0322L99.3259 15.4998C99.3676 15.432 99.4172 15.3798 99.4746 15.3433C99.532 15.3068 99.6051 15.2885 99.6938 15.2885C99.7877 15.2885 99.8869 15.325 99.9913 15.3981C100.096 15.4711 100.221 15.552 100.367 15.6408C100.518 15.7295 100.701 15.8104 100.915 15.8834C101.129 15.9565 101.395 15.993 101.713 15.993C101.985 15.993 102.222 15.9591 102.426 15.8912C102.629 15.8182 102.799 15.7216 102.935 15.6016C103.07 15.4816 103.169 15.3433 103.232 15.1867C103.3 15.0302 103.334 14.8632 103.334 14.6857C103.334 14.4666 103.274 14.2865 103.154 14.1456C103.039 13.9995 102.885 13.8768 102.692 13.7777C102.499 13.6733 102.277 13.5846 102.027 13.5115C101.781 13.4333 101.528 13.3524 101.267 13.2689C101.012 13.1854 100.758 13.0914 100.508 12.9871C100.263 12.8775 100.043 12.7418 99.8503 12.58C99.6573 12.4182 99.5007 12.2199 99.3807 11.9851C99.2659 11.745 99.2085 11.4554 99.2085 11.1162C99.2085 10.8135 99.2711 10.5238 99.3963 10.2473C99.5216 9.96545 99.7042 9.72017 99.9443 9.51142C100.184 9.29746 100.479 9.12785 100.829 9.0026C101.179 8.87735 101.578 8.81473 102.027 8.81473C102.548 8.81473 103.015 8.89823 103.428 9.06523C103.845 9.227 104.205 9.45141 104.508 9.73843L104.195 10.2473ZM108.784 16.995C108.158 16.995 107.675 16.8202 107.336 16.4705C107.002 16.1209 106.835 15.6173 106.835 14.9597V10.1064H105.88C105.796 10.1064 105.726 10.0829 105.668 10.0359C105.611 9.98371 105.582 9.90543 105.582 9.80106V9.24527L106.882 9.08088L107.203 6.63071C107.218 6.55243 107.252 6.48981 107.304 6.44284C107.362 6.39066 107.435 6.36456 107.524 6.36456H108.228V9.09654H110.522V10.1064H108.228V14.8658C108.228 15.1998 108.309 15.4477 108.471 15.6094C108.633 15.7712 108.841 15.8521 109.097 15.8521C109.243 15.8521 109.368 15.8338 109.473 15.7973C109.582 15.7556 109.676 15.7112 109.755 15.6642C109.833 15.6173 109.898 15.5755 109.95 15.539C110.008 15.4972 110.057 15.4764 110.099 15.4764C110.172 15.4764 110.237 15.5207 110.295 15.6094L110.702 16.2748C110.462 16.4992 110.172 16.6767 109.833 16.8071C109.494 16.9324 109.144 16.995 108.784 16.995ZM113.283 10.5291C113.534 9.98632 113.842 9.56361 114.207 9.26093C114.572 8.95302 115.019 8.79907 115.546 8.79907C115.713 8.79907 115.872 8.81734 116.023 8.85387C116.18 8.8904 116.318 8.9478 116.438 9.02608L116.336 10.0672C116.305 10.1977 116.227 10.2629 116.102 10.2629C116.028 10.2629 115.921 10.2473 115.781 10.2159C115.64 10.1846 115.481 10.169 115.303 10.169C115.053 10.169 114.828 10.2055 114.63 10.2786C114.437 10.3516 114.262 10.4612 114.105 10.6073C113.954 10.7482 113.816 10.9257 113.691 11.1396C113.57 11.3484 113.461 11.5885 113.362 11.8598V16.8698H111.961V8.93998H112.759C112.91 8.93998 113.015 8.96868 113.072 9.02608C113.13 9.08349 113.169 9.18265 113.19 9.32355L113.283 10.5291ZM119.135 8.93998V16.8698H117.742V8.93998H119.135ZM119.432 6.45067C119.432 6.58636 119.404 6.71421 119.346 6.83424C119.294 6.94905 119.221 7.05343 119.127 7.14736C119.038 7.23608 118.931 7.30653 118.806 7.35872C118.686 7.41091 118.558 7.437 118.423 7.437C118.287 7.437 118.159 7.41091 118.039 7.35872C117.924 7.30653 117.823 7.23608 117.734 7.14736C117.645 7.05343 117.575 6.94905 117.522 6.83424C117.47 6.71421 117.444 6.58636 117.444 6.45067C117.444 6.31498 117.47 6.18713 117.522 6.0671C117.575 5.94185 117.645 5.83487 117.734 5.74615C117.823 5.65221 117.924 5.57915 118.039 5.52696C118.159 5.47478 118.287 5.44868 118.423 5.44868C118.558 5.44868 118.686 5.47478 118.806 5.52696C118.931 5.57915 119.038 5.65221 119.127 5.74615C119.221 5.83487 119.294 5.94185 119.346 6.0671C119.404 6.18713 119.432 6.31498 119.432 6.45067ZM122.826 14.9597C123.081 15.3041 123.361 15.5468 123.663 15.6877C123.971 15.8286 124.308 15.8991 124.673 15.8991C125.419 15.8991 125.991 15.6355 126.387 15.1084C126.784 14.5814 126.982 13.796 126.982 12.7522C126.982 11.7815 126.805 11.0692 126.45 10.6152C126.1 10.1559 125.599 9.92631 124.947 9.92631C124.493 9.92631 124.096 10.0307 123.757 10.2394C123.423 10.4482 123.113 10.743 122.826 11.124V14.9597ZM122.826 10.0829C123.16 9.69668 123.535 9.38878 123.953 9.15916C124.376 8.92954 124.861 8.81473 125.409 8.81473C125.873 8.81473 126.291 8.90345 126.661 9.08088C127.037 9.25832 127.355 9.51664 127.616 9.85585C127.877 10.1898 128.076 10.5969 128.211 11.077C128.352 11.5571 128.423 12.0973 128.423 12.6974C128.423 13.3393 128.344 13.9238 128.188 14.4509C128.031 14.978 127.804 15.4294 127.507 15.8051C127.215 16.1757 126.857 16.4653 126.434 16.6741C126.012 16.8776 125.537 16.9793 125.01 16.9793C124.488 16.9793 124.047 16.8828 123.687 16.6897C123.332 16.4914 123.021 16.2122 122.755 15.8521L122.685 16.5723C122.643 16.7706 122.523 16.8698 122.325 16.8698H121.424V5.33909H122.826V10.0829ZM136.706 8.93998V16.8698H135.876C135.678 16.8698 135.553 16.7732 135.5 16.5801L135.391 15.7269C135.046 16.1078 134.66 16.4157 134.232 16.6506C133.804 16.8802 133.314 16.995 132.761 16.995C132.327 16.995 131.944 16.9245 131.61 16.7836C131.281 16.6375 131.004 16.434 130.78 16.1731C130.556 15.9121 130.386 15.5964 130.271 15.2259C130.162 14.8553 130.107 14.4457 130.107 13.9969V8.93998H131.5V13.9969C131.5 14.597 131.636 15.0615 131.907 15.3903C132.184 15.719 132.604 15.8834 133.168 15.8834C133.58 15.8834 133.963 15.7869 134.318 15.5938C134.678 15.3955 135.01 15.1241 135.312 14.7797V8.93998H136.706ZM141.35 16.995C140.723 16.995 140.241 16.8202 139.902 16.4705C139.568 16.1209 139.401 15.6173 139.401 14.9597V10.1064H138.445C138.362 10.1064 138.292 10.0829 138.234 10.0359C138.177 9.98371 138.148 9.90543 138.148 9.80106V9.24527L139.447 9.08088L139.768 6.63071C139.784 6.55243 139.818 6.48981 139.87 6.44284C139.928 6.39066 140.001 6.36456 140.089 6.36456H140.794V9.09654H143.088V10.1064H140.794V14.8658C140.794 15.1998 140.875 15.4477 141.037 15.6094C141.198 15.7712 141.407 15.8521 141.663 15.8521C141.809 15.8521 141.934 15.8338 142.039 15.7973C142.148 15.7556 142.242 15.7112 142.32 15.6642C142.399 15.6173 142.464 15.5755 142.516 15.539C142.573 15.4972 142.623 15.4764 142.665 15.4764C142.738 15.4764 142.803 15.5207 142.86 15.6094L143.268 16.2748C143.027 16.4992 142.738 16.6767 142.399 16.8071C142.059 16.9324 141.71 16.995 141.35 16.995ZM147.823 8.81473C148.402 8.81473 148.924 8.91127 149.389 9.10437C149.853 9.29746 150.25 9.57144 150.578 9.92631C150.907 10.2812 151.158 10.7117 151.33 11.2179C151.507 11.7189 151.596 12.2799 151.596 12.9009C151.596 13.5272 151.507 14.0908 151.33 14.5918C151.158 15.0928 150.907 15.5207 150.578 15.8756C150.25 16.2305 149.853 16.5044 149.389 16.6975C148.924 16.8854 148.402 16.9793 147.823 16.9793C147.238 16.9793 146.711 16.8854 146.242 16.6975C145.777 16.5044 145.381 16.2305 145.052 15.8756C144.723 15.5207 144.47 15.0928 144.293 14.5918C144.12 14.0908 144.034 13.5272 144.034 12.9009C144.034 12.2799 144.12 11.7189 144.293 11.2179C144.47 10.7117 144.723 10.2812 145.052 9.92631C145.381 9.57144 145.777 9.29746 146.242 9.10437C146.711 8.91127 147.238 8.81473 147.823 8.81473ZM147.823 15.8912C148.606 15.8912 149.19 15.6303 149.576 15.1084C149.963 14.5814 150.156 13.8481 150.156 12.9088C150.156 11.9642 149.963 11.2284 149.576 10.7013C149.19 10.1742 148.606 9.91065 147.823 9.91065C147.426 9.91065 147.079 9.97849 146.782 10.1142C146.49 10.2499 146.244 10.4456 146.046 10.7013C145.853 10.957 145.707 11.2727 145.608 11.6485C145.514 12.019 145.467 12.4391 145.467 12.9088C145.467 13.8481 145.66 14.5814 146.046 15.1084C146.437 15.6303 147.03 15.8912 147.823 15.8912ZM154.686 10.5291C154.937 9.98632 155.245 9.56361 155.61 9.26093C155.975 8.95302 156.421 8.79907 156.949 8.79907C157.116 8.79907 157.275 8.81734 157.426 8.85387C157.583 8.8904 157.721 8.9478 157.841 9.02608L157.739 10.0672C157.708 10.1977 157.63 10.2629 157.504 10.2629C157.431 10.2629 157.324 10.2473 157.183 10.2159C157.043 10.1846 156.883 10.169 156.706 10.169C156.455 10.169 156.231 10.2055 156.033 10.2786C155.84 10.3516 155.665 10.4612 155.508 10.6073C155.357 10.7482 155.219 10.9257 155.093 11.1396C154.973 11.3484 154.864 11.5885 154.765 11.8598V16.8698H153.363V8.93998H154.162C154.313 8.93998 154.418 8.96868 154.475 9.02608C154.532 9.08349 154.571 9.18265 154.592 9.32355L154.686 10.5291ZM163.639 10.2473C163.576 10.3621 163.48 10.4195 163.349 10.4195C163.271 10.4195 163.182 10.3908 163.083 10.3334C162.984 10.276 162.861 10.2133 162.715 10.1455C162.574 10.0724 162.405 10.0072 162.206 9.94979C162.008 9.88717 161.773 9.85585 161.502 9.85585C161.267 9.85585 161.056 9.88717 160.868 9.94979C160.68 10.0072 160.518 10.0881 160.382 10.1925C160.252 10.2968 160.15 10.4195 160.077 10.5604C160.009 10.6961 159.975 10.8448 159.975 11.0066C159.975 11.2101 160.033 11.3797 160.148 11.5154C160.268 11.6511 160.424 11.7685 160.617 11.8677C160.81 11.9668 161.03 12.0555 161.275 12.1338C161.52 12.2069 161.771 12.2878 162.026 12.3765C162.287 12.46 162.54 12.5539 162.786 12.6583C163.031 12.7627 163.25 12.8931 163.443 13.0497C163.636 13.2062 163.79 13.3993 163.905 13.629C164.025 13.8534 164.085 14.1247 164.085 14.4431C164.085 14.8084 164.02 15.1476 163.889 15.4607C163.759 15.7686 163.566 16.0374 163.31 16.267C163.054 16.4914 162.741 16.6688 162.371 16.7993C162 16.9298 161.572 16.995 161.087 16.995C160.534 16.995 160.033 16.9063 159.584 16.7288C159.135 16.5462 158.754 16.314 158.441 16.0322L158.77 15.4998C158.812 15.432 158.861 15.3798 158.919 15.3433C158.976 15.3068 159.049 15.2885 159.138 15.2885C159.232 15.2885 159.331 15.325 159.435 15.3981C159.54 15.4711 159.665 15.552 159.811 15.6408C159.962 15.7295 160.145 15.8104 160.359 15.8834C160.573 15.9565 160.839 15.993 161.157 15.993C161.429 15.993 161.666 15.9591 161.87 15.8912C162.073 15.8182 162.243 15.7216 162.379 15.6016C162.514 15.4816 162.613 15.3433 162.676 15.1867C162.744 15.0302 162.778 14.8632 162.778 14.6857C162.778 14.4666 162.718 14.2865 162.598 14.1456C162.483 13.9995 162.329 13.8768 162.136 13.7777C161.943 13.6733 161.721 13.5846 161.47 13.5115C161.225 13.4333 160.972 13.3524 160.711 13.2689C160.455 13.1854 160.202 13.0914 159.952 12.9871C159.707 12.8775 159.487 12.7418 159.294 12.58C159.101 12.4182 158.945 12.2199 158.825 11.9851C158.71 11.745 158.652 11.4554 158.652 11.1162C158.652 10.8135 158.715 10.5238 158.84 10.2473C158.966 9.96545 159.148 9.72017 159.388 9.51142C159.628 9.29746 159.923 9.12785 160.273 9.0026C160.622 8.87735 161.022 8.81473 161.47 8.81473C161.992 8.81473 162.459 8.89823 162.872 9.06523C163.289 9.227 163.649 9.45141 163.952 9.73843L163.639 10.2473Z" fill="white"/>
</g>
<defs>
<clipPath id="clip0_74_14131">
<rect width="234.093" height="81.3071" rx="4.34889" fill="white"/>
</clipPath>
</defs>
</svg>
