<svg width="171" height="35" viewBox="0 0 171 35" fill="none" xmlns="http://www.w3.org/2000/svg">
<g clip-path="url(#clip0_9_1612)">
<path fill-rule="evenodd" clip-rule="evenodd" d="M91.1088 7.33152H94.0185C95.3869 7.33152 96.2416 6.6065 96.2416 5.44935V5.41574C96.2416 4.20578 95.4109 3.49516 93.9657 3.49516H91.1088V7.33632V7.33152ZM96.1407 13.607L93.4423 9.5786H91.1088V13.607H88.54V1.21448H94.2009C95.7326 1.21448 96.981 1.64661 97.802 2.46285C98.155 2.83679 98.4298 3.27741 98.6104 3.7589C98.791 4.24039 98.8736 4.75306 98.8535 5.2669V5.30531C98.8893 6.14113 98.6511 6.96575 98.1754 7.65386C97.6996 8.34197 97.0121 8.85594 96.2176 9.11766L96.0927 9.16087L99.1368 13.607H96.1407Z" fill="#FEFEFE"/>
<path fill-rule="evenodd" clip-rule="evenodd" d="M107.213 3.35112C106.69 3.34876 106.172 3.45228 105.691 3.65543C105.209 3.85859 104.774 4.15717 104.411 4.53316C104.048 4.90916 103.765 5.35478 103.579 5.84315C103.393 6.33152 103.308 6.85252 103.328 7.37473V7.40834C103.313 7.93361 103.403 8.45665 103.592 8.94671C103.782 9.43677 104.068 9.88395 104.433 10.262C104.798 10.64 105.235 10.9412 105.718 11.1479C106.201 11.3546 106.721 11.4626 107.246 11.4656C107.769 11.4707 108.287 11.3691 108.769 11.1671C109.251 10.9651 109.687 10.6669 110.049 10.2907C110.412 9.91449 110.694 9.46824 110.878 8.97924C111.063 8.49023 111.145 7.96877 111.121 7.44675V7.40834C111.136 6.88387 111.047 6.36162 110.858 5.87219C110.669 5.38276 110.384 4.93601 110.02 4.55813C109.656 4.18025 109.22 3.87884 108.738 3.67158C108.256 3.46432 107.737 3.35537 107.213 3.35112ZM107.213 13.8231C103.458 13.8231 100.63 11.0814 100.63 7.44675V7.40834C100.635 6.55044 100.811 5.70213 101.147 4.91309C101.484 4.12405 101.975 3.41015 102.591 2.8132C103.207 2.21626 103.937 1.74827 104.736 1.43665C105.535 1.12503 106.389 0.976037 107.246 0.998409C110.996 0.998409 113.815 3.74003 113.815 7.37473V7.40834C113.811 8.26559 113.636 9.11351 113.301 9.90243C112.966 10.6914 112.476 11.4054 111.861 12.0028C111.247 12.6002 110.519 13.0689 109.721 13.3815C108.922 13.694 108.07 13.8442 107.213 13.8231Z" fill="#FEFEFE"/>
<path fill-rule="evenodd" clip-rule="evenodd" d="M119.35 6.30393H122.001C123.734 6.30393 124.099 5.52609 124.099 4.8635V4.83469C124.099 3.95122 123.398 3.44227 122.178 3.44227H119.345V6.32313L119.35 6.30393ZM119.35 11.3743H122.735C124.444 11.3743 124.8 10.5772 124.8 9.93382V9.90021C124.8 9.23281 124.425 8.43097 122.649 8.43097H119.35V11.3983V11.3743ZM116.844 13.6069V1.20959H122.605C123.998 1.20959 125.112 1.58891 125.827 2.29952C126.102 2.56821 126.318 2.89075 126.461 3.24689C126.605 3.60302 126.674 3.98504 126.663 4.36895V4.40256C126.679 4.94999 126.536 5.49038 126.25 5.95766C125.965 6.42494 125.549 6.79888 125.054 7.03375L124.857 7.14418L125.059 7.221C126.668 7.83559 127.349 8.73346 127.349 10.2267V10.2555C127.349 12.3922 125.669 13.6165 122.735 13.6165L116.844 13.6069Z" fill="#FEFEFE"/>
<path fill-rule="evenodd" clip-rule="evenodd" d="M130.922 13.6069V6.2511H140.208V8.49818H133.471V11.3406H140.208V13.6069H130.922Z" fill="#FEFEFE"/>
<path fill-rule="evenodd" clip-rule="evenodd" d="M149.998 13.823C149.157 13.8394 148.321 13.6856 147.541 13.3707C146.761 13.0559 146.052 12.5866 145.458 11.991C144.864 11.3954 144.396 10.6858 144.083 9.90492C143.77 9.124 143.618 8.28785 143.636 7.44671V7.40829C143.622 6.55744 143.78 5.71244 144.101 4.92431C144.422 4.13618 144.899 3.42124 145.504 2.82266C146.109 2.22407 146.828 1.75424 147.62 1.44153C148.411 1.12881 149.258 0.97969 150.109 1.00317C150.998 0.95647 151.887 1.09639 152.719 1.41393C153.551 1.73147 154.307 2.2196 154.939 2.84692L153.302 4.74349C152.449 3.88667 151.298 3.39288 150.089 3.36548C147.948 3.36548 146.335 5.0988 146.335 7.38909V7.4227C146.335 9.7418 147.948 11.4799 150.089 11.4799C151.496 11.4799 152.375 10.9566 153.398 10.0395L155.02 11.6816C154.398 12.3927 153.623 12.9544 152.754 13.3252C151.884 13.6959 150.942 13.866 149.998 13.823Z" fill="#FEFEFE"/>
<path fill-rule="evenodd" clip-rule="evenodd" d="M163.87 3.35112C163.348 3.34941 162.831 3.45341 162.35 3.65685C161.869 3.8603 161.434 4.15898 161.072 4.5349C160.709 4.91083 160.426 5.35623 160.241 5.84428C160.055 6.33233 159.97 6.85293 159.99 7.37473V7.40834C159.975 7.93321 160.065 8.45586 160.254 8.9456C160.444 9.43534 160.729 9.88231 161.093 10.2603C161.458 10.6382 161.894 10.9395 162.377 11.1465C162.86 11.3535 163.379 11.4619 163.904 11.4656C164.427 11.4714 164.945 11.3703 165.428 11.1686C165.91 10.9668 166.347 10.6687 166.71 10.2924C167.073 9.91618 167.356 9.4697 167.54 8.98037C167.725 8.49104 167.807 7.96918 167.783 7.44675V7.40834C167.798 6.88364 167.708 6.36127 167.518 5.87182C167.329 5.38237 167.043 4.93567 166.679 4.55786C166.314 4.18005 165.878 3.87872 165.396 3.67151C164.914 3.4643 164.395 3.35538 163.87 3.35112ZM163.87 13.8231C160.125 13.8231 157.297 11.0814 157.297 7.44675V7.40834C157.301 6.55108 157.476 5.70328 157.812 4.91458C158.148 4.12589 158.638 3.41217 159.253 2.81523C159.869 2.21828 160.597 1.75012 161.395 1.43815C162.194 1.12618 163.047 0.976679 163.904 0.998408C167.654 0.998408 170.472 3.74003 170.472 7.37473V7.40834C170.467 8.26521 170.292 9.11253 169.956 9.90086C169.62 10.6892 169.131 11.4027 168.516 11.9999C167.901 12.597 167.174 13.0658 166.376 13.3788C165.579 13.6918 164.727 13.8428 163.87 13.8231Z" fill="#FEFEFE"/>
<path d="M140.208 1.21448H130.922V3.48556H140.208V1.21448Z" fill="#009AB6"/>
<path fill-rule="evenodd" clip-rule="evenodd" d="M6.86231 13.7222C6.02154 13.7385 5.18614 13.5848 4.40625 13.2703C3.62637 12.9558 2.91808 12.4869 2.3239 11.8918C1.72973 11.2968 1.26192 10.5878 0.948565 9.80741C0.635211 9.02704 0.48277 8.19141 0.500395 7.35067V7.31226C0.485145 6.461 0.64261 5.61549 0.963279 4.82679C1.28395 4.03809 1.76116 3.32258 2.3661 2.72348C2.97104 2.12438 3.69114 1.65412 4.48291 1.34111C5.27467 1.0281 6.12167 0.878832 6.97274 0.90233C7.86154 0.85664 8.75005 0.997512 9.58112 1.31588C10.4122 1.63425 11.1674 2.12307 11.7982 2.75089L10.1609 4.63305C9.31001 3.77653 8.16056 3.28268 6.95354 3.25504C4.8457 3.25504 3.19881 5.02197 3.19881 7.27385V7.31226C3.19881 9.63136 4.81209 11.3695 6.95354 11.3695C8.36036 11.3695 9.23903 10.8461 10.2617 9.92905L11.8894 11.5711C11.2672 12.2846 10.492 12.8486 9.62163 13.221C8.75125 13.5935 7.80807 13.7648 6.86231 13.7222Z" fill="#009AB6"/>
<path fill-rule="evenodd" clip-rule="evenodd" d="M17.9824 8.43585H21.6267L19.8021 3.98971L17.9824 8.43585ZM23.6865 13.5158L22.5341 10.6829H17.0701L15.9177 13.5158H13.3105L18.6257 1.02722H21.0265L26.3369 13.511L23.6865 13.5158Z" fill="#009AB6"/>
<path fill-rule="evenodd" clip-rule="evenodd" d="M37.3423 13.5157L31.0908 5.31007V13.5157H28.5557V1.11841H30.9612L37.0158 9.0648V1.11841H39.551V13.5157H37.3423Z" fill="#009AB6"/>
<path fill-rule="evenodd" clip-rule="evenodd" d="M46.4121 8.43585H50.0564L48.2367 3.98971L46.4121 8.43585ZM52.1162 13.5158L50.9639 10.6829H45.5047L44.3571 13.5158H41.7451L47.0747 1.02722H49.4754L54.7906 13.511L52.1162 13.5158Z" fill="#009AB6"/>
<path fill-rule="evenodd" clip-rule="evenodd" d="M58.8423 7.23545H61.7232C63.0964 7.23545 63.951 6.51043 63.951 5.34848V5.31487C63.951 4.10971 63.1204 3.4183 61.6703 3.4183H58.8183V7.25946L58.8423 7.23545ZM63.879 13.5157L61.1806 9.48253H58.8471V13.5157H56.2783V1.11841H61.9344C63.4709 1.11841 64.7193 1.54574 65.5355 2.36678C65.889 2.73937 66.1642 3.17908 66.3448 3.65988C66.5255 4.14069 66.6078 4.65284 66.587 5.16603V5.22364C66.6217 6.05866 66.383 6.88219 65.9073 7.56933C65.4316 8.25646 64.7448 8.7697 63.951 9.03119L63.831 9.0792L66.8703 13.5301L63.879 13.5157Z" fill="#009AB6"/>
<path fill-rule="evenodd" clip-rule="evenodd" d="M72.9203 8.43581H76.5646L74.7401 3.98967L72.9203 8.43581ZM78.6245 13.5157L77.4721 10.6829H72.0417L70.8845 13.5157H68.2773L73.5925 1.03198H75.9933L81.3037 13.5157H78.6245Z" fill="#009AB6"/>
<path d="M120.811 34.6132L123.24 22.9553H126.299L123.864 34.6132H120.811Z" fill="#F7971E"/>
<path d="M125.934 34.6133L127.701 26.1388H130.476L130.245 27.1663H130.279C130.556 26.7987 130.921 26.5065 131.34 26.3164C131.918 26.0315 132.554 25.8867 133.198 25.8939C133.523 25.8767 133.848 25.9248 134.154 26.0353C134.46 26.1458 134.741 26.3165 134.98 26.5373C135.201 26.7664 135.373 27.0383 135.485 27.3364C135.598 27.6345 135.648 27.9524 135.633 28.2706C135.593 28.8884 135.495 29.5009 135.34 30.1L134.327 34.6085H131.551L132.512 30.1192C132.596 29.7643 132.651 29.4029 132.675 29.0389C132.695 28.9004 132.684 28.7591 132.64 28.6261C132.597 28.493 132.523 28.3719 132.425 28.2722C132.327 28.1726 132.206 28.0971 132.074 28.0518C131.942 28.0066 131.8 27.9927 131.662 28.0114C131.325 27.992 130.99 28.073 130.7 28.2439C130.409 28.4148 130.176 28.6681 130.029 28.9716C129.765 29.6241 129.573 30.3036 129.458 30.9979L128.699 34.6133H125.934Z" fill="#F7971E"/>
<path d="M137.85 34.6132L136.809 26.1387H139.613L139.958 32.1117H139.992L142.748 26.1387H145.653L141.087 34.6132H137.85Z" fill="#F7971E"/>
<path d="M154.113 31.0506H148.005C148.005 31.2715 147.972 31.4587 147.972 31.622C147.968 31.8139 148.006 32.0043 148.082 32.1804C148.159 32.3565 148.272 32.5143 148.414 32.643C148.557 32.7717 148.725 32.8685 148.908 32.9268C149.091 32.985 149.284 33.0034 149.475 32.9808C150.325 32.9808 150.862 32.6687 151.093 32.0493H153.801C153.183 33.9219 151.703 34.8582 149.359 34.8582C148.32 34.9093 147.297 34.5837 146.479 33.9411C146.079 33.5991 145.765 33.1691 145.56 32.6851C145.355 32.2011 145.265 31.6761 145.297 31.1514C145.249 29.759 145.747 28.4027 146.685 27.3727C147.152 26.8766 147.719 26.4865 148.35 26.2289C148.98 25.9712 149.658 25.8521 150.339 25.8795C151.346 25.8376 152.332 26.1771 153.1 26.8301C153.476 27.1838 153.77 27.6155 153.962 28.0949C154.153 28.5743 154.238 29.0899 154.209 29.6054C154.208 30.0887 154.176 30.5715 154.113 31.0506ZM148.202 29.4997H151.534C151.591 29.0712 151.495 28.6366 151.266 28.2706C151.151 28.1112 150.998 27.9836 150.821 27.8996C150.644 27.8156 150.448 27.7781 150.252 27.7904C149.196 27.7904 148.519 28.3474 148.202 29.4997Z" fill="#F7971E"/>
<path d="M154.943 31.8381H157.507C157.496 31.9989 157.519 32.1603 157.575 32.3117C157.63 32.4631 157.717 32.6011 157.829 32.7167C157.977 32.8451 158.149 32.9419 158.336 33.0014C158.523 33.0608 158.719 33.0816 158.914 33.0624C159.191 33.068 159.465 33.0053 159.711 32.88C159.849 32.8197 159.965 32.7191 160.045 32.5914C160.124 32.4637 160.163 32.315 160.156 32.1647C160.15 32.0145 160.097 31.8699 160.007 31.7498C159.916 31.6298 159.791 31.54 159.649 31.4924C159.152 31.3256 158.645 31.1893 158.132 31.0842C157.548 30.9725 156.993 30.7456 156.499 30.4168C156.254 30.2175 156.06 29.9621 155.933 29.6722C155.807 29.3822 155.753 29.0662 155.774 28.7507C155.758 28.2779 155.879 27.8107 156.123 27.4052C156.367 26.9997 156.722 26.6733 157.147 26.4652C157.994 26.0469 158.931 25.8456 159.874 25.8795C160.727 25.8344 161.574 26.0272 162.323 26.4364C162.689 26.661 162.983 26.9868 163.168 27.3745C163.352 27.7622 163.421 28.1952 163.365 28.6211H160.868C160.884 28.4886 160.872 28.3543 160.834 28.2264C160.796 28.0985 160.733 27.9796 160.647 27.8769C160.538 27.7738 160.407 27.6952 160.265 27.6464C160.123 27.5975 159.972 27.5795 159.822 27.5936C158.986 27.5936 158.564 27.8625 158.564 28.3954C158.564 28.6547 158.756 28.8756 159.135 29.0148C159.236 29.0484 159.678 29.1589 160.46 29.3557C161.113 29.475 161.735 29.7248 162.29 30.0903C162.515 30.3044 162.69 30.5668 162.799 30.8579C162.909 31.1489 162.951 31.4611 162.923 31.7708C162.923 33.8227 161.483 34.847 158.602 34.8438C156.237 34.8534 155.017 33.8515 154.943 31.8381Z" fill="#F7971E"/>
<path d="M169.276 23.594L168.753 26.1388H170.5L170.126 27.9345H168.364L167.691 31.1515C167.614 31.4843 167.566 31.8233 167.547 32.1646C167.547 32.4575 167.836 32.6063 168.412 32.6063L169.276 32.5583L168.853 34.6325L167.235 34.7285C165.484 34.7285 164.609 34.2388 164.609 33.2593C164.647 32.5048 164.756 31.7556 164.935 31.0218L165.588 27.9537H164.182L164.561 26.158H165.963L166.501 23.6132L169.276 23.594Z" fill="#F7971E"/>
<path d="M69.8811 31.8717C69.8723 32.0368 69.9036 32.2015 69.9724 32.3519C70.0273 32.4744 70.1094 32.5827 70.2124 32.6688C70.318 32.7465 70.4345 32.8079 70.5582 32.8512C70.692 32.8999 70.8335 32.9243 70.9759 32.9232H71.0527C71.2731 32.9161 71.4886 32.8568 71.6817 32.7504C71.7782 32.6918 71.8561 32.607 71.9063 32.5058C71.9564 32.4047 71.9768 32.2913 71.965 32.179C71.9676 32.056 71.9295 31.9357 71.8565 31.8366C71.7836 31.7376 71.6799 31.6655 71.5617 31.6316C71.2395 31.5052 70.907 31.4072 70.5677 31.3388L70.0876 31.2427L69.6075 31.1323C69.0145 30.9808 68.4523 30.7273 67.9462 30.3833C67.6847 30.1856 67.4781 29.9243 67.3462 29.6243C67.2142 29.3243 67.1613 28.9955 67.1923 28.6692C67.1628 28.2997 67.229 27.9288 67.3846 27.5924C67.5402 27.256 67.7799 26.9653 68.0806 26.7486C68.6547 26.3519 69.3114 26.0908 70.0012 25.9851C70.15 25.9851 70.2989 25.9467 70.4525 25.9371C70.6062 25.9275 70.7502 25.9371 70.899 25.9371H71.2688H71.6337C72.3669 25.9949 73.0791 26.2094 73.7223 26.5661C74.0552 26.7727 74.3294 27.0613 74.5185 27.4044C74.7077 27.7474 74.8055 28.1334 74.8026 28.5251H71.965C71.9578 28.4074 71.925 28.2927 71.8689 28.189C71.8151 28.093 71.7471 28.0056 71.6673 27.9297C71.5853 27.8535 71.4867 27.7976 71.3792 27.7665C71.267 27.7334 71.1505 27.7173 71.0335 27.7185C70.811 27.7073 70.5895 27.7536 70.3901 27.8529C70.3116 27.8979 70.2475 27.9641 70.205 28.044C70.1625 28.1238 70.1435 28.214 70.15 28.3042C70.15 28.4963 70.2749 28.6451 70.5197 28.7508C70.813 28.8725 71.1168 28.9673 71.4272 29.0341L72.0178 29.1685L72.642 29.3221C73.2482 29.4842 73.8228 29.7471 74.3417 30.1C74.6045 30.2941 74.8134 30.5521 74.9487 30.8496C75.0839 31.147 75.1411 31.474 75.1147 31.7997C75.125 32.2061 75.0364 32.609 74.8566 32.9736C74.6768 33.3383 74.4111 33.6538 74.0824 33.8931C73.391 34.4277 72.3251 34.6934 70.8846 34.6902H70.6014H70.3469C69.5447 34.6394 68.7646 34.4062 68.0662 34.0084C67.7044 33.7834 67.4066 33.4691 67.2014 33.0958C66.9962 32.7224 66.8906 32.3025 66.8946 31.8765L69.8811 31.8717Z" fill="#009AB6"/>
<path d="M76.2578 26.1387H79.1387V27.3775L79.2731 27.2046C79.3211 27.1374 79.3787 27.0702 79.4364 26.9934C79.7164 26.7002 80.0404 26.4523 80.3967 26.2587C80.7751 26.0321 81.2087 25.9142 81.6498 25.9178C82.2376 25.8838 82.8215 26.0331 83.3207 26.3452C83.7158 26.6185 84.0254 26.998 84.2138 27.4399C84.5167 26.9793 84.9186 26.5922 85.3902 26.3068C85.8583 26.042 86.3889 25.9077 86.9266 25.9178C88.079 25.9178 88.8696 26.2379 89.2985 26.8781C89.7721 27.685 89.9976 28.6135 89.9467 29.5477V34.4596H86.8258V30.2199C86.8539 29.775 86.7783 29.3295 86.6049 28.9187C86.5182 28.7807 86.3941 28.6701 86.2471 28.5996C86.1002 28.5291 85.9362 28.5016 85.7743 28.5202C85.5856 28.4977 85.3948 28.5395 85.2327 28.6389C85.0707 28.7382 84.9468 28.8892 84.8812 29.0676C84.7383 29.4845 84.6701 29.9234 84.6796 30.364V34.4596H81.5586V30.2199C81.5882 29.7753 81.5142 29.3299 81.3425 28.9187C81.2546 28.7808 81.1296 28.6702 80.9819 28.5998C80.8342 28.5293 80.6697 28.5018 80.5071 28.5202C80.3184 28.4977 80.1276 28.5395 79.9655 28.6389C79.8035 28.7382 79.6796 28.8892 79.614 29.0676C79.4711 29.4845 79.4029 29.9234 79.4124 30.364V34.4596H76.2914L76.2578 26.1387Z" fill="#009AB6"/>
<path d="M96.8707 34.4596L96.7218 33.5522C96.3457 33.9563 95.8781 34.2643 95.3582 34.45C94.8423 34.6103 94.3043 34.6881 93.7641 34.6805C93.0661 34.6942 92.3818 34.4857 91.81 34.0851C91.5167 33.8637 91.2847 33.5711 91.136 33.2351C90.9873 32.899 90.9267 32.5305 90.9601 32.1646C90.9601 31.2043 91.253 30.5753 91.8388 30.244C92.4311 29.8926 93.0815 29.6503 93.7593 29.5286L94.2779 29.4565L94.7965 29.3845C95.2169 29.3363 95.6327 29.2544 96.04 29.1396C96.3809 29.0388 96.5538 28.8468 96.5538 28.5587C96.5605 28.4754 96.5469 28.3918 96.5143 28.3148C96.4817 28.2379 96.431 28.17 96.3665 28.1169C96.2447 28.0234 96.1037 27.9578 95.9536 27.9249C95.8795 27.9063 95.804 27.8934 95.7279 27.8865H95.5311H95.3822H95.219C95.0369 27.9199 94.8646 27.9937 94.7148 28.1025C94.6294 28.1737 94.5602 28.2624 94.5122 28.3626C94.4641 28.4629 94.4383 28.5723 94.4363 28.6835H91.4402C91.4206 28.2886 91.4979 27.895 91.6653 27.5368C91.8326 27.1786 92.0851 26.8668 92.4005 26.6285C93.0407 26.1323 94.1435 25.8859 95.7087 25.8891C97.5669 25.8891 98.6904 26.2108 99.0697 26.8494C99.481 27.6051 99.6817 28.4575 99.6507 29.3173V33.1969C99.6423 33.3392 99.6423 33.4819 99.6507 33.6242C99.6658 33.7414 99.7051 33.8542 99.766 33.9555C99.7981 34.0138 99.8386 34.0672 99.886 34.1139C99.9368 34.1703 99.9914 34.2233 100.049 34.2724V34.4164L96.8707 34.4596ZM96.2513 32.323C96.4773 31.9416 96.5889 31.5033 96.573 31.0602V30.9354C96.5675 30.9117 96.5675 30.8871 96.573 30.8634V30.7913C96.4747 30.845 96.3719 30.89 96.2657 30.9258L95.9392 31.0314L95.6655 31.0938L95.387 31.1563C95.098 31.2207 94.8176 31.319 94.5516 31.4491C94.4325 31.5181 94.336 31.6201 94.2738 31.7428C94.2115 31.8656 94.1863 32.0037 94.2011 32.1405C94.2026 32.236 94.2275 32.3297 94.2735 32.4134C94.3195 32.4971 94.3853 32.5683 94.4652 32.6207C94.6809 32.7587 94.9344 32.8258 95.1902 32.8128C95.3943 32.8302 95.5995 32.7942 95.7856 32.7083C95.9716 32.6224 96.1321 32.4897 96.2513 32.323Z" fill="#009AB6"/>
<path d="M101.374 26.1387H104.212V27.824H104.245C104.404 27.2661 104.721 26.766 105.158 26.3836C105.587 26.0532 106.119 25.8834 106.66 25.9035H106.8H106.929H106.997H107.064V29.2309H106.958C106.923 29.2263 106.888 29.2263 106.852 29.2309H106.795C106.787 29.2343 106.779 29.2361 106.771 29.2361C106.763 29.2361 106.754 29.2343 106.747 29.2309H106.574H106.42C106.156 29.2099 105.889 29.2472 105.641 29.3401C105.392 29.433 105.166 29.5793 104.98 29.7686C104.658 30.1287 104.5 30.7577 104.5 31.6604V34.5413H101.379L101.374 26.1387Z" fill="#009AB6"/>
<path d="M107.717 23.0273H117.617V26.0282H114.439V34.4596H110.9V26.0282H107.717V23.0273Z" fill="#FEFEFE"/>
</g>
<defs>
<clipPath id="clip0_9_1612">
<rect width="170" height="33.9558" fill="white" transform="translate(0.5 0.902344)"/>
</clipPath>
</defs>
</svg>
