<svg width="235" height="86" viewBox="0 0 235 86" fill="none" xmlns="http://www.w3.org/2000/svg">
<g clip-path="url(#clip0_72_12474)">
<rect width="234.843" height="85.1847" rx="4.34889" fill="#B0D8E2"/>
<g clip-path="url(#clip1_72_12474)">
<path fill-rule="evenodd" clip-rule="evenodd" d="M124.309 38.3368H127.882C129.562 38.3368 130.611 37.4465 130.611 36.0256V35.9843C130.611 34.4986 129.591 33.626 127.817 33.626H124.309V38.3427V38.3368ZM130.487 46.0427L127.174 41.0961H124.309V46.0427H121.154V30.8254H128.106C129.986 30.8254 131.519 31.3561 132.527 32.3584C132.961 32.8175 133.298 33.3586 133.52 33.9498C133.742 34.5411 133.843 35.1706 133.819 35.8016V35.8487C133.863 36.8751 133.57 37.8877 132.986 38.7326C132.402 39.5776 131.558 40.2087 130.582 40.5301L130.429 40.5831L134.167 46.0427H130.487Z" fill="#231F20"/>
<path fill-rule="evenodd" clip-rule="evenodd" d="M144.083 33.4492C143.442 33.4463 142.806 33.5734 142.215 33.8229C141.623 34.0723 141.089 34.439 140.643 34.9007C140.197 35.3624 139.85 35.9096 139.621 36.5092C139.393 37.1089 139.288 37.7487 139.313 38.3899V38.4312C139.295 39.0762 139.405 39.7185 139.638 40.3202C139.871 40.922 140.222 41.4711 140.67 41.9353C141.118 42.3995 141.655 42.7693 142.248 43.0231C142.841 43.277 143.479 43.4096 144.125 43.4132C144.766 43.4195 145.402 43.2948 145.994 43.0468C146.586 42.7987 147.121 42.4325 147.566 41.9706C148.012 41.5086 148.358 40.9606 148.585 40.3602C148.811 39.7597 148.912 39.1194 148.883 38.4784V38.4312C148.901 37.7872 148.791 37.1459 148.559 36.5449C148.327 35.9439 147.977 35.3953 147.53 34.9313C147.083 34.4673 146.548 34.0972 145.956 33.8427C145.364 33.5882 144.728 33.4544 144.083 33.4492ZM144.083 46.3081C139.473 46.3081 136 42.9416 136 38.4784V38.4312C136.006 37.3778 136.222 36.3361 136.636 35.3672C137.049 34.3983 137.652 33.5217 138.408 32.7887C139.165 32.0556 140.06 31.481 141.042 31.0983C142.023 30.7157 143.071 30.5327 144.125 30.5602C148.729 30.5602 152.19 33.9267 152.19 38.3899V38.4312C152.186 39.4839 151.971 40.5251 151.56 41.4938C151.148 42.4626 150.547 43.3394 149.792 44.073C149.037 44.8065 148.143 45.3821 147.163 45.7659C146.183 46.1497 145.136 46.334 144.083 46.3081Z" fill="#231F20"/>
<path fill-rule="evenodd" clip-rule="evenodd" d="M158.988 37.0751H162.243C164.371 37.0751 164.819 36.12 164.819 35.3064V35.271C164.819 34.1861 163.959 33.5612 162.461 33.5612H158.982V37.0987L158.988 37.0751ZM158.988 43.3012H163.145C165.244 43.3012 165.68 42.3225 165.68 41.5324V41.4911C165.68 40.6716 165.22 39.687 163.039 39.687H158.988V43.3307V43.3012ZM155.911 46.0428V30.8196H162.986C164.696 30.8196 166.063 31.2854 166.942 32.1579C167.279 32.4879 167.544 32.8839 167.72 33.3213C167.897 33.7586 167.981 34.2277 167.968 34.6991V34.7403C167.988 35.4126 167.812 36.0761 167.461 36.6499C167.111 37.2237 166.6 37.6829 165.993 37.9713L165.751 38.1069L165.999 38.2012C167.974 38.9559 168.811 40.0584 168.811 41.8921V41.9274C168.811 44.5511 166.747 46.0546 163.145 46.0546L155.911 46.0428Z" fill="#231F20"/>
<path fill-rule="evenodd" clip-rule="evenodd" d="M173.197 46.0428V37.0103H184.6V39.7695H176.328V43.2599H184.6V46.0428H173.197Z" fill="#231F20"/>
<path fill-rule="evenodd" clip-rule="evenodd" d="M196.621 46.3081C195.589 46.3282 194.562 46.1393 193.604 45.7527C192.646 45.3661 191.776 44.7899 191.046 44.0585C190.317 43.3272 189.742 42.4558 189.358 41.4969C188.974 40.538 188.787 39.5112 188.809 38.4784V38.4312C188.792 37.3864 188.985 36.3488 189.38 35.381C189.774 34.4132 190.36 33.5353 191.103 32.8003C191.845 32.0653 192.729 31.4884 193.701 31.1044C194.673 30.7204 195.713 30.5373 196.757 30.5661C197.849 30.5087 198.941 30.6806 199.962 31.0705C200.984 31.4604 201.912 32.0598 202.688 32.8301L200.678 35.159C199.631 34.1069 198.217 33.5005 196.734 33.4669C194.104 33.4669 192.123 35.5953 192.123 38.4076V38.4489C192.123 41.2966 194.104 43.4309 196.734 43.4309C198.461 43.4309 199.54 42.7883 200.796 41.6622L202.789 43.6785C202.024 44.5517 201.073 45.2415 200.005 45.6968C198.937 46.152 197.781 46.3609 196.621 46.3081Z" fill="#231F20"/>
<path fill-rule="evenodd" clip-rule="evenodd" d="M213.655 33.4491C213.014 33.4471 212.379 33.5748 211.788 33.8246C211.198 34.0744 210.664 34.4412 210.219 34.9028C209.773 35.3644 209.426 35.9113 209.198 36.5106C208.97 37.1099 208.866 37.7492 208.891 38.3899V38.4312C208.872 39.0757 208.982 39.7175 209.215 40.3188C209.447 40.9202 209.798 41.4691 210.245 41.9332C210.693 42.3973 211.229 42.7672 211.822 43.0214C212.414 43.2756 213.051 43.4088 213.696 43.4132C214.338 43.4203 214.975 43.2962 215.568 43.0485C216.16 42.8008 216.696 42.4347 217.142 41.9727C217.588 41.5107 217.935 40.9624 218.162 40.3615C218.388 39.7607 218.49 39.1199 218.46 38.4783V38.4312C218.478 37.7869 218.368 37.1454 218.135 36.5444C217.902 35.9434 217.551 35.3949 217.104 34.931C216.656 34.467 216.121 34.097 215.529 33.8426C214.937 33.5881 214.3 33.4544 213.655 33.4491ZM213.655 46.3081C209.056 46.3081 205.583 42.9415 205.583 38.4783V38.4312C205.589 37.3785 205.804 36.3375 206.216 35.369C206.629 34.4005 207.231 33.5241 207.986 32.7911C208.742 32.0581 209.636 31.4832 210.616 31.1001C211.597 30.7171 212.644 30.5335 213.696 30.5602C218.301 30.5602 221.762 33.9267 221.762 38.3899V38.4312C221.756 39.4834 221.54 40.5238 221.128 41.4918C220.716 42.4599 220.115 43.3361 219.36 44.0693C218.605 44.8026 217.712 45.3782 216.733 45.7625C215.753 46.1469 214.707 46.3324 213.655 46.3081Z" fill="#231F20"/>
<path d="M184.6 30.8254H173.197V33.6142H184.6V30.8254Z" fill="#009AB6"/>
<path fill-rule="evenodd" clip-rule="evenodd" d="M20.8592 46.1842C19.8267 46.2043 18.8009 46.0156 17.8433 45.6294C16.8856 45.2431 16.0159 44.6674 15.2863 43.9367C14.5566 43.206 13.9822 42.3354 13.5974 41.3771C13.2126 40.4189 13.0255 39.3928 13.0471 38.3604V38.3132C13.0284 37.2679 13.2217 36.2297 13.6155 35.2612C14.0092 34.2927 14.5952 33.4141 15.3381 32.6785C16.0809 31.9428 16.9651 31.3654 17.9374 30.981C18.9096 30.5966 19.9497 30.4134 20.9948 30.4422C22.0861 30.3861 23.1772 30.5591 24.1977 30.95C25.2182 31.341 26.1456 31.9412 26.9201 32.7121L24.9096 35.0233C23.8648 33.9716 22.4533 33.3651 20.9712 33.3312C18.3829 33.3312 16.3606 35.5009 16.3606 38.2661V38.3132C16.3606 41.1609 18.3416 43.2953 20.9712 43.2953C22.6987 43.2953 23.7776 42.6526 25.0334 41.5265L27.0322 43.5429C26.2681 44.419 25.3162 45.1115 24.2474 45.5688C23.1787 46.0262 22.0205 46.2365 20.8592 46.1842Z" fill="#009AB6"/>
<path fill-rule="evenodd" clip-rule="evenodd" d="M34.514 39.6928H38.989L36.7486 34.2332L34.514 39.6928ZM41.5184 45.9307L40.1034 42.4521H33.3938L31.9788 45.9307H28.7773L35.3041 30.5955H38.252L44.7729 45.9248L41.5184 45.9307Z" fill="#009AB6"/>
<path fill-rule="evenodd" clip-rule="evenodd" d="M58.2861 45.9307L50.6096 35.8546V45.9307H47.4966V30.7075H50.4504L57.8851 40.4652V30.7075H60.9982V45.9307H58.2861Z" fill="#009AB6"/>
<path fill-rule="evenodd" clip-rule="evenodd" d="M69.4237 39.6928H73.8987L71.6641 34.2332L69.4237 39.6928ZM76.428 45.9307L75.013 42.4521H68.3094L66.9002 45.9307H63.6929L70.2373 30.5955H73.1853L79.712 45.9248L76.428 45.9307Z" fill="#009AB6"/>
<path fill-rule="evenodd" clip-rule="evenodd" d="M84.688 38.2189H88.2255C89.9117 38.2189 90.9612 37.3286 90.9612 35.9018V35.8605C90.9612 34.3807 89.9412 33.5317 88.1606 33.5317H84.6585V38.2484L84.688 38.2189ZM90.8728 45.9307L87.5593 40.9782H84.6939V45.9307H81.5396V30.7075H88.4849C90.3716 30.7075 91.9045 31.2323 92.9068 32.2405C93.3409 32.698 93.6789 33.2379 93.9006 33.8283C94.1224 34.4187 94.2235 35.0476 94.198 35.6778V35.7485C94.2406 36.7739 93.9476 37.7851 93.3634 38.6289C92.7793 39.4726 91.9359 40.1029 90.9612 40.424L90.8138 40.4829L94.5459 45.9484L90.8728 45.9307Z" fill="#009AB6"/>
<path fill-rule="evenodd" clip-rule="evenodd" d="M101.975 39.6929H106.45L104.209 34.2333L101.975 39.6929ZM108.979 45.9308L107.564 42.4522H100.896L99.4749 45.9308H96.2734L102.8 30.6014H105.748L112.269 45.9308H108.979Z" fill="#009AB6"/>
<path d="M160.78 71.8373L163.764 57.5221H167.519L164.53 71.8373H160.78Z" fill="#F7971E"/>
<path d="M167.071 71.8372L169.241 61.431H172.649L172.366 62.6927H172.407C172.747 62.2413 173.195 61.8825 173.71 61.6491C174.419 61.2992 175.201 61.1214 175.992 61.1303C176.391 61.1091 176.79 61.1682 177.165 61.3039C177.541 61.4396 177.886 61.6492 178.179 61.9203C178.451 62.2016 178.662 62.5355 178.8 62.9016C178.938 63.2676 179 63.658 178.981 64.0488C178.933 64.8073 178.813 65.5595 178.621 66.2951L177.377 71.8313H173.969L175.149 66.3187C175.253 65.8829 175.32 65.4391 175.349 64.9921C175.374 64.8221 175.36 64.6486 175.307 64.4852C175.253 64.3218 175.163 64.1731 175.042 64.0507C174.921 63.9283 174.774 63.8357 174.611 63.7801C174.449 63.7245 174.275 63.7075 174.105 63.7304C173.692 63.7067 173.281 63.806 172.924 64.0159C172.567 64.2258 172.281 64.5368 172.1 64.9096C171.776 65.7107 171.541 66.5451 171.399 67.3976L170.467 71.8372H167.071Z" fill="#F7971E"/>
<path d="M181.705 71.8373L180.426 61.431H183.869L184.293 68.7655H184.335L187.719 61.431H191.286L185.679 71.8373H181.705Z" fill="#F7971E"/>
<path d="M201.674 67.4625H194.175C194.175 67.7337 194.134 67.9637 194.134 68.1641C194.129 68.3998 194.176 68.6336 194.27 68.8499C194.363 69.0661 194.502 69.2598 194.677 69.4179C194.852 69.576 195.059 69.6948 195.283 69.7663C195.508 69.8378 195.745 69.8605 195.979 69.8327C197.023 69.8327 197.683 69.4494 197.966 68.6889H201.291C200.533 70.9882 198.715 72.1379 195.838 72.1379C194.561 72.2008 193.305 71.8009 192.3 71.0118C191.81 70.5919 191.424 70.0639 191.172 69.4696C190.92 68.8752 190.81 68.2306 190.85 67.5863C190.79 65.8765 191.401 64.2111 192.554 62.9462C193.126 62.337 193.823 61.8581 194.598 61.5417C195.372 61.2253 196.205 61.079 197.04 61.1126C198.277 61.0612 199.488 61.4781 200.43 62.28C200.892 62.7143 201.254 63.2444 201.489 63.8331C201.724 64.4218 201.828 65.0548 201.792 65.6878C201.792 66.2813 201.752 66.8741 201.674 67.4625ZM194.417 65.5581H198.508C198.577 65.0319 198.46 64.4982 198.178 64.0488C198.038 63.8531 197.85 63.6964 197.632 63.5933C197.415 63.4901 197.175 63.444 196.934 63.4592C195.637 63.4592 194.806 64.1431 194.417 65.5581Z" fill="#F7971E"/>
<path d="M202.694 68.4294H205.843C205.829 68.6269 205.857 68.8251 205.925 69.011C205.993 69.1969 206.1 69.3664 206.238 69.5084C206.419 69.666 206.631 69.7849 206.86 69.8579C207.089 69.9309 207.331 69.9564 207.57 69.9329C207.91 69.9397 208.246 69.8627 208.549 69.7088C208.718 69.6348 208.861 69.5113 208.958 69.3545C209.056 69.1977 209.104 69.015 209.096 68.8306C209.087 68.6461 209.023 68.4685 208.912 68.3211C208.801 68.1737 208.647 68.0635 208.472 68.0049C207.862 67.8001 207.24 67.6328 206.609 67.5038C205.893 67.3666 205.212 67.088 204.605 66.6842C204.303 66.4395 204.065 66.1259 203.91 65.7699C203.755 65.4138 203.688 65.0258 203.714 64.6384C203.695 64.0578 203.844 63.484 204.143 62.9861C204.442 62.4882 204.879 62.0874 205.401 61.8319C206.44 61.3182 207.591 61.071 208.749 61.1126C209.796 61.0573 210.837 61.2941 211.756 61.7965C212.206 62.0723 212.566 62.4724 212.793 62.9485C213.02 63.4246 213.104 63.9562 213.036 64.4792H209.97C209.989 64.3164 209.974 64.1516 209.928 63.9945C209.881 63.8375 209.803 63.6915 209.699 63.5653C209.564 63.4387 209.404 63.3422 209.229 63.2823C209.054 63.2223 208.869 63.2002 208.685 63.2175C207.659 63.2175 207.14 63.5476 207.14 64.2021C207.14 64.5204 207.376 64.7917 207.841 64.9626C207.965 65.0039 208.508 65.1395 209.469 65.3812C210.271 65.5277 211.035 65.8345 211.715 66.2833C211.992 66.5462 212.206 66.8684 212.341 67.2258C212.476 67.5832 212.528 67.9665 212.493 68.3469C212.493 70.8664 210.725 72.1242 207.187 72.1203C204.282 72.132 202.785 70.9018 202.694 68.4294Z" fill="#F7971E"/>
<path d="M220.294 58.3062L219.651 61.431H221.797L221.337 63.636H219.173L218.348 67.5863C218.252 67.9949 218.193 68.4112 218.171 68.8303C218.171 69.19 218.525 69.3727 219.232 69.3727L220.294 69.3138L219.775 71.8608L217.788 71.9787C215.638 71.9787 214.563 71.3773 214.563 70.1746C214.609 69.2481 214.743 68.3281 214.964 67.4271L215.766 63.6596H214.038L214.504 61.4546H216.225L216.886 58.3297L220.294 58.3062Z" fill="#F7971E"/>
<path d="M98.2426 68.4707C98.2317 68.6734 98.2702 68.8757 98.3546 69.0603C98.422 69.2107 98.5228 69.3438 98.6494 69.4494C98.779 69.5448 98.922 69.6203 99.0739 69.6734C99.2383 69.7332 99.412 69.7632 99.5868 69.7619H99.6812C99.9518 69.753 100.216 69.6803 100.454 69.5496C100.572 69.4777 100.668 69.3735 100.729 69.2493C100.791 69.1251 100.816 68.9859 100.801 68.848C100.805 68.697 100.758 68.5492 100.668 68.4276C100.579 68.306 100.451 68.2175 100.306 68.1759C99.9106 68.0206 99.5022 67.9002 99.0857 67.8162L98.4961 67.6983L97.9065 67.5627C97.1784 67.3766 96.4881 67.0654 95.8665 66.6429C95.5455 66.4002 95.2918 66.0794 95.1298 65.711C94.9678 65.3425 94.9027 64.9388 94.9409 64.5381C94.9046 64.0844 94.9859 63.629 95.177 63.2159C95.3681 62.8028 95.6624 62.4459 96.0316 62.1797C96.7366 61.6926 97.543 61.372 98.39 61.2423C98.5728 61.2423 98.7555 61.1951 98.9442 61.1833C99.1329 61.1715 99.3097 61.1833 99.4925 61.1833H99.9465H100.395C101.295 61.2542 102.17 61.5176 102.959 61.9557C103.368 62.2094 103.705 62.5638 103.937 62.9851C104.169 63.4063 104.289 63.8802 104.286 64.3612H100.801C100.793 64.2167 100.752 64.0759 100.683 63.9485C100.617 63.8306 100.534 63.7233 100.436 63.6301C100.335 63.5366 100.214 63.4679 100.082 63.4297C99.9443 63.3891 99.8012 63.3692 99.6576 63.3707C99.3844 63.357 99.1123 63.4138 98.8675 63.5358C98.7712 63.591 98.6924 63.6724 98.6403 63.7704C98.5881 63.8685 98.5647 63.9793 98.5727 64.09C98.5727 64.3259 98.726 64.5086 99.0267 64.6383C99.3869 64.7878 99.7598 64.9043 100.141 64.9862L100.866 65.1513L101.633 65.3399C102.377 65.5389 103.083 65.8618 103.72 66.2951C104.043 66.5335 104.299 66.8503 104.465 67.2155C104.631 67.5808 104.701 67.9823 104.669 68.3822C104.682 68.8813 104.573 69.376 104.352 69.8238C104.131 70.2715 103.805 70.659 103.401 70.9528C102.552 71.6092 101.244 71.9355 99.4748 71.9316H99.127H98.8145C97.8294 71.8692 96.8716 71.5829 96.0139 71.0943C95.5697 70.8181 95.204 70.4322 94.952 69.9737C94.7001 69.5153 94.5703 68.9997 94.5753 68.4766L98.2426 68.4707Z" fill="#009AB6"/>
<path d="M106.072 61.431H109.61V62.9521L109.775 62.7399C109.834 62.6573 109.905 62.5748 109.975 62.4805C110.319 62.1204 110.717 61.8161 111.155 61.5784C111.619 61.3001 112.152 61.1553 112.693 61.1598C113.415 61.118 114.132 61.3013 114.745 61.6845C115.23 62.0201 115.61 62.4862 115.842 63.0288C116.214 62.4632 116.707 61.9878 117.286 61.6373C117.861 61.3122 118.513 61.1473 119.173 61.1598C120.588 61.1598 121.559 61.5528 122.086 62.339C122.667 63.3298 122.944 64.4699 122.881 65.6171V71.6486H119.049V66.4425C119.084 65.8961 118.991 65.3491 118.778 64.8447C118.671 64.6752 118.519 64.5394 118.339 64.4528C118.158 64.3662 117.957 64.3324 117.758 64.3553C117.526 64.3277 117.292 64.3791 117.093 64.501C116.894 64.623 116.742 64.8084 116.661 65.0275C116.486 65.5394 116.402 66.0783 116.414 66.6194V71.6486H112.581V66.4425C112.618 65.8965 112.527 65.3496 112.316 64.8447C112.208 64.6753 112.055 64.5396 111.873 64.453C111.692 64.3665 111.49 64.3327 111.29 64.3553C111.058 64.3277 110.824 64.3791 110.625 64.501C110.426 64.623 110.274 64.8084 110.193 65.0275C110.018 65.5394 109.934 66.0783 109.946 66.6194V71.6486H106.114L106.072 61.431Z" fill="#009AB6"/>
<path d="M131.384 71.6486L131.201 70.5343C130.739 71.0306 130.165 71.4087 129.526 71.6368C128.893 71.8336 128.232 71.9291 127.569 71.9198C126.712 71.9366 125.871 71.6806 125.169 71.1887C124.809 70.9168 124.524 70.5575 124.342 70.1449C124.159 69.7322 124.085 69.2798 124.126 68.8304C124.126 67.6512 124.485 66.8788 125.205 66.472C125.932 66.0406 126.731 65.7431 127.563 65.5935L128.2 65.5051L128.837 65.4166C129.353 65.3574 129.863 65.2569 130.364 65.1159C130.782 64.9921 130.994 64.7563 130.994 64.4025C131.003 64.3003 130.986 64.1976 130.946 64.1031C130.906 64.0087 130.844 63.9253 130.764 63.8601C130.615 63.7452 130.442 63.6647 130.257 63.6243C130.166 63.6014 130.074 63.5857 129.98 63.5771H129.739H129.556H129.355C129.132 63.6182 128.92 63.7088 128.736 63.8424C128.631 63.9298 128.546 64.0387 128.487 64.1618C128.428 64.2849 128.397 64.4193 128.394 64.5558H124.715C124.691 64.071 124.786 63.5876 124.992 63.1477C125.197 62.7079 125.507 62.325 125.894 62.0324C126.681 61.4232 128.035 61.1205 129.957 61.1244C132.238 61.1244 133.618 61.5195 134.084 62.3036C134.589 63.2316 134.835 64.2783 134.797 65.3341V70.098C134.787 70.2727 134.787 70.448 134.797 70.6227C134.816 70.7666 134.864 70.9052 134.939 71.0295C134.978 71.1011 135.028 71.1667 135.086 71.2241C135.149 71.2933 135.216 71.3583 135.287 71.4187V71.5955L131.384 71.6486ZM130.623 69.0249C130.9 68.5566 131.038 68.0183 131.018 67.4743V67.321C131.011 67.2919 131.011 67.2617 131.018 67.2326V67.1441C130.897 67.2101 130.771 67.2653 130.641 67.3092L130.24 67.4389L129.904 67.5156L129.562 67.5922C129.207 67.6714 128.862 67.7921 128.536 67.9519C128.39 68.0365 128.271 68.1618 128.195 68.3125C128.118 68.4632 128.087 68.6329 128.105 68.8009C128.107 68.9181 128.138 69.0332 128.194 69.1359C128.251 69.2387 128.332 69.3261 128.43 69.3905C128.695 69.5599 129.006 69.6424 129.32 69.6263C129.571 69.6477 129.823 69.6035 130.051 69.4981C130.28 69.3926 130.477 69.2296 130.623 69.0249Z" fill="#009AB6"/>
<path d="M136.914 61.431H140.399V63.5005H140.44C140.635 62.8154 141.024 62.2012 141.56 61.7317C142.088 61.326 142.74 61.1174 143.405 61.1421H143.576H143.736H143.818H143.901V65.228H143.771C143.728 65.2224 143.684 65.2224 143.641 65.228H143.571C143.561 65.2322 143.551 65.2344 143.541 65.2344C143.531 65.2344 143.521 65.2322 143.512 65.228H143.299H143.111C142.786 65.2023 142.459 65.2481 142.153 65.3621C141.848 65.4762 141.571 65.6558 141.342 65.8883C140.947 66.3305 140.752 67.1028 140.752 68.2113V71.7488H136.92L136.914 61.431Z" fill="#009AB6"/>
<path d="M144.702 57.6105H156.859V61.2954H152.956V71.6486H148.611V61.2954H144.702V57.6105Z" fill="#231F20"/>
</g>
<path d="M0 4.3489C0 1.94707 1.94707 0 4.34889 0H230.491C232.893 0 234.84 1.94707 234.84 4.34889V21.7445H0V4.3489Z" fill="#54ABBF"/>
<path d="M66.4448 7.75879V11.6806H71.0555V12.9174H66.4448V17.7395H64.9262V6.52196H71.8383V7.75879H66.4448ZM76.1043 9.68448C76.6836 9.68448 77.2055 9.78103 77.6699 9.97412C78.1344 10.1672 78.531 10.4412 78.8598 10.7961C79.1886 11.1509 79.4391 11.5815 79.6113 12.0877C79.7887 12.5887 79.8774 13.1497 79.8774 13.7707C79.8774 14.3969 79.7887 14.9606 79.6113 15.4616C79.4391 15.9625 79.1886 16.3905 78.8598 16.7453C78.531 17.1002 78.1344 17.3742 77.6699 17.5673C77.2055 17.7552 76.6836 17.8491 76.1043 17.8491C75.5198 17.8491 74.9928 17.7552 74.5231 17.5673C74.0586 17.3742 73.662 17.1002 73.3332 16.7453C73.0044 16.3905 72.7513 15.9625 72.5739 15.4616C72.4017 14.9606 72.3156 14.3969 72.3156 13.7707C72.3156 13.1497 72.4017 12.5887 72.5739 12.0877C72.7513 11.5815 73.0044 11.1509 73.3332 10.7961C73.662 10.4412 74.0586 10.1672 74.5231 9.97412C74.9928 9.78103 75.5198 9.68448 76.1043 9.68448ZM76.1043 16.761C76.8871 16.761 77.4716 16.5001 77.8578 15.9782C78.244 15.4511 78.4371 14.7179 78.4371 13.7785C78.4371 12.8339 78.244 12.0981 77.8578 11.571C77.4716 11.0439 76.8871 10.7804 76.1043 10.7804C75.7077 10.7804 75.3607 10.8482 75.0632 10.9839C74.771 11.1196 74.5257 11.3153 74.3274 11.571C74.1343 11.8267 73.9882 12.1425 73.889 12.5182C73.7951 12.8887 73.7481 13.3088 73.7481 13.7785C73.7481 14.7179 73.9412 15.4511 74.3274 15.9782C74.7188 16.5001 75.3111 16.761 76.1043 16.761ZM82.9677 11.3988C83.2182 10.8561 83.5261 10.4334 83.8914 10.1307C84.2567 9.82277 84.7029 9.66882 85.23 9.66882C85.397 9.66882 85.5561 9.68709 85.7075 9.72362C85.864 9.76015 86.0023 9.81756 86.1223 9.89584L86.0206 10.937C85.9893 11.0674 85.911 11.1327 85.7857 11.1327C85.7127 11.1327 85.6057 11.117 85.4648 11.0857C85.3239 11.0544 85.1647 11.0387 84.9873 11.0387C84.7368 11.0387 84.5124 11.0753 84.3141 11.1483C84.121 11.2214 83.9462 11.331 83.7896 11.4771C83.6383 11.618 83.5 11.7954 83.3747 12.0094C83.2547 12.2181 83.1451 12.4582 83.0459 12.7296V17.7395H81.6447V9.80973H82.4432C82.5945 9.80973 82.6989 9.83843 82.7563 9.89584C82.8137 9.95324 82.8528 10.0524 82.8737 10.1933L82.9677 11.3988ZM92.8643 17.7395H91.3457V6.52196H92.8643V17.7395ZM96.5977 10.9604C96.7699 10.7674 96.9526 10.5925 97.1457 10.436C97.3387 10.2794 97.5423 10.1463 97.7562 10.0367C97.9754 9.92193 98.205 9.83582 98.4451 9.77842C98.6904 9.71579 98.9539 9.68448 99.2357 9.68448C99.6689 9.68448 100.05 9.75754 100.379 9.90366C100.713 10.0446 100.989 10.2481 101.208 10.5142C101.433 10.7752 101.602 11.0909 101.717 11.4614C101.832 11.832 101.889 12.2416 101.889 12.6904V17.7395H100.488V12.6904C100.488 12.0903 100.35 11.6258 100.073 11.297C99.802 10.9631 99.3871 10.7961 98.8287 10.7961C98.4164 10.7961 98.0302 10.8952 97.6701 11.0935C97.3153 11.2918 96.9865 11.5606 96.6838 11.8998V17.7395H95.2826V9.80973H96.1202C96.3185 9.80973 96.4411 9.90627 96.4881 10.0994L96.5977 10.9604ZM110.639 9.80973L107.406 17.7395H106.154L102.921 9.80973H104.056C104.171 9.80973 104.265 9.83843 104.338 9.89584C104.411 9.95324 104.46 10.0211 104.486 10.0994L106.498 15.2032C106.561 15.3963 106.616 15.5842 106.663 15.7668C106.71 15.9495 106.754 16.1322 106.796 16.3148C106.837 16.1322 106.882 15.9495 106.929 15.7668C106.976 15.5842 107.033 15.3963 107.101 15.2032L109.136 10.0994C109.168 10.0159 109.22 9.94802 109.293 9.89584C109.366 9.83843 109.452 9.80973 109.551 9.80973H110.639ZM117.01 12.9096C117.01 12.5861 116.963 12.2912 116.87 12.0251C116.781 11.7537 116.648 11.5215 116.47 11.3284C116.298 11.1301 116.087 10.9787 115.836 10.8743C115.586 10.7647 115.301 10.7099 114.983 10.7099C114.315 10.7099 113.785 10.9056 113.394 11.297C113.008 11.6832 112.768 12.2208 112.674 12.9096H117.01ZM118.138 16.6279C117.965 16.8367 117.759 17.0193 117.519 17.1759C117.279 17.3272 117.021 17.4525 116.744 17.5516C116.473 17.6508 116.191 17.7238 115.899 17.7708C115.607 17.823 115.317 17.8491 115.03 17.8491C114.482 17.8491 113.976 17.7578 113.511 17.5751C113.052 17.3872 112.653 17.1159 112.314 16.761C111.98 16.4009 111.719 15.9573 111.531 15.4302C111.343 14.9032 111.249 14.2978 111.249 13.6141C111.249 13.061 111.333 12.5443 111.5 12.0642C111.672 11.5841 111.917 11.1692 112.235 10.8195C112.554 10.4647 112.942 10.1881 113.402 9.98977C113.861 9.78624 114.378 9.68448 114.952 9.68448C115.427 9.68448 115.865 9.76537 116.267 9.92715C116.674 10.0837 117.023 10.3133 117.316 10.616C117.613 10.9135 117.845 11.284 118.012 11.7276C118.179 12.166 118.263 12.667 118.263 13.2306C118.263 13.4498 118.239 13.5959 118.192 13.6689C118.146 13.742 118.057 13.7785 117.926 13.7785H112.627C112.642 14.2795 112.71 14.7153 112.83 15.0858C112.956 15.4563 113.128 15.7668 113.347 16.0173C113.566 16.2626 113.827 16.4479 114.13 16.5731C114.432 16.6932 114.772 16.7532 115.147 16.7532C115.497 16.7532 115.797 16.714 116.048 16.6358C116.303 16.5523 116.523 16.4635 116.705 16.3696C116.888 16.2757 117.039 16.1896 117.159 16.1113C117.284 16.0278 117.391 15.986 117.48 15.986C117.595 15.986 117.684 16.0304 117.746 16.1191L118.138 16.6279ZM124.593 11.117C124.53 11.2318 124.434 11.2892 124.303 11.2892C124.225 11.2892 124.136 11.2605 124.037 11.2031C123.938 11.1457 123.815 11.0831 123.669 11.0152C123.528 10.9422 123.359 10.8769 123.16 10.8195C122.962 10.7569 122.727 10.7256 122.456 10.7256C122.221 10.7256 122.01 10.7569 121.822 10.8195C121.634 10.8769 121.472 10.9578 121.337 11.0622C121.206 11.1666 121.104 11.2892 121.031 11.4301C120.963 11.5658 120.929 11.7145 120.929 11.8763C120.929 12.0799 120.987 12.2495 121.102 12.3851C121.222 12.5208 121.378 12.6382 121.571 12.7374C121.764 12.8366 121.984 12.9253 122.229 13.0036C122.474 13.0766 122.725 13.1575 122.98 13.2462C123.241 13.3297 123.494 13.4237 123.74 13.528C123.985 13.6324 124.204 13.7629 124.397 13.9194C124.59 14.076 124.744 14.2691 124.859 14.4987C124.979 14.7231 125.039 14.9945 125.039 15.3128C125.039 15.6781 124.974 16.0173 124.843 16.3305C124.713 16.6384 124.52 16.9071 124.264 17.1367C124.008 17.3611 123.695 17.5386 123.325 17.669C122.954 17.7995 122.526 17.8648 122.041 17.8648C121.488 17.8648 120.987 17.776 120.538 17.5986C120.089 17.4159 119.708 17.1837 119.395 16.9019L119.724 16.3696C119.766 16.3018 119.815 16.2496 119.873 16.213C119.93 16.1765 120.003 16.1582 120.092 16.1582C120.186 16.1582 120.285 16.1948 120.389 16.2678C120.494 16.3409 120.619 16.4218 120.765 16.5105C120.916 16.5992 121.099 16.6801 121.313 16.7532C121.527 16.8262 121.793 16.8628 122.112 16.8628C122.383 16.8628 122.62 16.8288 122.824 16.761C123.027 16.6879 123.197 16.5914 123.333 16.4714C123.468 16.3513 123.568 16.213 123.63 16.0565C123.698 15.8999 123.732 15.7329 123.732 15.5555C123.732 15.3363 123.672 15.1563 123.552 15.0154C123.437 14.8692 123.283 14.7466 123.09 14.6474C122.897 14.5431 122.675 14.4543 122.425 14.3813C122.179 14.303 121.926 14.2221 121.665 14.1386C121.41 14.0551 121.156 13.9612 120.906 13.8568C120.661 13.7472 120.442 13.6115 120.248 13.4498C120.055 13.288 119.899 13.0897 119.779 12.8548C119.664 12.6148 119.607 12.3251 119.607 11.9859C119.607 11.6832 119.669 11.3936 119.794 11.117C119.92 10.8352 120.102 10.5899 120.342 10.3812C120.582 10.1672 120.877 9.9976 121.227 9.87235C121.577 9.7471 121.976 9.68448 122.425 9.68448C122.946 9.68448 123.414 9.76798 123.826 9.93498C124.243 10.0968 124.603 10.3212 124.906 10.6082L124.593 11.117ZM129.182 17.8648C128.556 17.8648 128.073 17.6899 127.734 17.3403C127.4 16.9906 127.233 16.487 127.233 15.8295V10.9761H126.278C126.194 10.9761 126.124 10.9526 126.066 10.9056C126.009 10.8535 125.98 10.7752 125.98 10.6708V10.115L127.28 9.95063L127.601 7.50046C127.616 7.42218 127.65 7.35956 127.703 7.31259C127.76 7.26041 127.833 7.23431 127.922 7.23431H128.626V9.96629H130.92V10.9761H128.626V15.7355C128.626 16.0695 128.707 16.3174 128.869 16.4792C129.031 16.641 129.239 16.7219 129.495 16.7219C129.641 16.7219 129.767 16.7036 129.871 16.6671C129.98 16.6253 130.074 16.581 130.153 16.534C130.231 16.487 130.296 16.4453 130.348 16.4087C130.406 16.367 130.455 16.3461 130.497 16.3461C130.57 16.3461 130.635 16.3905 130.693 16.4792L131.1 17.1446C130.86 17.369 130.57 17.5464 130.231 17.6769C129.892 17.8021 129.542 17.8648 129.182 17.8648ZM135.655 9.68448C136.235 9.68448 136.756 9.78103 137.221 9.97412C137.685 10.1672 138.082 10.4412 138.411 10.7961C138.74 11.1509 138.99 11.5815 139.162 12.0877C139.34 12.5887 139.428 13.1497 139.428 13.7707C139.428 14.3969 139.34 14.9606 139.162 15.4616C138.99 15.9625 138.74 16.3905 138.411 16.7453C138.082 17.1002 137.685 17.3742 137.221 17.5673C136.756 17.7552 136.235 17.8491 135.655 17.8491C135.071 17.8491 134.544 17.7552 134.074 17.5673C133.61 17.3742 133.213 17.1002 132.884 16.7453C132.555 16.3905 132.302 15.9625 132.125 15.4616C131.953 14.9606 131.867 14.3969 131.867 13.7707C131.867 13.1497 131.953 12.5887 132.125 12.0877C132.302 11.5815 132.555 11.1509 132.884 10.7961C133.213 10.4412 133.61 10.1672 134.074 9.97412C134.544 9.78103 135.071 9.68448 135.655 9.68448ZM135.655 16.761C136.438 16.761 137.023 16.5001 137.409 15.9782C137.795 15.4511 137.988 14.7179 137.988 13.7785C137.988 12.8339 137.795 12.0981 137.409 11.571C137.023 11.0439 136.438 10.7804 135.655 10.7804C135.259 10.7804 134.912 10.8482 134.614 10.9839C134.322 11.1196 134.077 11.3153 133.878 11.571C133.685 11.8267 133.539 12.1425 133.44 12.5182C133.346 12.8887 133.299 13.3088 133.299 13.7785C133.299 14.7179 133.492 15.4511 133.878 15.9782C134.27 16.5001 134.862 16.761 135.655 16.761ZM142.519 11.3988C142.769 10.8561 143.077 10.4334 143.442 10.1307C143.808 9.82277 144.254 9.66882 144.781 9.66882C144.948 9.66882 145.107 9.68709 145.258 9.72362C145.415 9.76015 145.553 9.81756 145.673 9.89584L145.572 10.937C145.54 11.0674 145.462 11.1327 145.337 11.1327C145.264 11.1327 145.157 11.117 145.016 11.0857C144.875 11.0544 144.716 11.0387 144.538 11.0387C144.288 11.0387 144.063 11.0753 143.865 11.1483C143.672 11.2214 143.497 11.331 143.341 11.4771C143.189 11.618 143.051 11.7954 142.926 12.0094C142.806 12.2181 142.696 12.4582 142.597 12.7296V17.7395H141.196V9.80973H141.994C142.145 9.80973 142.25 9.83843 142.307 9.89584C142.365 9.95324 142.404 10.0524 142.425 10.1933L142.519 11.3988ZM151.471 11.117C151.409 11.2318 151.312 11.2892 151.182 11.2892C151.103 11.2892 151.015 11.2605 150.915 11.2031C150.816 11.1457 150.694 11.0831 150.547 11.0152C150.407 10.9422 150.237 10.8769 150.039 10.8195C149.84 10.7569 149.606 10.7256 149.334 10.7256C149.099 10.7256 148.888 10.7569 148.7 10.8195C148.512 10.8769 148.35 10.9578 148.215 11.0622C148.084 11.1666 147.983 11.2892 147.909 11.4301C147.842 11.5658 147.808 11.7145 147.808 11.8763C147.808 12.0799 147.865 12.2495 147.98 12.3851C148.1 12.5208 148.256 12.6382 148.45 12.7374C148.643 12.8366 148.862 12.9253 149.107 13.0036C149.352 13.0766 149.603 13.1575 149.859 13.2462C150.12 13.3297 150.373 13.4237 150.618 13.528C150.863 13.6324 151.082 13.7629 151.275 13.9194C151.469 14.076 151.623 14.2691 151.737 14.4987C151.857 14.7231 151.917 14.9945 151.917 15.3128C151.917 15.6781 151.852 16.0173 151.722 16.3305C151.591 16.6384 151.398 16.9071 151.142 17.1367C150.887 17.3611 150.574 17.5386 150.203 17.669C149.833 17.7995 149.405 17.8648 148.919 17.8648C148.366 17.8648 147.865 17.776 147.416 17.5986C146.967 17.4159 146.587 17.1837 146.273 16.9019L146.602 16.3696C146.644 16.3018 146.693 16.2496 146.751 16.213C146.808 16.1765 146.881 16.1582 146.97 16.1582C147.064 16.1582 147.163 16.1948 147.268 16.2678C147.372 16.3409 147.497 16.4218 147.643 16.5105C147.795 16.5992 147.977 16.6801 148.191 16.7532C148.405 16.8262 148.671 16.8628 148.99 16.8628C149.261 16.8628 149.499 16.8288 149.702 16.761C149.906 16.6879 150.075 16.5914 150.211 16.4714C150.347 16.3513 150.446 16.213 150.508 16.0565C150.576 15.8999 150.61 15.7329 150.61 15.5555C150.61 15.3363 150.55 15.1563 150.43 15.0154C150.315 14.8692 150.161 14.7466 149.968 14.6474C149.775 14.5431 149.553 14.4543 149.303 14.3813C149.058 14.303 148.804 14.2221 148.544 14.1386C148.288 14.0551 148.035 13.9612 147.784 13.8568C147.539 13.7472 147.32 13.6115 147.127 13.4498C146.934 13.288 146.777 13.0897 146.657 12.8548C146.542 12.6148 146.485 12.3251 146.485 11.9859C146.485 11.6832 146.547 11.3936 146.673 11.117C146.798 10.8352 146.981 10.5899 147.221 10.3812C147.461 10.1672 147.755 9.9976 148.105 9.87235C148.455 9.7471 148.854 9.68448 149.303 9.68448C149.825 9.68448 150.292 9.76798 150.704 9.93498C151.122 10.0968 151.482 10.3212 151.784 10.6082L151.471 11.117Z" fill="#FEFEFE"/>
</g>
<defs>
<clipPath id="clip0_72_12474">
<rect width="234.843" height="85.1847" rx="4.34889" fill="white"/>
</clipPath>
<clipPath id="clip1_72_12474">
<rect width="208.75" height="41.6958" fill="white" transform="translate(13.0469 30.4423)"/>
</clipPath>
</defs>
</svg>
