<svg width="209" height="37" viewBox="0 0 209 37" fill="none" xmlns="http://www.w3.org/2000/svg">
<g clip-path="url(#clip0_20508_31129)">
<path fill-rule="evenodd" clip-rule="evenodd" d="M111.851 8.52467H115.402C117.072 8.52467 118.115 7.63994 118.115 6.22789V6.18687C118.115 4.71037 117.101 3.84321 115.338 3.84321H111.851V8.53053V8.52467ZM117.992 16.1826L114.699 11.2668H111.851V16.1826H108.717V1.06012H115.625C117.494 1.06012 119.017 1.58744 120.019 2.5835C120.45 3.03981 120.785 3.57749 121.006 4.16505C121.226 4.7526 121.327 5.37821 121.302 6.00524V6.05211C121.346 7.07205 121.055 8.07833 120.475 8.91803C119.894 9.75772 119.055 10.3849 118.086 10.7043L117.933 10.757L121.648 16.1826H117.992Z" fill="#231F20"/>
<path fill-rule="evenodd" clip-rule="evenodd" d="M131.504 3.66742C130.866 3.66454 130.234 3.79087 129.647 4.03878C129.059 4.28668 128.528 4.65104 128.085 5.10986C127.642 5.56868 127.296 6.11247 127.069 6.70842C126.842 7.30437 126.738 7.94014 126.764 8.57739V8.6184C126.745 9.25938 126.854 9.89764 127.086 10.4957C127.317 11.0937 127.666 11.6394 128.112 12.1006C128.557 12.5619 129.09 12.9295 129.68 13.1817C130.269 13.4339 130.903 13.5658 131.545 13.5694C132.182 13.5756 132.815 13.4517 133.403 13.2052C133.991 12.9587 134.522 12.5948 134.965 12.1357C135.408 11.6766 135.752 11.1321 135.977 10.5353C136.202 9.93862 136.302 9.30229 136.273 8.66527V8.6184C136.292 7.9784 136.182 7.3411 135.952 6.74385C135.721 6.14661 135.373 5.60145 134.929 5.14033C134.485 4.6792 133.953 4.3114 133.365 4.05848C132.777 3.80556 132.144 3.67261 131.504 3.66742ZM131.504 16.4462C126.922 16.4462 123.471 13.1006 123.471 8.66527V8.6184C123.477 7.57152 123.691 6.53633 124.102 5.57348C124.513 4.61062 125.112 3.73946 125.864 3.01101C126.616 2.28257 127.506 1.71148 128.481 1.33122C129.457 0.950947 130.498 0.769138 131.545 0.796438C136.121 0.796438 139.56 4.14201 139.56 8.57739V8.6184C139.556 9.66449 139.343 10.6992 138.933 11.6619C138.524 12.6246 137.927 13.496 137.176 14.225C136.426 14.954 135.538 15.5259 134.564 15.9073C133.59 16.2888 132.549 16.472 131.504 16.4462Z" fill="#231F20"/>
<path fill-rule="evenodd" clip-rule="evenodd" d="M146.315 7.27082H149.55C151.665 7.27082 152.11 6.32163 152.11 5.51307V5.47792C152.11 4.39983 151.255 3.77876 149.766 3.77876H146.309V7.29425L146.315 7.27082ZM146.315 13.4581H150.446C152.532 13.4581 152.965 12.4855 152.965 11.7003V11.6593C152.965 10.8449 152.508 9.86642 150.341 9.86642H146.315V13.4874V13.4581ZM143.257 16.1826V1.05426H150.288C151.987 1.05426 153.346 1.51713 154.219 2.38429C154.554 2.71216 154.818 3.10576 154.993 3.54034C155.169 3.97493 155.252 4.44111 155.239 4.90958V4.95059C155.259 5.61862 155.084 6.27805 154.735 6.84827C154.387 7.41849 153.88 7.8748 153.276 8.16141L153.036 8.29617L153.282 8.38991C155.245 9.13988 156.077 10.2355 156.077 12.0577V12.0929C156.077 14.7002 154.026 16.1943 150.446 16.1943L143.257 16.1826Z" fill="#231F20"/>
<path fill-rule="evenodd" clip-rule="evenodd" d="M160.436 16.1826V7.20636H171.767V9.94844H163.547V13.4171H171.767V16.1826H160.436Z" fill="#231F20"/>
<path fill-rule="evenodd" clip-rule="evenodd" d="M183.714 16.4462C182.688 16.4662 181.668 16.2785 180.716 15.8943C179.764 15.5101 178.899 14.9374 178.174 14.2106C177.449 13.4839 176.878 12.618 176.496 11.665C176.114 10.7121 175.929 9.69172 175.951 8.66529V8.61841C175.933 7.58012 176.126 6.54899 176.518 5.58724C176.909 4.62549 177.492 3.75306 178.23 3.02261C178.968 2.29217 179.846 1.71884 180.812 1.33724C181.778 0.955633 182.811 0.773664 183.849 0.80231C184.934 0.745329 186.019 0.916073 187.034 1.30356C188.05 1.69105 188.972 2.28671 189.743 3.05222L187.745 5.36659C186.705 4.32102 185.3 3.71845 183.826 3.68501C181.213 3.68501 179.244 5.80016 179.244 8.59498V8.63599C179.244 11.466 181.213 13.587 183.826 13.587C185.542 13.587 186.615 12.9483 187.863 11.8292L189.843 13.8331C189.083 14.7008 188.138 15.3863 187.077 15.8387C186.016 16.2911 184.867 16.4987 183.714 16.4462Z" fill="#231F20"/>
<path fill-rule="evenodd" clip-rule="evenodd" d="M200.641 3.66742C200.004 3.66534 199.373 3.79225 198.786 4.04051C198.199 4.28877 197.669 4.65324 197.226 5.11199C196.784 5.57073 196.439 6.11424 196.212 6.7098C195.986 7.30536 195.882 7.94064 195.907 8.57739V8.6184C195.888 9.25889 195.998 9.89668 196.229 10.4943C196.46 11.0919 196.808 11.6374 197.253 12.0986C197.698 12.5598 198.23 12.9274 198.819 13.18C199.408 13.4326 200.042 13.565 200.682 13.5694C201.32 13.5765 201.953 13.4531 202.542 13.207C203.131 12.9608 203.663 12.597 204.107 12.1378C204.55 11.6787 204.895 11.1339 205.12 10.5367C205.345 9.93962 205.446 9.30279 205.416 8.66528V8.6184C205.434 7.97812 205.324 7.34068 205.093 6.74341C204.862 6.14614 204.513 5.60103 204.069 5.14C203.624 4.67896 203.092 4.31125 202.503 4.0584C201.915 3.80554 201.282 3.67263 200.641 3.66742ZM200.641 16.4462C196.071 16.4462 192.62 13.1007 192.62 8.66528V8.6184C192.625 7.5723 192.839 6.53773 193.249 5.5753C193.659 4.61288 194.257 3.74193 195.008 3.01349C195.759 2.28504 196.647 1.71374 197.622 1.33305C198.596 0.952356 199.637 0.769925 200.682 0.796441C205.258 0.796441 208.698 4.14201 208.698 8.57739V8.6184C208.692 9.66403 208.478 10.698 208.068 11.66C207.658 12.622 207.061 13.4927 206.311 14.2214C205.561 14.9501 204.673 15.5221 203.7 15.9041C202.726 16.2861 201.687 16.4704 200.641 16.4462Z" fill="#231F20"/>
<path d="M171.767 1.06012H160.436V3.8315H171.767V1.06012Z" fill="#009AB6"/>
<path fill-rule="evenodd" clip-rule="evenodd" d="M9.04727 16.3232C8.02129 16.3432 7.00186 16.1556 6.05017 15.7718C5.09849 15.388 4.23417 14.8158 3.5091 14.0896C2.78404 13.3635 2.21318 12.4983 1.8308 11.546C1.44841 10.5938 1.26239 9.57405 1.2839 8.5481V8.50123C1.26529 7.46245 1.45744 6.43068 1.84875 5.46824C2.24006 4.5058 2.8224 3.63267 3.5606 2.9016C4.29879 2.17052 5.17753 1.59667 6.14371 1.2147C7.1099 0.832739 8.14348 0.650593 9.18203 0.679268C10.2666 0.623513 11.3509 0.795417 12.365 1.18392C13.3791 1.57242 14.3007 2.16892 15.0705 2.93504L13.0725 5.23183C12.0342 4.18662 10.6315 3.58398 9.15859 3.55025C6.58643 3.55025 4.57674 5.70642 4.57674 8.45436V8.50123C4.57674 11.3312 6.54541 13.4522 9.15859 13.4522C10.8753 13.4522 11.9475 12.8136 13.1955 11.6945L15.1818 13.6983C14.4225 14.569 13.4766 15.2572 12.4144 15.7116C11.3523 16.1661 10.2014 16.3751 9.04727 16.3232Z" fill="#009AB6"/>
<path fill-rule="evenodd" clip-rule="evenodd" d="M22.617 9.87227H27.0641L24.8376 4.4467L22.617 9.87227ZM29.5776 16.0712L28.1714 12.6144H21.5037L20.0975 16.0712H16.916L23.4021 0.831604H26.3317L32.8119 16.0654L29.5776 16.0712Z" fill="#009AB6"/>
<path fill-rule="evenodd" clip-rule="evenodd" d="M46.2408 16.0713L38.6122 6.05797V16.0713H35.5186V0.942932H38.454L45.8424 10.6398V0.942932H48.936V16.0713H46.2408Z" fill="#009AB6"/>
<path fill-rule="evenodd" clip-rule="evenodd" d="M57.3094 9.87227H61.7564L59.5358 4.4467L57.3094 9.87227ZM64.27 16.0712L62.8638 12.6144H56.202L54.8016 16.0712H51.6143L58.1179 0.831604H61.0475L67.5336 16.0654L64.27 16.0712Z" fill="#009AB6"/>
<path fill-rule="evenodd" clip-rule="evenodd" d="M72.4784 8.40749H75.9939C77.6696 8.40749 78.7125 7.52276 78.7125 6.10484V6.06383C78.7125 4.59318 77.6989 3.74946 75.9294 3.74946H72.4491V8.43678L72.4784 8.40749ZM78.6246 16.0713L75.3318 11.1496H72.4843V16.0713H69.3496V0.942932H76.2517C78.1266 0.942932 79.65 1.4644 80.646 2.46631C81.0774 2.92098 81.4133 3.45754 81.6337 4.04426C81.8541 4.63099 81.9546 5.25595 81.9292 5.88219V5.9525C81.9715 6.97146 81.6803 7.97641 81.0998 8.81491C80.5193 9.65341 79.6812 10.2797 78.7125 10.5988L78.566 10.6574L82.2749 16.0888L78.6246 16.0713Z" fill="#009AB6"/>
<path fill-rule="evenodd" clip-rule="evenodd" d="M89.657 9.87227H94.1041L91.8776 4.4467L89.657 9.87227ZM96.6177 16.0712L95.2115 12.6144H88.5848L87.1727 16.0712H83.9912L90.4773 0.837463H93.4069L99.8871 16.0712H96.6177Z" fill="#009AB6"/>
<path d="M51.5914 33.1456C51.5914 33.5178 51.7216 33.8155 52.0008 34.0202C52.2613 34.2063 52.559 34.3179 52.9312 34.3179C53.2661 34.3179 53.5638 34.2435 53.7871 34.1132C54.0104 33.983 54.1407 33.7597 54.1407 33.462C54.1407 33.2014 53.9732 32.9967 53.6569 32.8665C53.3405 32.7362 52.8381 32.606 52.1496 32.4571C51.5728 32.3455 51.089 32.2338 50.6796 32.1222C50.2702 32.0105 49.8794 31.8431 49.5259 31.6384C49.1537 31.4337 48.856 31.1359 48.6327 30.7824C48.4094 30.4288 48.2791 29.9822 48.2791 29.4426C48.2791 28.8658 48.4094 28.3633 48.6885 27.9354C48.949 27.526 49.3212 27.191 49.7492 26.9491C50.1958 26.7072 50.6796 26.5398 51.2192 26.4281C51.7402 26.3165 52.2799 26.2792 52.8195 26.2792C53.3964 26.2792 53.9546 26.3165 54.4756 26.4095C54.9967 26.5025 55.4805 26.6514 55.9457 26.8747C56.3923 27.098 56.7644 27.3957 57.0622 27.8051C57.3599 28.1959 57.5274 28.6983 57.5646 29.3124H54.1035C54.0663 29.0146 53.936 28.7913 53.7313 28.6239C53.5452 28.475 53.2847 28.382 52.9684 28.382C52.6334 28.382 52.3543 28.4378 52.1682 28.5494C51.9821 28.6611 51.8891 28.8285 51.8891 29.0518C51.8891 29.2751 52.038 29.4612 52.3543 29.5729C52.652 29.6845 53.1545 29.8148 53.8616 29.9636C54.4756 30.0939 54.9967 30.2241 55.406 30.3544C55.8154 30.4847 56.2248 30.6521 56.6156 30.8754C57.0064 31.0987 57.3227 31.3778 57.5832 31.75C57.8251 32.1222 57.9554 32.5688 57.9554 33.0898C57.9554 34.1318 57.5274 34.9506 56.6528 35.5461C55.7968 36.1415 54.4942 36.4392 52.8009 36.4392C52.2054 36.4392 51.6286 36.3834 51.1076 36.2904C50.5679 36.1787 50.0841 36.0113 49.6189 35.7694C49.1537 35.5274 48.7815 35.1739 48.5024 34.7645C48.2233 34.3365 48.0558 33.8155 48 33.22H51.5914V33.1456Z" fill="#299FB9"/>
<path d="M59.3506 26.5584H62.8489V27.9912C63.128 27.5632 63.5374 27.1724 64.0957 26.8189C64.6539 26.4653 65.2494 26.2979 65.8821 26.2979C66.7008 26.2979 67.3707 26.4467 67.8731 26.7631C68.3755 27.0794 68.7663 27.5074 69.0082 28.047C69.8456 26.8747 70.9435 26.2979 72.3205 26.2979C73.6603 26.2979 74.6093 26.6514 75.1675 27.3399C75.7258 28.047 76.0049 29.0891 76.0049 30.4661V36.1229H72.2088V31.2476C72.2088 30.5219 72.1158 30.0195 71.9297 29.7217C71.7436 29.424 71.4087 29.2751 70.9249 29.2751C70.4224 29.2751 70.0689 29.4612 69.8828 29.8334C69.6967 30.2055 69.6037 30.7266 69.6037 31.3965V36.1229H65.8076V31.2476C65.8076 30.5219 65.7146 30.0195 65.5285 29.7217C65.3424 29.424 65.0075 29.2751 64.5237 29.2751C64.0212 29.2751 63.6677 29.4612 63.4816 29.8334C63.2955 30.2055 63.2025 30.7266 63.2025 31.3965V36.1229H59.4064V26.5584H59.3506Z" fill="#299FB9"/>
<path d="M84.4534 36.1229L84.2673 35.0995C83.7649 35.5833 83.2252 35.9183 82.6484 36.1043C82.0901 36.2904 81.4202 36.4021 80.6573 36.4021C79.6897 36.4021 78.8709 36.1602 78.2196 35.6577C77.5683 35.1553 77.2334 34.4482 77.2334 33.5178C77.2334 32.9037 77.3637 32.3827 77.6428 31.9733C77.9033 31.564 78.2568 31.2476 78.6848 31.0429C79.1128 30.8382 79.5594 30.6708 80.0246 30.5777C80.4898 30.4847 81.0667 30.3917 81.7366 30.3172C82.5553 30.2242 83.1322 30.1125 83.5044 30.0009C83.8579 29.8892 84.044 29.6659 84.044 29.3496C84.044 29.0519 83.9137 28.8472 83.6532 28.7355C83.3927 28.6239 83.1136 28.5681 82.7972 28.5681C82.4623 28.5681 82.1646 28.6239 81.904 28.7541C81.6435 28.8844 81.4947 29.1263 81.4575 29.4985H77.8103C77.8103 28.4564 78.2196 27.6563 79.057 27.098C79.8944 26.5584 81.2155 26.2793 83.0391 26.2793C84.137 26.2793 85.0116 26.3723 85.6629 26.5584C86.3142 26.7445 86.798 27.0236 87.1143 27.3585C87.4307 27.7121 87.6168 28.1029 87.7098 28.5495C87.8028 28.996 87.8401 29.5543 87.8401 30.2428V34.7273C87.8401 35.0251 87.8587 35.267 87.9145 35.4344C87.9703 35.6019 88.1192 35.7694 88.3425 35.9555V36.1415H84.4534V36.1229ZM83.6718 33.6853C83.9509 33.3131 84.0812 32.8293 84.0812 32.1966L84.0626 32.0292C84.0626 31.9733 84.0626 31.9175 84.0626 31.8617C83.7649 31.9919 83.3183 32.1222 82.7228 32.2711C82.1832 32.4013 81.7738 32.5316 81.5319 32.6618C81.29 32.8107 81.1597 33.0526 81.1597 33.4248C81.1597 33.6667 81.2714 33.8714 81.4761 34.0016C81.6808 34.1505 81.9785 34.2249 82.3693 34.2249C82.9833 34.2435 83.4113 34.0574 83.6718 33.6853Z" fill="#299FB9"/>
<path d="M89.9434 26.5584H93.4045V28.4936H93.4417C93.9627 27.0236 94.949 26.2793 96.3818 26.2793C96.4562 26.2793 96.5679 26.2979 96.7167 26.3165L96.8842 26.3351V30.1311C96.8284 30.1125 96.754 30.1125 96.6237 30.0939C96.4004 30.0381 96.2143 30.0195 96.1027 30.0195C95.3025 30.0195 94.7071 30.2242 94.3349 30.6522C93.9627 31.0801 93.7766 31.8059 93.7766 32.8107V36.1229H89.9806V26.5584H89.9434Z" fill="#299FB9"/>
<path d="M97.8135 23.2834H109.872V26.7445H106.001V36.4393H101.684V26.7445H97.8135V23.2834Z" fill="#231F20"/>
<path d="M112.272 27.6376C113.258 26.7258 114.579 26.2792 116.217 26.2792C117.891 26.2792 119.231 26.7258 120.217 27.6376C121.204 28.5494 121.688 29.7403 121.688 31.2476C121.688 32.1036 121.557 32.8479 121.278 33.4992C120.999 34.1505 120.627 34.6901 120.143 35.1181C119.659 35.5461 119.082 35.8624 118.412 36.0857C117.743 36.2904 117.035 36.402 116.254 36.402C114.654 36.402 113.351 35.974 112.328 35.1181C111.304 34.2621 110.802 33.034 110.802 31.4523C110.802 29.8148 111.286 28.5494 112.272 27.6376ZM115.491 29.0518C115.268 29.2007 115.1 29.3868 114.97 29.6101C114.84 29.8334 114.765 30.0939 114.691 30.373C114.635 30.6521 114.598 30.9313 114.598 31.229C114.598 32.1036 114.747 32.7548 115.044 33.1828C115.342 33.6108 115.733 33.8155 116.254 33.8155C116.775 33.8155 117.184 33.6108 117.463 33.1828C117.743 32.7548 117.891 32.1036 117.891 31.229C117.891 30.5219 117.743 29.945 117.463 29.4984C117.184 29.0518 116.794 28.8285 116.291 28.8285C115.975 28.8285 115.714 28.903 115.491 29.0518Z" fill="#269DB8"/>
<path d="M123.157 26.5584H126.656V27.9912C126.935 27.5632 127.344 27.1725 127.902 26.8189C128.461 26.4654 129.056 26.2979 129.689 26.2979C130.507 26.2979 131.177 26.4467 131.68 26.7631C132.182 27.0794 132.573 27.5074 132.815 28.047C133.652 26.8747 134.75 26.2979 136.127 26.2979C137.467 26.2979 138.416 26.6514 138.974 27.3399C139.532 28.047 139.812 29.0891 139.812 30.4661V36.1229H135.997V31.2476C135.997 30.5219 135.904 30.0195 135.718 29.7218C135.532 29.424 135.197 29.2752 134.713 29.2752C134.192 29.2752 133.857 29.4613 133.671 29.8334C133.485 30.2056 133.392 30.7266 133.392 31.3965V36.1229H129.596V31.2476C129.596 30.5219 129.503 30.0195 129.317 29.7218C129.13 29.424 128.796 29.2752 128.312 29.2752C127.791 29.2752 127.456 29.4613 127.27 29.8334C127.084 30.2056 126.991 30.7266 126.991 31.3965V36.1229H123.157V26.5584Z" fill="#269DB8"/>
<path d="M142.733 27.6376C143.719 26.7258 145.041 26.2792 146.678 26.2792C148.353 26.2792 149.693 26.7258 150.679 27.6376C151.665 28.5494 152.149 29.7403 152.149 31.2476C152.149 32.1036 152.019 32.8479 151.74 33.4992C151.46 34.1505 151.088 34.6901 150.604 35.1181C150.121 35.5461 149.544 35.8624 148.874 36.0857C148.204 36.2904 147.497 36.402 146.715 36.402C145.115 36.402 143.813 35.974 142.789 35.1181C141.766 34.2621 141.263 33.034 141.263 31.4523C141.245 29.8148 141.747 28.5494 142.733 27.6376ZM145.934 29.0518C145.711 29.2007 145.543 29.3868 145.413 29.6101C145.283 29.8334 145.208 30.0939 145.134 30.373C145.078 30.6521 145.041 30.9313 145.041 31.229C145.041 32.1036 145.19 32.7548 145.487 33.1828C145.785 33.6108 146.176 33.8155 146.697 33.8155C147.218 33.8155 147.627 33.6108 147.906 33.1828C148.185 32.7548 148.334 32.1036 148.334 31.229C148.334 30.5219 148.185 29.945 147.906 29.4984C147.627 29.0518 147.236 28.8285 146.734 28.8285C146.436 28.8285 146.157 28.903 145.934 29.0518Z" fill="#269DB8"/>
<path d="M153.75 26.5584H157.211V28.4936H157.248C157.769 27.0236 158.756 26.2793 160.188 26.2793C160.263 26.2793 160.375 26.2979 160.523 26.3165L160.691 26.3351V30.1311C160.635 30.1125 160.561 30.1125 160.43 30.0939C160.207 30.0381 160.021 30.0195 159.909 30.0195C159.109 30.0195 158.514 30.2242 158.142 30.6522C157.769 31.0801 157.583 31.8059 157.583 32.8107V36.1229H153.787V26.5584H153.75Z" fill="#269DB8"/>
<path d="M161.862 26.5584H165.323V28.4936H165.361C165.882 27.0236 166.868 26.2793 168.301 26.2793C168.375 26.2793 168.487 26.2979 168.636 26.3165L168.803 26.3351V30.1311C168.747 30.1125 168.673 30.1125 168.543 30.0939C168.319 30.0381 168.133 30.0195 168.022 30.0195C167.221 30.0195 166.626 30.2242 166.254 30.6522C165.882 31.0801 165.696 31.8059 165.696 32.8107V36.1229H161.862V26.5584Z" fill="#269DB8"/>
<path d="M170.813 27.6377C171.799 26.7259 173.12 26.2793 174.758 26.2793C176.432 26.2793 177.772 26.7259 178.759 27.6377C179.745 28.5495 180.229 29.7404 180.229 31.2476C180.229 32.1036 180.098 32.8479 179.819 33.4992C179.54 34.1505 179.168 34.6901 178.684 35.1181C178.2 35.5461 177.623 35.8624 176.954 36.0857C176.284 36.2904 175.577 36.4021 174.795 36.4021C173.195 36.4021 171.892 35.9741 170.869 35.1181C169.845 34.2621 169.343 33.034 169.343 31.4523C169.343 29.8148 169.827 28.5495 170.813 27.6377ZM174.013 29.0519C173.79 29.2007 173.623 29.3868 173.492 29.6101C173.362 29.8334 173.288 30.0939 173.213 30.373C173.157 30.6522 173.12 30.9313 173.12 31.229C173.12 32.1036 173.269 32.7549 173.567 33.1829C173.865 33.6108 174.255 33.8155 174.776 33.8155C175.297 33.8155 175.707 33.6108 175.986 33.1829C176.265 32.7549 176.414 32.1036 176.414 31.229C176.414 30.5219 176.265 29.9451 175.986 29.4985C175.707 29.0519 175.316 28.8286 174.814 28.8286C174.516 28.8286 174.255 28.903 174.013 29.0519Z" fill="#269DB8"/>
<path d="M192.622 32.4757H192.659L194.147 26.5584H197.739L194.687 36.1229H190.984L189.495 30.5219H189.458L188.118 36.1229H184.415L181.252 26.5584H184.955L186.425 32.4757H186.462L187.951 26.5584H191.17L192.622 32.4757Z" fill="#269DB8"/>
<path d="M202.353 33.1456C202.353 33.5178 202.483 33.8155 202.763 34.0202C203.023 34.2063 203.321 34.318 203.693 34.318C204.028 34.318 204.326 34.2435 204.549 34.1133C204.772 33.983 204.902 33.7597 204.902 33.462C204.902 33.2015 204.735 32.9968 204.419 32.8665C204.102 32.7363 203.6 32.606 202.911 32.4571C202.335 32.3455 201.851 32.2338 201.441 32.1222C201.032 32.0106 200.641 31.8431 200.288 31.6384C199.915 31.4337 199.618 31.136 199.394 30.7824C199.171 30.4289 199.041 29.9823 199.041 29.4426C199.041 28.8658 199.171 28.3634 199.45 27.9354C199.711 27.526 200.083 27.1911 200.511 26.9492C200.958 26.7073 201.441 26.5398 201.981 26.4281C202.502 26.3165 203.042 26.2793 203.581 26.2793C204.158 26.2793 204.716 26.3165 205.237 26.4095C205.758 26.5026 206.242 26.6514 206.707 26.8747C207.154 27.098 207.526 27.3958 207.824 27.8051C208.122 28.1959 208.289 28.6983 208.345 29.3124H204.847C204.809 29.0147 204.679 28.7914 204.474 28.6239C204.288 28.475 204.028 28.382 203.712 28.382C203.377 28.382 203.097 28.4378 202.911 28.5495C202.725 28.6611 202.632 28.8286 202.632 29.0519C202.632 29.2752 202.781 29.4612 203.097 29.5729C203.395 29.6845 203.898 29.8148 204.605 29.9637C205.219 30.0939 205.74 30.2242 206.149 30.3544C206.559 30.4847 206.968 30.6522 207.359 30.8755C207.75 31.0988 208.066 31.3779 208.326 31.75C208.568 32.1222 208.699 32.5688 208.699 33.0898C208.699 34.1319 208.271 34.9506 207.396 35.5461C206.54 36.1415 205.237 36.4393 203.544 36.4393C202.949 36.4393 202.372 36.3835 201.851 36.2904C201.311 36.1788 200.827 36.0113 200.362 35.7694C199.897 35.5275 199.525 35.1739 199.246 34.7645C198.966 34.3366 198.799 33.8155 198.743 33.2201H202.353V33.1456Z" fill="#269DB8"/>
</g>
<defs>
<clipPath id="clip0_20508_31129">
<rect width="208" height="36.9126" fill="white" transform="translate(0.698242 0.0933533)"/>
</clipPath>
</defs>
</svg>
