<svg width="235" height="86" viewBox="0 0 235 86" fill="none" xmlns="http://www.w3.org/2000/svg">
<g clip-path="url(#clip0_72_14100)">
<g clip-path="url(#clip1_72_14100)">
<path fill-rule="evenodd" clip-rule="evenodd" d="M124.308 38.6967H127.881C129.561 38.6967 130.611 37.8065 130.611 36.3855V36.3443C130.611 34.8585 129.591 33.9859 127.816 33.9859H124.308V38.7026V38.6967ZM130.487 46.4027L127.174 41.456H124.308V46.4027H121.154V31.1854H128.105C129.986 31.1854 131.519 31.716 132.527 32.7183C132.96 33.1775 133.298 33.7185 133.52 34.3098C133.741 34.901 133.843 35.5305 133.818 36.1615V36.2087C133.862 37.235 133.57 38.2476 132.985 39.0926C132.401 39.9375 131.557 40.5686 130.581 40.89L130.428 40.9431L134.166 46.4027H130.487Z" fill="#FEFEFE"/>
<path fill-rule="evenodd" clip-rule="evenodd" d="M144.083 33.809C143.441 33.8061 142.805 33.9333 142.214 34.1827C141.623 34.4322 141.088 34.7988 140.642 35.2605C140.197 35.7222 139.849 36.2694 139.621 36.8691C139.392 37.4688 139.288 38.1086 139.313 38.7498V38.7911C139.294 39.4361 139.404 40.0783 139.637 40.6801C139.87 41.2819 140.221 41.831 140.669 42.2951C141.118 42.7593 141.654 43.1292 142.248 43.383C142.841 43.6368 143.479 43.7694 144.124 43.7731C144.766 43.7794 145.402 43.6547 145.994 43.4066C146.586 43.1586 147.121 42.7924 147.566 42.3304C148.011 41.8685 148.358 41.3205 148.584 40.72C148.81 40.1196 148.912 39.4792 148.882 38.8382V38.7911C148.901 38.1471 148.791 37.5058 148.559 36.9048C148.327 36.3038 147.977 35.7552 147.53 35.2912C147.083 34.8272 146.548 34.4571 145.956 34.2025C145.364 33.948 144.727 33.8143 144.083 33.809ZM144.083 46.668C139.472 46.668 136 43.3014 136 38.8382V38.7911C136.005 37.7376 136.222 36.6959 136.635 35.727C137.049 34.7582 137.651 33.8815 138.408 33.1485C139.165 32.4155 140.06 31.8408 141.041 31.4582C142.023 31.0755 143.071 30.8926 144.124 30.9201C148.729 30.9201 152.19 34.2866 152.19 38.7498V38.7911C152.185 39.8437 151.971 40.8849 151.559 41.8537C151.147 42.8224 150.546 43.6993 149.791 44.4328C149.036 45.1664 148.142 45.7419 147.162 46.1257C146.182 46.5095 145.135 46.6939 144.083 46.668Z" fill="#FEFEFE"/>
<path fill-rule="evenodd" clip-rule="evenodd" d="M158.988 37.435H162.242C164.371 37.435 164.819 36.4799 164.819 35.6662V35.6308C164.819 34.546 163.958 33.921 162.46 33.921H158.982V37.4586L158.988 37.435ZM158.988 43.661H163.144C165.243 43.661 165.679 42.6823 165.679 41.8923V41.851C165.679 41.0315 165.22 40.0469 163.038 40.0469H158.988V43.6905V43.661ZM155.91 46.4026V31.1794H162.985C164.695 31.1794 166.063 31.6452 166.941 32.5178C167.278 32.8477 167.543 33.2438 167.72 33.6811C167.896 34.1184 167.98 34.5875 167.967 35.0589V35.1002C167.987 35.7724 167.811 36.436 167.461 37.0098C167.11 37.5836 166.599 38.0428 165.992 38.3312L165.75 38.4668L165.998 38.5611C167.973 39.3158 168.81 40.4183 168.81 42.2519V42.2873C168.81 44.911 166.747 46.4144 163.144 46.4144L155.91 46.4026Z" fill="#FEFEFE"/>
<path fill-rule="evenodd" clip-rule="evenodd" d="M173.197 46.4027V37.3702H184.599V40.1295H176.327V43.6198H184.599V46.4027H173.197Z" fill="#FEFEFE"/>
<path fill-rule="evenodd" clip-rule="evenodd" d="M196.621 46.668C195.588 46.6881 194.562 46.4992 193.604 46.1126C192.646 45.726 191.776 45.1497 191.046 44.4184C190.316 43.687 189.742 42.8157 189.358 41.8568C188.973 40.8978 188.787 39.8711 188.809 38.8382V38.7911C188.791 37.7463 188.985 36.7087 189.379 35.7409C189.773 34.7731 190.36 33.8952 191.102 33.1602C191.845 32.4251 192.729 31.8482 193.701 31.4642C194.673 31.0802 195.712 30.8971 196.757 30.9259C197.849 30.8686 198.941 31.0404 199.962 31.4303C200.984 31.8203 201.912 32.4196 202.688 33.19L200.678 35.5188C199.631 34.4667 198.217 33.8604 196.733 33.8267C194.104 33.8267 192.123 35.9551 192.123 38.7675V38.8088C192.123 41.6565 194.104 43.7908 196.733 43.7908C198.461 43.7908 199.54 43.1481 200.796 42.022L202.788 44.0384C202.024 44.9116 201.072 45.6014 200.005 46.0566C198.937 46.5119 197.781 46.7208 196.621 46.668Z" fill="#FEFEFE"/>
<path fill-rule="evenodd" clip-rule="evenodd" d="M213.654 33.809C213.013 33.8069 212.378 33.9346 211.788 34.1844C211.197 34.4343 210.663 34.801 210.218 35.2626C209.773 35.7242 209.426 36.2712 209.198 36.8705C208.97 37.4698 208.865 38.109 208.891 38.7498V38.791C208.872 39.4355 208.982 40.0773 209.214 40.6787C209.447 41.2801 209.797 41.8289 210.245 42.293C210.693 42.7571 211.228 43.1271 211.821 43.3813C212.414 43.6354 213.051 43.7686 213.696 43.7731C214.338 43.7802 214.975 43.6561 215.567 43.4084C216.16 43.1607 216.695 42.7946 217.141 42.3326C217.588 41.8705 217.934 41.3223 218.161 40.7214C218.388 40.1205 218.489 39.4797 218.46 38.8382V38.791C218.478 38.1467 218.367 37.5053 218.134 36.9043C217.901 36.3033 217.551 35.7547 217.103 35.2908C216.656 34.8269 216.12 34.4569 215.528 34.2024C214.936 33.948 214.299 33.8142 213.654 33.809ZM213.654 46.668C209.056 46.668 205.583 43.3014 205.583 38.8382V38.791C205.588 37.7384 205.803 36.6973 206.216 35.7289C206.628 34.7604 207.23 33.884 207.986 33.151C208.741 32.418 209.635 31.8431 210.616 31.46C211.596 31.0769 212.643 30.8933 213.696 30.92C218.3 30.92 221.761 34.2866 221.761 38.7498V38.791C221.755 39.8432 221.54 40.8837 221.127 41.8517C220.715 42.8197 220.114 43.6959 219.359 44.4292C218.605 45.1624 217.712 45.738 216.732 46.1224C215.753 46.5068 214.706 46.6922 213.654 46.668Z" fill="#FEFEFE"/>
<path d="M184.599 31.1854H173.197V33.9741H184.599V31.1854Z" fill="#009AB6"/>
<path fill-rule="evenodd" clip-rule="evenodd" d="M20.8587 46.5442C19.8263 46.5643 18.8004 46.3755 17.8428 45.9893C16.8851 45.6031 16.0154 45.0273 15.2858 44.2966C14.5562 43.5659 13.9817 42.6953 13.5969 41.737C13.2122 40.7788 13.025 39.7527 13.0466 38.7203V38.6732C13.0279 37.6279 13.2212 36.5896 13.615 35.6211C14.0088 34.6527 14.5948 33.7741 15.3376 33.0384C16.0804 32.3027 16.9646 31.7253 17.9369 31.3409C18.9091 30.9566 19.9492 30.7733 20.9943 30.8021C22.0857 30.746 23.1767 30.919 24.1972 31.31C25.2177 31.7009 26.1451 32.3011 26.9196 33.0721L24.9091 35.3832C23.8643 34.3315 22.4528 33.7251 20.9707 33.6911C18.3824 33.6911 16.3601 35.8608 16.3601 38.626V38.6732C16.3601 41.5209 18.3411 43.6552 20.9707 43.6552C22.6982 43.6552 23.7771 43.0125 25.033 41.8864L27.0317 43.9028C26.2676 44.7789 25.3157 45.4715 24.2469 45.9288C23.1782 46.3861 22.02 46.5964 20.8587 46.5442Z" fill="#009AB6"/>
<path fill-rule="evenodd" clip-rule="evenodd" d="M34.5136 40.0528H38.9885L36.7481 34.5932L34.5136 40.0528ZM41.5179 46.2907L40.1029 42.8121H33.3933L31.9783 46.2907H28.7769L35.3036 30.9554H38.2516L44.7724 46.2848L41.5179 46.2907Z" fill="#009AB6"/>
<path fill-rule="evenodd" clip-rule="evenodd" d="M58.2858 46.2906L50.6094 36.2146V46.2906H47.4963V31.0674H50.4502L57.8849 40.8251V31.0674H60.9979V46.2906H58.2858Z" fill="#009AB6"/>
<path fill-rule="evenodd" clip-rule="evenodd" d="M69.4232 40.0528H73.8982L71.6636 34.5932L69.4232 40.0528ZM76.4275 46.2907L75.0125 42.8121H68.3089L66.8997 46.2907H63.6924L70.2368 30.9554H73.1848L79.7115 46.2848L76.4275 46.2907Z" fill="#009AB6"/>
<path fill-rule="evenodd" clip-rule="evenodd" d="M84.6877 38.5788H88.2253C89.9115 38.5788 90.9609 37.6885 90.9609 36.2617V36.2205C90.9609 34.7406 89.941 33.8916 88.1604 33.8916H84.6582V38.6083L84.6877 38.5788ZM90.8725 46.2906L87.559 41.3381H84.6936V46.2906H81.5393V31.0674H88.4847C90.3714 31.0674 91.9043 31.5922 92.9066 32.6004C93.3407 33.0579 93.6786 33.5978 93.9004 34.1882C94.1222 34.7786 94.2233 35.4075 94.1978 36.0377V36.1084C94.2403 37.1338 93.9473 38.145 93.3632 38.9888C92.779 39.8326 91.9356 40.4628 90.9609 40.7839L90.8135 40.8428L94.5456 46.3083L90.8725 46.2906Z" fill="#009AB6"/>
<path fill-rule="evenodd" clip-rule="evenodd" d="M101.974 40.0528H106.449L104.209 34.5932L101.974 40.0528ZM108.979 46.2906L107.564 42.8121H100.895L99.4744 46.2906H96.2729L102.8 30.9613H105.748L112.269 46.2906H108.979Z" fill="#009AB6"/>
<path d="M160.78 72.1972L163.763 57.882H167.519L164.53 72.1972H160.78Z" fill="#F7971E"/>
<path d="M167.071 72.1972L169.241 61.791H172.648L172.365 63.0527H172.407C172.747 62.6013 173.195 62.2425 173.71 62.0091C174.419 61.6592 175.201 61.4814 175.991 61.4903C176.39 61.4691 176.789 61.5282 177.165 61.6638C177.541 61.7995 177.885 62.0092 178.179 62.2803C178.451 62.5616 178.662 62.8955 178.8 63.2616C178.938 63.6276 178.999 64.018 178.981 64.4087C178.933 65.1673 178.812 65.9195 178.621 66.6551L177.377 72.1913H173.969L175.148 66.6787C175.252 66.2429 175.319 65.7991 175.349 65.3521C175.374 65.1821 175.359 65.0086 175.306 64.8452C175.253 64.6818 175.162 64.5331 175.042 64.4107C174.921 64.2883 174.773 64.1957 174.611 64.1401C174.448 64.0845 174.275 64.0675 174.105 64.0904C173.691 64.0666 173.28 64.166 172.923 64.3759C172.567 64.5858 172.28 64.8968 172.1 65.2695C171.776 66.0707 171.54 66.905 171.398 67.7576L170.467 72.1972H167.071Z" fill="#F7971E"/>
<path d="M181.704 72.1972L180.425 61.791H183.868L184.293 69.1254H184.334L187.718 61.791H191.285L185.678 72.1972H181.704Z" fill="#F7971E"/>
<path d="M201.674 67.8224H194.174C194.174 68.0936 194.133 68.3236 194.133 68.524C194.129 68.7597 194.175 68.9935 194.269 69.2098C194.363 69.426 194.502 69.6197 194.677 69.7778C194.851 69.9359 195.058 70.0547 195.283 70.1262C195.507 70.1978 195.745 70.2204 195.979 70.1926C197.022 70.1926 197.682 69.8093 197.965 69.0488H201.291C200.532 71.3482 198.714 72.4979 195.837 72.4979C194.561 72.5607 193.305 72.1608 192.3 71.3718C191.809 70.9518 191.423 70.4239 191.172 69.8295C190.92 69.2351 190.81 68.5905 190.849 67.9462C190.789 66.2364 191.401 64.571 192.553 63.3062C193.126 62.697 193.823 62.218 194.597 61.9016C195.371 61.5853 196.204 61.4389 197.04 61.4726C198.277 61.4211 199.487 61.838 200.43 62.6399C200.892 63.0742 201.253 63.6043 201.488 64.193C201.724 64.7817 201.827 65.4148 201.792 66.0478C201.791 66.6412 201.752 67.2341 201.674 67.8224ZM194.416 65.9181H198.508C198.577 65.3919 198.46 64.8581 198.178 64.4087C198.037 64.2131 197.849 64.0563 197.632 63.9532C197.414 63.8501 197.174 63.8039 196.934 63.8191C195.637 63.8191 194.805 64.503 194.416 65.9181Z" fill="#F7971E"/>
<path d="M202.694 68.7893H205.842C205.829 68.9869 205.857 69.185 205.925 69.3709C205.993 69.5568 206.099 69.7263 206.237 69.8683C206.419 70.0259 206.631 70.1448 206.86 70.2178C207.089 70.2908 207.33 70.3163 207.57 70.2928C207.909 70.2996 208.246 70.2226 208.548 70.0688C208.718 69.9947 208.86 69.8712 208.958 69.7144C209.056 69.5576 209.103 69.375 209.095 69.1905C209.087 69.006 209.023 68.8284 208.911 68.681C208.8 68.5336 208.647 68.4234 208.472 68.3648C207.862 68.1601 207.239 67.9927 206.609 67.8637C205.893 67.7265 205.211 67.4479 204.604 67.0442C204.303 66.7994 204.064 66.4858 203.909 66.1298C203.755 65.7737 203.687 65.3857 203.714 64.9983C203.694 64.4177 203.843 63.8439 204.142 63.346C204.442 62.8481 204.878 62.4473 205.4 62.1918C206.439 61.6782 207.59 61.431 208.749 61.4725C209.795 61.4172 210.836 61.654 211.756 62.1565C212.205 62.4322 212.566 62.8323 212.793 63.3084C213.02 63.7845 213.104 64.3161 213.035 64.8391H209.969C209.988 64.6764 209.974 64.5115 209.927 64.3544C209.881 64.1974 209.803 64.0514 209.698 63.9252C209.563 63.7986 209.403 63.7022 209.229 63.6422C209.054 63.5822 208.868 63.5601 208.684 63.5774C207.658 63.5774 207.139 63.9075 207.139 64.562C207.139 64.8804 207.375 65.1516 207.841 65.3226C207.965 65.3638 208.507 65.4994 209.468 65.7412C210.27 65.8876 211.034 66.1944 211.715 66.6432C211.992 66.9061 212.206 67.2283 212.34 67.5857C212.475 67.9431 212.527 68.3264 212.493 68.7068C212.493 71.2263 210.724 72.4841 207.187 72.4802C204.282 72.492 202.784 71.2617 202.694 68.7893Z" fill="#F7971E"/>
<path d="M220.293 58.6661L219.65 61.791H221.797L221.337 63.996H219.173L218.347 67.9463C218.252 68.3549 218.193 68.7712 218.171 69.1903C218.171 69.55 218.524 69.7327 219.232 69.7327L220.293 69.6738L219.774 72.2208L217.787 72.3387C215.637 72.3387 214.562 71.7373 214.562 70.5346C214.608 69.6081 214.743 68.6881 214.963 67.7871L215.765 64.0196H214.038L214.503 61.8145H216.225L216.885 58.6897L220.293 58.6661Z" fill="#F7971E"/>
<path d="M98.2423 68.8307C98.2315 69.0333 98.2699 69.2357 98.3544 69.4202C98.4218 69.5707 98.5226 69.7037 98.6492 69.8094C98.7787 69.9048 98.9218 69.9803 99.0737 70.0334C99.238 70.0932 99.4117 70.1232 99.5866 70.1219H99.6809C99.9515 70.113 100.216 70.0403 100.453 69.9096C100.572 69.8377 100.667 69.7335 100.729 69.6093C100.791 69.4851 100.816 69.3459 100.801 69.208C100.804 69.057 100.758 68.9092 100.668 68.7876C100.578 68.666 100.451 68.5775 100.306 68.5359C99.9104 68.3806 99.502 68.2602 99.0854 68.1762L98.4959 68.0583L97.9063 67.9227C97.1781 67.7366 96.4879 67.4254 95.8663 67.0029C95.5452 66.7602 95.2916 66.4394 95.1296 66.071C94.9675 65.7025 94.9025 65.2988 94.9406 64.8981C94.9044 64.4444 94.9857 63.989 95.1768 63.5759C95.3678 63.1628 95.6622 62.8059 96.0314 62.5397C96.7363 62.0526 97.5427 61.732 98.3897 61.6023C98.5725 61.6023 98.7553 61.5551 98.9439 61.5433C99.1326 61.5315 99.3095 61.5433 99.4923 61.5433H99.9463H100.394C101.295 61.6142 102.169 61.8776 102.959 62.3157C103.368 62.5693 103.704 62.9238 103.937 63.345C104.169 63.7663 104.289 64.2402 104.286 64.7212H100.801C100.792 64.5767 100.752 64.4359 100.683 64.3085C100.617 64.1906 100.534 64.0833 100.436 63.9901C100.335 63.8966 100.214 63.8279 100.082 63.7897C99.9441 63.7491 99.801 63.7292 99.6573 63.7307C99.3842 63.7169 99.1121 63.7738 98.8673 63.8958C98.771 63.951 98.6922 64.0324 98.64 64.1304C98.5879 64.2284 98.5645 64.3392 98.5725 64.45C98.5725 64.6858 98.7258 64.8686 99.0265 64.9983C99.3866 65.1478 99.7596 65.2642 100.141 65.3462L100.866 65.5113L101.632 65.6999C102.377 65.8989 103.082 66.2218 103.72 66.6551C104.042 66.8935 104.299 67.2103 104.465 67.5755C104.631 67.9407 104.701 68.3423 104.669 68.7422C104.681 69.2413 104.573 69.736 104.352 70.1837C104.131 70.6315 103.805 71.019 103.401 71.3128C102.552 71.9692 101.243 72.2955 99.4746 72.2915H99.1267H98.8142C97.8292 72.2292 96.8713 71.9429 96.0137 71.4543C95.5694 71.1781 95.2037 70.7922 94.9518 70.3337C94.6998 69.8753 94.5701 69.3597 94.5751 68.8365L98.2423 68.8307Z" fill="#009AB6"/>
<path d="M106.072 61.791H109.61V63.3121L109.775 63.0999C109.834 63.0173 109.904 62.9348 109.975 62.8404C110.319 62.4804 110.717 62.1761 111.154 61.9384C111.619 61.6601 112.151 61.5153 112.693 61.5198C113.415 61.478 114.132 61.6613 114.745 62.0445C115.23 62.3801 115.61 62.8461 115.842 63.3888C116.213 62.8232 116.707 62.3478 117.286 61.9973C117.861 61.6722 118.512 61.5073 119.173 61.5198C120.588 61.5198 121.559 61.9128 122.085 62.6989C122.667 63.6898 122.944 64.8299 122.881 65.9771V72.0086H119.049V66.8025C119.083 66.2561 118.991 65.7091 118.778 65.2047C118.671 65.0352 118.519 64.8994 118.338 64.8128C118.158 64.7262 117.957 64.6924 117.758 64.7153C117.526 64.6877 117.292 64.739 117.093 64.861C116.894 64.983 116.742 65.1684 116.661 65.3875C116.486 65.8994 116.402 66.4383 116.413 66.9794V72.0086H112.581V66.8025C112.617 66.2565 112.527 65.7096 112.316 65.2047C112.208 65.0352 112.054 64.8995 111.873 64.813C111.692 64.7265 111.49 64.6927 111.29 64.7153C111.058 64.6877 110.824 64.739 110.625 64.861C110.426 64.983 110.274 65.1684 110.193 65.3875C110.018 65.8994 109.934 66.4383 109.946 66.9794V72.0086H106.113L106.072 61.791Z" fill="#009AB6"/>
<path d="M131.383 72.0085L131.2 70.8942C130.738 71.3905 130.164 71.7686 129.526 71.9967C128.892 72.1935 128.232 72.289 127.568 72.2797C126.711 72.2965 125.871 72.0405 125.169 71.5486C124.809 71.2767 124.524 70.9175 124.341 70.5048C124.159 70.0921 124.084 69.6397 124.125 69.1903C124.125 68.0111 124.485 67.2387 125.204 66.8319C125.931 66.4005 126.73 66.103 127.563 65.9534L128.199 65.865L128.836 65.7766C129.352 65.7174 129.863 65.6168 130.363 65.4759C130.782 65.3521 130.994 65.1162 130.994 64.7625C131.002 64.6602 130.986 64.5575 130.945 64.4631C130.905 64.3686 130.843 64.2853 130.764 64.22C130.614 64.1052 130.441 64.0247 130.257 63.9842C130.166 63.9614 130.073 63.9456 129.98 63.937H129.738H129.555H129.355C129.131 63.9781 128.92 64.0688 128.736 64.2024C128.631 64.2897 128.546 64.3986 128.487 64.5217C128.428 64.6449 128.396 64.7793 128.394 64.9158H124.715C124.691 64.4309 124.786 63.9475 124.991 63.5077C125.197 63.0678 125.507 62.6849 125.894 62.3923C126.68 61.7831 128.034 61.4804 129.956 61.4844C132.238 61.4844 133.618 61.8794 134.083 62.6635C134.588 63.5915 134.835 64.6382 134.797 65.694V70.4579C134.786 70.6327 134.786 70.8079 134.797 70.9826C134.815 71.1266 134.864 71.2651 134.938 71.3894C134.978 71.4611 135.027 71.5266 135.086 71.584C135.148 71.6533 135.215 71.7183 135.286 71.7786V71.9555L131.383 72.0085ZM130.622 69.3848C130.9 68.9165 131.037 68.3783 131.018 67.8342V67.6809C131.011 67.6518 131.011 67.6216 131.018 67.5925V67.5041C130.897 67.57 130.771 67.6252 130.64 67.6691L130.239 67.7989L129.903 67.8755L129.561 67.9521C129.206 68.0313 128.862 68.152 128.535 68.3118C128.389 68.3964 128.271 68.5217 128.194 68.6724C128.118 68.8232 128.087 68.9928 128.105 69.1608C128.107 69.2781 128.137 69.3931 128.194 69.4959C128.25 69.5986 128.331 69.686 128.429 69.7504C128.694 69.9198 129.005 70.0023 129.32 69.9862C129.57 70.0076 129.822 69.9634 130.051 69.858C130.279 69.7525 130.476 69.5895 130.622 69.3848Z" fill="#009AB6"/>
<path d="M136.913 61.7909H140.398V63.8604H140.439C140.635 63.1753 141.024 62.5612 141.559 62.0916C142.087 61.6859 142.74 61.4773 143.405 61.502H143.576H143.735H143.817H143.9V65.5879H143.77C143.727 65.5823 143.684 65.5823 143.641 65.5879H143.57C143.561 65.5921 143.55 65.5943 143.54 65.5943C143.53 65.5943 143.52 65.5921 143.511 65.5879H143.299H143.11C142.785 65.5622 142.458 65.608 142.152 65.7221C141.847 65.8361 141.57 66.0157 141.341 66.2482C140.946 66.6904 140.752 67.4628 140.752 68.5712V72.1087H136.919L136.913 61.7909Z" fill="#009AB6"/>
<path d="M144.702 57.9704H156.859V61.6553H152.956V72.0085H148.611V61.6553H144.702V57.9704Z" fill="#FEFEFE"/>
</g>
<path d="M0 4.70876C0 2.30693 1.94707 0.359863 4.34889 0.359863H230.491C232.893 0.359863 234.84 2.30693 234.84 4.70876V22.1043H0V4.70876Z" fill="#979591" fill-opacity="0.7"/>
<path d="M66.4451 8.11865V12.0405H71.0558V13.2773H66.4451V18.0994H64.9264V6.88183H71.8386V8.11865H66.4451ZM76.1046 10.0443C76.6838 10.0443 77.2057 10.1409 77.6702 10.334C78.1346 10.5271 78.5313 10.8011 78.86 11.1559C79.1888 11.5108 79.4393 11.9413 79.6115 12.4475C79.789 12.9485 79.8777 13.5095 79.8777 14.1306C79.8777 14.7568 79.789 15.3204 79.6115 15.8214C79.4393 16.3224 79.1888 16.7503 78.86 17.1052C78.5313 17.4601 78.1346 17.7341 77.6702 17.9271C77.2057 18.115 76.6838 18.209 76.1046 18.209C75.5201 18.209 74.993 18.115 74.5233 17.9271C74.0589 17.7341 73.6622 17.4601 73.3335 17.1052C73.0047 16.7503 72.7516 16.3224 72.5741 15.8214C72.4019 15.3204 72.3158 14.7568 72.3158 14.1306C72.3158 13.5095 72.4019 12.9485 72.5741 12.4475C72.7516 11.9413 73.0047 11.5108 73.3335 11.1559C73.6622 10.8011 74.0589 10.5271 74.5233 10.334C74.993 10.1409 75.5201 10.0443 76.1046 10.0443ZM76.1046 17.1209C76.8874 17.1209 77.4719 16.8599 77.8581 16.3381C78.2442 15.811 78.4373 15.0778 78.4373 14.1384C78.4373 13.1938 78.2442 12.458 77.8581 11.9309C77.4719 11.4038 76.8874 11.1403 76.1046 11.1403C75.708 11.1403 75.3609 11.2081 75.0635 11.3438C74.7712 11.4795 74.5259 11.6752 74.3276 11.9309C74.1345 12.1866 73.9884 12.5023 73.8892 12.8781C73.7953 13.2486 73.7483 13.6687 73.7483 14.1384C73.7483 15.0778 73.9414 15.811 74.3276 16.3381C74.719 16.8599 75.3113 17.1209 76.1046 17.1209ZM82.9679 11.7587C83.2184 11.2159 83.5263 10.7932 83.8916 10.4905C84.2569 10.1826 84.7031 10.0287 85.2302 10.0287C85.3972 10.0287 85.5564 10.047 85.7077 10.0835C85.8643 10.12 86.0026 10.1774 86.1226 10.2557L86.0208 11.2968C85.9895 11.4273 85.9112 11.4925 85.786 11.4925C85.7129 11.4925 85.6059 11.4769 85.465 11.4456C85.3241 11.4142 85.165 11.3986 84.9875 11.3986C84.737 11.3986 84.5126 11.4351 84.3143 11.5082C84.1212 11.5812 83.9464 11.6908 83.7898 11.837C83.6385 11.9779 83.5002 12.1553 83.375 12.3693C83.2549 12.578 83.1453 12.8181 83.0462 13.0894V18.0994H81.645V10.1696H82.4434C82.5948 10.1696 82.6991 10.1983 82.7565 10.2557C82.814 10.3131 82.8531 10.4123 82.874 10.5532L82.9679 11.7587ZM92.8646 18.0994H91.346V6.88183H92.8646V18.0994ZM96.5979 11.3203C96.7702 11.1272 96.9528 10.9524 97.1459 10.7958C97.339 10.6393 97.5425 10.5062 97.7565 10.3966C97.9757 10.2818 98.2053 10.1957 98.4453 10.1383C98.6906 10.0757 98.9542 10.0443 99.236 10.0443C99.6691 10.0443 100.05 10.1174 100.379 10.2635C100.713 10.4044 100.989 10.608 101.209 10.8741C101.433 11.135 101.603 11.4508 101.717 11.8213C101.832 12.1918 101.89 12.6015 101.89 13.0503V18.0994H100.488V13.0503C100.488 12.4502 100.35 11.9857 100.074 11.6569C99.8022 11.3229 99.3873 11.1559 98.8289 11.1559C98.4166 11.1559 98.0305 11.2551 97.6704 11.4534C97.3155 11.6517 96.9867 11.9205 96.684 12.2597V18.0994H95.2828V10.1696H96.1204C96.3187 10.1696 96.4414 10.2661 96.4883 10.4592L96.5979 11.3203ZM110.639 10.1696L107.406 18.0994H106.154L102.921 10.1696H104.056C104.171 10.1696 104.265 10.1983 104.338 10.2557C104.411 10.3131 104.461 10.3809 104.487 10.4592L106.498 15.5631C106.561 15.7562 106.616 15.9441 106.663 16.1267C106.71 16.3094 106.754 16.492 106.796 16.6747C106.838 16.492 106.882 16.3094 106.929 16.1267C106.976 15.9441 107.033 15.7562 107.101 15.5631L109.136 10.4592C109.168 10.3757 109.22 10.3079 109.293 10.2557C109.366 10.1983 109.452 10.1696 109.551 10.1696H110.639ZM117.011 13.2695C117.011 12.9459 116.964 12.6511 116.87 12.3849C116.781 12.1135 116.648 11.8813 116.471 11.6882C116.298 11.4899 116.087 11.3386 115.836 11.2342C115.586 11.1246 115.302 11.0698 114.983 11.0698C114.315 11.0698 113.786 11.2655 113.394 11.6569C113.008 12.0431 112.768 12.5806 112.674 13.2695H117.011ZM118.138 16.9878C117.966 17.1965 117.76 17.3792 117.52 17.5357C117.279 17.6871 117.021 17.8123 116.745 17.9115C116.473 18.0106 116.191 18.0837 115.899 18.1307C115.607 18.1829 115.317 18.209 115.03 18.209C114.482 18.209 113.976 18.1176 113.512 17.935C113.052 17.7471 112.653 17.4757 112.314 17.1209C111.98 16.7608 111.719 16.3172 111.531 15.7901C111.343 15.263 111.249 14.6577 111.249 13.974C111.249 13.4208 111.333 12.9042 111.5 12.4241C111.672 11.9439 111.917 11.5291 112.236 11.1794C112.554 10.8245 112.943 10.5479 113.402 10.3496C113.861 10.1461 114.378 10.0443 114.952 10.0443C115.427 10.0443 115.865 10.1252 116.267 10.287C116.674 10.4436 117.024 10.6732 117.316 10.9759C117.613 11.2733 117.846 11.6439 118.013 12.0875C118.18 12.5258 118.263 13.0268 118.263 13.5904C118.263 13.8096 118.24 13.9557 118.193 14.0288C118.146 14.1019 118.057 14.1384 117.927 14.1384H112.627C112.643 14.6394 112.711 15.0751 112.831 15.4457C112.956 15.8162 113.128 16.1267 113.347 16.3772C113.566 16.6225 113.827 16.8077 114.13 16.933C114.433 17.053 114.772 17.113 115.148 17.113C115.497 17.113 115.797 17.0739 116.048 16.9956C116.304 16.9121 116.523 16.8234 116.705 16.7295C116.888 16.6355 117.039 16.5494 117.159 16.4711C117.285 16.3876 117.392 16.3459 117.48 16.3459C117.595 16.3459 117.684 16.3902 117.747 16.479L118.138 16.9878ZM124.593 11.4769C124.531 11.5917 124.434 11.6491 124.304 11.6491C124.225 11.6491 124.137 11.6204 124.037 11.563C123.938 11.5056 123.816 11.4429 123.67 11.3751C123.529 11.302 123.359 11.2368 123.161 11.1794C122.962 11.1168 122.728 11.0855 122.456 11.0855C122.221 11.0855 122.01 11.1168 121.822 11.1794C121.634 11.2368 121.472 11.3177 121.337 11.4221C121.206 11.5264 121.105 11.6491 121.031 11.79C120.964 11.9257 120.93 12.0744 120.93 12.2362C120.93 12.4397 120.987 12.6093 121.102 12.745C121.222 12.8807 121.379 12.9981 121.572 13.0973C121.765 13.1964 121.984 13.2851 122.229 13.3634C122.474 13.4365 122.725 13.5174 122.981 13.6061C123.242 13.6896 123.495 13.7835 123.74 13.8879C123.985 13.9923 124.204 14.1227 124.398 14.2793C124.591 14.4359 124.745 14.6289 124.859 14.8586C124.979 15.083 125.039 15.3543 125.039 15.6727C125.039 16.038 124.974 16.3772 124.844 16.6903C124.713 16.9982 124.52 17.267 124.264 17.4966C124.009 17.721 123.696 17.8984 123.325 18.0289C122.955 18.1594 122.527 18.2246 122.041 18.2246C121.488 18.2246 120.987 18.1359 120.538 17.9585C120.09 17.7758 119.709 17.5436 119.395 17.2618L119.724 16.7295C119.766 16.6616 119.816 16.6094 119.873 16.5729C119.93 16.5364 120.003 16.5181 120.092 16.5181C120.186 16.5181 120.285 16.5546 120.39 16.6277C120.494 16.7008 120.619 16.7817 120.765 16.8704C120.917 16.9591 121.099 17.04 121.313 17.113C121.527 17.1861 121.793 17.2226 122.112 17.2226C122.383 17.2226 122.621 17.1887 122.824 17.1209C123.028 17.0478 123.197 16.9513 123.333 16.8312C123.469 16.7112 123.568 16.5729 123.63 16.4163C123.698 16.2598 123.732 16.0928 123.732 15.9154C123.732 15.6962 123.672 15.5161 123.552 15.3752C123.437 15.2291 123.283 15.1065 123.09 15.0073C122.897 14.9029 122.675 14.8142 122.425 14.7411C122.18 14.6629 121.926 14.582 121.666 14.4985C121.41 14.415 121.157 14.321 120.906 14.2167C120.661 14.1071 120.442 13.9714 120.249 13.8096C120.056 13.6478 119.899 13.4495 119.779 13.2147C119.664 12.9746 119.607 12.685 119.607 12.3458C119.607 12.0431 119.669 11.7535 119.795 11.4769C119.92 11.1951 120.103 10.9498 120.343 10.741C120.583 10.5271 120.878 10.3575 121.227 10.2322C121.577 10.107 121.976 10.0443 122.425 10.0443C122.947 10.0443 123.414 10.1278 123.826 10.2948C124.244 10.4566 124.604 10.681 124.906 10.968L124.593 11.4769ZM129.182 18.2246C128.556 18.2246 128.073 18.0498 127.734 17.7001C127.4 17.3505 127.233 16.8469 127.233 16.1893V11.336H126.278C126.195 11.336 126.124 11.3125 126.067 11.2655C126.009 11.2133 125.981 11.135 125.981 11.0307V10.4749L127.28 10.3105L127.601 7.86033C127.617 7.78205 127.651 7.71942 127.703 7.67246C127.76 7.62027 127.833 7.59418 127.922 7.59418H128.626V10.3262H130.92V11.336H128.626V16.0954C128.626 16.4294 128.707 16.6773 128.869 16.8391C129.031 17.0008 129.24 17.0817 129.495 17.0817C129.642 17.0817 129.767 17.0635 129.871 17.0269C129.981 16.9852 130.075 16.9408 130.153 16.8939C130.231 16.8469 130.296 16.8051 130.349 16.7686C130.406 16.7269 130.456 16.706 130.497 16.706C130.57 16.706 130.636 16.7503 130.693 16.8391L131.1 17.5044C130.86 17.7288 130.57 17.9063 130.231 18.0367C129.892 18.162 129.542 18.2246 129.182 18.2246ZM135.656 10.0443C136.235 10.0443 136.757 10.1409 137.221 10.334C137.686 10.5271 138.082 10.8011 138.411 11.1559C138.74 11.5108 138.99 11.9413 139.162 12.4475C139.34 12.9485 139.429 13.5095 139.429 14.1306C139.429 14.7568 139.34 15.3204 139.162 15.8214C138.99 16.3224 138.74 16.7503 138.411 17.1052C138.082 17.4601 137.686 17.7341 137.221 17.9271C136.757 18.115 136.235 18.209 135.656 18.209C135.071 18.209 134.544 18.115 134.074 17.9271C133.61 17.7341 133.213 17.4601 132.884 17.1052C132.556 16.7503 132.303 16.3224 132.125 15.8214C131.953 15.3204 131.867 14.7568 131.867 14.1306C131.867 13.5095 131.953 12.9485 132.125 12.4475C132.303 11.9413 132.556 11.5108 132.884 11.1559C133.213 10.8011 133.61 10.5271 134.074 10.334C134.544 10.1409 135.071 10.0443 135.656 10.0443ZM135.656 17.1209C136.438 17.1209 137.023 16.8599 137.409 16.3381C137.795 15.811 137.988 15.0778 137.988 14.1384C137.988 13.1938 137.795 12.458 137.409 11.9309C137.023 11.4038 136.438 11.1403 135.656 11.1403C135.259 11.1403 134.912 11.2081 134.614 11.3438C134.322 11.4795 134.077 11.6752 133.879 11.9309C133.685 12.1866 133.539 12.5023 133.44 12.8781C133.346 13.2486 133.299 13.6687 133.299 14.1384C133.299 15.0778 133.492 15.811 133.879 16.3381C134.27 16.8599 134.862 17.1209 135.656 17.1209ZM142.519 11.7587C142.769 11.2159 143.077 10.7932 143.443 10.4905C143.808 10.1826 144.254 10.0287 144.781 10.0287C144.948 10.0287 145.107 10.047 145.259 10.0835C145.415 10.12 145.554 10.1774 145.674 10.2557L145.572 11.2968C145.54 11.4273 145.462 11.4925 145.337 11.4925C145.264 11.4925 145.157 11.4769 145.016 11.4456C144.875 11.4142 144.716 11.3986 144.539 11.3986C144.288 11.3986 144.064 11.4351 143.865 11.5082C143.672 11.5812 143.497 11.6908 143.341 11.837C143.189 11.9779 143.051 12.1553 142.926 12.3693C142.806 12.578 142.696 12.8181 142.597 13.0894V18.0994H141.196V10.1696H141.994C142.146 10.1696 142.25 10.1983 142.308 10.2557C142.365 10.3131 142.404 10.4123 142.425 10.5532L142.519 11.7587ZM151.471 11.4769C151.409 11.5917 151.312 11.6491 151.182 11.6491C151.104 11.6491 151.015 11.6204 150.916 11.563C150.816 11.5056 150.694 11.4429 150.548 11.3751C150.407 11.302 150.237 11.2368 150.039 11.1794C149.841 11.1168 149.606 11.0855 149.334 11.0855C149.1 11.0855 148.888 11.1168 148.7 11.1794C148.512 11.2368 148.351 11.3177 148.215 11.4221C148.085 11.5264 147.983 11.6491 147.91 11.79C147.842 11.9257 147.808 12.0744 147.808 12.2362C147.808 12.4397 147.865 12.6093 147.98 12.745C148.1 12.8807 148.257 12.9981 148.45 13.0973C148.643 13.1964 148.862 13.2851 149.107 13.3634C149.353 13.4365 149.603 13.5174 149.859 13.6061C150.12 13.6896 150.373 13.7835 150.618 13.8879C150.863 13.9923 151.083 14.1227 151.276 14.2793C151.469 14.4359 151.623 14.6289 151.738 14.8586C151.858 15.083 151.918 15.3543 151.918 15.6727C151.918 16.038 151.852 16.3772 151.722 16.6903C151.591 16.9982 151.398 17.267 151.143 17.4966C150.887 17.721 150.574 17.8984 150.203 18.0289C149.833 18.1594 149.405 18.2246 148.919 18.2246C148.366 18.2246 147.865 18.1359 147.417 17.9585C146.968 17.7758 146.587 17.5436 146.274 17.2618L146.602 16.7295C146.644 16.6616 146.694 16.6094 146.751 16.5729C146.809 16.5364 146.882 16.5181 146.97 16.5181C147.064 16.5181 147.163 16.5546 147.268 16.6277C147.372 16.7008 147.497 16.7817 147.644 16.8704C147.795 16.9591 147.978 17.04 148.191 17.113C148.405 17.1861 148.672 17.2226 148.99 17.2226C149.261 17.2226 149.499 17.1887 149.702 17.1209C149.906 17.0478 150.075 16.9513 150.211 16.8312C150.347 16.7112 150.446 16.5729 150.509 16.4163C150.576 16.2598 150.61 16.0928 150.61 15.9154C150.61 15.6962 150.55 15.5161 150.43 15.3752C150.315 15.2291 150.162 15.1065 149.968 15.0073C149.775 14.9029 149.554 14.8142 149.303 14.7411C149.058 14.6629 148.805 14.582 148.544 14.4985C148.288 14.415 148.035 14.321 147.784 14.2167C147.539 14.1071 147.32 13.9714 147.127 13.8096C146.934 13.6478 146.777 13.4495 146.657 13.2147C146.542 12.9746 146.485 12.685 146.485 12.3458C146.485 12.0431 146.548 11.7535 146.673 11.4769C146.798 11.1951 146.981 10.9498 147.221 10.741C147.461 10.5271 147.756 10.3575 148.105 10.2322C148.455 10.107 148.854 10.0443 149.303 10.0443C149.825 10.0443 150.292 10.1278 150.704 10.2948C151.122 10.4566 151.482 10.681 151.785 10.968L151.471 11.4769Z" fill="#FEFEFE"/>
</g>
<defs>
<clipPath id="clip0_72_14100">
<rect y="0.359863" width="234.843" height="85.1847" rx="4.34889" fill="white"/>
</clipPath>
<clipPath id="clip1_72_14100">
<rect width="208.75" height="41.6958" fill="white" transform="translate(13.0466 30.8021)"/>
</clipPath>
</defs>
</svg>
