<svg width="209" height="38" viewBox="0 0 209 38" fill="none" xmlns="http://www.w3.org/2000/svg">
<g clip-path="url(#clip0_20508_30699)">
<path fill-rule="evenodd" clip-rule="evenodd" d="M111.851 9.12917H115.402C117.072 9.12917 118.115 8.24444 118.115 6.83238V6.79137C118.115 5.31486 117.101 4.44771 115.338 4.44771H111.851V9.13503V9.12917ZM117.992 16.7871L114.699 11.8712H111.851V16.7871H108.717V1.66461H115.625C117.494 1.66461 119.017 2.19194 120.019 3.18799C120.45 3.64431 120.785 4.18199 121.006 4.76954C121.226 5.35709 121.327 5.9827 121.302 6.60973V6.65661C121.346 7.67654 121.055 8.68283 120.475 9.52252C119.894 10.3622 119.055 10.9894 118.086 11.3088L117.933 11.3615L121.648 16.7871H117.992Z" fill="#FEFEFE"/>
<path fill-rule="evenodd" clip-rule="evenodd" d="M131.504 4.27191C130.866 4.26904 130.234 4.39536 129.647 4.64327C129.059 4.89118 128.528 5.25553 128.085 5.71435C127.642 6.17317 127.296 6.71696 127.069 7.31291C126.842 7.90887 126.738 8.54464 126.764 9.18188V9.22289C126.745 9.86387 126.854 10.5021 127.086 11.1001C127.317 11.6982 127.666 12.2438 128.112 12.7051C128.557 13.1664 129.09 13.534 129.68 13.7862C130.269 14.0384 130.903 14.1702 131.545 14.1739C132.182 14.1801 132.815 14.0562 133.403 13.8097C133.991 13.5632 134.522 13.1993 134.965 12.7402C135.408 12.2811 135.752 11.7366 135.977 11.1398C136.202 10.5431 136.302 9.90678 136.273 9.26977V9.22289C136.292 8.58289 136.182 7.94559 135.952 7.34835C135.721 6.7511 135.373 6.20594 134.929 5.74482C134.485 5.2837 133.953 4.91589 133.365 4.66297C132.777 4.41005 132.144 4.2771 131.504 4.27191ZM131.504 17.0507C126.922 17.0507 123.471 13.7051 123.471 9.26977V9.22289C123.477 8.17601 123.691 7.14082 124.102 6.17797C124.513 5.21511 125.112 4.34395 125.864 3.6155C126.616 2.88706 127.506 2.31598 128.481 1.93571C129.457 1.55544 130.498 1.37363 131.545 1.40093C136.121 1.40093 139.56 4.7465 139.56 9.18188V9.22289C139.556 10.269 139.343 11.3037 138.933 12.2664C138.524 13.2291 137.927 14.1005 137.176 14.8295C136.426 15.5585 135.538 16.1304 134.564 16.5118C133.59 16.8932 132.549 17.0764 131.504 17.0507Z" fill="#FEFEFE"/>
<path fill-rule="evenodd" clip-rule="evenodd" d="M146.315 7.87531H149.55C151.665 7.87531 152.11 6.92613 152.11 6.11756V6.08241C152.11 5.00433 151.255 4.38326 149.766 4.38326H146.309V7.89874L146.315 7.87531ZM146.315 14.0626H150.446C152.532 14.0626 152.965 13.0899 152.965 12.3048V12.2638C152.965 11.4494 152.508 10.4709 150.341 10.4709H146.315V14.0919V14.0626ZM143.257 16.7871V1.65875H150.288C151.987 1.65875 153.346 2.12163 154.219 2.98878C154.554 3.31665 154.818 3.71025 154.993 4.14484C155.169 4.57942 155.252 5.0456 155.239 5.51407V5.55509C155.259 6.22311 155.084 6.88254 154.735 7.45276C154.387 8.02298 153.88 8.47929 153.276 8.7659L153.036 8.90066L153.282 8.99441C155.245 9.74438 156.077 10.84 156.077 12.6622V12.6974C156.077 15.3047 154.026 16.7988 150.446 16.7988L143.257 16.7871Z" fill="#FEFEFE"/>
<path fill-rule="evenodd" clip-rule="evenodd" d="M160.436 16.7871V7.81085H171.767V10.5529H163.547V14.0215H171.767V16.7871H160.436Z" fill="#FEFEFE"/>
<path fill-rule="evenodd" clip-rule="evenodd" d="M183.714 17.0507C182.688 17.0707 181.668 16.8829 180.716 16.4988C179.764 16.1146 178.899 15.5419 178.174 14.8151C177.449 14.0883 176.878 13.2224 176.496 12.2695C176.114 11.3165 175.929 10.2962 175.951 9.26975V9.22288C175.933 8.18458 176.126 7.15345 176.518 6.1917C176.909 5.22995 177.492 4.35752 178.23 3.62708C178.968 2.89663 179.846 2.3233 180.812 1.9417C181.778 1.5601 182.811 1.37813 183.849 1.40677C184.934 1.34979 186.019 1.52053 187.034 1.90802C188.05 2.29551 188.972 2.89117 189.743 3.65669L187.745 5.97105C186.705 4.92548 185.3 4.32292 183.826 4.28947C181.213 4.28947 179.244 6.40463 179.244 9.19944V9.24045C179.244 12.0704 181.213 14.1914 183.826 14.1914C185.542 14.1914 186.615 13.5528 187.863 12.4337L189.843 14.4375C189.083 15.3053 188.138 15.9908 187.077 16.4432C186.016 16.8955 184.867 17.1032 183.714 17.0507Z" fill="#FEFEFE"/>
<path fill-rule="evenodd" clip-rule="evenodd" d="M200.641 4.27195C200.004 4.26986 199.373 4.39677 198.786 4.64503C198.199 4.89329 197.669 5.25777 197.226 5.71651C196.784 6.17525 196.439 6.71876 196.212 7.31432C195.986 7.90988 195.882 8.54516 195.907 9.18191V9.22293C195.888 9.86342 195.998 10.5012 196.229 11.0988C196.46 11.6965 196.808 12.2419 197.253 12.7031C197.698 13.1643 198.23 13.532 198.819 13.7845C199.408 14.0371 200.042 14.1695 200.682 14.1739C201.32 14.181 201.953 14.0576 202.542 13.8115C203.131 13.5653 203.663 13.2015 204.107 12.7424C204.55 12.2832 204.895 11.7384 205.12 11.1413C205.345 10.5441 205.446 9.90731 205.416 9.2698V9.22293C205.434 8.58264 205.324 7.94521 205.093 7.34794C204.862 6.75066 204.513 6.20556 204.069 5.74452C203.624 5.28348 203.092 4.91577 202.503 4.66292C201.915 4.41007 201.282 4.27715 200.641 4.27195ZM200.641 17.0507C196.071 17.0507 192.62 13.7052 192.62 9.2698V9.22293C192.625 8.17682 192.839 7.14226 193.249 6.17983C193.659 5.2174 194.257 4.34645 195.008 3.61801C195.759 2.88956 196.647 2.31826 197.622 1.93757C198.596 1.55688 199.637 1.37445 200.682 1.40096C205.258 1.40096 208.698 4.74654 208.698 9.18191V9.22293C208.692 10.2686 208.478 11.3025 208.068 12.2645C207.658 13.2265 207.061 14.0972 206.311 14.8259C205.561 15.5546 204.673 16.1266 203.7 16.5086C202.726 16.8906 201.687 17.0749 200.641 17.0507Z" fill="#FEFEFE"/>
<path d="M171.767 1.66461H160.436V4.43599H171.767V1.66461Z" fill="#009AB6"/>
<path fill-rule="evenodd" clip-rule="evenodd" d="M9.04727 16.9277C8.02129 16.9476 7.00186 16.7601 6.05017 16.3763C5.09849 15.9924 4.23417 15.4203 3.5091 14.6941C2.78404 13.968 2.21318 13.1028 1.8308 12.1505C1.44841 11.1983 1.26239 10.1785 1.2839 9.1526V9.10572C1.26529 8.06694 1.45744 7.03517 1.84875 6.07273C2.24006 5.11029 2.8224 4.23717 3.5606 3.50609C4.29879 2.77501 5.17753 2.20116 6.14371 1.81919C7.1099 1.43723 8.14348 1.25509 9.18203 1.28376C10.2666 1.228 11.3509 1.39991 12.365 1.78841C13.3791 2.17692 14.3007 2.77342 15.0705 3.53953L13.0725 5.83632C12.0342 4.79111 10.6315 4.18847 9.15859 4.15474C6.58643 4.15474 4.57674 6.31091 4.57674 9.05885V9.10572C4.57674 11.9357 6.54541 14.0567 9.15859 14.0567C10.8753 14.0567 11.9475 13.4181 13.1955 12.299L15.1818 14.3028C14.4225 15.1735 13.4766 15.8617 12.4144 16.3161C11.3523 16.7706 10.2014 16.9796 9.04727 16.9277Z" fill="#009AB6"/>
<path fill-rule="evenodd" clip-rule="evenodd" d="M22.617 10.4768H27.0641L24.8376 5.05119L22.617 10.4768ZM29.5776 16.6757L28.1714 13.2188H21.5037L20.0975 16.6757H16.916L23.4021 1.4361H26.3317L32.8119 16.6699L29.5776 16.6757Z" fill="#009AB6"/>
<path fill-rule="evenodd" clip-rule="evenodd" d="M46.2408 16.6757L38.6122 6.66246V16.6757H35.5186V1.54742H38.454L45.8424 11.2443V1.54742H48.936V16.6757H46.2408Z" fill="#009AB6"/>
<path fill-rule="evenodd" clip-rule="evenodd" d="M57.3094 10.4768H61.7564L59.5358 5.05119L57.3094 10.4768ZM64.27 16.6757L62.8638 13.2188H56.202L54.8016 16.6757H51.6143L58.1179 1.4361H61.0475L67.5336 16.6699L64.27 16.6757Z" fill="#009AB6"/>
<path fill-rule="evenodd" clip-rule="evenodd" d="M72.4784 9.01198H75.9939C77.6696 9.01198 78.7125 8.12725 78.7125 6.70933V6.66832C78.7125 5.19767 77.6989 4.35396 75.9294 4.35396H72.4491V9.04127L72.4784 9.01198ZM78.6246 16.6757L75.3318 11.7541H72.4843V16.6757H69.3496V1.54742H76.2517C78.1266 1.54742 79.65 2.06889 80.646 3.0708C81.0774 3.52547 81.4133 4.06203 81.6337 4.64876C81.8541 5.23548 81.9546 5.86045 81.9292 6.48669V6.557C81.9715 7.57595 81.6803 8.5809 81.0998 9.4194C80.5193 10.2579 79.6812 10.8842 78.7125 11.2033L78.566 11.2619L82.2749 16.6933L78.6246 16.6757Z" fill="#009AB6"/>
<path fill-rule="evenodd" clip-rule="evenodd" d="M89.657 10.4768H94.1041L91.8776 5.05119L89.657 10.4768ZM96.6177 16.6757L95.2115 13.2188H88.5848L87.1727 16.6757H83.9912L90.4773 1.44196H93.4069L99.8871 16.6757H96.6177Z" fill="#009AB6"/>
<path d="M51.5913 33.7475C51.5913 34.1196 51.7216 34.4174 52.0007 34.622C52.2612 34.8081 52.5589 34.9198 52.9311 34.9198C53.266 34.9198 53.5637 34.8453 53.787 34.7151C54.0103 34.5848 54.1406 34.3615 54.1406 34.0638C54.1406 33.8033 53.9731 33.5986 53.6568 33.4684C53.3404 33.3381 52.838 33.2079 52.1495 33.059C51.5727 32.9473 51.0889 32.8357 50.6795 32.724C50.2702 32.6124 49.8794 32.4449 49.5258 32.2403C49.1537 32.0356 48.856 31.7378 48.6327 31.3843C48.4094 31.0307 48.2791 30.5842 48.2791 30.0445C48.2791 29.4677 48.4094 28.9653 48.6885 28.5373C48.949 28.1279 49.3212 27.793 49.7491 27.5511C50.1957 27.3092 50.6795 27.1417 51.2192 27.0301C51.7402 26.9184 52.2798 26.8812 52.8194 26.8812C53.3963 26.8812 53.9545 26.9184 54.4755 27.0115C54.9965 27.1045 55.4803 27.2534 55.9455 27.4766C56.3921 27.6999 56.7643 27.9977 57.062 28.407C57.3597 28.7978 57.5272 29.3002 57.5644 29.9143H54.1034C54.0661 29.6165 53.9359 29.3933 53.7312 29.2258C53.5451 29.0769 53.2846 28.9839 52.9683 28.9839C52.6333 28.9839 52.3542 29.0397 52.1682 29.1514C51.9821 29.263 51.889 29.4305 51.889 29.6538C51.889 29.8771 52.0379 30.0631 52.3542 30.1748C52.652 30.2864 53.1544 30.4167 53.8615 30.5655C54.4755 30.6958 54.9965 30.8261 55.4059 30.9563C55.8153 31.0866 56.2247 31.254 56.6154 31.4773C57.0062 31.7006 57.3225 31.9797 57.583 32.3519C57.8249 32.724 57.9552 33.1706 57.9552 33.6917C57.9552 34.7337 57.5272 35.5524 56.6526 36.1479C55.7967 36.7433 54.4941 37.0411 52.8008 37.0411C52.2054 37.0411 51.6285 36.9852 51.1075 36.8922C50.5679 36.7806 50.0841 36.6131 49.6189 36.3712C49.1537 36.1293 48.7815 35.7757 48.5024 35.3664C48.2233 34.9384 48.0558 34.4174 48 33.8219H51.5913V33.7475Z" fill="#299FB9"/>
<path d="M59.3516 27.1603H62.8498V28.5931C63.129 28.1651 63.5383 27.7743 64.0966 27.4208C64.6548 27.0672 65.2502 26.8998 65.8829 26.8998C66.7017 26.8998 67.3715 27.0486 67.8739 27.365C68.3764 27.6813 68.7671 28.1093 69.009 28.6489C69.8464 27.4766 70.9442 26.8998 72.3212 26.8998C73.661 26.8998 74.61 27.2533 75.1682 27.9418C75.7264 28.6489 76.0056 29.691 76.0056 31.0679V36.7247H72.2096V31.8495C72.2096 31.1238 72.1165 30.6213 71.9304 30.3236C71.7444 30.0259 71.4094 29.877 70.9256 29.877C70.4232 29.877 70.0697 30.0631 69.8836 30.4353C69.6975 30.8074 69.6045 31.3284 69.6045 31.9983V36.7247H65.8085V31.8495C65.8085 31.1238 65.7154 30.6213 65.5294 30.3236C65.3433 30.0259 65.0083 29.877 64.5245 29.877C64.0221 29.877 63.6686 30.0631 63.4825 30.4353C63.2964 30.8074 63.2034 31.3284 63.2034 31.9983V36.7247H59.4074V27.1603H59.3516Z" fill="#299FB9"/>
<path d="M84.4523 36.7248L84.2662 35.7013C83.7638 36.1851 83.2241 36.5201 82.6473 36.7062C82.0891 36.8922 81.4192 37.0039 80.6563 37.0039C79.6887 37.0039 78.8699 36.762 78.2186 36.2596C77.5674 35.7572 77.2324 35.0501 77.2324 34.1197C77.2324 33.5056 77.3627 32.9846 77.6418 32.5752C77.9023 32.1658 78.2559 31.8495 78.6838 31.6448C79.1118 31.4401 79.5584 31.2727 80.0236 31.1796C80.4888 31.0866 81.0656 30.9936 81.7355 30.9191C82.5543 30.8261 83.1311 30.7144 83.5033 30.6028C83.8568 30.4911 84.0429 30.2678 84.0429 29.9515C84.0429 29.6538 83.9126 29.4491 83.6521 29.3375C83.3916 29.2258 83.1125 29.17 82.7962 29.17C82.4612 29.17 82.1635 29.2258 81.903 29.3561C81.6425 29.4863 81.4936 29.7282 81.4564 30.1004H77.8093C77.8093 29.0583 78.2186 28.2582 79.056 27.7C79.8933 27.1603 81.2145 26.8812 83.0381 26.8812C84.1359 26.8812 85.0105 26.9743 85.6618 27.1603C86.313 27.3464 86.7968 27.6255 87.1132 27.9605C87.4295 28.314 87.6156 28.7048 87.7086 29.1514C87.8017 29.598 87.8389 30.1562 87.8389 30.8447V35.3292C87.8389 35.6269 87.8575 35.8688 87.9133 36.0363C87.9691 36.2037 88.118 36.3712 88.3413 36.5573V36.7434H84.4523V36.7248ZM83.6707 34.2871C83.9498 33.915 84.0801 33.4312 84.0801 32.7985L84.0615 32.631C84.0615 32.5752 84.0615 32.5194 84.0615 32.4636C83.7638 32.5938 83.3172 32.7241 82.7217 32.8729C82.1821 33.0032 81.7727 33.1335 81.5308 33.2637C81.2889 33.4126 81.1587 33.6545 81.1587 34.0266C81.1587 34.2685 81.2703 34.4732 81.475 34.6035C81.6797 34.7523 81.9774 34.8268 82.3682 34.8268C82.9822 34.8454 83.4102 34.6593 83.6707 34.2871Z" fill="#299FB9"/>
<path d="M89.9434 27.1603H93.4044V29.0956H93.4416C93.9627 27.6255 94.9489 26.8812 96.3817 26.8812C96.4561 26.8812 96.5677 26.8998 96.7166 26.9184L96.8841 26.9371V30.733C96.8283 30.7144 96.7538 30.7144 96.6236 30.6958C96.4003 30.64 96.2142 30.6214 96.1025 30.6214C95.3024 30.6214 94.707 30.8261 94.3348 31.2541C93.9626 31.682 93.7766 32.4077 93.7766 33.4126V36.7248H89.9806V27.1603H89.9434Z" fill="#299FB9"/>
<path d="M97.8135 23.8853H109.871V27.3464H106.001V37.0411H101.684V27.3464H97.8135V23.8853Z" fill="#FEFEFE"/>
<path d="M112.272 28.2396C113.258 27.3278 114.579 26.8812 116.217 26.8812C117.891 26.8812 119.231 27.3278 120.217 28.2396C121.204 29.1514 121.687 30.3423 121.687 31.8495C121.687 32.7054 121.557 33.4498 121.278 34.101C120.999 34.7523 120.627 35.2919 120.143 35.7199C119.659 36.1479 119.082 36.4642 118.412 36.6875C117.742 36.8922 117.035 37.0038 116.254 37.0038C114.654 37.0038 113.351 36.5759 112.328 35.7199C111.304 34.864 110.802 33.6358 110.802 32.0542C110.802 30.4167 111.286 29.1514 112.272 28.2396ZM115.491 29.6538C115.268 29.8026 115.1 29.9887 114.97 30.212C114.84 30.4353 114.765 30.6958 114.691 30.9749C114.635 31.254 114.598 31.5332 114.598 31.8309C114.598 32.7054 114.747 33.3567 115.044 33.7847C115.342 34.2127 115.733 34.4174 116.254 34.4174C116.775 34.4174 117.184 34.2127 117.463 33.7847C117.742 33.3567 117.891 32.7054 117.891 31.8309C117.891 31.1238 117.742 30.5469 117.463 30.1004C117.184 29.6538 116.793 29.4305 116.291 29.4305C115.975 29.4305 115.714 29.5049 115.491 29.6538Z" fill="#269DB8"/>
<path d="M123.157 27.1603H126.655V28.5931C126.935 28.1651 127.344 27.7744 127.902 27.4208C128.46 27.0673 129.056 26.8998 129.689 26.8998C130.507 26.8998 131.177 27.0487 131.68 27.365C132.182 27.6813 132.573 28.1093 132.815 28.6489C133.652 27.4767 134.75 26.8998 136.127 26.8998C137.467 26.8998 138.416 27.2534 138.974 27.9418C139.532 28.6489 139.811 29.691 139.811 31.068V36.7247H135.997V31.8495C135.997 31.1238 135.904 30.6214 135.718 30.3236C135.531 30.0259 135.196 29.8771 134.713 29.8771C134.192 29.8771 133.857 30.0631 133.671 30.4353C133.485 30.8075 133.392 31.3285 133.392 31.9984V36.7247H129.596V31.8495C129.596 31.1238 129.502 30.6214 129.316 30.3236C129.13 30.0259 128.795 29.8771 128.312 29.8771C127.791 29.8771 127.456 30.0631 127.27 30.4353C127.083 30.8075 126.99 31.3285 126.99 31.9984V36.7247H123.157V27.1603Z" fill="#269DB8"/>
<path d="M142.732 28.2396C143.718 27.3278 145.04 26.8812 146.677 26.8812C148.352 26.8812 149.692 27.3278 150.678 28.2396C151.664 29.1514 152.148 30.3423 152.148 31.8495C152.148 32.7054 152.018 33.4498 151.738 34.101C151.459 34.7523 151.087 35.2919 150.603 35.7199C150.12 36.1479 149.543 36.4642 148.873 36.6875C148.203 36.8922 147.496 37.0038 146.714 37.0038C145.114 37.0038 143.811 36.5759 142.788 35.7199C141.765 34.864 141.262 33.6358 141.262 32.0542C141.244 30.4167 141.746 29.1514 142.732 28.2396ZM145.933 29.6538C145.709 29.8026 145.542 29.9887 145.412 30.212C145.282 30.4353 145.207 30.6958 145.133 30.9749C145.077 31.254 145.04 31.5332 145.04 31.8309C145.04 32.7054 145.188 33.3567 145.486 33.7847C145.784 34.2127 146.175 34.4174 146.696 34.4174C147.217 34.4174 147.626 34.2127 147.905 33.7847C148.184 33.3567 148.333 32.7054 148.333 31.8309C148.333 31.1238 148.184 30.5469 147.905 30.1004C147.626 29.6538 147.235 29.4305 146.733 29.4305C146.435 29.4305 146.156 29.5049 145.933 29.6538Z" fill="#269DB8"/>
<path d="M153.749 27.1603H157.21V29.0956H157.247C157.768 27.6255 158.755 26.8812 160.187 26.8812C160.262 26.8812 160.373 26.8998 160.522 26.9184L160.69 26.9371V30.733C160.634 30.7144 160.559 30.7144 160.429 30.6958C160.206 30.64 160.02 30.6214 159.908 30.6214C159.108 30.6214 158.513 30.8261 158.14 31.2541C157.768 31.682 157.582 32.4077 157.582 33.4126V36.7248H153.786V27.1603H153.749Z" fill="#269DB8"/>
<path d="M161.861 27.1603H165.322V29.0956H165.36C165.881 27.6255 166.867 26.8812 168.3 26.8812C168.374 26.8812 168.486 26.8998 168.635 26.9184L168.802 26.9371V30.733C168.746 30.7144 168.672 30.7144 168.542 30.6958C168.318 30.64 168.132 30.6214 168.021 30.6214C167.22 30.6214 166.625 30.8261 166.253 31.2541C165.881 31.682 165.695 32.4077 165.695 33.4126V36.7248H161.861V27.1603Z" fill="#269DB8"/>
<path d="M170.812 28.2396C171.798 27.3278 173.119 26.8812 174.757 26.8812C176.431 26.8812 177.771 27.3278 178.757 28.2396C179.744 29.1514 180.227 30.3423 180.227 31.8495C180.227 32.7055 180.097 33.4498 179.818 34.1011C179.539 34.7523 179.167 35.292 178.683 35.7199C178.199 36.1479 177.622 36.4643 176.952 36.6875C176.283 36.8922 175.575 37.0039 174.794 37.0039C173.194 37.0039 171.891 36.5759 170.868 35.7199C169.844 34.864 169.342 33.6359 169.342 32.0542C169.342 30.4167 169.826 29.1514 170.812 28.2396ZM174.012 29.6538C173.789 29.8027 173.622 29.9887 173.491 30.212C173.361 30.4353 173.287 30.6958 173.212 30.9749C173.156 31.2541 173.119 31.5332 173.119 31.8309C173.119 32.7055 173.268 33.3567 173.566 33.7847C173.863 34.2127 174.254 34.4174 174.775 34.4174C175.296 34.4174 175.706 34.2127 175.985 33.7847C176.264 33.3567 176.413 32.7055 176.413 31.8309C176.413 31.1238 176.264 30.547 175.985 30.1004C175.706 29.6538 175.315 29.4305 174.812 29.4305C174.515 29.4305 174.254 29.5049 174.012 29.6538Z" fill="#269DB8"/>
<path d="M192.62 33.0776H192.658L194.146 27.1603H197.738L194.686 36.7248H190.983L189.494 31.1238H189.457L188.117 36.7248H184.414L181.251 27.1603H184.954L186.424 33.0776H186.461L187.95 27.1603H191.169L192.62 33.0776Z" fill="#269DB8"/>
<path d="M202.352 33.7475C202.352 34.1197 202.482 34.4174 202.761 34.6221C203.022 34.8082 203.32 34.9198 203.692 34.9198C204.027 34.9198 204.325 34.8454 204.548 34.7151C204.771 34.5849 204.901 34.3616 204.901 34.0638C204.901 33.8033 204.734 33.5986 204.418 33.4684C204.101 33.3381 203.599 33.2079 202.91 33.059C202.333 32.9474 201.85 32.8357 201.44 32.7241C201.031 32.6124 200.64 32.445 200.287 32.2403C199.914 32.0356 199.617 31.7379 199.393 31.3843C199.17 31.0308 199.04 30.5842 199.04 30.0446C199.04 29.4677 199.17 28.9653 199.449 28.5373C199.71 28.1279 200.082 27.793 200.51 27.5511C200.957 27.3092 201.44 27.1417 201.98 27.0301C202.501 26.9184 203.041 26.8812 203.58 26.8812C204.157 26.8812 204.715 26.9184 205.236 27.0115C205.757 27.1045 206.241 27.2534 206.706 27.4767C207.153 27.7 207.525 27.9977 207.823 28.4071C208.121 28.7978 208.288 29.3002 208.344 29.9143H204.846C204.808 29.6166 204.678 29.3933 204.473 29.2258C204.287 29.0769 204.027 28.9839 203.71 28.9839C203.376 28.9839 203.096 29.0397 202.91 29.1514C202.724 29.263 202.631 29.4305 202.631 29.6538C202.631 29.8771 202.78 30.0632 203.096 30.1748C203.394 30.2865 203.897 30.4167 204.604 30.5656C205.218 30.6958 205.739 30.8261 206.148 30.9563C206.557 31.0866 206.967 31.2541 207.358 31.4774C207.748 31.7007 208.065 31.9798 208.325 32.3519C208.567 32.7241 208.697 33.1707 208.697 33.6917C208.697 34.7337 208.269 35.5525 207.395 36.1479C206.539 36.7434 205.236 37.0411 203.543 37.0411C202.948 37.0411 202.371 36.9853 201.85 36.8922C201.31 36.7806 200.826 36.6131 200.361 36.3712C199.896 36.1293 199.524 35.7758 199.245 35.3664C198.965 34.9384 198.798 34.4174 198.742 33.8219H202.352V33.7475Z" fill="#269DB8"/>
</g>
<defs>
<clipPath id="clip0_20508_30699">
<rect width="208" height="36.9126" fill="white" transform="translate(0.698242 0.697815)"/>
</clipPath>
</defs>
</svg>
