<svg width="16" height="17" viewBox="0 0 16 17" fill="none" xmlns="http://www.w3.org/2000/svg">
<g clip-path="url(#clip0_25330_14777)">
<path d="M13.776 14.3672H2.2255C1.87274 14.3672 1.58594 14.6562 1.58594 15.0067V15.8602C1.58594 16.213 1.875 16.4998 2.2255 16.4998H13.7714C14.1242 16.4998 14.411 16.2107 14.411 15.8602V15.0067C14.4179 14.6517 14.1288 14.3672 13.776 14.3672Z" fill="#0082A0"/>
<path d="M7.55329 13.2226C7.67848 13.3478 7.84235 13.4115 8.00393 13.4115C8.1678 13.4115 8.33167 13.3478 8.45457 13.2226L12.829 8.84822C13.0771 8.60016 13.0771 8.19504 12.829 7.94239L12.2236 7.33698C11.9755 7.08889 11.5703 7.08889 11.3177 7.33698L9.06908 9.58792V1.13956C9.06908 0.786771 8.78001 0.5 8.42955 0.5H7.57604C7.22329 0.5 6.93648 0.78448 6.93648 1.13956V9.59019L4.68557 7.33925C4.43748 7.09118 4.03009 7.09118 3.77974 7.33925L3.17433 7.94465C2.92626 8.19272 2.92626 8.60013 3.17433 8.85048L7.55329 13.2226Z" fill="#0082A0"/>
</g>
<defs>
<clipPath id="clip0_25330_14777">
<rect width="16" height="16" fill="white" transform="translate(0 0.5)"/>
</clipPath>
</defs>
</svg>
