<svg width="46" height="46" viewBox="0 0 46 46" fill="none" xmlns="http://www.w3.org/2000/svg">
<g clip-path="url(#clip0_20472_20149)">
<path d="M46 23C46 35.7027 35.7027 46 23 46C10.2973 46 0 35.7027 0 23C0 10.2973 10.2973 0 23 0C35.7027 0 46 10.2973 46 23Z" fill="#4A7AFF"/>
<path d="M24.0093 45.9758C36.2435 45.4476 45.9999 35.3633 45.9999 22.9993C45.9999 22.9098 45.9975 22.8206 45.9964 22.7311L30.0312 6.76562L12.9609 24.608L22.4454 34.0925L18.0722 40.0387L24.0093 45.9758Z" fill="#0053BF"/>
<path d="M30.0316 6.76617V11.9743C30.0316 11.9743 24.0521 11.1064 24.0521 14.9641V18.8217H29.4529L28.778 24.7047H24.0521V40.0392H18.0726V24.7047L12.9609 24.6082V18.8217H17.976V14.3853C17.976 14.3853 17.6451 7.78569 24.1486 6.5735C26.8492 6.06988 30.0316 6.76617 30.0316 6.76617Z" fill="white"/>
<path d="M30.032 11.9743V6.76617C30.032 6.76617 26.8496 6.06988 24.149 6.5735C23.7272 6.65211 23.3348 6.75389 22.9688 6.87426V40.0392H24.0525V24.7047H28.7781L29.4533 18.8217H24.0525C24.0525 18.8217 24.0525 18.8217 24.0525 14.9641C24.0525 11.1064 30.032 11.9743 30.032 11.9743Z" fill="#DCE1EB"/>
</g>
<defs>
<clipPath id="clip0_20472_20149">
<rect width="46" height="46" fill="white"/>
</clipPath>
</defs>
</svg>
