<svg width="106" height="54" viewBox="0 0 106 54" fill="none" xmlns="http://www.w3.org/2000/svg">
<g clip-path="url(#clip0_24024_156469)">
<path d="M8.98795 50.0766H85.9532L105.211 53.3027L94.4463 39.9375V8.53255C94.4463 4.22012 90.9569 0.697765 86.6116 0.697765H8.98795C4.64261 0.697765 1.12025 4.22012 1.12025 8.53255V42.2419C1.12025 46.5872 4.64261 50.0766 8.98795 50.0766Z" fill="#993B6E"/>
<path d="M28.4642 18.1372V24.0223H35.6515V26.4351H28.4642V34.1074H25.4642V15.7244H36.9281V18.1372H28.4642ZM44.5773 28.4138C43.5985 28.4478 42.773 28.5287 42.1007 28.6564C41.4283 28.7755 40.8836 28.933 40.4666 29.1287C40.0496 29.3159 39.7475 29.5415 39.5602 29.8053C39.3815 30.0691 39.2922 30.3585 39.2922 30.6734C39.2922 30.9798 39.339 31.2436 39.4326 31.4649C39.5347 31.6776 39.6709 31.8564 39.8411 32.001C40.0198 32.1372 40.2241 32.2393 40.4539 32.3074C40.6922 32.367 40.9517 32.3968 41.2326 32.3968C41.9475 32.3968 42.5602 32.2649 43.0709 32.001C43.59 31.7287 44.0922 31.3372 44.5773 30.8266V28.4138ZM37.3007 22.8989C38.773 21.5287 40.5262 20.8436 42.5602 20.8436C43.3092 20.8436 43.973 20.967 44.5517 21.2138C45.139 21.4521 45.6283 21.7925 46.0198 22.2351C46.4198 22.6776 46.7219 23.2053 46.9262 23.8181C47.139 24.4223 47.2453 25.0947 47.2453 25.8351V34.1074H46.0198C45.756 34.1074 45.556 34.0691 45.4198 33.9925C45.2836 33.9074 45.1687 33.7415 45.0751 33.4947L44.807 32.4351C44.4751 32.733 44.1475 33.001 43.8241 33.2393C43.5007 33.4691 43.1645 33.6649 42.8156 33.8266C42.4751 33.9883 42.1049 34.1074 41.7049 34.184C41.3134 34.2691 40.8794 34.3117 40.4028 34.3117C39.8751 34.3117 39.3815 34.2393 38.9219 34.0947C38.4709 33.95 38.0794 33.733 37.7475 33.4436C37.4156 33.1457 37.1517 32.7798 36.956 32.3457C36.7687 31.9117 36.6751 31.401 36.6751 30.8138C36.6751 30.3117 36.807 29.8223 37.0709 29.3457C37.3432 28.8691 37.7858 28.4436 38.3985 28.0691C39.0198 27.6861 39.8326 27.3713 40.8368 27.1244C41.8496 26.8776 43.0964 26.7372 44.5773 26.7032V25.8351C44.5773 24.8989 44.3773 24.201 43.9773 23.7415C43.5773 23.2819 42.99 23.0521 42.2156 23.0521C41.6879 23.0521 41.2453 23.1202 40.8879 23.2564C40.5305 23.384 40.2198 23.5244 39.956 23.6776C39.6922 23.8308 39.4581 23.9755 39.2539 24.1117C39.0496 24.2393 38.8326 24.3032 38.6028 24.3032C38.4156 24.3032 38.2539 24.2564 38.1177 24.1627C37.99 24.0606 37.8836 23.9372 37.7985 23.7925L37.3007 22.8989ZM59.6648 23.6393C59.5797 23.75 59.4989 23.8351 59.4223 23.8947C59.3457 23.9542 59.235 23.984 59.0904 23.984C58.9457 23.984 58.7925 23.933 58.6308 23.8308C58.4776 23.7287 58.2904 23.6181 58.0691 23.4989C57.8563 23.3713 57.5967 23.2564 57.2904 23.1542C56.984 23.0521 56.601 23.001 56.1414 23.001C55.5457 23.001 55.0223 23.1074 54.5712 23.3202C54.1287 23.533 53.7542 23.8393 53.4478 24.2393C53.1499 24.6308 52.9244 25.1117 52.7712 25.6819C52.6265 26.2436 52.5542 26.8776 52.5542 27.584C52.5542 28.3159 52.635 28.967 52.7967 29.5372C52.9584 30.1074 53.1882 30.5883 53.4861 30.9798C53.7925 31.3713 54.1584 31.6691 54.584 31.8734C55.018 32.0776 55.5031 32.1798 56.0393 32.1798C56.567 32.1798 56.9967 32.1159 57.3287 31.9883C57.6606 31.8606 57.9372 31.7202 58.1584 31.567C58.3797 31.4138 58.567 31.2734 58.7201 31.1457C58.8818 31.0181 59.0521 30.9542 59.2308 30.9542C59.4521 30.9542 59.6223 31.0393 59.7414 31.2095L60.5201 32.2181C60.2053 32.601 59.8563 32.9244 59.4733 33.1883C59.0904 33.4521 58.6861 33.6691 58.2606 33.8393C57.835 34.001 57.3925 34.1159 56.9329 34.184C56.4733 34.2606 56.0095 34.2989 55.5414 34.2989C54.7329 34.2989 53.9755 34.15 53.2691 33.8521C52.5712 33.5457 51.9584 33.1074 51.4308 32.5372C50.9116 31.9585 50.4989 31.2564 50.1925 30.4308C49.8946 29.5968 49.7457 28.6478 49.7457 27.584C49.7457 26.6223 49.8818 25.733 50.1542 24.9159C50.4265 24.0904 50.8223 23.3798 51.3414 22.784C51.8691 22.1883 52.5201 21.7244 53.2946 21.3925C54.0691 21.0521 54.9627 20.8819 55.9755 20.8819C56.9201 20.8819 57.7499 21.0351 58.4648 21.3415C59.1882 21.6478 59.8308 22.0819 60.3925 22.6436L59.6648 23.6393ZM66.9023 34.3117C65.8215 34.3117 64.9874 34.0095 64.4002 33.4053C63.8215 32.7925 63.5321 31.933 63.5321 30.8266V23.2436H62.1023C61.9491 23.2436 61.8172 23.1968 61.7066 23.1032C61.5959 23.001 61.5406 22.8521 61.5406 22.6564V21.5457L63.647 21.2393L64.247 17.4734C64.2896 17.3287 64.3619 17.2138 64.464 17.1287C64.5662 17.0351 64.7023 16.9883 64.8725 16.9883H66.2768V21.2649H69.8896V23.2436H66.2768V30.6351C66.2768 31.1032 66.3917 31.4606 66.6215 31.7074C66.8513 31.9542 67.1576 32.0776 67.5406 32.0776C67.7534 32.0776 67.9364 32.0521 68.0896 32.001C68.2427 31.9415 68.3747 31.8819 68.4853 31.8223C68.5959 31.7542 68.6896 31.6947 68.7662 31.6436C68.8513 31.584 68.9321 31.5542 69.0087 31.5542C69.1619 31.5542 69.2853 31.6393 69.3789 31.8095L70.1959 33.15C69.7704 33.5244 69.2683 33.8138 68.6896 34.0181C68.1108 34.2138 67.5151 34.3117 66.9023 34.3117Z" fill="#FEFEFE"/>
</g>
<defs>
<clipPath id="clip0_24024_156469">
<rect width="104.354" height="53" fill="white" transform="matrix(-1 0 0 -1 105.18 53.5)"/>
</clipPath>
</defs>
</svg>
