<svg width="48" height="48" viewBox="0 0 48 48" fill="none" xmlns="http://www.w3.org/2000/svg">
<rect width="48" height="48" rx="24" fill="#0082A0"/>
<g clip-path="url(#clip0_26389_52298)">
<path d="M28.2508 37.1807L37.1836 37.1807L37.1836 33.869L28.2508 33.869L28.2508 37.1807Z" stroke="#FEFEFE" stroke-width="1.64062" stroke-miterlimit="10" stroke-linecap="round" stroke-linejoin="round"/>
<path d="M26.4341 33.8691L34.9297 33.8691L34.9297 30.5575L26.4341 30.5575L26.4341 33.8691Z" stroke="#FEFEFE" stroke-width="1.64062" stroke-miterlimit="10" stroke-linecap="round" stroke-linejoin="round"/>
<path d="M26.4341 23.9346L34.9297 23.9346L34.9297 20.6229L26.4341 20.6229L26.4341 23.9346Z" stroke="#FEFEFE" stroke-width="1.64062" stroke-miterlimit="10" stroke-linecap="round" stroke-linejoin="round"/>
<path d="M27.1958 30.5566L35.6914 30.5566L35.6914 27.245L27.1958 27.245L27.1958 30.5566Z" stroke="#FEFEFE" stroke-width="1.64062" stroke-miterlimit="10" stroke-linecap="round" stroke-linejoin="round"/>
<path d="M28.6707 27.2451L37.1836 27.2451L37.1836 23.9335L28.6707 23.9335L28.6707 27.2451Z" stroke="#FEFEFE" stroke-width="1.64062" stroke-miterlimit="10" stroke-linecap="round" stroke-linejoin="round"/>
<path d="M27.5441 15.6201H20.0586V18.903H27.5441V15.6201Z" stroke="#FEFEFE" stroke-width="1.64062" stroke-miterlimit="10" stroke-linecap="round" stroke-linejoin="round"/>
<path d="M21.0903 15.6243L18.7383 11.028C18.7383 11.028 21.6299 10.5607 23.8384 11.028C26.1088 11.5084 28.791 11.028 28.791 11.028L26.4059 15.6193" stroke="#FEFEFE" stroke-width="1.64062" stroke-miterlimit="10" stroke-linecap="round" stroke-linejoin="round"/>
<path d="M28.2469 37.1796L13.3274 37.1755C11.8161 37.1755 10.6431 35.8458 10.8424 34.3467C11.9384 26.1029 16.9366 22.7971 21.0534 18.9033" stroke="#FEFEFE" stroke-width="1.64062" stroke-miterlimit="10" stroke-linecap="round" stroke-linejoin="round"/>
<path d="M26.5508 18.9033C27.2632 19.5272 28.0253 20.0358 28.668 20.6224" stroke="#FEFEFE" stroke-width="1.64062" stroke-miterlimit="10" stroke-linecap="round" stroke-linejoin="round"/>
</g>
<defs>
<clipPath id="clip0_26389_52298">
<rect width="28" height="28" fill="white" transform="translate(10 10)"/>
</clipPath>
</defs>
</svg>
