<svg width="48" height="48" viewBox="0 0 48 48" fill="none" xmlns="http://www.w3.org/2000/svg">
<rect width="48" height="48" rx="24" fill="#0082A0"/>
<g clip-path="url(#clip0_26404_52434)">
<path d="M37.1923 36.3819H36.1154V15.9205C36.1154 15.1781 35.5115 14.5742 34.7692 14.5742H30.4615C29.7193 14.5742 29.1154 15.1781 29.1154 15.9205V36.3819H27.5V20.2282C27.5 19.4858 26.8961 18.8819 26.1537 18.8819H21.8463C21.1039 18.8819 20.5 19.4858 20.5 20.2282V36.3819H18.8846V24.5359C18.8846 23.7935 18.2807 23.1896 17.5385 23.1896H13.2308C12.4885 23.1896 11.8846 23.7935 11.8846 24.5359V36.3819H10.8077C10.3617 36.3819 10 36.7436 10 37.1896C10 37.6357 10.3617 37.9973 10.8077 37.9973H37.1923C37.6383 37.9973 38 37.6357 38 37.1896C38 36.7436 37.6383 36.3819 37.1923 36.3819ZM17.2692 36.3819H13.5V24.8051H17.2692V36.3819ZM25.8846 36.3819H22.1154V20.4973H25.8846V36.3819ZM34.5 36.3819H30.7308V16.1896H34.5V36.3819Z" fill="#FEFEFE"/>
<path d="M13.7793 19.223C14.1062 19.5099 14.6065 19.4727 14.9085 19.1599L21.0425 12.807V15.3617C21.0425 15.7967 21.3766 16.1709 21.8111 16.1914C22.2749 16.2132 22.6579 15.8437 22.6579 15.3846V10.8077C22.6579 10.3617 22.2963 10 21.8502 10H17.5654C17.1304 10 16.7562 10.3343 16.7356 10.7686C16.7139 11.2324 17.0834 11.6154 17.5425 11.6154H19.9477L13.7306 18.0544C13.4117 18.3845 13.4305 18.9164 13.7793 19.223Z" fill="#FEFEFE"/>
</g>
<defs>
<clipPath id="clip0_26404_52434">
<rect width="28" height="28" fill="white" transform="translate(10 10)"/>
</clipPath>
</defs>
</svg>
