<svg width="16" height="16" viewBox="0 0 16 16" fill="none" xmlns="http://www.w3.org/2000/svg">
<g clip-path="url(#clip0_21507_27356)">
<path d="M8 16C5.86312 16 3.85416 15.1678 2.34313 13.6569C0.832156 12.1458 0 10.1369 0 8C0 5.86312 0.832156 3.85416 2.34313 2.34313C3.85416 0.832156 5.86312 0 8 0C10.1369 0 12.1458 0.832156 13.6569 2.34313C15.1678 3.85416 16 5.86312 16 8C16 10.1369 15.1678 12.1458 13.6569 13.6569C12.1458 15.1678 10.1369 16 8 16Z" fill="#F79009"/>
<path d="M9.40625 11.5938V6.90625H5.96875V7.84375H6.59375V11.5938H5.9375V12.5312H10V11.5938H9.40625Z" fill="#FEFEFE"/>
<path d="M8 5.96875C8.77541 5.96875 9.40625 5.33791 9.40625 4.5625C9.40625 3.78709 8.77541 3.15625 8 3.15625C7.22459 3.15625 6.59375 3.78709 6.59375 4.5625C6.59375 5.33791 7.22459 5.96875 8 5.96875Z" fill="#FEFEFE"/>
</g>
<defs>
<clipPath id="clip0_21507_27356">
<rect width="16" height="16" fill="white"/>
</clipPath>
</defs>
</svg>
