<svg width="56" height="57" viewBox="0 0 56 57" fill="none" xmlns="http://www.w3.org/2000/svg">
<g opacity="0.9" clip-path="url(#clip0_22369_29593)">
<path d="M29.6025 42.3458C29.6866 49.2688 35.2809 54.7914 42.2045 54.7906C44.4373 54.7904 46.5341 54.2088 48.3528 53.1899C48.557 53.0755 48.7951 53.0373 49.0245 53.0836L54.8248 54.2535C55.5627 54.4024 56.185 53.6966 55.9449 52.9831L54.0085 47.228C53.9372 47.0161 53.941 46.7862 54.0189 46.5766C54.5225 45.221 54.8 43.7554 54.8043 42.2255C54.8237 35.3382 49.2454 29.6721 42.3588 29.5888C35.2755 29.5031 29.5164 35.2624 29.6025 42.3458Z" fill="#FFD15B"/>
<path d="M21.7725 1.83272C9.66039 1.97976 -0.00146462 11.7673 1.6653e-07 23.8803C0.000450871 27.7866 1.01792 31.455 2.80056 34.6368C3.00068 34.994 3.06749 35.4105 2.98648 35.8119L0.939831 45.9597C0.679437 47.2507 1.91425 48.3395 3.16248 47.9195L13.2311 44.5316C13.6019 44.4069 14.0041 44.4136 14.3709 44.5498C16.7426 45.4309 19.3066 45.9165 21.9833 45.924C34.0327 45.9579 43.9458 36.1987 44.0914 24.1501C44.2411 11.7578 34.1651 1.68218 21.7725 1.83272Z" fill="#8AC9FE"/>
<path d="M21.9435 38.1828C29.8858 38.1828 36.3244 31.7442 36.3244 23.8019C36.3244 15.8595 29.8858 9.4209 21.9435 9.4209C14.0011 9.4209 7.5625 15.8595 7.5625 23.8019C7.5625 31.7442 14.0011 38.1828 21.9435 38.1828Z" fill="#FAF7F7"/>
<path d="M55.9495 52.9831L54.0131 47.228C53.9418 47.0161 53.9456 46.7862 54.0235 46.5765C54.5271 45.2209 54.8046 43.7553 54.8089 42.2254C54.8283 35.3382 49.25 29.6721 42.3634 29.5888C41.7359 29.5813 41.1191 29.6204 40.5156 29.7014C46.6786 30.5334 51.4467 35.8571 51.4288 42.2253C51.4245 43.7552 51.1469 45.2208 50.6433 46.5764C50.5654 46.7861 50.5616 47.016 50.6329 47.2279L52.5694 52.9829C52.6656 53.2688 52.6217 53.5524 52.489 53.7814L54.8294 54.2534C55.5673 54.4023 56.1897 53.6965 55.9495 52.9831Z" fill="#FFC344"/>
<path d="M21.7718 1.83272C21.2943 1.83846 20.8211 1.861 20.3516 1.89638C31.8285 2.76455 40.8522 12.4183 40.7104 24.1502C40.572 35.6097 31.5975 44.9976 20.3533 45.859C20.8913 45.8999 21.4345 45.9226 21.9827 45.9241C34.032 45.958 43.9451 36.1988 44.0907 24.1502C44.2405 11.7579 34.1644 1.68229 21.7718 1.83272Z" fill="#60B7FF"/>
<path d="M21.948 9.4209C21.376 9.4209 20.8123 9.45538 20.2578 9.52028C27.4036 10.357 32.9486 16.4314 32.9486 23.8019C32.9486 31.1723 27.4036 37.2467 20.2578 38.0834C20.8123 38.1483 21.376 38.1828 21.948 38.1828C29.8904 38.1828 36.3289 31.7443 36.3289 23.8019C36.3289 15.8594 29.8904 9.4209 21.948 9.4209Z" fill="#F0EEF0"/>
<path d="M22.5864 33.2283H21.3132C20.5793 33.2283 19.9844 32.6334 19.9844 31.8995V23.4372C19.9844 22.7033 20.5793 22.1084 21.3132 22.1084H22.5864C23.3203 22.1084 23.9152 22.7033 23.9152 23.4372V31.8995C23.9152 32.6334 23.3203 33.2283 22.5864 33.2283Z" fill="#8AC9FE"/>
<path d="M21.9464 19.1916C23.2759 19.1916 24.3537 18.1138 24.3537 16.7843C24.3537 15.4547 23.2759 14.377 21.9464 14.377C20.6169 14.377 19.5391 15.4547 19.5391 16.7843C19.5391 18.1138 20.6169 19.1916 21.9464 19.1916Z" fill="#8AC9FE"/>
</g>
<defs>
<clipPath id="clip0_22369_29593">
<rect width="56" height="56" fill="white" transform="translate(0 0.310547)"/>
</clipPath>
</defs>
</svg>
