<svg width="48" height="49" viewBox="0 0 48 49" fill="none" xmlns="http://www.w3.org/2000/svg">
<rect width="48" height="48.0548" rx="24" fill="#0082A0"/>
<g clip-path="url(#clip0_26389_52375)">
<path d="M38.0791 23.4596C37.9952 19.7897 36.4895 16.3695 33.839 13.8295C31.1924 11.2931 27.7183 9.93459 24.0532 10.0024C20.3884 9.93437 16.9143 11.2933 14.2677 13.8295C11.6172 16.3695 10.1115 19.7897 10.0276 23.4596L10.0273 23.4712V23.4827C10.0466 27.2231 11.6478 30.779 14.4285 33.2713V36.6623C14.4285 37.3205 14.888 37.8939 15.5211 38.0258C15.6149 38.0452 15.7093 38.0549 15.803 38.0549C16.058 38.0549 16.3084 37.9836 16.5286 37.846L19.254 36.1435C20.791 36.6816 22.3953 36.9543 24.0258 36.9543H24.046C24.1363 36.956 24.2258 36.9568 24.3157 36.9568C27.8831 36.9566 31.2557 35.603 33.839 33.1274C36.4895 30.5874 37.9952 27.1672 38.0791 23.4973L38.0796 23.4785L38.0791 23.4596ZM32.7005 31.9395C30.3666 34.176 27.3 35.3727 24.0695 35.3092L24.0517 35.3089C22.5353 35.3102 21.0425 35.0485 19.6179 34.526C19.2656 34.3967 18.8818 34.4361 18.5646 34.6341L16.0738 36.1902V33.0709C16.0738 32.7231 15.9225 32.392 15.6586 32.1625C13.1455 29.9778 11.6932 26.8158 11.6729 23.4857C11.7495 20.2584 13.0751 17.2516 15.4062 15.0176C17.7399 12.7809 20.8071 11.5857 24.0372 11.648L24.0532 11.6484L24.0695 11.648C27.3013 11.5844 30.3666 12.7807 32.7005 15.0174C35.0297 17.2497 36.355 20.2539 36.4336 23.4785C36.355 26.703 35.0297 29.7073 32.7005 31.9395Z" fill="#FEFEFE"/>
<path d="M26.3135 27.2277V21.549C26.3135 20.716 25.6356 20.0381 24.8026 20.0381H22.0228C21.1896 20.0381 20.5117 20.716 20.5117 21.549V22.9786C20.5117 23.7209 21.0496 24.3397 21.7562 24.466V27.2624C21.0496 27.3887 20.5117 28.0075 20.5117 28.7498V30.1794C20.5117 31.0124 21.1896 31.6903 22.0228 31.6903H26.0997C26.933 31.6903 27.6108 31.0124 27.6108 30.1794V28.7498C27.6108 27.976 27.0458 27.3337 26.3135 27.2277ZM25.9653 30.0449H22.1573V28.8842H22.4038C22.9539 28.8842 23.4015 28.4366 23.4015 27.8865V23.842C23.4015 23.2919 22.9539 22.8444 22.4038 22.8444H22.1573V21.6836H24.6682V27.86C24.6682 28.4101 25.1157 28.8576 25.6658 28.8576H25.9653V30.0449Z" fill="#FEFEFE"/>
<path d="M23.9379 19.5456C25.2562 19.5456 26.3288 18.473 26.3288 17.1547C26.3288 15.8362 25.2562 14.7637 23.9379 14.7637C22.6194 14.7637 21.5469 15.8362 21.5469 17.1547C21.5469 18.473 22.6194 19.5456 23.9379 19.5456ZM23.9379 16.409C24.3489 16.409 24.6834 16.7436 24.6834 17.1547C24.6834 17.5659 24.3489 17.9002 23.9379 17.9002C23.5268 17.9002 23.1922 17.5659 23.1922 17.1547C23.1922 16.7436 23.5268 16.409 23.9379 16.409Z" fill="#FEFEFE"/>
</g>
<defs>
<clipPath id="clip0_26389_52375">
<rect width="28" height="28.0548" fill="white" transform="translate(10 10)"/>
</clipPath>
</defs>
</svg>
