<svg width="46" height="47" viewBox="0 0 46 47" fill="none" xmlns="http://www.w3.org/2000/svg">
<g clip-path="url(#clip0_20472_20154)">
<path d="M45.2124 9.0285C44.7937 5.10556 41.6955 2.00665 37.7723 1.58832C27.9337 0.538269 18.0663 0.538269 8.22807 1.58832C4.30478 2.007 1.20622 5.10556 0.787536 9.0285C-0.262512 18.8667 -0.262512 28.7344 0.787536 38.5727C1.20622 42.496 4.30478 45.5945 8.22772 46.0132C18.066 47.0633 27.9337 47.0633 37.7723 46.0132C41.6955 45.5945 44.7937 42.496 45.2124 38.5727C46.2625 28.7344 46.2625 18.8671 45.2124 9.0285Z" fill="url(#paint0_radial_20472_20154)"/>
<path d="M42.7098 10.6917C42.3385 7.21056 39.5891 4.46085 36.1077 4.08919C27.3774 3.15777 18.6211 3.15777 9.89087 4.08919C6.40978 4.46085 3.66007 7.21056 3.28841 10.6917C2.35699 19.4219 2.35699 28.1782 3.28841 36.9081C3.66007 40.3895 6.40978 43.1393 9.89087 43.5106C18.6211 44.4423 27.3774 44.4423 36.1073 43.5106C39.5888 43.1393 42.3385 40.3895 42.7098 36.9081C43.6416 28.1782 43.6416 19.4219 42.7098 10.6917Z" fill="url(#paint1_linear_20472_20154)"/>
<path d="M0.689453 37.6191C0.721039 37.9371 0.753677 38.2551 0.78772 38.573C1.20641 42.496 4.30496 45.5945 8.22825 46.0132C18.0665 47.0633 27.9342 47.0633 37.7724 46.0132C41.6957 45.5945 44.7939 42.496 45.2126 38.573C45.2467 38.2551 45.2793 37.9371 45.3112 37.6191H0.689453Z" fill="url(#paint2_linear_20472_20154)"/>
<path d="M45.2122 38.5735C45.7765 33.2871 46.0369 27.9923 45.9948 22.6982L35.4803 12.1837C34.1667 10.684 32.248 9.74806 29.9935 9.66699C25.3571 9.49994 20.7059 9.50836 16.0688 9.66769C12.2174 9.80035 9.52423 12.389 8.83356 16.1936C8.71178 16.8654 8.63878 17.5459 8.54297 18.2225V29.3764C8.59596 29.7379 8.67387 30.0977 8.69809 30.4612C8.85251 32.7754 9.80359 34.7576 11.3264 36.0986L22.0262 46.798C27.2771 46.8349 32.5284 46.5738 37.772 46.014C41.6953 45.5953 44.7935 42.4968 45.2122 38.5735Z" fill="url(#paint3_linear_20472_20154)"/>
<path d="M45.2131 38.5726C44.7947 42.4952 41.6955 45.5945 37.7729 46.0128C32.53 46.5722 27.2777 46.8337 22.0274 46.7968L11.3438 36.1131C12.5823 37.1972 14.1966 37.8574 16.07 37.9279C20.7061 38.102 25.3583 38.0974 29.9944 37.9304C34.1876 37.7788 37.2219 34.6753 37.3528 30.4821C37.4925 26.0299 37.4925 21.5662 37.3528 17.114C37.2931 15.1796 36.614 13.4774 35.4882 12.1895L45.996 22.6973C46.0374 27.9907 45.777 33.2862 45.2131 38.5726Z" fill="url(#paint4_linear_20472_20154)"/>
<path d="M28.4285 18.8204C27.0816 17.3538 25.1489 16.4336 23.0007 16.4336C18.9318 16.4336 15.6328 19.7325 15.6328 23.8015C15.6328 25.9497 16.553 27.8823 18.0196 29.2293L35.0664 46.2761C35.9687 46.1975 36.871 46.1101 37.7726 46.0139C41.6959 45.5952 44.7945 42.4967 45.2131 38.5734C45.3093 37.6718 45.3967 36.7695 45.4753 35.8672L28.4285 18.8204Z" fill="url(#paint5_linear_20472_20154)"/>
<path d="M45.9106 28.7556L32.1912 15.0365C31.8711 14.6164 31.3668 14.3438 30.7979 14.3438C29.83 14.3438 29.0449 15.1285 29.0449 16.0968C29.0449 16.6656 29.3176 17.17 29.7377 17.49L45.6653 33.418C45.7734 31.8643 45.8552 30.31 45.9106 28.7556Z" fill="url(#paint6_linear_20472_20154)"/>
<path d="M8.54297 18.2225C8.63878 17.5459 8.71178 16.8654 8.83356 16.1936C9.52388 12.389 12.2174 9.80035 16.0688 9.66769C20.7059 9.50836 25.3571 9.49994 29.9935 9.66699C34.1853 9.8179 37.221 12.9217 37.3519 17.1149C37.4912 21.5674 37.4912 26.0308 37.3519 30.4834C37.221 34.6765 34.1863 37.78 29.9938 37.9313C25.3574 38.0987 20.7052 38.1029 16.0691 37.9288C11.8767 37.7712 8.9785 34.6604 8.69809 30.4609C8.67387 30.0977 8.59596 29.7376 8.54297 29.3761C8.54297 25.6581 8.54297 21.9401 8.54297 18.2225ZM23.0036 35.4462C25.1254 35.4462 27.2494 35.5097 29.3685 35.4314C32.6909 35.3082 34.7345 33.3254 34.8121 30.0061C34.9082 25.8701 34.9082 21.7285 34.8121 17.5922C34.7345 14.2736 32.6895 12.2444 29.3685 12.1738C25.1532 12.0847 20.9333 12.0854 16.718 12.1738C13.4223 12.243 11.3727 14.2311 11.2832 17.5132C11.1695 21.7015 11.1695 25.8971 11.2832 30.0854C11.3727 33.3671 13.4223 35.3093 16.7184 35.4314C18.8108 35.5093 20.9084 35.4462 23.0036 35.4462Z" fill="url(#paint7_linear_20472_20154)"/>
<path d="M8.54297 18.2225C8.63878 17.5459 8.71178 16.8654 8.83356 16.1936C9.52388 12.389 12.2174 9.80035 16.0688 9.66769C20.7059 9.50836 25.3571 9.49994 29.9935 9.66699C34.1853 9.8179 37.221 12.9217 37.3519 17.1149C37.4912 21.5674 37.4912 26.0308 37.3519 30.4834C37.221 34.6765 34.1863 37.78 29.9938 37.9313C25.3574 38.0987 20.7052 38.1029 16.0691 37.9288C11.8767 37.7712 8.9785 34.6604 8.69809 30.4609C8.67387 30.0977 8.59596 29.7376 8.54297 29.3761C8.54297 25.6581 8.54297 21.9401 8.54297 18.2225ZM23.0036 35.4462C25.1254 35.4462 27.2494 35.5097 29.3685 35.4314C32.6909 35.3082 34.7345 33.3254 34.8121 30.0061C34.9082 25.8701 34.9082 21.7285 34.8121 17.5922C34.7345 14.2736 32.6895 12.2444 29.3685 12.1738C25.1532 12.0847 20.9333 12.0854 16.718 12.1738C13.4223 12.243 11.3727 14.2311 11.2832 17.5132C11.1695 21.7015 11.1695 25.8971 11.2832 30.0854C11.3727 33.3671 13.4223 35.3093 16.7184 35.4314C18.8108 35.5093 20.9084 35.4462 23.0036 35.4462Z" fill="white"/>
<path d="M23.0007 16.4336C18.9318 16.4336 15.6328 19.7322 15.6328 23.8011C15.6328 27.8704 18.9318 31.169 23.0007 31.169C27.07 31.169 30.3686 27.8704 30.3686 23.8011C30.3686 19.7322 27.07 16.4336 23.0007 16.4336ZM23.0007 28.6323C20.3324 28.6323 18.1695 26.4694 18.1695 23.8011C18.1695 21.1328 20.3324 18.9699 23.0007 18.9699C25.669 18.9699 27.8319 21.1328 27.8319 23.8011C27.8319 26.4694 25.669 28.6323 23.0007 28.6323Z" fill="white"/>
<path d="M32.5506 16.0987C32.5506 17.0666 31.7659 17.8514 30.7979 17.8514C29.83 17.8514 29.0449 17.0666 29.0449 16.0987C29.0449 15.1304 29.83 14.3457 30.7979 14.3457C31.7659 14.3457 32.5506 15.1304 32.5506 16.0987Z" fill="white"/>
</g>
<defs>
<radialGradient id="paint0_radial_20472_20154" cx="0" cy="0" r="1" gradientUnits="userSpaceOnUse" gradientTransform="translate(9.42973 41.0011) scale(50.7299)">
<stop stop-color="#FAE100"/>
<stop offset="0.0544" stop-color="#FADC04"/>
<stop offset="0.1167" stop-color="#FBCE0E"/>
<stop offset="0.1829" stop-color="#FCB720"/>
<stop offset="0.2514" stop-color="#FE9838"/>
<stop offset="0.3054" stop-color="#FF7950"/>
<stop offset="0.4922" stop-color="#FF1C74"/>
<stop offset="1" stop-color="#6C1CD1"/>
</radialGradient>
<linearGradient id="paint1_linear_20472_20154" x1="17.6421" y1="20.7867" x2="-60.2872" y2="-23.0486" gradientUnits="userSpaceOnUse">
<stop stop-color="#A1B5D8" stop-opacity="0"/>
<stop offset="0.3094" stop-color="#90A2BD" stop-opacity="0.309804"/>
<stop offset="0.7554" stop-color="#7C8B9C" stop-opacity="0.756863"/>
<stop offset="1" stop-color="#748290"/>
</linearGradient>
<linearGradient id="paint2_linear_20472_20154" x1="23.0002" y1="41.4071" x2="23.0002" y2="48.5773" gradientUnits="userSpaceOnUse">
<stop stop-color="#FAE100" stop-opacity="0"/>
<stop offset="0.3068" stop-color="#FCA800" stop-opacity="0.305882"/>
<stop offset="0.6275" stop-color="#FE7300" stop-opacity="0.627451"/>
<stop offset="0.8685" stop-color="#FF5200" stop-opacity="0.866667"/>
<stop offset="1" stop-color="#FF4500"/>
</linearGradient>
<linearGradient id="paint3_linear_20472_20154" x1="20.3828" y1="21.1196" x2="8.99855" y2="9.7353" gradientUnits="userSpaceOnUse">
<stop stop-color="#833AB4" stop-opacity="0"/>
<stop offset="1" stop-color="#833AB4"/>
</linearGradient>
<linearGradient id="paint4_linear_20472_20154" x1="31.5267" y1="42.873" x2="25.8447" y2="16.0861" gradientUnits="userSpaceOnUse">
<stop stop-color="#833AB4" stop-opacity="0"/>
<stop offset="1" stop-color="#833AB4"/>
</linearGradient>
<linearGradient id="paint5_linear_20472_20154" x1="33.689" y1="34.4897" x2="10.8665" y2="11.6673" gradientUnits="userSpaceOnUse">
<stop stop-color="#833AB4" stop-opacity="0"/>
<stop offset="1" stop-color="#833AB4"/>
</linearGradient>
<linearGradient id="paint6_linear_20472_20154" x1="35.3808" y1="20.6796" x2="27.8339" y2="13.1327" gradientUnits="userSpaceOnUse">
<stop stop-color="#833AB4" stop-opacity="0"/>
<stop offset="1" stop-color="#833AB4"/>
</linearGradient>
<linearGradient id="paint7_linear_20472_20154" x1="32.1331" y1="14.7318" x2="13.525" y2="33.3398" gradientUnits="userSpaceOnUse">
<stop stop-color="#833AB4"/>
<stop offset="0.0922" stop-color="#9C3495"/>
<stop offset="0.2927" stop-color="#DC2546"/>
<stop offset="0.392" stop-color="#FD1D1D"/>
<stop offset="0.5589" stop-color="#FC6831"/>
<stop offset="0.6887" stop-color="#FC9B40"/>
<stop offset="0.7521" stop-color="#FCAF45"/>
<stop offset="0.7806" stop-color="#FDB750"/>
<stop offset="0.8656" stop-color="#FECB6A"/>
<stop offset="0.9415" stop-color="#FFD87A"/>
<stop offset="1" stop-color="#FFDC80"/>
</linearGradient>
<clipPath id="clip0_20472_20154">
<rect width="46" height="46" fill="white" transform="translate(0 0.800781)"/>
</clipPath>
</defs>
</svg>
