<svg width="46" height="47" viewBox="0 0 46 47" fill="none" xmlns="http://www.w3.org/2000/svg">
<g clip-path="url(#clip0_20472_20171)">
<path d="M46 23.4004C46 36.1031 35.7027 46.4004 23 46.4004C10.2973 46.4004 0 36.1031 0 23.4004C0 10.6977 10.2973 0.400391 23 0.400391C35.7027 0.400391 46 10.6977 46 23.4004Z" fill="#009AE5"/>
<path d="M45.4651 28.3458L35.2728 18.2145C34.9531 17.8646 34.5769 17.559 34.1459 17.3014C33.4057 16.8599 32.4189 16.6363 31.2126 16.6363C29.5923 16.6363 28.1386 16.9402 26.8921 17.5404C26.4667 17.745 26.0726 17.9808 25.7104 18.2461L24.2132 16.9859H22.3736L15.4787 10.0946C14.8755 9.4288 14.0047 9.00977 13.0375 9.00977H13C11.182 9.00977 9.70312 10.4887 9.70312 12.3066C9.70312 13.184 10.0481 13.9821 10.6093 14.5731L13.0207 16.9855H10.092V35.5972L20.7883 46.2935C21.5162 46.363 22.2539 46.3999 23 46.3999C34.0045 46.3999 43.2022 38.6708 45.4651 28.3458Z" fill="#0070B4"/>
<path d="M13.0375 9.00977H13C11.182 9.00977 9.70312 10.4887 9.70312 12.3066C9.70312 14.1245 11.182 15.6035 13 15.6035H13.0375C14.8555 15.6035 16.3344 14.1245 16.3344 12.3066C16.3344 10.4887 14.8555 9.00977 13.0375 9.00977Z" fill="white"/>
<path d="M10.0918 16.9863H15.9457V35.5977H10.0918V16.9863Z" fill="white"/>
<path d="M36.6712 21.3258C36.541 20.4979 36.2711 19.7244 35.8686 19.0264C35.4629 18.3227 34.8828 17.7426 34.1451 17.3018C33.4049 16.8603 32.418 16.6367 31.2118 16.6367C29.5915 16.6367 28.1378 16.9406 26.8913 17.5408C25.7798 18.0753 24.8803 18.8207 24.2124 19.7591V16.9859H18.918V35.5976H24.7715V24.9683C24.9287 24.5251 25.1495 24.1085 25.4278 23.7302C25.7099 23.3462 26.0367 23.0079 26.3992 22.7247C26.7603 22.4422 27.138 22.219 27.5219 22.061C27.9009 21.9052 28.2838 21.8259 28.6604 21.8259C29.3714 21.8259 29.9273 22.0793 30.3601 22.6001C30.7921 23.1216 31.0114 23.9814 31.0114 25.1557V35.5976H36.865V23.7228C36.865 22.9539 36.8 22.1474 36.6712 21.3258Z" fill="white"/>
<path d="M36.8654 23.7228V35.5976H31.0122V25.1557C31.0122 23.9814 30.7929 23.1216 30.3609 22.6008C29.9278 22.0796 29.3719 21.8262 28.6612 21.8262C28.2846 21.8262 27.9017 21.9052 27.5227 22.0607C27.1391 22.219 26.7608 22.4425 26.3997 22.7247C26.0375 23.0076 25.7108 23.3462 25.4286 23.7302C25.1499 24.1081 24.9299 24.5251 24.7727 24.968V35.5976H23V16.9863H24.2129V19.7588C24.8815 18.821 25.7806 18.0753 26.8921 17.5408C28.1383 16.9406 29.5919 16.6367 31.2126 16.6367C32.4192 16.6367 33.4057 16.8606 34.1459 17.3018C34.8836 17.7429 35.4641 18.323 35.8691 19.0267C36.2716 19.7247 36.5422 20.4982 36.6724 21.3258C36.8008 22.147 36.8654 22.9539 36.8654 23.7228Z" fill="white"/>
</g>
<defs>
<clipPath id="clip0_20472_20171">
<rect width="46" height="46" fill="white" transform="translate(0 0.400391)"/>
</clipPath>
</defs>
</svg>
