<svg width="1288" height="158" viewBox="0 0 1288 158" fill="none" xmlns="http://www.w3.org/2000/svg">
<g filter="url(#filter0_d_20472_23156)">
<g clip-path="url(#clip0_20472_23156)">
<rect x="4" y="2" width="1280" height="150" rx="25" fill="#54ABBF"/>
<rect opacity="0.2" width="251.68" height="760.717" transform="matrix(-0.837575 0.546322 -0.926607 -0.376031 1031.58 138.223)" fill="url(#paint0_linear_20472_23156)"/>
<rect opacity="0.15" width="183.766" height="1403.55" transform="matrix(-0.353428 0.935462 -0.995037 -0.0995103 1367.6 13.9844)" fill="url(#paint1_linear_20472_23156)"/>
<rect opacity="0.2" width="212.54" height="1330.68" transform="matrix(0.660825 0.75054 -0.9739 0.226976 1287.55 -194.871)" fill="url(#paint2_linear_20472_23156)"/>
<rect opacity="0.2" width="233.45" height="493.251" transform="matrix(0.771153 0.63665 -0.952252 0.305313 1170.92 -13.0898)" fill="url(#paint3_linear_20472_23156)"/>
<rect opacity="0.2" width="247.51" height="648.606" transform="matrix(-0.82411 0.56643 -0.933189 -0.359386 668.191 138.371)" fill="url(#paint4_linear_20472_23156)"/>
<g filter="url(#filter1_di_20472_23156)">
<path d="M948.751 130.902C947.644 130.902 946.583 131.343 945.8 132.126C945.018 132.91 944.578 133.973 944.578 135.081V143.847H952.921V135.081C952.921 133.973 952.482 132.911 951.7 132.127C950.918 131.343 949.857 130.903 948.751 130.902Z" fill="white"/>
<path d="M986.078 124.165H983.126V119.322H984.148V118.811C984.159 118.458 984.099 118.106 983.971 117.777C983.843 117.448 983.651 117.147 983.405 116.894C983.16 116.64 982.866 116.439 982.541 116.301C982.216 116.164 981.867 116.093 981.514 116.093C981.162 116.093 980.812 116.164 980.488 116.301C980.163 116.439 979.869 116.64 979.623 116.894C979.377 117.147 979.185 117.448 979.057 117.777C978.93 118.106 978.87 118.458 978.88 118.811V119.331H979.903V124.172H976.948C976.729 124.172 976.519 124.259 976.364 124.414C976.209 124.569 976.122 124.78 976.122 124.999V127.889H962.643V127.057C962.642 126.841 962.558 126.634 962.407 126.479C962.256 126.325 962.051 126.236 961.835 126.231V121.381H962.858V120.861C962.858 120.161 962.58 119.49 962.086 118.995C961.592 118.5 960.921 118.222 960.222 118.222C959.771 118.222 959.328 118.339 958.934 118.56C958.541 118.782 958.211 119.101 957.977 119.487V116.247C958.143 116.194 958.288 116.09 958.392 115.949C958.495 115.807 958.55 115.637 958.551 115.462V113.689C958.547 111.317 957.688 109.027 956.131 107.241C954.573 105.454 952.424 104.291 950.078 103.967V100.035H950.926V99.6068C950.926 99.3214 950.869 99.0388 950.76 98.7751C950.651 98.5115 950.491 98.2719 950.29 98.0701C950.088 97.8683 949.849 97.7082 949.586 97.599C949.323 97.4898 949.04 97.4336 948.755 97.4336C948.47 97.4336 948.188 97.4898 947.925 97.599C947.662 97.7082 947.422 97.8683 947.221 98.0701C947.019 98.2719 946.86 98.5115 946.75 98.7751C946.641 99.0388 946.585 99.3214 946.585 99.6068V100.035H947.426V103.97C945.081 104.294 942.931 105.457 941.375 107.244C939.818 109.03 938.959 111.32 938.956 113.691V115.465C938.956 115.64 939.012 115.81 939.115 115.951C939.218 116.092 939.363 116.197 939.529 116.25V119.489C939.295 119.103 938.965 118.784 938.572 118.563C938.178 118.341 937.735 118.225 937.284 118.224C936.585 118.224 935.914 118.502 935.42 118.997C934.926 119.492 934.648 120.163 934.648 120.863V121.384H935.671V126.227C935.455 126.232 935.25 126.321 935.099 126.475C934.949 126.629 934.864 126.836 934.863 127.052V127.884H921.379V124.992C921.379 124.773 921.292 124.562 921.137 124.407C920.982 124.252 920.772 124.165 920.553 124.165H917.601V119.322H918.624V118.811C918.634 118.458 918.574 118.106 918.446 117.777C918.319 117.448 918.126 117.147 917.881 116.894C917.635 116.64 917.341 116.439 917.016 116.301C916.691 116.164 916.342 116.093 915.99 116.093C915.637 116.093 915.288 116.164 914.963 116.301C914.638 116.439 914.344 116.64 914.098 116.894C913.853 117.147 913.66 117.448 913.533 117.777C913.405 118.106 913.345 118.458 913.355 118.811V119.331H914.378V124.172H911.426C911.207 124.172 910.997 124.259 910.842 124.414C910.687 124.569 910.6 124.78 910.6 124.999V147.389C910.6 147.608 910.687 147.819 910.842 147.974C910.997 148.129 911.207 148.216 911.426 148.216H920.558C920.777 148.216 920.987 148.129 921.142 147.974C921.297 147.819 921.384 147.608 921.384 147.389V146.878H934.868V147.71C934.868 147.93 934.955 148.14 935.11 148.295C935.265 148.451 935.475 148.538 935.694 148.538H961.816C962.036 148.538 962.246 148.451 962.401 148.295C962.556 148.14 962.643 147.93 962.643 147.71V146.878H976.122V147.389C976.122 147.608 976.209 147.819 976.364 147.974C976.519 148.129 976.729 148.216 976.948 148.216H986.08C986.299 148.216 986.509 148.129 986.664 147.974C986.819 147.819 986.907 147.608 986.907 147.389V124.992C986.907 124.883 986.885 124.776 986.843 124.675C986.802 124.574 986.741 124.483 986.664 124.406C986.587 124.329 986.495 124.268 986.395 124.227C986.294 124.185 986.186 124.164 986.078 124.165ZM919.722 146.554H912.248V125.82H919.726V146.554H919.722ZM934.677 145.215H921.379V129.537H934.681L934.677 145.215ZM958.61 121.381V126.222H957.977V121.381H958.61ZM942.788 117.744V126.224H941.168V116.292H956.312V126.224H954.704V117.742L942.788 117.744ZM940.592 113.691C940.592 111.527 941.45 109.452 942.978 107.922C944.506 106.392 946.578 105.533 948.739 105.533C950.9 105.533 952.972 106.392 954.5 107.922C956.027 109.452 956.886 111.527 956.886 113.691V114.637H940.592V113.691ZM939.513 121.384V126.224H938.882V121.381L939.513 121.384ZM960.978 146.878H936.521V127.877H960.99L960.978 146.878ZM962.806 145.223V129.544H976.122V145.223H962.806ZM985.239 146.561H977.775V125.82H985.254L985.239 146.561Z" fill="white"/>
<path d="M923.811 133.293H926.68V138.495H923.811V133.293Z" fill="white"/>
<path d="M929.141 133.293H932.01V138.495H929.141V133.293Z" fill="white"/>
<path d="M966.197 133.293H969.066V138.495H966.197V133.293Z" fill="white"/>
<path d="M971.529 133.293H974.398V138.495H971.529V133.293Z" fill="white"/>
<path d="M1077.9 124.986C1077.9 124.942 1077.9 124.899 1077.89 124.856C1077.89 124.856 1077.89 124.835 1077.89 124.825C1077.88 124.78 1077.87 124.736 1077.85 124.693L1077.84 124.66C1077.84 124.643 1077.82 124.624 1077.81 124.608L1074.22 117.987C1074.14 117.856 1074.04 117.747 1073.91 117.67C1073.78 117.594 1073.64 117.554 1073.49 117.554H1070.17C1070.02 117.554 1069.87 117.595 1069.74 117.674C1069.61 117.752 1069.51 117.864 1069.44 117.998L1066.21 124.175H1047.92V107.977C1047.92 107.955 1047.92 107.934 1047.92 107.913C1047.92 107.891 1047.92 107.868 1047.92 107.847C1047.92 107.8 1047.9 107.754 1047.89 107.709C1047.89 107.709 1047.89 107.688 1047.89 107.676L1043.95 97.5859C1043.89 97.4306 1043.79 97.2972 1043.65 97.2031C1043.51 97.109 1043.35 97.0587 1043.18 97.0586H1039.4C1039.24 97.0587 1039.08 97.1077 1038.94 97.1996C1038.81 97.2914 1038.7 97.4218 1038.64 97.5741L1034.55 107.653C1034.55 107.653 1034.55 107.667 1034.55 107.674C1034.53 107.724 1034.52 107.775 1034.51 107.828C1034.51 107.849 1034.51 107.87 1034.51 107.891C1034.51 107.913 1034.51 107.939 1034.51 107.962V124.161H1016.3L1013.07 117.984C1013 117.85 1012.9 117.738 1012.77 117.66C1012.64 117.581 1012.49 117.54 1012.34 117.54H1009.02C1008.87 117.54 1008.72 117.58 1008.6 117.656C1008.47 117.732 1008.36 117.842 1008.29 117.972L1004.7 124.594C1004.7 124.61 1004.68 124.629 1004.67 124.646L1004.66 124.679C1004.64 124.722 1004.63 124.766 1004.62 124.811C1004.62 124.811 1004.62 124.832 1004.62 124.844C1004.61 124.887 1004.61 124.931 1004.61 124.974C1004.61 124.974 1004.61 124.974 1004.61 124.991V147.692C1004.61 147.912 1004.69 148.122 1004.85 148.278C1005 148.433 1005.21 148.52 1005.43 148.52H1016.61C1016.83 148.52 1017.04 148.433 1017.19 148.278C1017.35 148.122 1017.44 147.912 1017.44 147.692V147.205H1034.52V147.692C1034.52 147.912 1034.6 148.122 1034.76 148.278C1034.91 148.433 1035.12 148.52 1035.34 148.52H1047.15C1047.37 148.52 1047.58 148.433 1047.73 148.278C1047.89 148.122 1047.98 147.912 1047.98 147.692V147.205H1065.13V147.692C1065.13 147.912 1065.22 148.122 1065.37 148.278C1065.53 148.433 1065.74 148.52 1065.96 148.52H1077.13C1077.35 148.52 1077.56 148.433 1077.72 148.278C1077.87 148.122 1077.96 147.912 1077.96 147.692V124.991C1077.96 124.991 1077.9 124.991 1077.9 124.986ZM1070.66 119.209H1072.99L1075.69 124.175H1068.07L1070.66 119.209ZM1047.99 125.83H1065.07V131.172H1047.99V125.83ZM1039.94 98.7115H1042.6L1045.89 107.147H1036.52L1039.94 98.7115ZM1034.46 131.172H1017.39V125.83H1034.47L1034.46 131.172ZM1009.47 119.209H1011.79L1014.39 124.175H1006.76L1009.47 119.209ZM1015.73 146.876H1014.43V142.123C1014.43 141.203 1014.07 140.32 1013.42 139.669C1012.77 139.018 1011.89 138.652 1010.97 138.652C1010.05 138.652 1009.17 139.018 1008.52 139.669C1007.87 140.32 1007.5 141.203 1007.5 142.123V146.876H1006.2V125.83H1015.74V146.876H1015.73ZM1033.73 145.562V142.96C1033.73 142.394 1033.51 141.851 1033.11 141.451C1032.71 141.05 1032.16 140.825 1031.6 140.825C1031.03 140.825 1030.49 141.05 1030.09 141.451C1029.69 141.851 1029.47 142.394 1029.47 142.96V145.562H1028.05V142.96C1028.05 142.394 1027.82 141.851 1027.43 141.451C1027.03 141.05 1026.48 140.825 1025.92 140.825C1025.35 140.825 1024.81 141.05 1024.41 141.451C1024.01 141.851 1023.78 142.394 1023.78 142.96V145.562H1022.37V142.96C1022.37 142.394 1022.14 141.851 1021.74 141.451C1021.34 141.05 1020.8 140.825 1020.24 140.825C1019.67 140.825 1019.13 141.05 1018.73 141.451C1018.33 141.851 1018.1 142.394 1018.1 142.96V145.562H1017.39V132.828H1034.47V145.559L1033.73 145.562ZM1046.27 146.876H1044.66V142.123C1044.66 141.203 1044.3 140.32 1043.65 139.669C1043 139.018 1042.12 138.652 1041.2 138.652C1040.28 138.652 1039.39 139.018 1038.74 139.669C1038.09 140.32 1037.73 141.203 1037.73 142.123V146.876H1036.12V108.804H1046.27V146.876ZM1064.34 145.562V142.96C1064.34 142.394 1064.12 141.851 1063.72 141.451C1063.32 141.05 1062.78 140.825 1062.21 140.825C1061.65 140.825 1061.1 141.05 1060.7 141.451C1060.3 141.851 1060.08 142.394 1060.08 142.96V145.562H1058.66V142.96C1058.66 142.394 1058.44 141.851 1058.04 141.451C1057.64 141.05 1057.1 140.825 1056.53 140.825C1055.97 140.825 1055.42 141.05 1055.02 141.451C1054.62 141.851 1054.4 142.394 1054.4 142.96V145.562H1052.98V142.96C1052.98 142.394 1052.76 141.851 1052.36 141.451C1051.96 141.05 1051.41 140.825 1050.85 140.825C1050.28 140.825 1049.74 141.05 1049.34 141.451C1048.94 141.851 1048.72 142.394 1048.72 142.96V145.562H1047.98V132.828H1065.06V145.559L1064.34 145.562ZM1076.26 146.876H1074.96V142.123C1074.96 141.203 1074.59 140.32 1073.94 139.669C1073.29 139.018 1072.41 138.652 1071.49 138.652C1070.57 138.652 1069.69 139.018 1069.04 139.669C1068.39 140.32 1068.03 141.203 1068.03 142.123V146.876H1066.73V125.83H1076.25L1076.26 146.876Z" fill="white"/>
<path d="M1216.65 95.6734V97.4942C1216.65 97.6226 1216.68 97.7491 1216.74 97.8636C1216.8 97.9782 1216.88 98.0776 1216.99 98.154V100.046H1216.82C1216.6 100.046 1216.39 100.133 1216.23 100.288C1216.08 100.443 1215.99 100.654 1215.99 100.873V103.818C1215.99 104.037 1216.08 104.248 1216.23 104.403C1216.39 104.558 1216.6 104.645 1216.82 104.645H1216.99V106.367H1216.49C1216.27 106.367 1216.06 106.454 1215.9 106.609C1215.75 106.764 1215.66 106.975 1215.66 107.194V110.375C1215.66 110.594 1215.75 110.805 1215.9 110.96C1216.06 111.115 1216.27 111.203 1216.49 111.203H1216.57V115.466H1213.24V113.683H1214.06C1214.27 113.683 1214.48 113.596 1214.64 113.441C1214.79 113.286 1214.88 113.075 1214.88 112.856V107.138C1214.88 106.918 1214.79 106.708 1214.64 106.552C1214.48 106.397 1214.27 106.31 1214.06 106.31H1212.49V101.888H1213.46C1213.68 101.888 1213.89 101.801 1214.05 101.645C1214.2 101.49 1214.29 101.28 1214.29 101.06V95.7609C1214.29 95.5413 1214.2 95.3308 1214.05 95.1756C1213.89 95.0204 1213.68 94.9332 1213.46 94.9332H1212.49V90.4733C1212.67 90.424 1212.82 90.3201 1212.93 90.1772C1213.03 90.0343 1213.09 89.8602 1213.09 89.6811V86.4178C1213.09 85.4316 1212.73 84.4801 1212.08 83.7406C1211.42 83.0011 1210.53 82.5239 1209.55 82.3977V78.023C1209.55 77.8035 1209.46 77.5929 1209.31 77.4377C1209.15 77.2825 1208.94 77.1953 1208.72 77.1953C1208.5 77.1953 1208.29 77.2825 1208.14 77.4377C1207.98 77.5929 1207.9 77.8035 1207.9 78.023V82.3906C1206.92 82.5168 1206.02 82.994 1205.37 83.7335C1204.72 84.473 1204.36 85.4245 1204.35 86.4107V89.6906C1204.35 89.8696 1204.41 90.0438 1204.52 90.1867C1204.63 90.3296 1204.78 90.4335 1204.95 90.4828V94.9403H1203.98C1203.76 94.9403 1203.55 95.0275 1203.4 95.1827C1203.24 95.3379 1203.16 95.5484 1203.16 95.7679V101.067C1203.16 101.287 1203.24 101.497 1203.4 101.653C1203.55 101.808 1203.76 101.895 1203.98 101.895H1204.95V106.317H1203.39C1203.17 106.317 1202.96 106.404 1202.81 106.559C1202.65 106.715 1202.56 106.925 1202.56 107.145V112.865C1202.56 113.084 1202.65 113.295 1202.81 113.45C1202.96 113.605 1203.17 113.693 1203.39 113.693H1204.2V122.638H1203.7C1203.48 122.638 1203.27 122.726 1203.12 122.881C1202.96 123.036 1202.87 123.247 1202.87 123.466V146.641C1202.87 146.86 1202.96 147.071 1203.12 147.226C1203.27 147.381 1203.48 147.468 1203.7 147.468H1257.47C1257.69 147.468 1257.9 147.381 1258.06 147.226C1258.21 147.071 1258.3 146.86 1258.3 146.641V123.466C1258.3 123.247 1258.21 123.036 1258.06 122.881C1257.9 122.726 1257.69 122.638 1257.47 122.638H1256.97V113.69H1257.78C1258 113.69 1258.21 113.603 1258.37 113.448C1258.52 113.293 1258.61 113.082 1258.61 112.863V107.138C1258.61 106.918 1258.52 106.708 1258.37 106.552C1258.21 106.397 1258 106.31 1257.78 106.31H1256.22V101.888H1257.19C1257.41 101.888 1257.62 101.801 1257.78 101.645C1257.93 101.49 1258.02 101.28 1258.02 101.06V95.7609C1258.02 95.5413 1257.93 95.3308 1257.78 95.1756C1257.62 95.0204 1257.41 94.9332 1257.19 94.9332H1256.22V90.4733C1256.39 90.424 1256.55 90.3201 1256.65 90.1772C1256.76 90.0343 1256.82 89.8602 1256.82 89.6811V86.4178C1256.82 85.4316 1256.46 84.4801 1255.8 83.7406C1255.15 83.0011 1254.26 82.5239 1253.28 82.3977V78.023C1253.28 77.8035 1253.19 77.5929 1253.04 77.4377C1252.88 77.2825 1252.67 77.1953 1252.45 77.1953C1252.23 77.1953 1252.02 77.2825 1251.87 77.4377C1251.71 77.5929 1251.63 77.8035 1251.63 78.023V82.3906C1250.65 82.5168 1249.75 82.994 1249.1 83.7335C1248.45 84.473 1248.09 85.4245 1248.08 86.4107V89.6906C1248.08 89.8696 1248.14 90.0438 1248.25 90.1867C1248.36 90.3296 1248.51 90.4335 1248.68 90.4828V94.9403H1247.71C1247.49 94.9403 1247.28 95.0275 1247.13 95.1827C1246.97 95.3379 1246.89 95.5484 1246.89 95.7679V101.067C1246.89 101.287 1246.97 101.497 1247.13 101.653C1247.28 101.808 1247.49 101.895 1247.71 101.895H1248.68V106.317H1247.12C1246.9 106.317 1246.69 106.404 1246.54 106.559C1246.38 106.715 1246.29 106.925 1246.29 107.145V112.865C1246.29 113.084 1246.38 113.295 1246.54 113.45C1246.69 113.605 1246.9 113.693 1247.12 113.693H1247.93V115.466H1244.6V111.195H1244.69C1244.91 111.195 1245.12 111.108 1245.27 110.953C1245.43 110.798 1245.52 110.587 1245.52 110.368V107.19C1245.52 106.97 1245.43 106.76 1245.27 106.604C1245.12 106.449 1244.91 106.362 1244.69 106.362H1244.19V104.64H1244.36C1244.58 104.64 1244.79 104.553 1244.94 104.398C1245.1 104.243 1245.19 104.032 1245.19 103.813V100.864C1245.19 100.644 1245.1 100.434 1244.94 100.279C1244.79 100.123 1244.58 100.036 1244.36 100.036H1244.19V98.1445C1244.29 98.0682 1244.38 97.9687 1244.43 97.8542C1244.49 97.7396 1244.52 97.6131 1244.52 97.4847V95.6734C1244.52 94.9768 1244.24 94.3089 1243.75 93.8163C1243.26 93.3238 1242.59 93.0468 1241.9 93.0461H1241.55C1240.86 93.0468 1240.19 93.3238 1239.7 93.8163C1239.21 94.3089 1238.93 94.9768 1238.93 95.6734V97.4942C1238.93 97.6226 1238.96 97.7491 1239.02 97.8636C1239.07 97.9782 1239.16 98.0776 1239.26 98.154V100.046H1239.09C1238.87 100.046 1238.66 100.133 1238.51 100.288C1238.35 100.443 1238.26 100.654 1238.26 100.873V103.818C1238.26 104.037 1238.35 104.248 1238.51 104.403C1238.66 104.558 1238.87 104.645 1239.09 104.645H1239.26V106.367H1238.76C1238.54 106.367 1238.33 106.454 1238.18 106.609C1238.02 106.764 1237.93 106.975 1237.93 107.194V110.375C1237.93 110.594 1238.02 110.805 1238.18 110.96C1238.33 111.115 1238.54 111.203 1238.76 111.203H1238.85V115.466H1222.35V111.195H1222.43C1222.65 111.195 1222.86 111.108 1223.02 110.953C1223.17 110.798 1223.26 110.587 1223.26 110.368V107.19C1223.26 106.97 1223.17 106.76 1223.02 106.604C1222.86 106.449 1222.65 106.362 1222.43 106.362H1221.93V104.64H1222.1C1222.32 104.64 1222.53 104.553 1222.68 104.398C1222.84 104.243 1222.93 104.032 1222.93 103.813V100.864C1222.93 100.644 1222.84 100.434 1222.68 100.279C1222.53 100.123 1222.32 100.036 1222.1 100.036H1221.93V98.1445C1222.03 98.0682 1222.12 97.9687 1222.18 97.8542C1222.23 97.7396 1222.26 97.6131 1222.26 97.4847V95.6734C1222.26 94.9768 1221.99 94.3089 1221.49 93.8163C1221 93.3238 1220.34 93.0468 1219.64 93.0461H1219.29C1218.95 93.0443 1218.6 93.1108 1218.28 93.242C1217.96 93.3731 1217.67 93.5663 1217.43 93.8105C1217.18 94.0546 1216.99 94.3448 1216.85 94.6645C1216.72 94.9842 1216.65 95.327 1216.65 95.6734ZM1206.6 90.5111H1210.85V94.7677H1206.6V90.5111ZM1206 86.4201C1206 85.7821 1206.26 85.1707 1206.71 84.72C1207.16 84.2693 1207.77 84.0158 1208.41 84.0152H1209.03C1209.67 84.0158 1210.28 84.2699 1210.73 84.7217C1211.18 85.1734 1211.44 85.786 1211.44 86.4249V88.8605H1206.01L1206 86.4201ZM1204.8 96.5885H1212.63V100.233H1204.8V96.5885ZM1250.32 90.5111H1254.57V94.7677H1250.32V90.5111ZM1249.72 86.4201C1249.72 85.7821 1249.98 85.1707 1250.43 84.72C1250.88 84.2693 1251.49 84.0158 1252.13 84.0152H1252.75C1253.39 84.0158 1254 84.2699 1254.45 84.7217C1254.91 85.1734 1255.16 85.786 1255.16 86.4249V88.8605H1249.73L1249.72 86.4201ZM1248.52 96.5885H1256.37V100.233H1248.53L1248.52 96.5885ZM1240.48 108.015H1242.94V109.54H1240.48V108.015ZM1240.9 101.692H1242.52V102.98H1240.9V101.692ZM1240.56 95.6734C1240.56 95.4156 1240.67 95.1684 1240.85 94.9861C1241.03 94.8038 1241.28 94.7015 1241.53 94.7015H1241.88C1242.14 94.7015 1242.39 94.8038 1242.57 94.9861C1242.75 95.1684 1242.85 95.4156 1242.85 95.6734V96.6595H1240.57L1240.56 95.6734ZM1240.9 98.3148H1242.52V100.036H1240.9V98.3148ZM1242.52 104.638V106.36H1240.9V104.638H1242.52ZM1242.94 111.195V115.431H1240.48V111.195H1242.94ZM1206.6 102.063H1210.85V106.319H1206.6V102.063ZM1204.21 107.975H1213.23V112.044H1204.21V107.975ZM1205.85 113.7H1211.59V122.646H1205.85V113.7ZM1204.52 124.301H1213.5V145.82H1204.52V124.301ZM1240.35 145.82V136.858C1240.35 134.261 1239.32 131.771 1237.49 129.935C1235.66 128.099 1233.17 127.068 1230.58 127.068C1227.98 127.068 1225.5 128.099 1223.66 129.935C1221.83 131.771 1220.8 134.261 1220.8 136.858V145.82H1215.15V124.301H1246V145.82H1240.35ZM1256.65 145.82H1247.65V124.301H1256.64L1256.65 145.82ZM1250.33 102.072H1254.58V106.329H1250.33V102.072ZM1247.94 107.984H1256.96V112.054H1247.94V107.984ZM1255.32 113.709V122.655H1249.58V113.69L1255.32 113.709ZM1247.68 122.655H1213.48V117.122H1247.68L1247.68 122.655ZM1220.27 103.004H1218.65V101.715H1220.27V103.004ZM1220.68 109.561H1218.23V108.036H1220.68V109.561ZM1220.68 115.452H1218.23V111.195H1220.68V115.452ZM1220.27 106.381H1218.65V104.659H1220.27V106.381ZM1218.65 100.058V98.336H1220.27V100.058H1218.65ZM1218.31 95.6946C1218.31 95.4369 1218.42 95.1897 1218.6 95.0074C1218.78 94.8251 1219.03 94.7227 1219.28 94.7227H1219.63C1219.89 94.7227 1220.13 94.8251 1220.32 95.0074C1220.5 95.1897 1220.6 95.4369 1220.6 95.6946V96.6807H1218.32L1218.31 95.6946Z" fill="white"/>
<path d="M1186.53 139.362H1183.02V114.222C1183.02 114.222 1183.02 114.208 1183.02 114.201C1183.02 114.159 1183.01 114.117 1183.01 114.075C1183.01 114.075 1183.01 114.056 1183.01 114.049C1183 114.003 1182.98 113.958 1182.96 113.915L1182.95 113.877C1182.93 113.844 1182.92 113.813 1182.9 113.782L1182.87 113.747V113.728L1179.94 109.757C1179.86 109.653 1179.76 109.569 1179.65 109.511C1179.53 109.452 1179.41 109.422 1179.28 109.422H1172.01V108.412C1172.01 108.192 1171.93 107.982 1171.77 107.827C1171.62 107.671 1171.41 107.584 1171.19 107.584H1154.14V104.385H1156.03C1156.2 104.385 1156.37 104.332 1156.51 104.235C1156.64 104.138 1156.75 104.001 1156.81 103.842C1156.87 103.683 1156.87 103.509 1156.83 103.346C1156.79 103.182 1156.7 103.035 1156.57 102.926L1152.02 99.083C1151.87 98.9564 1151.68 98.8869 1151.48 98.8867H1129.26C1129.07 98.8869 1128.88 98.9564 1128.73 99.083L1124.19 102.923C1124.06 103.033 1123.97 103.179 1123.93 103.343C1123.88 103.507 1123.89 103.68 1123.95 103.839C1124.01 103.998 1124.11 104.136 1124.25 104.233C1124.39 104.33 1124.56 104.382 1124.72 104.382H1126.6V107.587H1109.56C1109.34 107.587 1109.13 107.674 1108.98 107.829C1108.82 107.984 1108.74 108.195 1108.74 108.414V109.424H1101.48C1101.35 109.424 1101.23 109.455 1101.11 109.513C1101 109.571 1100.9 109.656 1100.82 109.76L1097.88 113.73V113.749L1097.86 113.785C1097.84 113.815 1097.83 113.847 1097.81 113.879L1097.8 113.917C1097.78 113.961 1097.76 114.006 1097.75 114.052C1097.75 114.052 1097.75 114.071 1097.75 114.078C1097.75 114.119 1097.74 114.161 1097.74 114.203C1097.74 114.203 1097.74 114.217 1097.74 114.224V139.362H1094.22C1094 139.362 1093.79 139.449 1093.63 139.604C1093.48 139.759 1093.39 139.97 1093.39 140.189V147.48C1093.39 147.699 1093.48 147.91 1093.63 148.065C1093.79 148.22 1094 148.307 1094.22 148.307H1186.53C1186.75 148.307 1186.96 148.22 1187.12 148.065C1187.27 147.91 1187.36 147.699 1187.36 147.48V140.184C1187.36 139.966 1187.27 139.756 1187.12 139.602C1186.96 139.448 1186.75 139.362 1186.53 139.362ZM1172.01 115.05H1181.37V139.362H1172.01V115.05ZM1178.84 111.079L1180.55 113.394H1172.01V111.079H1178.84ZM1170.36 110.252V139.362H1150.55V109.244H1170.36L1170.36 110.252ZM1146.67 139.362V130.234C1146.68 129.396 1146.53 128.563 1146.22 127.785C1145.91 127.006 1145.45 126.297 1144.87 125.699C1144.28 125.101 1143.58 124.625 1142.81 124.301C1142.04 123.977 1141.21 123.81 1140.38 123.81C1139.54 123.81 1138.71 123.977 1137.94 124.301C1137.17 124.625 1136.47 125.101 1135.88 125.699C1135.3 126.297 1134.84 127.006 1134.53 127.785C1134.22 128.563 1134.07 129.396 1134.08 130.234V139.362H1131.85V109.244H1148.9V139.362H1146.67ZM1145.01 139.362H1135.72V130.234C1135.71 129.615 1135.82 128.999 1136.05 128.424C1136.27 127.848 1136.61 127.323 1137.05 126.88C1137.48 126.438 1137.99 126.086 1138.56 125.846C1139.13 125.606 1139.75 125.482 1140.36 125.482C1140.98 125.482 1141.59 125.606 1142.16 125.846C1142.73 126.086 1143.25 126.438 1143.68 126.88C1144.11 127.323 1144.45 127.848 1144.68 128.424C1144.91 128.999 1145.02 129.615 1145 130.234L1145.01 139.362ZM1129.57 100.542H1151.18L1153.77 102.727H1126.99L1129.57 100.542ZM1128.25 104.382H1152.49V107.587H1128.25V104.382ZM1110.39 109.242H1130.19V139.362H1110.39V109.244V109.242ZM1101.91 111.079H1108.74V113.394H1100.2L1101.91 111.079ZM1099.38 115.05H1108.74V139.362H1099.38V115.05ZM1185.71 146.654H1095.04V141.017H1185.71V146.654Z" fill="white"/>
<path d="M892.84 121.361H887.881V114.335H888.407C888.627 114.335 888.837 114.248 888.992 114.093C889.147 113.937 889.234 113.727 889.234 113.507V112.933C889.232 111.109 888.56 109.35 887.346 107.991C886.132 106.632 884.462 105.767 882.653 105.562V101.244C882.653 101.024 882.566 100.814 882.411 100.659C882.256 100.503 882.045 100.416 881.826 100.416C881.607 100.416 881.397 100.503 881.242 100.659C881.087 100.814 881 101.024 881 101.244V105.559C879.19 105.765 877.52 106.63 876.306 107.989C875.093 109.348 874.421 111.107 874.418 112.93V113.505C874.418 113.724 874.505 113.935 874.66 114.09C874.815 114.245 875.026 114.333 875.245 114.333H876.022V121.361H870.827C870.691 121.36 870.557 121.394 870.437 121.458C870.317 121.523 870.215 121.616 870.139 121.729V104.547H871.24V101.852C871.24 101.34 871.037 100.849 870.675 100.487C870.314 100.125 869.824 99.9219 869.313 99.9219C868.802 99.9219 868.312 100.125 867.95 100.487C867.589 100.849 867.386 101.34 867.386 101.852V104.547H868.486V128.757H868.201V115.664C868.201 115.444 868.114 115.234 867.959 115.079C867.804 114.923 867.593 114.836 867.374 114.836H866.76V113.124C866.76 112.612 866.557 112.122 866.196 111.76C865.834 111.398 865.344 111.195 864.833 111.195C864.322 111.195 863.832 111.398 863.471 111.76C863.109 112.122 862.906 112.612 862.906 113.124C862.906 112.612 862.703 112.122 862.342 111.76C861.981 111.398 861.491 111.195 860.979 111.195C860.468 111.195 859.978 111.398 859.617 111.76C859.256 112.122 859.053 112.612 859.053 113.124C859.053 112.612 858.85 112.122 858.488 111.76C858.127 111.398 857.637 111.195 857.126 111.195C856.615 111.195 856.124 111.398 855.763 111.76C855.402 112.122 855.199 112.612 855.199 113.124C855.199 112.612 854.996 112.122 854.634 111.76C854.273 111.398 853.783 111.195 853.272 111.195C852.761 111.195 852.271 111.398 851.909 111.76C851.548 112.122 851.345 112.612 851.345 113.124C851.345 112.612 851.142 112.122 850.781 111.76C850.419 111.398 849.929 111.195 849.418 111.195C848.907 111.195 848.417 111.398 848.055 111.76C847.694 112.122 847.491 112.612 847.491 113.124C847.491 112.612 847.288 112.122 846.927 111.76C846.565 111.398 846.075 111.195 845.564 111.195C845.053 111.195 844.563 111.398 844.202 111.76C843.84 112.122 843.637 112.612 843.637 113.124C843.637 112.612 843.434 112.122 843.073 111.76C842.711 111.398 842.221 111.195 841.71 111.195C841.199 111.195 840.709 111.398 840.348 111.76C839.986 112.122 839.783 112.612 839.783 113.124V114.836H839.155C838.936 114.836 838.726 114.923 838.571 115.079C838.416 115.234 838.329 115.444 838.329 115.664V128.757H838.055V104.547H839.155V101.852C839.155 101.34 838.952 100.849 838.591 100.487C838.229 100.125 837.739 99.9219 837.228 99.9219C836.717 99.9219 836.227 100.125 835.866 100.487C835.504 100.849 835.301 101.34 835.301 101.852V104.547H836.402V121.729C836.327 121.616 836.224 121.523 836.105 121.458C835.985 121.394 835.851 121.36 835.715 121.361H830.52V114.335H831.296C831.516 114.335 831.726 114.248 831.881 114.093C832.036 113.937 832.123 113.727 832.123 113.507V112.933C832.121 111.109 831.449 109.35 830.235 107.991C829.021 106.632 827.351 105.767 825.542 105.562V101.244C825.542 101.024 825.455 100.814 825.3 100.659C825.145 100.503 824.934 100.416 824.715 100.416C824.496 100.416 824.286 100.503 824.131 100.659C823.976 100.814 823.889 101.024 823.889 101.244V105.559C822.079 105.765 820.409 106.63 819.195 107.989C817.982 109.348 817.31 111.107 817.307 112.93V113.505C817.307 113.724 817.394 113.935 817.549 114.09C817.704 114.245 817.915 114.333 818.134 114.333H818.66V121.361H813.701C813.482 121.361 813.272 121.448 813.117 121.603C812.962 121.758 812.875 121.969 812.875 122.188V148.926C812.875 149.146 812.962 149.356 813.117 149.512C813.272 149.667 813.482 149.754 813.701 149.754H835.722C835.745 149.754 835.767 149.754 835.79 149.754C835.814 149.754 835.835 149.754 835.859 149.754H870.683C870.706 149.754 870.727 149.754 870.751 149.754C870.775 149.754 870.796 149.754 870.82 149.754H892.84C893.059 149.754 893.269 149.667 893.424 149.512C893.579 149.356 893.666 149.146 893.666 148.926V122.188C893.666 121.969 893.579 121.758 893.424 121.603C893.269 121.448 893.059 121.361 892.84 121.361ZM886.228 121.361H884.495V114.335H886.244L886.228 121.361ZM881.075 121.361V114.335H882.842V121.363L881.075 121.361ZM881.824 107.172C883.306 107.174 884.731 107.747 885.802 108.774C886.873 109.801 887.508 111.201 887.574 112.684H876.074C876.139 111.199 876.774 109.796 877.846 108.769C878.919 107.741 880.346 107.167 881.831 107.167L881.824 107.172ZM877.672 114.34H879.422V121.368H877.672V114.34ZM871.641 123.023H892.009V128.765H871.646L871.641 123.023ZM839.998 116.496H866.548V128.762H839.994L839.998 116.496ZM828.874 121.368H827.112V114.335H828.862L828.874 121.368ZM823.721 121.368V114.335H825.459V121.363L823.721 121.368ZM824.722 107.179C826.205 107.181 827.63 107.755 828.701 108.781C829.772 109.808 830.406 111.208 830.472 112.691H818.972C819.035 111.207 819.668 109.804 820.738 108.775C821.808 107.746 823.234 107.17 824.718 107.167L824.722 107.179ZM820.318 114.347H822.068V121.375H820.318V114.347ZM814.533 123.016H834.905V128.757H814.533V123.016ZM814.533 130.413H818.66V148.099H814.533V130.413ZM820.313 148.099V130.413H829.119V148.099H820.313ZM834.9 148.099H830.772V130.413H834.905L834.9 148.099ZM869.849 148.099H836.69V130.413H869.854L869.849 148.099ZM871.639 130.413H875.767V148.099H871.646L871.639 130.413ZM877.42 148.099V130.413H886.225V148.099H877.42ZM892.006 148.099H887.886V130.413H892.013L892.006 148.099Z" fill="white"/>
<path d="M843.645 134.551C842.689 134.551 841.772 134.931 841.096 135.608C840.421 136.284 840.041 137.202 840.041 138.159V141.768H847.25V138.159C847.25 137.685 847.157 137.216 846.976 136.778C846.795 136.34 846.529 135.942 846.194 135.607C845.859 135.272 845.462 135.006 845.024 134.825C844.587 134.644 844.118 134.55 843.645 134.551Z" fill="white"/>
<path d="M853.283 134.551C852.328 134.551 851.411 134.931 850.735 135.608C850.059 136.284 849.68 137.202 849.68 138.159V141.768H856.875V138.159C856.875 137.204 856.497 136.288 855.824 135.612C855.15 134.935 854.237 134.554 853.283 134.551Z" fill="white"/>
<path d="M862.912 134.551C861.956 134.551 861.04 134.931 860.364 135.608C859.688 136.284 859.309 137.202 859.309 138.159V141.768H866.518V138.159C866.518 137.685 866.425 137.216 866.243 136.778C866.062 136.34 865.797 135.942 865.462 135.607C865.127 135.272 864.729 135.006 864.292 134.825C863.854 134.644 863.386 134.55 862.912 134.551Z" fill="white"/>
<path d="M775.469 126.745H786.029C786.249 126.745 786.459 126.658 786.614 126.502C786.769 126.347 786.856 126.137 786.856 125.917V120.005C786.856 119.786 786.769 119.575 786.614 119.42C786.459 119.265 786.249 119.178 786.029 119.178H775.469C775.25 119.178 775.04 119.265 774.885 119.42C774.73 119.575 774.643 119.786 774.643 120.005V125.917C774.643 126.137 774.73 126.347 774.885 126.502C775.04 126.658 775.25 126.745 775.469 126.745ZM776.296 120.833H785.203V125.09H776.296V120.833Z" fill="white"/>
<path d="M726.233 119.166H715.682C715.463 119.166 715.253 119.253 715.098 119.408C714.943 119.564 714.855 119.774 714.855 119.994V125.906C714.855 126.125 714.943 126.336 715.098 126.491C715.253 126.646 715.463 126.733 715.682 126.733H726.233C726.452 126.733 726.662 126.646 726.817 126.491C726.972 126.336 727.059 126.125 727.059 125.906V119.994C727.059 119.774 726.972 119.564 726.817 119.408C726.662 119.253 726.452 119.166 726.233 119.166ZM725.406 125.078H716.508V120.821H725.416L725.406 125.078Z" fill="white"/>
<path d="M707.383 150.502H729.08V151.311C729.08 151.53 729.167 151.741 729.322 151.896C729.477 152.051 729.687 152.138 729.906 152.138H770.157C770.376 152.138 770.586 152.051 770.741 151.896C770.896 151.741 770.983 151.53 770.983 151.311V150.502H792.68C792.899 150.502 793.109 150.415 793.264 150.259C793.419 150.104 793.506 149.894 793.506 149.674V129.191C793.506 128.971 793.419 128.761 793.264 128.606C793.109 128.45 792.899 128.363 792.68 128.363H790.522V116.726C790.522 116.507 790.435 116.296 790.28 116.141C790.125 115.986 789.914 115.899 789.695 115.899H770.157C769.997 115.899 769.84 115.945 769.706 116.033V98.9365C769.704 98.0965 769.418 97.2818 768.895 96.6252C768.372 95.9687 767.642 95.5089 766.825 95.3208V92.4429C766.825 92.2234 766.738 92.0129 766.583 91.8576C766.428 91.7024 766.218 91.6152 765.998 91.6152C765.779 91.6152 765.569 91.7024 765.414 91.8576C765.259 92.0129 765.172 92.2234 765.172 92.4429V95.3208C764.354 95.5089 763.625 95.9687 763.101 96.6252C762.578 97.2818 762.293 98.0965 762.291 98.9365V109.564H760.664V104.664C760.663 104.208 760.525 103.762 760.268 103.386C760.012 103.009 759.647 102.719 759.223 102.552V101.417C759.223 101.198 759.136 100.987 758.981 100.832C758.826 100.677 758.616 100.589 758.397 100.589C758.178 100.589 757.967 100.677 757.812 100.832C757.657 100.987 757.57 101.198 757.57 101.417V102.559C757.146 102.726 756.782 103.016 756.525 103.393C756.268 103.77 756.131 104.215 756.13 104.671V109.571H743.548V104.664C743.548 104.208 743.41 103.762 743.153 103.386C742.896 103.009 742.532 102.719 742.108 102.552V101.417C742.108 101.198 742.021 100.987 741.866 100.832C741.711 100.677 741.501 100.589 741.281 100.589C741.062 100.589 740.852 100.677 740.697 100.832C740.542 100.987 740.455 101.198 740.455 101.417V102.559C740.031 102.726 739.667 103.016 739.41 103.393C739.153 103.77 739.015 104.215 739.014 104.671V109.571H737.772V98.9365C737.771 98.0965 737.485 97.2818 736.962 96.6252C736.439 95.9687 735.709 95.5089 734.891 95.3208V92.4429C734.891 92.2234 734.804 92.0129 734.649 91.8576C734.494 91.7024 734.284 91.6152 734.065 91.6152C733.846 91.6152 733.635 91.7024 733.48 91.8576C733.325 92.0129 733.238 92.2234 733.238 92.4429V95.3208C732.423 95.5107 731.695 95.9713 731.174 96.6277C730.652 97.2841 730.368 98.0978 730.367 98.9365V116.038C730.233 115.95 730.076 115.903 729.916 115.903H710.368C710.149 115.903 709.939 115.991 709.784 116.146C709.629 116.301 709.541 116.512 709.541 116.731V128.368H707.383C707.164 128.368 706.954 128.455 706.799 128.61C706.644 128.766 706.557 128.976 706.557 129.196V149.679C706.558 149.898 706.646 150.107 706.8 150.261C706.955 150.415 707.165 150.502 707.383 150.502ZM717.011 148.847V133.4H726.019V148.844L717.011 148.847ZM739.843 111.219H768.05V126.117H732.02V111.219H739.85H739.843ZM769.33 150.473H759.963V141.246C759.963 141.145 759.788 140.736 759.788 140.634H758.232C758.199 140.601 758.09 140.161 758.054 140.123C757.993 135.24 754.725 130.56 750.186 128.791C750.188 128.751 750.188 128.711 750.186 128.671L750.023 128.732L749.86 128.671C749.858 128.711 749.858 128.751 749.86 128.791C745.322 130.56 742.051 135.24 741.992 140.123C741.959 140.156 741.85 140.596 741.815 140.634H740.254C740.254 140.736 740.079 141.145 740.079 141.246V150.483H730.733V127.782H769.33V150.483V150.473ZM774.053 148.837V133.4H783.062V148.844L774.053 148.837ZM791.861 148.837H784.703V132.572C784.703 132.353 784.616 132.142 784.461 131.987C784.306 131.832 784.096 131.745 783.877 131.745H773.215C772.996 131.745 772.785 131.832 772.63 131.987C772.475 132.142 772.388 132.353 772.388 132.572V148.844H770.971V130.019H791.842L791.861 148.837ZM770.983 117.554H788.869V128.363H770.983V117.554ZM763.944 98.9388C763.944 98.3932 764.16 97.8699 764.546 97.4841C764.931 97.0983 765.453 96.8815 765.998 96.8815C766.543 96.8815 767.066 97.0983 767.451 97.4841C767.836 97.8699 768.053 98.3932 768.053 98.9388V99.757H763.944V98.9388ZM763.944 101.412H768.053V109.566H763.944V101.412ZM758.395 104.049C758.557 104.049 758.712 104.113 758.827 104.227C758.942 104.342 759.007 104.497 759.009 104.659H757.781C757.782 104.497 757.847 104.342 757.962 104.227C758.077 104.113 758.233 104.049 758.395 104.049ZM757.781 106.314H759.009V109.564H757.781V106.314ZM741.281 104.049C741.443 104.049 741.599 104.113 741.714 104.227C741.829 104.342 741.894 104.497 741.895 104.659H740.667C740.669 104.497 740.734 104.342 740.849 104.227C740.964 104.113 741.119 104.049 741.281 104.049ZM740.667 106.314H741.895V109.564H740.667V106.314ZM732.02 109.564V101.41H736.129V109.564H732.02ZM732.02 98.9365C732.02 98.3908 732.236 97.8675 732.622 97.4817C733.007 97.0959 733.529 96.8791 734.074 96.8791C734.619 96.8791 735.142 97.0959 735.527 97.4817C735.912 97.8675 736.129 98.3908 736.129 98.9365V99.7547H732.02V98.9365ZM711.204 117.552H729.089V128.361H711.194L711.204 117.552ZM708.219 130.016H729.089V148.844H727.672V132.572C727.672 132.353 727.585 132.142 727.43 131.987C727.275 131.832 727.065 131.745 726.846 131.745H716.184C715.965 131.745 715.755 131.832 715.6 131.987C715.445 132.142 715.358 132.353 715.358 132.572V148.844H708.21L708.219 130.016Z" fill="white"/>
<path d="M673.04 119.914C672.05 119.915 671.102 120.309 670.403 121.01C669.703 121.71 669.31 122.66 669.309 123.65V129.29C669.309 129.51 669.396 129.72 669.551 129.875C669.706 130.031 669.916 130.118 670.135 130.118H675.942C676.161 130.118 676.371 130.031 676.526 129.875C676.681 129.72 676.768 129.51 676.768 129.29V123.65C676.768 122.66 676.375 121.71 675.676 121.01C674.977 120.309 674.029 119.915 673.04 119.914ZM675.118 128.46H670.971V123.65C670.989 123.111 671.216 122.6 671.603 122.224C671.991 121.849 672.509 121.64 673.048 121.64C673.587 121.64 674.105 121.849 674.492 122.224C674.88 122.6 675.107 123.111 675.125 123.65L675.118 128.46Z" fill="white"/>
<path d="M638.823 119.914C637.834 119.915 636.885 120.309 636.185 121.009C635.486 121.71 635.092 122.66 635.092 123.65V129.29C635.092 129.51 635.179 129.72 635.334 129.875C635.489 130.031 635.699 130.118 635.918 130.118H641.725C641.944 130.118 642.154 130.031 642.309 129.875C642.464 129.72 642.552 129.51 642.552 129.29V123.65C642.551 122.66 642.158 121.71 641.459 121.01C640.76 120.309 639.812 119.915 638.823 119.914ZM640.901 128.46H636.735V123.65C636.754 123.111 636.98 122.6 637.368 122.224C637.755 121.849 638.273 121.64 638.812 121.64C639.351 121.64 639.869 121.849 640.257 122.224C640.644 122.6 640.871 123.111 640.889 123.65L640.901 128.46Z" fill="white"/>
<path d="M621.826 150.279H690.036C690.255 150.279 690.466 150.192 690.621 150.037C690.776 149.881 690.863 149.671 690.863 149.451V141.411C690.863 141.192 690.776 140.981 690.621 140.826C690.466 140.671 690.255 140.584 690.036 140.584H685.849V117.459C685.849 117.239 685.762 117.029 685.607 116.874C685.452 116.718 685.242 116.631 685.023 116.631H678.857V112.597C678.857 112.418 678.798 112.244 678.691 112.101C678.583 111.958 678.432 111.854 678.26 111.805C678.895 110.57 679.032 109.139 678.642 107.806C678.253 106.473 677.367 105.341 676.167 104.644C675.875 104.474 675.577 104.337 675.291 104.207C675.041 104.093 674.805 103.985 674.583 103.862C674.308 103.718 674.071 103.512 673.889 103.261C673.875 103.076 673.799 102.901 673.673 102.765C673.548 102.628 673.38 102.538 673.197 102.509H673.105C673.026 102.498 672.947 102.498 672.869 102.509C672.685 102.538 672.516 102.629 672.39 102.766C672.264 102.904 672.188 103.08 672.174 103.266C671.992 103.517 671.755 103.722 671.48 103.866C671.265 103.989 671.029 104.103 670.772 104.212C670.486 104.342 670.191 104.479 669.896 104.649C669.668 104.783 669.451 104.933 669.246 105.098C670.618 102.072 670.817 98.6432 669.804 95.4785C668.79 92.3138 666.637 89.6401 663.763 87.9777C663.017 87.5426 662.237 87.1855 661.482 86.8402C660.773 86.5115 660.089 86.2017 659.439 85.8329C658.535 85.3173 657.368 84.4684 656.799 83.2884C656.803 83.223 656.803 83.1575 656.799 83.0921C656.799 82.9745 656.773 82.8584 656.724 82.7516V75.8277C656.724 75.6081 656.636 75.3976 656.481 75.2424C656.326 75.0872 656.116 75 655.897 75C655.678 75 655.468 75.0872 655.313 75.2424C655.158 75.3976 655.071 75.6081 655.071 75.8277V82.7469C655.021 82.8536 654.996 82.9698 654.995 83.0874C654.992 83.1528 654.992 83.2183 654.995 83.2837C654.426 84.466 653.259 85.3126 652.355 85.8281C651.706 86.1994 651.028 86.5092 650.312 86.8355C649.559 87.1808 648.777 87.5449 648.031 87.9729C645.157 89.6353 643.004 92.3091 641.991 95.4738C640.977 98.6384 641.176 102.068 642.548 105.094C642.343 104.928 642.126 104.778 641.899 104.644C641.606 104.474 641.308 104.337 641.022 104.207C640.772 104.093 640.536 103.985 640.314 103.862C640.039 103.718 639.802 103.512 639.62 103.261C639.605 103.063 639.52 102.877 639.38 102.737C639.24 102.597 639.054 102.512 638.857 102.497C638.793 102.489 638.728 102.489 638.663 102.497C638.479 102.526 638.311 102.617 638.185 102.755C638.059 102.892 637.983 103.068 637.969 103.254C637.787 103.505 637.55 103.711 637.275 103.854C637.06 103.977 636.824 104.091 636.566 104.2C636.281 104.33 635.986 104.467 635.69 104.637C634.488 105.335 633.6 106.47 633.211 107.807C632.822 109.143 632.962 110.579 633.603 111.814C633.431 111.863 633.28 111.967 633.172 112.11C633.064 112.253 633.006 112.427 633.005 112.606V116.641H626.847C626.628 116.641 626.417 116.728 626.262 116.883C626.107 117.038 626.02 117.249 626.02 117.468V140.593H621.826C621.607 140.593 621.397 140.68 621.242 140.835C621.087 140.991 621 141.201 621 141.421V149.461C621.002 149.679 621.091 149.887 621.245 150.04C621.4 150.193 621.609 150.279 621.826 150.279ZM684.196 118.286V140.584H678.857V118.286H684.196ZM676.779 140.584V135.771C676.755 134.797 676.351 133.871 675.654 133.19C674.957 132.51 674.023 132.129 673.049 132.129C672.076 132.129 671.141 132.51 670.444 133.19C669.748 133.871 669.344 134.797 669.319 135.771V140.581H668.887V113.425H672.011C672.067 113.437 672.124 113.443 672.181 113.444H673.032H673.901C673.955 113.443 674.01 113.436 674.063 113.425H677.195V140.584H676.779ZM675.126 140.584H670.972V135.771C670.991 135.232 671.217 134.721 671.605 134.345C671.992 133.97 672.51 133.761 673.049 133.761C673.588 133.761 674.106 133.97 674.494 134.345C674.881 134.721 675.108 135.232 675.126 135.771V140.584ZM663.168 140.584V127.369C663.168 125.449 662.406 123.607 661.05 122.249C659.694 120.891 657.855 120.129 655.937 120.129C654.02 120.129 652.18 120.891 650.824 122.249C649.468 123.607 648.707 125.449 648.707 127.369V140.584H644.635V109.449H667.227V140.584H663.168ZM642.555 140.584V135.771C642.531 134.797 642.127 133.871 641.43 133.19C640.733 132.51 639.798 132.129 638.825 132.129C637.852 132.129 636.917 132.51 636.22 133.19C635.524 133.871 635.12 134.797 635.095 135.771V140.581H634.663V113.425H637.797C637.853 113.437 637.91 113.443 637.967 113.444H638.817H639.686C639.741 113.443 639.795 113.436 639.849 113.425H642.98V140.584H642.555ZM640.902 140.584H636.732V135.771C636.75 135.232 636.977 134.721 637.364 134.345C637.752 133.97 638.27 133.761 638.809 133.761C639.348 133.761 639.866 133.97 640.253 134.345C640.641 134.721 640.867 135.232 640.886 135.771L640.902 140.584ZM670.75 106.077C670.975 105.947 671.223 105.841 671.482 105.716C671.742 105.59 672.035 105.463 672.316 105.302C672.576 105.155 672.82 104.982 673.043 104.784C673.267 104.982 673.511 105.155 673.771 105.302C674.052 105.46 674.333 105.59 674.604 105.716C674.876 105.841 675.112 105.952 675.336 106.077C675.811 106.352 676.22 106.728 676.534 107.178C676.849 107.627 677.061 108.141 677.157 108.681C677.252 109.222 677.229 109.777 677.088 110.307C676.947 110.838 676.691 111.331 676.34 111.753L673.849 111.779H672.238L669.747 111.753C669.395 111.331 669.14 110.838 668.999 110.307C668.858 109.777 668.834 109.222 668.93 108.681C669.026 108.141 669.238 107.627 669.553 107.178C669.867 106.728 670.276 106.352 670.75 106.077ZM643.148 98.0491C643.402 96.2689 644.052 94.5684 645.049 93.0723C646.045 91.5763 647.364 90.3227 648.907 89.4036C649.583 89.0111 650.293 88.6942 651.033 88.3418C651.772 87.9895 652.492 87.6726 653.205 87.2659C654.257 86.6977 655.181 85.9194 655.921 84.9792C656.66 85.9194 657.584 86.6977 658.636 87.2659C659.345 87.6726 660.091 88.0131 660.809 88.3418C661.527 88.6705 662.271 89.0111 662.934 89.4036C664.464 90.2949 665.775 91.5199 666.767 92.9877C667.76 94.4554 668.41 96.1283 668.669 97.8821C668.928 99.6358 668.789 101.425 668.263 103.118C667.736 104.811 666.836 106.363 665.628 107.659L658.138 107.74C658.049 107.741 657.96 107.756 657.876 107.785L655.902 107.763L653.97 107.794C653.886 107.765 653.797 107.75 653.708 107.749L646.218 107.669C645.042 106.383 644.159 104.857 643.629 103.196C643.099 101.535 642.935 99.7794 643.148 98.0491ZM634.689 108.837C634.771 108.269 634.978 107.726 635.297 107.248C635.615 106.771 636.036 106.371 636.529 106.077C636.753 105.947 637.001 105.841 637.261 105.716C637.52 105.59 637.813 105.463 638.094 105.302C638.354 105.155 638.598 104.982 638.822 104.784C639.045 104.982 639.289 105.155 639.549 105.302C639.83 105.46 640.111 105.59 640.383 105.716C640.654 105.841 640.89 105.952 641.115 106.077C641.589 106.352 641.998 106.728 642.312 107.178C642.627 107.627 642.839 108.141 642.935 108.681C643.031 109.222 643.007 109.777 642.866 110.307C642.725 110.838 642.47 111.331 642.118 111.753L639.627 111.779H638.016L635.525 111.753C635.196 111.349 634.953 110.882 634.809 110.381C634.665 109.879 634.624 109.354 634.689 108.837ZM627.673 118.296H633.005V140.593H627.673V118.296ZM622.653 142.239H689.21V148.624H622.653V142.239Z" fill="white"/>
</g>
<path d="M92.664 51.784L85.464 75H81.128L76.376 59.816C76.3013 59.6027 76.2267 59.368 76.152 59.112C76.0773 58.856 76.008 58.584 75.944 58.296C75.88 58.584 75.8107 58.856 75.736 59.112C75.6613 59.368 75.5867 59.6027 75.512 59.816L70.712 75H66.36L59.176 51.784H63.208C63.624 51.784 63.9707 51.88 64.248 52.072C64.536 52.264 64.7227 52.52 64.808 52.84L68.408 65.928C68.4933 66.2907 68.5787 66.6853 68.664 67.112C68.76 67.528 68.8507 67.9707 68.936 68.44C69.032 67.96 69.1333 67.512 69.24 67.096C69.3467 66.68 69.464 66.2907 69.592 65.928L73.784 52.84C73.8693 52.5733 74.0507 52.3333 74.328 52.12C74.616 51.896 74.9627 51.784 75.368 51.784H76.776C77.192 51.784 77.528 51.8853 77.784 52.088C78.0507 52.28 78.248 52.5307 78.376 52.84L82.552 65.928C82.68 66.2693 82.7973 66.6427 82.904 67.048C83.0107 67.4427 83.112 67.864 83.208 68.312C83.2933 67.864 83.3733 67.4427 83.448 67.048C83.5333 66.6427 83.6187 66.2693 83.704 65.928L87.304 52.84C87.3787 52.5627 87.56 52.3173 87.848 52.104C88.136 51.8907 88.4827 51.784 88.888 51.784H92.664ZM103.101 64.808C103.101 64.3493 103.037 63.912 102.909 63.496C102.791 63.08 102.599 62.712 102.333 62.392C102.066 62.072 101.73 61.8213 101.325 61.64C100.919 61.448 100.434 61.352 99.8685 61.352C98.8125 61.352 97.9858 61.6507 97.3885 62.248C96.7912 62.8453 96.4018 63.6987 96.2205 64.808H103.101ZM96.1565 67.432C96.2952 68.9787 96.7325 70.1093 97.4685 70.824C98.2152 71.5387 99.1858 71.896 100.381 71.896C100.989 71.896 101.511 71.8267 101.949 71.688C102.397 71.5387 102.786 71.3787 103.117 71.208C103.458 71.0267 103.762 70.8667 104.029 70.728C104.306 70.5787 104.578 70.504 104.845 70.504C105.186 70.504 105.453 70.632 105.645 70.888L106.925 72.488C106.455 73.032 105.938 73.4853 105.373 73.848C104.807 74.2 104.221 74.4827 103.613 74.696C103.005 74.8987 102.391 75.0373 101.773 75.112C101.154 75.1973 100.557 75.24 99.9805 75.24C98.8285 75.24 97.7512 75.0533 96.7485 74.68C95.7565 74.296 94.8872 73.736 94.1405 73C93.4045 72.2533 92.8232 71.3307 92.3965 70.232C91.9698 69.1333 91.7565 67.8587 91.7565 66.408C91.7565 65.288 91.9378 64.232 92.3005 63.24C92.6738 62.248 93.2072 61.384 93.9005 60.648C94.5938 59.912 95.4365 59.3307 96.4285 58.904C97.4205 58.4667 98.5405 58.248 99.7885 58.248C100.845 58.248 101.815 58.4187 102.701 58.76C103.597 59.0907 104.365 59.576 105.005 60.216C105.655 60.856 106.157 61.6453 106.509 62.584C106.871 63.512 107.053 64.5733 107.053 65.768C107.053 66.0987 107.037 66.3707 107.005 66.584C106.973 66.7973 106.919 66.968 106.845 67.096C106.77 67.224 106.669 67.3147 106.541 67.368C106.413 67.4107 106.247 67.432 106.045 67.432H96.1565ZM121.803 60.12C122.112 59.8427 122.432 59.592 122.763 59.368C123.104 59.1333 123.461 58.936 123.835 58.776C124.219 58.6053 124.624 58.4773 125.051 58.392C125.488 58.296 125.957 58.248 126.459 58.248C127.355 58.248 128.149 58.4027 128.843 58.712C129.536 59.0213 130.117 59.4533 130.587 60.008C131.067 60.5627 131.424 61.224 131.659 61.992C131.904 62.76 132.027 63.6027 132.027 64.52V75H127.627V64.52C127.627 63.6027 127.413 62.8933 126.987 62.392C126.56 61.88 125.931 61.624 125.099 61.624C124.48 61.624 123.899 61.7573 123.355 62.024C122.811 62.2907 122.293 62.664 121.803 63.144V75H117.387V51.144H121.803V60.12ZM144.167 68.104C143.089 68.1573 142.193 68.2533 141.479 68.392C140.764 68.52 140.193 68.6907 139.767 68.904C139.351 69.1173 139.052 69.3627 138.871 69.64C138.7 69.9067 138.615 70.2 138.615 70.52C138.615 71.16 138.791 71.6133 139.143 71.88C139.505 72.1467 140.007 72.28 140.647 72.28C141.383 72.28 142.017 72.152 142.551 71.896C143.095 71.6293 143.633 71.2187 144.167 70.664V68.104ZM135.175 60.792C136.145 59.9173 137.217 59.2667 138.391 58.84C139.564 58.4027 140.833 58.184 142.199 58.184C143.18 58.184 144.055 58.344 144.823 58.664C145.601 58.984 146.257 59.432 146.791 60.008C147.335 60.5733 147.751 61.2507 148.039 62.04C148.327 62.8293 148.471 63.6933 148.471 64.632V75H146.455C146.039 75 145.719 74.9413 145.495 74.824C145.281 74.7067 145.105 74.4613 144.967 74.088L144.615 73.032C144.199 73.3947 143.793 73.7147 143.399 73.992C143.015 74.2693 142.615 74.504 142.199 74.696C141.783 74.8773 141.335 75.016 140.855 75.112C140.385 75.208 139.857 75.256 139.271 75.256C138.545 75.256 137.884 75.16 137.287 74.968C136.689 74.776 136.172 74.4933 135.735 74.12C135.308 73.736 134.977 73.2613 134.743 72.696C134.508 72.1307 134.391 71.48 134.391 70.744C134.391 70.136 134.545 69.528 134.855 68.92C135.164 68.312 135.692 67.7627 136.439 67.272C137.196 66.7707 138.199 66.36 139.447 66.04C140.705 65.7093 142.279 65.5227 144.167 65.48V64.632C144.167 63.5973 143.948 62.84 143.511 62.36C143.073 61.8693 142.444 61.624 141.623 61.624C141.015 61.624 140.508 61.6987 140.103 61.848C139.697 61.9867 139.34 62.1413 139.031 62.312C138.732 62.472 138.449 62.6267 138.183 62.776C137.916 62.9147 137.607 62.984 137.255 62.984C136.945 62.984 136.684 62.9093 136.471 62.76C136.268 62.6 136.097 62.4133 135.959 62.2L135.175 60.792ZM166.696 58.504L160.216 75H156.216L149.736 58.504H153.4C153.72 58.504 153.986 58.5787 154.2 58.728C154.413 58.8773 154.562 59.0693 154.648 59.304L157.416 67.464C157.597 68.0187 157.757 68.5627 157.896 69.096C158.034 69.6187 158.157 70.1467 158.264 70.68C158.381 70.1467 158.509 69.6187 158.648 69.096C158.797 68.5627 158.968 68.0187 159.16 67.464L162.024 59.304C162.098 59.0693 162.242 58.8773 162.456 58.728C162.669 58.5787 162.92 58.504 163.208 58.504H166.696ZM178.507 64.808C178.507 64.3493 178.443 63.912 178.315 63.496C178.197 63.08 178.005 62.712 177.739 62.392C177.472 62.072 177.136 61.8213 176.731 61.64C176.325 61.448 175.84 61.352 175.275 61.352C174.219 61.352 173.392 61.6507 172.795 62.248C172.197 62.8453 171.808 63.6987 171.627 64.808H178.507ZM171.563 67.432C171.701 68.9787 172.139 70.1093 172.875 70.824C173.621 71.5387 174.592 71.896 175.787 71.896C176.395 71.896 176.917 71.8267 177.355 71.688C177.803 71.5387 178.192 71.3787 178.523 71.208C178.864 71.0267 179.168 70.8667 179.435 70.728C179.712 70.5787 179.984 70.504 180.251 70.504C180.592 70.504 180.859 70.632 181.051 70.888L182.331 72.488C181.861 73.032 181.344 73.4853 180.779 73.848C180.213 74.2 179.627 74.4827 179.019 74.696C178.411 74.8987 177.797 75.0373 177.179 75.112C176.56 75.1973 175.963 75.24 175.387 75.24C174.235 75.24 173.157 75.0533 172.155 74.68C171.163 74.296 170.293 73.736 169.547 73C168.811 72.2533 168.229 71.3307 167.803 70.232C167.376 69.1333 167.163 67.8587 167.163 66.408C167.163 65.288 167.344 64.232 167.707 63.24C168.08 62.248 168.613 61.384 169.307 60.648C170 59.912 170.843 59.3307 171.835 58.904C172.827 58.4667 173.947 58.248 175.195 58.248C176.251 58.248 177.221 58.4187 178.107 58.76C179.003 59.0907 179.771 59.576 180.411 60.216C181.061 60.856 181.563 61.6453 181.915 62.584C182.277 63.512 182.459 64.5733 182.459 65.768C182.459 66.0987 182.443 66.3707 182.411 66.584C182.379 66.7973 182.325 66.968 182.251 67.096C182.176 67.224 182.075 67.3147 181.947 67.368C181.819 67.4107 181.653 67.432 181.451 67.432H171.563ZM66.264 93.544V99.96H74.616V103.736H66.264V113H61.432V89.784H76.216V93.544H66.264ZM83.4618 96.504V113H79.0458V96.504H83.4618ZM83.9898 91.816C83.9898 92.1893 83.9151 92.536 83.7658 92.856C83.6164 93.176 83.4138 93.4587 83.1578 93.704C82.9124 93.9493 82.6191 94.1413 82.2778 94.28C81.9471 94.4187 81.5898 94.488 81.2057 94.488C80.8431 94.488 80.4964 94.4187 80.1658 94.28C79.8458 94.1413 79.5631 93.9493 79.3178 93.704C79.0724 93.4587 78.8751 93.176 78.7258 92.856C78.5871 92.536 78.5178 92.1893 78.5178 91.816C78.5178 91.4427 78.5871 91.096 78.7258 90.776C78.8751 90.4453 79.0724 90.1573 79.3178 89.912C79.5631 89.6667 79.8458 89.4747 80.1658 89.336C80.4964 89.1973 80.8431 89.128 81.2057 89.128C81.5898 89.128 81.9471 89.1973 82.2778 89.336C82.6191 89.4747 82.9124 89.6667 83.1578 89.912C83.4138 90.1573 83.6164 90.4453 83.7658 90.776C83.9151 91.096 83.9898 91.4427 83.9898 91.816ZM91.3263 98.424C91.6569 98.104 91.9983 97.8107 92.3503 97.544C92.7129 97.2773 93.0916 97.048 93.4862 96.856C93.8916 96.664 94.3236 96.5147 94.7823 96.408C95.2516 96.3013 95.7583 96.248 96.3023 96.248C97.1983 96.248 97.9929 96.4027 98.6863 96.712C99.3796 97.0213 99.9609 97.4533 100.43 98.008C100.91 98.5627 101.268 99.224 101.502 99.992C101.748 100.76 101.87 101.603 101.87 102.52V113H97.4703V102.52C97.4703 101.603 97.2569 100.893 96.8303 100.392C96.4036 99.88 95.7743 99.624 94.9423 99.624C94.3236 99.624 93.7423 99.7573 93.1983 100.024C92.6543 100.291 92.1369 100.664 91.6463 101.144V113H87.2303V96.504H89.9503C90.5049 96.504 90.8729 96.76 91.0543 97.272L91.3263 98.424ZM114.011 106.104C112.933 106.157 112.037 106.253 111.323 106.392C110.608 106.52 110.037 106.691 109.611 106.904C109.195 107.117 108.896 107.363 108.715 107.64C108.544 107.907 108.459 108.2 108.459 108.52C108.459 109.16 108.635 109.613 108.987 109.88C109.349 110.147 109.851 110.28 110.491 110.28C111.227 110.28 111.861 110.152 112.395 109.896C112.939 109.629 113.477 109.219 114.011 108.664V106.104ZM105.019 98.792C105.989 97.9173 107.061 97.2667 108.235 96.84C109.408 96.4027 110.677 96.184 112.043 96.184C113.024 96.184 113.899 96.344 114.667 96.664C115.445 96.984 116.101 97.432 116.635 98.008C117.179 98.5733 117.595 99.2507 117.883 100.04C118.171 100.829 118.315 101.693 118.315 102.632V113H116.299C115.883 113 115.563 112.941 115.339 112.824C115.125 112.707 114.949 112.461 114.811 112.088L114.459 111.032C114.043 111.395 113.637 111.715 113.243 111.992C112.859 112.269 112.459 112.504 112.043 112.696C111.627 112.877 111.179 113.016 110.699 113.112C110.229 113.208 109.701 113.256 109.115 113.256C108.389 113.256 107.728 113.16 107.131 112.968C106.533 112.776 106.016 112.493 105.579 112.12C105.152 111.736 104.821 111.261 104.587 110.696C104.352 110.131 104.235 109.48 104.235 108.744C104.235 108.136 104.389 107.528 104.699 106.92C105.008 106.312 105.536 105.763 106.283 105.272C107.04 104.771 108.043 104.36 109.291 104.04C110.549 103.709 112.123 103.523 114.011 103.48V102.632C114.011 101.597 113.792 100.84 113.355 100.36C112.917 99.8693 112.288 99.624 111.467 99.624C110.859 99.624 110.352 99.6987 109.947 99.848C109.541 99.9867 109.184 100.141 108.875 100.312C108.576 100.472 108.293 100.627 108.027 100.776C107.76 100.915 107.451 100.984 107.099 100.984C106.789 100.984 106.528 100.909 106.315 100.76C106.112 100.6 105.941 100.413 105.803 100.2L105.019 98.792ZM125.858 98.424C126.188 98.104 126.53 97.8107 126.882 97.544C127.244 97.2773 127.623 97.048 128.017 96.856C128.423 96.664 128.855 96.5147 129.314 96.408C129.783 96.3013 130.29 96.248 130.834 96.248C131.73 96.248 132.524 96.4027 133.218 96.712C133.911 97.0213 134.492 97.4533 134.962 98.008C135.442 98.5627 135.799 99.224 136.034 99.992C136.279 100.76 136.402 101.603 136.402 102.52V113H132.002V102.52C132.002 101.603 131.788 100.893 131.362 100.392C130.935 99.88 130.306 99.624 129.474 99.624C128.855 99.624 128.274 99.7573 127.73 100.024C127.186 100.291 126.668 100.664 126.178 101.144V113H121.762V96.504H124.482C125.036 96.504 125.404 96.76 125.586 97.272L125.858 98.424ZM151.886 100.184C151.758 100.355 151.63 100.488 151.502 100.584C151.374 100.669 151.192 100.712 150.958 100.712C150.744 100.712 150.536 100.653 150.334 100.536C150.142 100.408 149.918 100.275 149.662 100.136C149.406 99.9867 149.102 99.8533 148.75 99.736C148.398 99.608 147.96 99.544 147.438 99.544C146.776 99.544 146.2 99.6667 145.71 99.912C145.23 100.147 144.83 100.488 144.51 100.936C144.19 101.384 143.95 101.928 143.79 102.568C143.64 103.208 143.566 103.928 143.566 104.728C143.566 106.413 143.902 107.704 144.574 108.6C145.256 109.496 146.184 109.944 147.358 109.944C147.763 109.944 148.11 109.912 148.398 109.848C148.696 109.773 148.952 109.683 149.166 109.576C149.39 109.469 149.582 109.352 149.742 109.224C149.902 109.096 150.051 108.979 150.19 108.872C150.339 108.765 150.483 108.68 150.622 108.616C150.771 108.541 150.936 108.504 151.118 108.504C151.459 108.504 151.726 108.632 151.918 108.888L153.182 110.488C152.712 111.032 152.211 111.485 151.678 111.848C151.144 112.2 150.59 112.483 150.014 112.696C149.448 112.899 148.872 113.037 148.286 113.112C147.699 113.197 147.118 113.24 146.542 113.24C145.528 113.24 144.568 113.053 143.662 112.68C142.755 112.296 141.96 111.741 141.278 111.016C140.595 110.291 140.051 109.4 139.646 108.344C139.251 107.288 139.054 106.083 139.054 104.728C139.054 103.523 139.23 102.403 139.582 101.368C139.934 100.333 140.451 99.4373 141.134 98.68C141.816 97.9227 142.659 97.3307 143.662 96.904C144.675 96.4667 145.843 96.248 147.166 96.248C148.424 96.248 149.528 96.4507 150.478 96.856C151.427 97.2613 152.28 97.848 153.038 98.616L151.886 100.184ZM159.962 96.504V113H155.546V96.504H159.962ZM160.49 91.816C160.49 92.1893 160.415 92.536 160.266 92.856C160.116 93.176 159.914 93.4587 159.658 93.704C159.412 93.9493 159.119 94.1413 158.778 94.28C158.447 94.4187 158.09 94.488 157.706 94.488C157.343 94.488 156.996 94.4187 156.666 94.28C156.346 94.1413 156.063 93.9493 155.818 93.704C155.572 93.4587 155.375 93.176 155.226 92.856C155.087 92.536 155.018 92.1893 155.018 91.816C155.018 91.4427 155.087 91.096 155.226 90.776C155.375 90.4453 155.572 90.1573 155.818 89.912C156.063 89.6667 156.346 89.4747 156.666 89.336C156.996 89.1973 157.343 89.128 157.706 89.128C158.09 89.128 158.447 89.1973 158.778 89.336C159.119 89.4747 159.412 89.6667 159.658 89.912C159.914 90.1573 160.116 90.4453 160.266 90.776C160.415 91.096 160.49 91.4427 160.49 91.816ZM172.354 106.104C171.277 106.157 170.381 106.253 169.666 106.392C168.952 106.52 168.381 106.691 167.954 106.904C167.538 107.117 167.24 107.363 167.058 107.64C166.888 107.907 166.802 108.2 166.802 108.52C166.802 109.16 166.978 109.613 167.33 109.88C167.693 110.147 168.194 110.28 168.834 110.28C169.57 110.28 170.205 110.152 170.738 109.896C171.282 109.629 171.821 109.219 172.354 108.664V106.104ZM163.362 98.792C164.333 97.9173 165.405 97.2667 166.578 96.84C167.752 96.4027 169.021 96.184 170.386 96.184C171.368 96.184 172.242 96.344 173.01 96.664C173.789 96.984 174.445 97.432 174.978 98.008C175.522 98.5733 175.938 99.2507 176.226 100.04C176.514 100.829 176.658 101.693 176.658 102.632V113H174.642C174.226 113 173.906 112.941 173.682 112.824C173.469 112.707 173.293 112.461 173.154 112.088L172.802 111.032C172.386 111.395 171.981 111.715 171.586 111.992C171.202 112.269 170.802 112.504 170.386 112.696C169.97 112.877 169.522 113.016 169.042 113.112C168.573 113.208 168.045 113.256 167.458 113.256C166.733 113.256 166.072 113.16 165.474 112.968C164.877 112.776 164.36 112.493 163.922 112.12C163.496 111.736 163.165 111.261 162.93 110.696C162.696 110.131 162.578 109.48 162.578 108.744C162.578 108.136 162.733 107.528 163.042 106.92C163.352 106.312 163.88 105.763 164.626 105.272C165.384 104.771 166.386 104.36 167.634 104.04C168.893 103.709 170.466 103.523 172.354 103.48V102.632C172.354 101.597 172.136 100.84 171.698 100.36C171.261 99.8693 170.632 99.624 169.81 99.624C169.202 99.624 168.696 99.6987 168.29 99.848C167.885 99.9867 167.528 100.141 167.218 100.312C166.92 100.472 166.637 100.627 166.37 100.776C166.104 100.915 165.794 100.984 165.442 100.984C165.133 100.984 164.872 100.909 164.658 100.76C164.456 100.6 164.285 100.413 164.146 100.2L163.362 98.792ZM184.553 89.144V113H180.137V89.144H184.553ZM207.792 100.184C207.664 100.355 207.536 100.488 207.408 100.584C207.28 100.669 207.099 100.712 206.864 100.712C206.651 100.712 206.443 100.653 206.24 100.536C206.048 100.408 205.824 100.275 205.568 100.136C205.312 99.9867 205.008 99.8533 204.656 99.736C204.304 99.608 203.867 99.544 203.344 99.544C202.683 99.544 202.107 99.6667 201.616 99.912C201.136 100.147 200.736 100.488 200.416 100.936C200.096 101.384 199.856 101.928 199.696 102.568C199.547 103.208 199.472 103.928 199.472 104.728C199.472 106.413 199.808 107.704 200.48 108.6C201.163 109.496 202.091 109.944 203.264 109.944C203.669 109.944 204.016 109.912 204.304 109.848C204.603 109.773 204.859 109.683 205.072 109.576C205.296 109.469 205.488 109.352 205.648 109.224C205.808 109.096 205.957 108.979 206.096 108.872C206.245 108.765 206.389 108.68 206.528 108.616C206.677 108.541 206.843 108.504 207.024 108.504C207.365 108.504 207.632 108.632 207.824 108.888L209.088 110.488C208.619 111.032 208.117 111.485 207.584 111.848C207.051 112.2 206.496 112.483 205.92 112.696C205.355 112.899 204.779 113.037 204.192 113.112C203.605 113.197 203.024 113.24 202.448 113.24C201.435 113.24 200.475 113.053 199.568 112.68C198.661 112.296 197.867 111.741 197.184 111.016C196.501 110.291 195.957 109.4 195.552 108.344C195.157 107.288 194.96 106.083 194.96 104.728C194.96 103.523 195.136 102.403 195.488 101.368C195.84 100.333 196.357 99.4373 197.04 98.68C197.723 97.9227 198.565 97.3307 199.568 96.904C200.581 96.4667 201.749 96.248 203.072 96.248C204.331 96.248 205.435 96.4507 206.384 96.856C207.333 97.2613 208.187 97.848 208.944 98.616L207.792 100.184ZM221.507 102.808C221.507 102.349 221.443 101.912 221.315 101.496C221.197 101.08 221.005 100.712 220.739 100.392C220.472 100.072 220.136 99.8213 219.731 99.64C219.325 99.448 218.84 99.352 218.275 99.352C217.219 99.352 216.392 99.6507 215.795 100.248C215.197 100.845 214.808 101.699 214.627 102.808H221.507ZM214.563 105.432C214.701 106.979 215.139 108.109 215.875 108.824C216.621 109.539 217.592 109.896 218.787 109.896C219.395 109.896 219.917 109.827 220.355 109.688C220.803 109.539 221.192 109.379 221.523 109.208C221.864 109.027 222.168 108.867 222.435 108.728C222.712 108.579 222.984 108.504 223.251 108.504C223.592 108.504 223.859 108.632 224.051 108.888L225.331 110.488C224.861 111.032 224.344 111.485 223.779 111.848C223.213 112.2 222.627 112.483 222.019 112.696C221.411 112.899 220.797 113.037 220.179 113.112C219.56 113.197 218.963 113.24 218.387 113.24C217.235 113.24 216.157 113.053 215.155 112.68C214.163 112.296 213.293 111.736 212.547 111C211.811 110.253 211.229 109.331 210.803 108.232C210.376 107.133 210.163 105.859 210.163 104.408C210.163 103.288 210.344 102.232 210.707 101.24C211.08 100.248 211.613 99.384 212.307 98.648C213 97.912 213.843 97.3307 214.835 96.904C215.827 96.4667 216.947 96.248 218.195 96.248C219.251 96.248 220.221 96.4187 221.107 96.76C222.003 97.0907 222.771 97.576 223.411 98.216C224.061 98.856 224.563 99.6453 224.915 100.584C225.277 101.512 225.459 102.573 225.459 103.768C225.459 104.099 225.443 104.371 225.411 104.584C225.379 104.797 225.325 104.968 225.251 105.096C225.176 105.224 225.075 105.315 224.947 105.368C224.819 105.411 224.653 105.432 224.451 105.432H214.563ZM232.295 98.424C232.626 98.104 232.967 97.8107 233.319 97.544C233.682 97.2773 234.06 97.048 234.455 96.856C234.86 96.664 235.292 96.5147 235.751 96.408C236.22 96.3013 236.727 96.248 237.271 96.248C238.167 96.248 238.962 96.4027 239.655 96.712C240.348 97.0213 240.93 97.4533 241.399 98.008C241.879 98.5627 242.236 99.224 242.471 99.992C242.716 100.76 242.839 101.603 242.839 102.52V113H238.439V102.52C238.439 101.603 238.226 100.893 237.799 100.392C237.372 99.88 236.743 99.624 235.911 99.624C235.292 99.624 234.711 99.7573 234.167 100.024C233.623 100.291 233.106 100.664 232.615 101.144V113H228.199V96.504H230.919C231.474 96.504 231.842 96.76 232.023 97.272L232.295 98.424ZM251.833 113.256C251.086 113.256 250.425 113.149 249.849 112.936C249.273 112.712 248.787 112.397 248.393 111.992C247.998 111.587 247.699 111.096 247.497 110.52C247.294 109.944 247.193 109.293 247.193 108.568V99.672H245.641C245.406 99.672 245.203 99.5973 245.033 99.448C244.873 99.2987 244.793 99.0747 244.793 98.776V97.048L247.433 96.568L248.329 92.296C248.446 91.816 248.771 91.576 249.305 91.576H251.609V96.6H255.865V99.672H251.609V108.28C251.609 108.739 251.715 109.101 251.929 109.368C252.153 109.635 252.467 109.768 252.873 109.768C253.086 109.768 253.267 109.747 253.417 109.704C253.566 109.651 253.694 109.597 253.801 109.544C253.907 109.48 254.003 109.427 254.089 109.384C254.185 109.331 254.281 109.304 254.377 109.304C254.505 109.304 254.611 109.336 254.697 109.4C254.782 109.453 254.867 109.549 254.953 109.688L256.281 111.8C255.673 112.28 254.985 112.643 254.217 112.888C253.449 113.133 252.654 113.256 251.833 113.256ZM268.538 102.808C268.538 102.349 268.474 101.912 268.346 101.496C268.229 101.08 268.037 100.712 267.77 100.392C267.503 100.072 267.167 99.8213 266.762 99.64C266.357 99.448 265.871 99.352 265.306 99.352C264.25 99.352 263.423 99.6507 262.826 100.248C262.229 100.845 261.839 101.699 261.658 102.808H268.538ZM261.594 105.432C261.733 106.979 262.17 108.109 262.906 108.824C263.653 109.539 264.623 109.896 265.818 109.896C266.426 109.896 266.949 109.827 267.386 109.688C267.834 109.539 268.223 109.379 268.554 109.208C268.895 109.027 269.199 108.867 269.466 108.728C269.743 108.579 270.015 108.504 270.282 108.504C270.623 108.504 270.89 108.632 271.082 108.888L272.362 110.488C271.893 111.032 271.375 111.485 270.81 111.848C270.245 112.2 269.658 112.483 269.05 112.696C268.442 112.899 267.829 113.037 267.21 113.112C266.591 113.197 265.994 113.24 265.418 113.24C264.266 113.24 263.189 113.053 262.186 112.68C261.194 112.296 260.325 111.736 259.578 111C258.842 110.253 258.261 109.331 257.834 108.232C257.407 107.133 257.194 105.859 257.194 104.408C257.194 103.288 257.375 102.232 257.738 101.24C258.111 100.248 258.645 99.384 259.338 98.648C260.031 97.912 260.874 97.3307 261.866 96.904C262.858 96.4667 263.978 96.248 265.226 96.248C266.282 96.248 267.253 96.4187 268.138 96.76C269.034 97.0907 269.802 97.576 270.442 98.216C271.093 98.856 271.594 99.6453 271.946 100.584C272.309 101.512 272.49 102.573 272.49 103.768C272.49 104.099 272.474 104.371 272.442 104.584C272.41 104.797 272.357 104.968 272.282 105.096C272.207 105.224 272.106 105.315 271.978 105.368C271.85 105.411 271.685 105.432 271.482 105.432H261.594ZM279.374 99.224C279.897 98.2853 280.5 97.544 281.182 97C281.865 96.456 282.665 96.184 283.582 96.184C284.329 96.184 284.937 96.36 285.406 96.712L285.118 99.976C285.065 100.189 284.98 100.339 284.862 100.424C284.756 100.499 284.606 100.536 284.414 100.536C284.244 100.536 283.998 100.515 283.678 100.472C283.358 100.419 283.06 100.392 282.782 100.392C282.377 100.392 282.014 100.451 281.694 100.568C281.385 100.685 281.108 100.851 280.862 101.064C280.617 101.277 280.393 101.539 280.19 101.848C279.998 102.157 279.817 102.509 279.646 102.904V113H275.23V96.504H277.838C278.286 96.504 278.596 96.584 278.766 96.744C278.937 96.904 279.06 97.1813 279.134 97.576L279.374 99.224ZM297.518 99.896C297.4 100.077 297.278 100.211 297.15 100.296C297.032 100.371 296.867 100.408 296.654 100.408C296.44 100.408 296.222 100.355 295.998 100.248C295.774 100.141 295.523 100.029 295.246 99.912C294.968 99.784 294.648 99.6667 294.286 99.56C293.934 99.4533 293.523 99.4 293.054 99.4C292.339 99.4 291.784 99.5493 291.39 99.848C290.995 100.136 290.798 100.52 290.798 101C290.798 101.331 290.91 101.608 291.134 101.832C291.358 102.056 291.651 102.253 292.014 102.424C292.387 102.584 292.808 102.739 293.278 102.888C293.747 103.027 294.227 103.181 294.718 103.352C295.219 103.523 295.704 103.72 296.174 103.944C296.643 104.168 297.059 104.451 297.422 104.792C297.795 105.123 298.094 105.528 298.318 106.008C298.542 106.477 298.654 107.048 298.654 107.72C298.654 108.52 298.504 109.261 298.206 109.944C297.918 110.616 297.491 111.197 296.926 111.688C296.36 112.179 295.656 112.563 294.814 112.84C293.971 113.117 293 113.256 291.902 113.256C291.336 113.256 290.776 113.203 290.222 113.096C289.667 113 289.139 112.861 288.638 112.68C288.136 112.488 287.667 112.269 287.23 112.024C286.792 111.779 286.414 111.512 286.094 111.224L287.118 109.576C287.235 109.384 287.379 109.235 287.549 109.128C287.731 109.021 287.96 108.968 288.238 108.968C288.504 108.968 288.75 109.037 288.974 109.176C289.198 109.304 289.448 109.448 289.726 109.608C290.003 109.757 290.328 109.901 290.702 110.04C291.086 110.168 291.56 110.232 292.126 110.232C292.552 110.232 292.92 110.184 293.23 110.088C293.539 109.992 293.79 109.864 293.982 109.704C294.174 109.533 294.312 109.347 294.398 109.144C294.494 108.931 294.542 108.712 294.542 108.488C294.542 108.125 294.424 107.832 294.19 107.608C293.966 107.373 293.667 107.171 293.294 107C292.931 106.829 292.51 106.675 292.03 106.536C291.55 106.397 291.059 106.243 290.558 106.072C290.067 105.901 289.582 105.699 289.102 105.464C288.632 105.229 288.211 104.936 287.838 104.584C287.475 104.221 287.176 103.779 286.942 103.256C286.718 102.733 286.606 102.099 286.606 101.352C286.606 100.669 286.739 100.024 287.006 99.416C287.272 98.7973 287.672 98.2533 288.206 97.784C288.739 97.3147 289.4 96.9413 290.19 96.664C290.99 96.3867 291.912 96.248 292.958 96.248C294.131 96.248 295.198 96.44 296.158 96.824C297.118 97.208 297.907 97.7093 298.526 98.328L297.518 99.896ZM317.636 106.104C316.558 106.157 315.662 106.253 314.948 106.392C314.233 106.52 313.662 106.691 313.236 106.904C312.82 107.117 312.521 107.363 312.34 107.64C312.169 107.907 312.084 108.2 312.084 108.52C312.084 109.16 312.26 109.613 312.612 109.88C312.974 110.147 313.476 110.28 314.116 110.28C314.852 110.28 315.486 110.152 316.02 109.896C316.564 109.629 317.102 109.219 317.636 108.664V106.104ZM308.644 98.792C309.614 97.9173 310.686 97.2667 311.86 96.84C313.033 96.4027 314.302 96.184 315.668 96.184C316.649 96.184 317.524 96.344 318.292 96.664C319.07 96.984 319.726 97.432 320.26 98.008C320.804 98.5733 321.22 99.2507 321.508 100.04C321.796 100.829 321.94 101.693 321.94 102.632V113H319.924C319.508 113 319.188 112.941 318.964 112.824C318.75 112.707 318.574 112.461 318.436 112.088L318.084 111.032C317.668 111.395 317.262 111.715 316.868 111.992C316.484 112.269 316.084 112.504 315.668 112.696C315.252 112.877 314.804 113.016 314.324 113.112C313.854 113.208 313.326 113.256 312.74 113.256C312.014 113.256 311.353 113.16 310.756 112.968C310.158 112.776 309.641 112.493 309.204 112.12C308.777 111.736 308.446 111.261 308.212 110.696C307.977 110.131 307.86 109.48 307.86 108.744C307.86 108.136 308.014 107.528 308.324 106.92C308.633 106.312 309.161 105.763 309.908 105.272C310.665 104.771 311.668 104.36 312.916 104.04C314.174 103.709 315.748 103.523 317.636 103.48V102.632C317.636 101.597 317.417 100.84 316.98 100.36C316.542 99.8693 315.913 99.624 315.092 99.624C314.484 99.624 313.977 99.6987 313.572 99.848C313.166 99.9867 312.809 100.141 312.5 100.312C312.201 100.472 311.918 100.627 311.652 100.776C311.385 100.915 311.076 100.984 310.724 100.984C310.414 100.984 310.153 100.909 309.94 100.76C309.737 100.6 309.566 100.413 309.428 100.2L308.644 98.792ZM337.355 100.184C337.227 100.355 337.099 100.488 336.971 100.584C336.843 100.669 336.661 100.712 336.427 100.712C336.213 100.712 336.005 100.653 335.803 100.536C335.611 100.408 335.387 100.275 335.131 100.136C334.875 99.9867 334.571 99.8533 334.219 99.736C333.867 99.608 333.429 99.544 332.907 99.544C332.245 99.544 331.669 99.6667 331.179 99.912C330.699 100.147 330.299 100.488 329.979 100.936C329.659 101.384 329.419 101.928 329.259 102.568C329.109 103.208 329.035 103.928 329.035 104.728C329.035 106.413 329.371 107.704 330.043 108.6C330.725 109.496 331.653 109.944 332.827 109.944C333.232 109.944 333.579 109.912 333.867 109.848C334.165 109.773 334.421 109.683 334.635 109.576C334.859 109.469 335.051 109.352 335.211 109.224C335.371 109.096 335.52 108.979 335.659 108.872C335.808 108.765 335.952 108.68 336.091 108.616C336.24 108.541 336.405 108.504 336.587 108.504C336.928 108.504 337.195 108.632 337.387 108.888L338.651 110.488C338.181 111.032 337.68 111.485 337.147 111.848C336.613 112.2 336.059 112.483 335.483 112.696C334.917 112.899 334.341 113.037 333.755 113.112C333.168 113.197 332.587 113.24 332.01 113.24C330.997 113.24 330.037 113.053 329.131 112.68C328.224 112.296 327.429 111.741 326.747 111.016C326.064 110.291 325.52 109.4 325.115 108.344C324.72 107.288 324.523 106.083 324.523 104.728C324.523 103.523 324.699 102.403 325.051 101.368C325.403 100.333 325.92 99.4373 326.603 98.68C327.285 97.9227 328.128 97.3307 329.131 96.904C330.144 96.4667 331.312 96.248 332.635 96.248C333.893 96.248 334.997 96.4507 335.947 96.856C336.896 97.2613 337.749 97.848 338.507 98.616L337.355 100.184ZM345.031 99.224C345.553 98.2853 346.156 97.544 346.839 97C347.521 96.456 348.321 96.184 349.239 96.184C349.985 96.184 350.593 96.36 351.063 96.712L350.775 99.976C350.721 100.189 350.636 100.339 350.519 100.424C350.412 100.499 350.263 100.536 350.071 100.536C349.9 100.536 349.655 100.515 349.335 100.472C349.015 100.419 348.716 100.392 348.439 100.392C348.033 100.392 347.671 100.451 347.351 100.568C347.041 100.685 346.764 100.851 346.519 101.064C346.273 101.277 346.049 101.539 345.847 101.848C345.655 102.157 345.473 102.509 345.303 102.904V113H340.887V96.504H343.495C343.943 96.504 344.252 96.584 344.423 96.744C344.593 96.904 344.716 97.1813 344.791 97.576L345.031 99.224ZM360.014 96.248C361.251 96.248 362.377 96.4453 363.39 96.84C364.403 97.2347 365.273 97.8 365.998 98.536C366.723 99.2613 367.283 100.147 367.678 101.192C368.073 102.237 368.27 103.416 368.27 104.728C368.27 106.04 368.073 107.224 367.678 108.28C367.283 109.325 366.723 110.216 365.998 110.952C365.273 111.688 364.403 112.253 363.39 112.648C362.377 113.043 361.251 113.24 360.014 113.24C358.766 113.24 357.63 113.043 356.606 112.648C355.593 112.253 354.723 111.688 353.998 110.952C353.273 110.216 352.707 109.325 352.302 108.28C351.907 107.224 351.71 106.04 351.71 104.728C351.71 103.416 351.907 102.237 352.302 101.192C352.707 100.147 353.273 99.2613 353.998 98.536C354.723 97.8 355.593 97.2347 356.606 96.84C357.63 96.4453 358.766 96.248 360.014 96.248ZM360.014 109.928C361.273 109.928 362.206 109.496 362.814 108.632C363.422 107.757 363.726 106.461 363.726 104.744C363.726 103.037 363.422 101.752 362.814 100.888C362.206 100.013 361.273 99.576 360.014 99.576C358.723 99.576 357.774 100.013 357.166 100.888C356.558 101.752 356.254 103.037 356.254 104.744C356.254 106.461 356.558 107.757 357.166 108.632C357.774 109.496 358.723 109.928 360.014 109.928ZM381.299 99.896C381.181 100.077 381.059 100.211 380.931 100.296C380.813 100.371 380.648 100.408 380.435 100.408C380.221 100.408 380.003 100.355 379.779 100.248C379.555 100.141 379.304 100.029 379.027 99.912C378.749 99.784 378.429 99.6667 378.067 99.56C377.715 99.4533 377.304 99.4 376.835 99.4C376.12 99.4 375.565 99.5493 375.171 99.848C374.776 100.136 374.579 100.52 374.579 101C374.579 101.331 374.691 101.608 374.915 101.832C375.139 102.056 375.432 102.253 375.795 102.424C376.168 102.584 376.589 102.739 377.059 102.888C377.528 103.027 378.008 103.181 378.499 103.352C379 103.523 379.485 103.72 379.955 103.944C380.424 104.168 380.84 104.451 381.203 104.792C381.576 105.123 381.875 105.528 382.099 106.008C382.323 106.477 382.435 107.048 382.435 107.72C382.435 108.52 382.285 109.261 381.987 109.944C381.699 110.616 381.272 111.197 380.707 111.688C380.141 112.179 379.437 112.563 378.595 112.84C377.752 113.117 376.781 113.256 375.683 113.256C375.117 113.256 374.557 113.203 374.003 113.096C373.448 113 372.92 112.861 372.419 112.68C371.917 112.488 371.448 112.269 371.011 112.024C370.573 111.779 370.195 111.512 369.875 111.224L370.899 109.576C371.016 109.384 371.16 109.235 371.331 109.128C371.512 109.021 371.741 108.968 372.019 108.968C372.285 108.968 372.531 109.037 372.755 109.176C372.979 109.304 373.229 109.448 373.507 109.608C373.784 109.757 374.109 109.901 374.483 110.04C374.867 110.168 375.341 110.232 375.907 110.232C376.333 110.232 376.701 110.184 377.011 110.088C377.32 109.992 377.571 109.864 377.763 109.704C377.955 109.533 378.093 109.347 378.179 109.144C378.275 108.931 378.323 108.712 378.323 108.488C378.323 108.125 378.205 107.832 377.971 107.608C377.747 107.373 377.448 107.171 377.075 107C376.712 106.829 376.291 106.675 375.811 106.536C375.331 106.397 374.84 106.243 374.339 106.072C373.848 105.901 373.363 105.699 372.883 105.464C372.413 105.229 371.992 104.936 371.619 104.584C371.256 104.221 370.957 103.779 370.723 103.256C370.499 102.733 370.387 102.099 370.387 101.352C370.387 100.669 370.52 100.024 370.787 99.416C371.053 98.7973 371.453 98.2533 371.987 97.784C372.52 97.3147 373.181 96.9413 373.971 96.664C374.771 96.3867 375.693 96.248 376.739 96.248C377.912 96.248 378.979 96.44 379.939 96.824C380.899 97.208 381.688 97.7093 382.307 98.328L381.299 99.896ZM395.455 99.896C395.338 100.077 395.215 100.211 395.087 100.296C394.97 100.371 394.804 100.408 394.591 100.408C394.378 100.408 394.159 100.355 393.935 100.248C393.711 100.141 393.46 100.029 393.183 99.912C392.906 99.784 392.586 99.6667 392.223 99.56C391.871 99.4533 391.46 99.4 390.991 99.4C390.276 99.4 389.722 99.5493 389.327 99.848C388.932 100.136 388.735 100.52 388.735 101C388.735 101.331 388.847 101.608 389.071 101.832C389.295 102.056 389.588 102.253 389.951 102.424C390.324 102.584 390.746 102.739 391.215 102.888C391.684 103.027 392.164 103.181 392.655 103.352C393.156 103.523 393.642 103.72 394.111 103.944C394.58 104.168 394.996 104.451 395.359 104.792C395.732 105.123 396.031 105.528 396.255 106.008C396.479 106.477 396.591 107.048 396.591 107.72C396.591 108.52 396.442 109.261 396.143 109.944C395.855 110.616 395.428 111.197 394.863 111.688C394.298 112.179 393.594 112.563 392.751 112.84C391.908 113.117 390.938 113.256 389.839 113.256C389.274 113.256 388.714 113.203 388.159 113.096C387.604 113 387.076 112.861 386.575 112.68C386.074 112.488 385.604 112.269 385.167 112.024C384.73 111.779 384.351 111.512 384.031 111.224L385.055 109.576C385.172 109.384 385.316 109.235 385.487 109.128C385.668 109.021 385.898 108.968 386.175 108.968C386.442 108.968 386.687 109.037 386.911 109.176C387.135 109.304 387.386 109.448 387.663 109.608C387.94 109.757 388.266 109.901 388.639 110.04C389.023 110.168 389.498 110.232 390.063 110.232C390.49 110.232 390.858 110.184 391.167 110.088C391.476 109.992 391.727 109.864 391.919 109.704C392.111 109.533 392.25 109.347 392.335 109.144C392.431 108.931 392.479 108.712 392.479 108.488C392.479 108.125 392.362 107.832 392.127 107.608C391.903 107.373 391.604 107.171 391.231 107C390.868 106.829 390.447 106.675 389.967 106.536C389.487 106.397 388.996 106.243 388.495 106.072C388.004 105.901 387.519 105.699 387.039 105.464C386.57 105.229 386.148 104.936 385.775 104.584C385.412 104.221 385.114 103.779 384.879 103.256C384.655 102.733 384.543 102.099 384.543 101.352C384.543 100.669 384.676 100.024 384.943 99.416C385.21 98.7973 385.61 98.2533 386.143 97.784C386.676 97.3147 387.338 96.9413 388.127 96.664C388.927 96.3867 389.85 96.248 390.895 96.248C392.068 96.248 393.135 96.44 394.095 96.824C395.055 97.208 395.844 97.7093 396.463 98.328L395.455 99.896ZM412.389 113H407.557V89.784H412.389V113ZM420.483 98.424C420.813 98.104 421.155 97.8107 421.507 97.544C421.869 97.2773 422.248 97.048 422.642 96.856C423.048 96.664 423.48 96.5147 423.939 96.408C424.408 96.3013 424.915 96.248 425.459 96.248C426.355 96.248 427.149 96.4027 427.843 96.712C428.536 97.0213 429.117 97.4533 429.587 98.008C430.067 98.5627 430.424 99.224 430.659 99.992C430.904 100.76 431.027 101.603 431.027 102.52V113H426.627V102.52C426.627 101.603 426.413 100.893 425.987 100.392C425.56 99.88 424.931 99.624 424.099 99.624C423.48 99.624 422.899 99.7573 422.355 100.024C421.811 100.291 421.293 100.664 420.803 101.144V113H416.387V96.504H419.107C419.661 96.504 420.029 96.76 420.211 97.272L420.483 98.424ZM444.735 100.792C444.319 100.312 443.865 99.976 443.375 99.784C442.895 99.592 442.383 99.496 441.839 99.496C441.305 99.496 440.82 99.5973 440.383 99.8C439.945 100.003 439.567 100.323 439.247 100.76C438.937 101.187 438.697 101.736 438.527 102.408C438.356 103.08 438.271 103.88 438.271 104.808C438.271 105.725 438.34 106.504 438.479 107.144C438.617 107.784 438.815 108.301 439.071 108.696C439.337 109.091 439.657 109.379 440.031 109.56C440.404 109.731 440.82 109.816 441.279 109.816C442.057 109.816 442.708 109.661 443.231 109.352C443.764 109.043 444.265 108.605 444.735 108.04V100.792ZM449.151 89.144V113H446.431C445.865 113 445.503 112.744 445.343 112.232L444.975 110.792C444.644 111.155 444.292 111.485 443.919 111.784C443.556 112.083 443.161 112.344 442.735 112.568C442.308 112.781 441.849 112.947 441.359 113.064C440.868 113.181 440.335 113.24 439.759 113.24C438.873 113.24 438.063 113.053 437.327 112.68C436.591 112.307 435.951 111.763 435.407 111.048C434.873 110.323 434.457 109.437 434.159 108.392C433.86 107.347 433.711 106.152 433.711 104.808C433.711 103.581 433.876 102.44 434.207 101.384C434.548 100.328 435.028 99.416 435.647 98.648C436.265 97.88 437.012 97.2773 437.887 96.84C438.761 96.4027 439.732 96.184 440.799 96.184C441.695 96.184 442.447 96.3173 443.055 96.584C443.673 96.8507 444.233 97.2133 444.735 97.672V89.144H449.151ZM457.368 96.504V113H452.952V96.504H457.368ZM457.896 91.816C457.896 92.1893 457.821 92.536 457.672 92.856C457.523 93.176 457.32 93.4587 457.064 93.704C456.819 93.9493 456.525 94.1413 456.184 94.28C455.853 94.4187 455.496 94.488 455.112 94.488C454.749 94.488 454.403 94.4187 454.072 94.28C453.752 94.1413 453.469 93.9493 453.224 93.704C452.979 93.4587 452.781 93.176 452.632 92.856C452.493 92.536 452.424 92.1893 452.424 91.816C452.424 91.4427 452.493 91.096 452.632 90.776C452.781 90.4453 452.979 90.1573 453.224 89.912C453.469 89.6667 453.752 89.4747 454.072 89.336C454.403 89.1973 454.749 89.128 455.112 89.128C455.496 89.128 455.853 89.1973 456.184 89.336C456.525 89.4747 456.819 89.6667 457.064 89.912C457.32 90.1573 457.523 90.4453 457.672 90.776C457.821 91.096 457.896 91.4427 457.896 91.816ZM469.761 106.104C468.683 106.157 467.787 106.253 467.073 106.392C466.358 106.52 465.787 106.691 465.361 106.904C464.945 107.117 464.646 107.363 464.465 107.64C464.294 107.907 464.209 108.2 464.209 108.52C464.209 109.16 464.385 109.613 464.737 109.88C465.099 110.147 465.601 110.28 466.241 110.28C466.977 110.28 467.611 110.152 468.145 109.896C468.689 109.629 469.227 109.219 469.761 108.664V106.104ZM460.769 98.792C461.739 97.9173 462.811 97.2667 463.985 96.84C465.158 96.4027 466.427 96.184 467.793 96.184C468.774 96.184 469.649 96.344 470.417 96.664C471.195 96.984 471.851 97.432 472.385 98.008C472.929 98.5733 473.345 99.2507 473.633 100.04C473.921 100.829 474.065 101.693 474.065 102.632V113H472.049C471.633 113 471.313 112.941 471.089 112.824C470.875 112.707 470.699 112.461 470.561 112.088L470.209 111.032C469.793 111.395 469.387 111.715 468.993 111.992C468.609 112.269 468.209 112.504 467.793 112.696C467.377 112.877 466.929 113.016 466.449 113.112C465.979 113.208 465.451 113.256 464.865 113.256C464.139 113.256 463.478 113.16 462.881 112.968C462.283 112.776 461.766 112.493 461.329 112.12C460.902 111.736 460.571 111.261 460.337 110.696C460.102 110.131 459.985 109.48 459.985 108.744C459.985 108.136 460.139 107.528 460.449 106.92C460.758 106.312 461.286 105.763 462.033 105.272C462.79 104.771 463.793 104.36 465.041 104.04C466.299 103.709 467.873 103.523 469.761 103.48V102.632C469.761 101.597 469.542 100.84 469.105 100.36C468.667 99.8693 468.038 99.624 467.217 99.624C466.609 99.624 466.102 99.6987 465.697 99.848C465.291 99.9867 464.934 100.141 464.625 100.312C464.326 100.472 464.043 100.627 463.777 100.776C463.51 100.915 463.201 100.984 462.849 100.984C462.539 100.984 462.278 100.909 462.065 100.76C461.862 100.6 461.691 100.413 461.553 100.2L460.769 98.792Z" fill="#FEFEFE"/>
<path d="M212.851 70.737V75H195.757V70.737H201.805V54.063C201.805 53.699 201.812 53.328 201.826 52.95C201.84 52.572 201.861 52.187 201.889 51.795L197.899 55.113C197.619 55.323 197.346 55.456 197.08 55.512C196.814 55.568 196.562 55.575 196.324 55.533C196.086 55.477 195.876 55.393 195.694 55.281C195.512 55.155 195.372 55.029 195.274 54.903L193.447 52.446L202.813 44.508H207.58V70.737H212.851ZM235.891 69.687C236.521 69.687 237.011 69.862 237.361 70.212C237.725 70.562 237.907 71.024 237.907 71.598V75H216.781V73.11C216.781 72.746 216.858 72.354 217.012 71.934C217.166 71.5 217.425 71.108 217.789 70.758L226.819 61.707C227.589 60.937 228.268 60.202 228.856 59.502C229.444 58.788 229.934 58.095 230.326 57.423C230.718 56.737 231.012 56.044 231.208 55.344C231.404 54.644 231.502 53.909 231.502 53.139C231.502 51.781 231.152 50.752 230.452 50.052C229.752 49.338 228.765 48.981 227.491 48.981C226.931 48.981 226.413 49.065 225.937 49.233C225.475 49.387 225.055 49.604 224.677 49.884C224.313 50.164 223.998 50.493 223.732 50.871C223.466 51.249 223.27 51.662 223.144 52.11C222.892 52.81 222.549 53.279 222.115 53.517C221.695 53.741 221.093 53.79 220.309 53.664L217.243 53.118C217.467 51.634 217.887 50.332 218.503 49.212C219.119 48.092 219.889 47.161 220.813 46.419C221.737 45.677 222.794 45.124 223.984 44.76C225.174 44.382 226.455 44.193 227.827 44.193C229.269 44.193 230.578 44.41 231.754 44.844C232.944 45.264 233.959 45.859 234.799 46.629C235.639 47.385 236.29 48.302 236.752 49.38C237.214 50.458 237.445 51.648 237.445 52.95C237.445 54.07 237.284 55.106 236.962 56.058C236.64 57.01 236.199 57.92 235.639 58.788C235.093 59.642 234.456 60.475 233.728 61.287C233 62.099 232.23 62.918 231.418 63.744L224.95 70.359C225.664 70.149 226.371 69.988 227.071 69.876C227.771 69.75 228.429 69.687 229.045 69.687H235.891ZM263.11 59.754C263.11 62.414 262.823 64.724 262.249 66.684C261.675 68.644 260.884 70.268 259.876 71.556C258.868 72.83 257.671 73.782 256.285 74.412C254.913 75.028 253.429 75.336 251.833 75.336C250.237 75.336 248.753 75.028 247.381 74.412C246.009 73.782 244.826 72.83 243.832 71.556C242.838 70.268 242.054 68.644 241.48 66.684C240.92 64.724 240.64 62.414 240.64 59.754C240.64 57.094 240.92 54.791 241.48 52.845C242.054 50.885 242.838 49.268 243.832 47.994C244.826 46.706 246.009 45.754 247.381 45.138C248.753 44.508 250.237 44.193 251.833 44.193C253.429 44.193 254.913 44.508 256.285 45.138C257.671 45.754 258.868 46.706 259.876 47.994C260.884 49.268 261.675 50.885 262.249 52.845C262.823 54.791 263.11 57.094 263.11 59.754ZM257.125 59.754C257.125 57.598 256.971 55.82 256.663 54.42C256.369 53.02 255.977 51.914 255.487 51.102C254.997 50.29 254.43 49.723 253.786 49.401C253.156 49.079 252.505 48.918 251.833 48.918C251.161 48.918 250.51 49.079 249.88 49.401C249.264 49.723 248.711 50.29 248.221 51.102C247.745 51.914 247.36 53.02 247.066 54.42C246.772 55.82 246.625 57.598 246.625 59.754C246.625 61.924 246.772 63.709 247.066 65.109C247.36 66.509 247.745 67.615 248.221 68.427C248.711 69.239 249.264 69.806 249.88 70.128C250.51 70.45 251.161 70.611 251.833 70.611C252.505 70.611 253.156 70.45 253.786 70.128C254.43 69.806 254.997 69.239 255.487 68.427C255.977 67.615 256.369 66.509 256.663 65.109C256.971 63.709 257.125 61.924 257.125 59.754ZM286.55 63.009H278.57V71.514H273.866V63.009H265.928V58.788H273.866V50.304H278.57V58.788H286.55V63.009Z" fill="#001B31"/>
</g>
</g>
<defs>
<filter id="filter0_d_20472_23156" x="0" y="0" width="1288" height="158" filterUnits="userSpaceOnUse" color-interpolation-filters="sRGB">
<feFlood flood-opacity="0" result="BackgroundImageFix"/>
<feColorMatrix in="SourceAlpha" type="matrix" values="0 0 0 0 0 0 0 0 0 0 0 0 0 0 0 0 0 0 127 0" result="hardAlpha"/>
<feOffset dy="2"/>
<feGaussianBlur stdDeviation="2"/>
<feComposite in2="hardAlpha" operator="out"/>
<feColorMatrix type="matrix" values="0 0 0 0 0.329412 0 0 0 0 0.670588 0 0 0 0 0.74902 0 0 0 0.15 0"/>
<feBlend mode="normal" in2="BackgroundImageFix" result="effect1_dropShadow_20472_23156"/>
<feBlend mode="normal" in="SourceGraphic" in2="effect1_dropShadow_20472_23156" result="shape"/>
</filter>
<filter id="filter1_di_20472_23156" x="621" y="71.6775" width="644.256" height="83.7838" filterUnits="userSpaceOnUse" color-interpolation-filters="sRGB">
<feFlood flood-opacity="0" result="BackgroundImageFix"/>
<feColorMatrix in="SourceAlpha" type="matrix" values="0 0 0 0 0 0 0 0 0 0 0 0 0 0 0 0 0 0 127 0" result="hardAlpha"/>
<feOffset dx="3.32255"/>
<feGaussianBlur stdDeviation="1.66127"/>
<feComposite in2="hardAlpha" operator="out"/>
<feColorMatrix type="matrix" values="0 0 0 0 0 0 0 0 0 0 0 0 0 0 0 0 0 0 0.25 0"/>
<feBlend mode="normal" in2="BackgroundImageFix" result="effect1_dropShadow_20472_23156"/>
<feBlend mode="normal" in="SourceGraphic" in2="effect1_dropShadow_20472_23156" result="shape"/>
<feColorMatrix in="SourceAlpha" type="matrix" values="0 0 0 0 0 0 0 0 0 0 0 0 0 0 0 0 0 0 127 0" result="hardAlpha"/>
<feOffset dx="16.6127"/>
<feGaussianBlur stdDeviation="1.66127"/>
<feComposite in2="hardAlpha" operator="arithmetic" k2="-1" k3="1"/>
<feColorMatrix type="matrix" values="0 0 0 0 1 0 0 0 0 1 0 0 0 0 1 0 0 0 0.25 0"/>
<feBlend mode="normal" in2="shape" result="effect2_innerShadow_20472_23156"/>
</filter>
<linearGradient id="paint0_linear_20472_23156" x1="-27.6301" y1="286.79" x2="257.811" y2="298.718" gradientUnits="userSpaceOnUse">
<stop stop-color="#0082A0"/>
<stop offset="1" stop-color="#54ABBF" stop-opacity="0"/>
</linearGradient>
<linearGradient id="paint1_linear_20472_23156" x1="-20.1744" y1="529.136" x2="188.549" y2="532.588" gradientUnits="userSpaceOnUse">
<stop stop-color="#0082A0"/>
<stop offset="1" stop-color="#0082A0" stop-opacity="0"/>
</linearGradient>
<linearGradient id="paint2_linear_20472_23156" x1="-23.3333" y1="501.667" x2="218.04" y2="506.537" gradientUnits="userSpaceOnUse">
<stop stop-color="#0082A0"/>
<stop offset="1" stop-color="#0082A0" stop-opacity="0.1"/>
</linearGradient>
<linearGradient id="paint3_linear_20472_23156" x1="-25.6288" y1="185.955" x2="238.654" y2="201.754" gradientUnits="userSpaceOnUse">
<stop stop-color="#0082A0"/>
<stop offset="1" stop-color="#54ABBF" stop-opacity="0"/>
</linearGradient>
<linearGradient id="paint4_linear_20472_23156" x1="-27.1723" y1="244.524" x2="253.377" y2="258.046" gradientUnits="userSpaceOnUse">
<stop stop-color="#0082A0"/>
<stop offset="1" stop-color="#0082A0" stop-opacity="0"/>
</linearGradient>
<clipPath id="clip0_20472_23156">
<rect x="4" y="2" width="1280" height="150" rx="25" fill="white"/>
</clipPath>
</defs>
</svg>
