<svg width="200" height="29" viewBox="0 0 200 29" fill="none" xmlns="http://www.w3.org/2000/svg">
<g clip-path="url(#clip0_9_1978)">
<path d="M112.52 15.1923L109.355 10.4501H106.575V15.1923H103.553V0.606619H110.232C111.779 0.516858 113.299 1.04543 114.457 2.07605C114.88 2.51924 115.208 3.04385 115.422 3.61797C115.636 4.19209 115.73 4.80372 115.701 5.41564V5.45738C115.742 6.44106 115.461 7.41145 114.901 8.22079C114.34 9.03013 113.53 9.63411 112.595 9.94079L112.453 9.99089L116.026 15.2257L112.52 15.1923ZM106.575 7.83685H109.998C111.61 7.83685 112.611 7.00194 112.611 5.61601C112.611 4.18834 111.635 3.37013 109.931 3.37013H106.592L106.575 7.83685Z" fill="#FEFEFE"/>
<path d="M125.552 15.4428C124.544 15.4825 123.539 15.3169 122.597 14.9562C121.655 14.5955 120.796 14.0472 120.072 13.3445C119.348 12.6419 118.775 11.7995 118.387 10.8686C117.998 9.93758 117.803 8.93742 117.813 7.92874V7.87865C117.821 6.87166 118.03 5.87646 118.428 4.95116C118.825 4.02587 119.403 3.18902 120.127 2.48949C120.852 1.78996 121.708 1.24177 122.647 0.876928C123.586 0.512086 124.587 0.337903 125.594 0.364557C126.601 0.326088 127.606 0.492494 128.547 0.853704C129.488 1.21491 130.346 1.76341 131.069 2.46596C131.792 3.1685 132.364 4.01046 132.752 4.94086C133.14 5.87125 133.335 6.87069 133.325 7.87865C133.323 8.88914 133.119 9.88905 132.726 10.8196C132.332 11.7502 131.756 12.5926 131.031 13.2973C130.307 14.0021 129.449 14.5549 128.509 14.9234C127.568 15.2918 126.563 15.4684 125.552 15.4428ZM125.552 3.12807C124.938 3.12649 124.33 3.24911 123.764 3.48859C123.198 3.72806 122.686 4.07943 122.26 4.5216C121.833 4.96376 121.501 5.48759 121.282 6.06162C121.063 6.63564 120.962 7.24801 120.985 7.86194C120.968 8.47989 121.073 9.09517 121.297 9.67167C121.52 10.2482 121.856 10.7743 122.285 11.2191C122.715 11.664 123.228 12.0186 123.797 12.2622C124.365 12.5057 124.976 12.6334 125.594 12.6376C126.207 12.6391 126.815 12.5167 127.379 12.2777C127.944 12.0386 128.455 11.6879 128.881 11.2465C129.306 10.8051 129.639 10.2822 129.857 9.70916C130.076 9.13615 130.176 8.52487 130.153 7.91204V7.86194C130.166 7.24786 130.057 6.63726 129.832 6.06566C129.607 5.49405 129.271 4.97284 128.843 4.53235C128.415 4.09186 127.904 3.74086 127.339 3.49978C126.774 3.2587 126.167 3.13235 125.552 3.12807Z" fill="#FEFEFE"/>
<path d="M136.89 15.1924V0.606712H143.652C145.035 0.513984 146.398 0.973354 147.443 1.88411C147.765 2.1999 148.018 2.57854 148.188 2.9965C148.357 3.41445 148.439 3.86279 148.428 4.31366V4.36376C148.445 5.00786 148.274 5.643 147.938 6.19259C147.602 6.74219 147.114 7.18278 146.533 7.46124L146.316 7.57812L146.549 7.66996C148.445 8.39632 149.246 9.44829 149.246 11.2016V11.2433C149.246 13.748 147.267 15.1924 143.819 15.1924H136.89ZM139.828 12.5708H143.819C145.823 12.5708 146.241 11.6357 146.241 10.8342C146.241 10.0494 145.806 9.10599 143.736 9.10599H139.845L139.828 12.5708ZM139.828 6.60129H142.951C144.988 6.60129 145.414 5.67455 145.414 4.93149C145.414 3.88787 144.579 3.2617 143.168 3.2617H139.828V6.60129Z" fill="#FEFEFE"/>
<path d="M153.446 15.1924V6.54285H164.375V9.17278H156.46V12.5291H164.375V15.1924H153.446Z" fill="#FEFEFE"/>
<path d="M175.871 15.4428C174.877 15.4681 173.889 15.291 172.966 14.9223C172.043 14.5536 171.204 14.001 170.502 13.2982C169.799 12.5953 169.246 11.7569 168.877 10.8338C168.509 9.91078 168.332 8.9224 168.357 7.92875V7.87866C168.343 6.87956 168.531 5.88796 168.91 4.96345C169.289 4.03893 169.851 3.20057 170.562 2.49873C171.274 1.79688 172.119 1.24603 173.049 0.879288C173.978 0.512544 174.972 0.337471 175.971 0.364572C177.018 0.310935 178.065 0.477101 179.045 0.852395C180.024 1.22769 180.914 1.8038 181.657 2.54366L179.728 4.74779C178.721 3.74508 177.367 3.16812 175.946 3.13643C175.341 3.14449 174.744 3.27486 174.191 3.51967C173.638 3.76449 173.14 4.11869 172.728 4.56095C172.315 5.00322 171.996 5.5244 171.79 6.09314C171.584 6.66187 171.496 7.26639 171.529 7.8703C171.492 8.47706 171.578 9.0851 171.782 9.6577C171.986 10.2303 172.305 10.7556 172.717 11.2019C173.13 11.6482 173.629 12.0063 174.184 12.2544C174.739 12.5026 175.338 12.6358 175.946 12.6459C176.675 12.6475 177.397 12.5002 178.068 12.2131C178.738 11.926 179.343 11.5051 179.845 10.9761L181.757 12.9131C181.027 13.7481 180.12 14.4088 179.101 14.8466C178.083 15.2844 176.979 15.4881 175.871 15.4428Z" fill="#FEFEFE"/>
<path d="M192.21 15.4428C191.203 15.4801 190.199 15.3129 189.258 14.9512C188.318 14.5896 187.46 14.041 186.738 13.3387C186.015 12.6364 185.443 11.7949 185.054 10.8651C184.666 9.93525 184.47 8.93635 184.479 7.92873V7.87864C184.487 6.87165 184.696 5.87645 185.094 4.95115C185.491 4.02586 186.069 3.18901 186.793 2.48948C187.518 1.78995 188.374 1.24176 189.313 0.876919C190.251 0.512077 191.253 0.337894 192.26 0.364548C193.268 0.326118 194.273 0.492486 195.214 0.853606C196.156 1.21473 197.014 1.76309 197.738 2.46552C198.461 3.16794 199.035 4.00982 199.423 4.94025C199.812 5.87067 200.008 6.87029 200 7.87864C199.997 8.89025 199.791 9.89105 199.396 10.8222C199.001 11.7534 198.423 12.5961 197.697 13.3008C196.972 14.0056 196.112 14.5581 195.17 14.9259C194.228 15.2938 193.221 15.4695 192.21 15.4428ZM192.21 3.12806C191.596 3.12643 190.988 3.2491 190.423 3.48867C189.857 3.72823 189.346 4.07974 188.92 4.52203C188.494 4.96433 188.162 5.48824 187.944 6.06223C187.726 6.63622 187.627 7.24842 187.651 7.86193C187.634 8.47988 187.739 9.09516 187.963 9.67166C188.186 10.2482 188.522 10.7743 188.951 11.2191C189.381 11.664 189.894 12.0186 190.463 12.2622C191.031 12.5057 191.642 12.6334 192.26 12.6376C192.873 12.6391 193.481 12.5167 194.045 12.2777C194.61 12.0386 195.121 11.6879 195.547 11.2465C195.972 10.8051 196.305 10.2822 196.523 9.70916C196.742 9.13614 196.842 8.52486 196.819 7.91203V7.86193C196.831 7.24745 196.721 6.63667 196.495 6.06502C196.269 5.49337 195.932 4.97223 195.504 4.53186C195.075 4.09148 194.563 3.74063 193.998 3.49965C193.432 3.25867 192.825 3.13236 192.21 3.12806Z" fill="#FEFEFE"/>
<path d="M164.375 0.606689H153.446V3.27002H164.375V0.606689Z" fill="#FEFEFE"/>
<path d="M7.48032 15.351C6.48667 15.3762 5.49829 15.1991 4.57523 14.8304C3.65217 14.4617 2.81373 13.9092 2.11089 13.2063C1.40805 12.5035 0.855494 11.6651 0.486804 10.742C0.118115 9.81894 -0.0589973 8.83054 -0.0337715 7.8369V7.79515C0.0273907 6.28318 0.523437 4.82096 1.39487 3.58387C2.2663 2.34677 3.47611 1.38733 4.8792 0.820635C6.28228 0.253937 7.81906 0.104048 9.30521 0.38893C10.7914 0.673813 12.1638 1.38138 13.2578 2.42676L11.3375 4.63924C10.3333 3.63128 8.97799 3.05088 7.55545 3.01953C6.95277 3.03448 6.35911 3.16949 5.80923 3.41665C5.25935 3.66381 4.76429 4.01816 4.35303 4.45897C3.94176 4.89978 3.62254 5.41821 3.41406 5.98388C3.20557 6.54956 3.11201 7.15113 3.13885 7.75341V7.79515C3.10154 8.40191 3.18756 9.00994 3.39171 9.58254C3.59586 10.1551 3.9139 10.6804 4.32666 11.1267C4.73941 11.573 5.23831 11.9311 5.79324 12.1793C6.34818 12.4275 6.94763 12.5606 7.55545 12.5708C8.28328 12.5707 9.0035 12.4227 9.67233 12.1356C10.3412 11.8486 10.9446 11.4285 11.4461 10.901L13.358 12.8379C12.6282 13.6692 11.7214 14.3264 10.7043 14.7613C9.68715 15.1962 8.58552 15.3977 7.48032 15.351Z" fill="#FEFEFE"/>
<path d="M27.2593 15.0754L25.8984 11.7358H19.4947L18.1422 15.0754H15.0781L21.3232 0.381226H24.1785L30.4236 15.0754H27.2593ZM20.5801 9.10591H24.8715L22.7258 3.87944L20.5801 9.10591Z" fill="#FEFEFE"/>
<path d="M43.3478 15.0839L36.0007 5.43242V15.0839H33.0117V0.498169H35.842L42.9637 9.84903V0.498169H45.9443V15.0839H43.3478Z" fill="#FEFEFE"/>
<path d="M60.7306 15.0754L59.3781 11.7358H52.9494L51.5968 15.0754H48.5244L54.7778 0.381226H57.6332L63.8782 15.0754H60.7306ZM54.0514 9.10591H58.3345L56.1971 3.87944L54.0514 9.10591Z" fill="#FEFEFE"/>
<path d="M74.5651 15.0755L71.3841 10.3416H68.6456V15.0755H65.665V0.498188H72.3442C73.878 0.428663 75.3776 0.965493 76.5187 1.99265C76.9346 2.43226 77.2588 2.95027 77.4724 3.51648C77.6859 4.08268 77.7846 4.68575 77.7627 5.2905V5.33225C77.8044 6.31593 77.5236 7.2863 76.9629 8.09565C76.4022 8.90499 75.5925 9.50897 74.6569 9.81565L74.515 9.8574L78.0967 15.0922L74.5651 15.0755ZM68.6456 7.69501H72.0604C73.6801 7.69501 74.6736 6.86011 74.6736 5.47418C74.6736 4.05485 73.7051 3.23666 72.0019 3.23666H68.6623L68.6456 7.69501Z" fill="#FEFEFE"/>
<path d="M91.922 15.0754L90.5612 11.7358H84.1408L82.7799 15.0754H79.7158L85.9692 0.381226H88.8162L95.0696 15.0754H91.922ZM85.2428 9.10591H89.5259L87.3718 3.87944L85.2428 9.10591Z" fill="#FEFEFE"/>
<path d="M120.183 18.6906H122.045L124.383 25.7037L126.729 18.6906H128.591L130.261 28.7093H128.415L127.338 22.3641L125.209 28.7093H123.54L121.411 22.3641L120.317 28.7093H118.455L120.183 18.6906Z" fill="#FEFEFE"/>
<path d="M131.622 21.2955H133.509V24.8689C133.482 25.3575 133.529 25.8475 133.65 26.3216C133.731 26.5771 133.892 26.7996 134.11 26.9561C134.341 27.1114 134.616 27.1902 134.894 27.1816C135.175 27.1927 135.452 27.1169 135.688 26.9645C135.914 26.8011 136.084 26.5703 136.172 26.3049C136.274 25.8561 136.313 25.3953 136.289 24.9357V21.2955H138.151V24.4431C138.201 25.342 138.097 26.243 137.842 27.1064C137.623 27.6584 137.238 28.1284 136.74 28.4506C136.178 28.7853 135.531 28.9479 134.878 28.9182C134.176 28.9534 133.482 28.76 132.899 28.3671C132.39 27.9943 132.02 27.4626 131.847 26.856C131.655 26.0498 131.579 25.2205 131.622 24.393V21.2955Z" fill="#FEFEFE"/>
<path d="M140.221 18.557H142.074V21.2955H143.185V22.8651H142.074V28.7094H140.221V22.8651H139.261V21.2621H140.221V18.557Z" fill="#FEFEFE"/>
<path d="M144.146 21.2955H146.041V24.8689C146.018 25.3574 146.066 25.8467 146.183 26.3216C146.267 26.5755 146.427 26.7971 146.642 26.9561C146.888 27.1212 147.181 27.2004 147.477 27.1816C147.75 27.1993 148.022 27.1274 148.251 26.9767C148.48 26.8261 148.654 26.6049 148.746 26.3467C148.847 25.8978 148.887 25.4371 148.863 24.9774V21.3373H150.725V24.4849C150.78 25.3839 150.675 26.2856 150.416 27.1482C150.194 27.7008 149.806 28.1706 149.305 28.4924C148.746 28.8255 148.102 28.988 147.452 28.9599C146.752 28.9976 146.06 28.8039 145.481 28.4089C144.968 28.0373 144.592 27.5058 144.413 26.8977C144.229 26.0902 144.154 25.2621 144.187 24.4348L144.146 21.2955Z" fill="#FEFEFE"/>
<path d="M158.071 21.2954H159.933V28.7093H158.071V27.9245C157.75 28.236 157.377 28.4902 156.969 28.6759C156.59 28.8289 156.184 28.9055 155.775 28.9013C155.302 28.9028 154.835 28.8039 154.403 28.611C153.971 28.4181 153.585 28.1358 153.271 27.7826C152.568 27.0337 152.19 26.0373 152.219 25.0107C152.179 23.9735 152.544 22.9616 153.237 22.1888C153.549 21.8334 153.935 21.5507 154.368 21.3603C154.8 21.1699 155.269 21.0765 155.742 21.0867C156.173 21.0813 156.601 21.1696 156.994 21.3455C157.402 21.5221 157.774 21.7742 158.088 22.0886L158.071 21.2954ZM156.109 22.865C155.838 22.8565 155.568 22.9074 155.319 23.0141C155.069 23.1209 154.846 23.2808 154.665 23.4829C154.281 23.9068 154.077 24.4639 154.097 25.0358C154.073 25.6238 154.283 26.1973 154.682 26.6304C154.862 26.829 155.083 26.9868 155.329 27.0933C155.575 27.1998 155.841 27.2527 156.109 27.2482C156.382 27.2563 156.654 27.2062 156.906 27.1011C157.158 26.996 157.384 26.8384 157.57 26.6388C157.966 26.2013 158.173 25.6252 158.146 25.0358C158.159 24.7491 158.114 24.4629 158.015 24.1935C157.916 23.9242 157.765 23.677 157.57 23.4662C157.382 23.2693 157.155 23.1141 156.904 23.0106C156.652 22.907 156.381 22.8575 156.109 22.865Z" fill="#FEFEFE"/>
<path d="M161.611 18.4235H163.481V28.7094H161.611V18.4235Z" fill="#FEFEFE"/>
<path d="M169.317 18.6906H174.327V20.5607H171.246V22.3808H174.327V24.2176H171.246V28.7093H169.342L169.317 18.6906Z" fill="#FEFEFE"/>
<path d="M175.796 21.2955H177.675V24.8689C177.654 25.3579 177.704 25.8473 177.825 26.3216C177.909 26.5777 178.073 26.8 178.293 26.9561C178.523 27.1135 178.798 27.1925 179.077 27.1816C179.355 27.1915 179.629 27.1158 179.862 26.9645C180.089 26.8011 180.259 26.5703 180.347 26.3049C180.448 25.8561 180.488 25.3953 180.463 24.9357V21.2955H182.325V24.4431C182.38 25.3422 182.276 26.2439 182.016 27.1064C181.795 27.6567 181.411 28.1259 180.914 28.4506C180.353 28.7853 179.705 28.9479 179.052 28.9182C178.35 28.9558 177.655 28.7623 177.074 28.3671C176.565 27.9925 176.193 27.4618 176.013 26.856C175.83 26.0485 175.757 25.22 175.796 24.393V21.2955Z" fill="#FEFEFE"/>
<path d="M184.221 21.2955H186.091V22.0302C186.431 21.7207 186.821 21.4697 187.243 21.2872C187.576 21.1476 187.934 21.0767 188.295 21.0784C188.643 21.073 188.988 21.1383 189.309 21.2703C189.631 21.4024 189.922 21.5984 190.165 21.8465C190.397 22.1114 190.574 22.4198 190.686 22.7538C190.798 23.0877 190.842 23.4406 190.816 23.7919V28.7094H188.971V25.4617C188.993 24.8664 188.954 24.2706 188.854 23.6833C188.79 23.4241 188.644 23.1927 188.437 23.0238C188.224 22.8691 187.965 22.7898 187.702 22.7983C187.343 22.7915 186.995 22.9264 186.734 23.174C186.446 23.4576 186.251 23.8214 186.174 24.2177C186.099 24.7176 186.071 25.2236 186.091 25.7288V28.7094H184.221V21.2955Z" fill="#FEFEFE"/>
<path d="M198.079 18.4235H199.941V28.7094H198.079V27.9246C197.762 28.2377 197.392 28.4921 196.986 28.676C196.606 28.829 196.201 28.9056 195.792 28.9014C195.318 28.9067 194.849 28.8095 194.417 28.6164C193.984 28.4233 193.599 28.1389 193.287 27.7827C192.584 27.0338 192.206 26.0374 192.235 25.0108C192.191 23.9729 192.557 22.9594 193.254 22.1889C193.565 21.8326 193.95 21.5492 194.383 21.3588C194.816 21.1683 195.285 21.0755 195.758 21.0868C196.189 21.083 196.616 21.1712 197.011 21.3456C197.418 21.5189 197.787 21.7715 198.096 22.0887L198.079 18.4235ZM196.117 22.8651C195.847 22.8579 195.579 22.9093 195.331 23.016C195.083 23.1227 194.862 23.282 194.681 23.483C194.294 23.9049 194.09 24.4635 194.114 25.0359C194.1 25.3272 194.144 25.6184 194.245 25.8922C194.345 26.1661 194.499 26.4171 194.698 26.6305C194.878 26.8291 195.099 26.9869 195.345 27.0934C195.591 27.1999 195.857 27.2528 196.126 27.2483C196.397 27.2563 196.667 27.2061 196.918 27.101C197.169 26.9958 197.394 26.8383 197.578 26.6389C197.777 26.4239 197.932 26.1714 198.032 25.8962C198.132 25.621 198.177 25.3285 198.163 25.0359C198.176 24.7484 198.13 24.4613 198.03 24.1917C197.93 23.922 197.776 23.6753 197.578 23.4663C197.391 23.2686 197.164 23.1128 196.912 23.0092C196.66 22.9056 196.389 22.8565 196.117 22.8651Z" fill="#FEFEFE"/>
</g>
<defs>
<clipPath id="clip0_9_1978">
<rect width="200" height="28.6704" fill="white" transform="translate(0 0.247681)"/>
</clipPath>
</defs>
</svg>
