<svg width="1440" height="1039" viewBox="0 0 1440 1039" fill="none" xmlns="http://www.w3.org/2000/svg">
<g clip-path="url(#clip0_22506_37081)">
<g opacity="0.5" clip-path="url(#clip1_22506_37081)">
<rect opacity="0.4" width="1440" height="1217" transform="matrix(-1 0 0 1 1440 140.484)" fill="url(#paint0_radial_22506_37081)"/>
<g opacity="0.7">
<path opacity="0.11" d="M1062.89 1020.87C1062 1020.47 1061.74 1019.63 1062.32 1019C1062.91 1018.38 1064.11 1018.2 1065.01 1018.61C1065.91 1019.01 1066.16 1019.85 1065.58 1020.47C1065 1021.1 1063.79 1021.28 1062.89 1020.87Z" fill="white"/>
<path d="M1051.81 1024.71C1051.13 1024.4 1050.94 1023.78 1051.38 1023.31C1051.82 1022.84 1052.72 1022.71 1053.39 1023.01C1054.06 1023.32 1054.26 1023.94 1053.82 1024.41C1053.38 1024.88 1052.48 1025.01 1051.81 1024.71Z" fill="white"/>
<path d="M1036.04 1000.72C1035.37 1000.41 1035.18 999.786 1035.61 999.317C1036.05 998.849 1036.95 998.715 1037.63 999.019C1038.3 999.324 1038.49 999.95 1038.05 1000.42C1037.62 1000.89 1036.72 1001.02 1036.04 1000.72Z" fill="white"/>
<path d="M1106.25 1030.79C1105.57 1030.48 1105.38 1029.86 1105.82 1029.39C1106.26 1028.92 1107.16 1028.78 1107.83 1029.09C1108.51 1029.39 1108.7 1030.02 1108.26 1030.49C1107.82 1030.96 1106.92 1031.09 1106.25 1030.79Z" fill="white"/>
<path d="M867.4 964.009C866.951 963.806 866.824 963.389 867.115 963.077C867.406 962.765 868.006 962.676 868.455 962.878C868.904 963.081 869.031 963.498 868.74 963.81C868.449 964.122 867.849 964.211 867.4 964.009Z" fill="white"/>
<path d="M807.24 893.449C806.791 893.246 806.663 892.829 806.955 892.517C807.246 892.205 807.846 892.116 808.295 892.318C808.744 892.521 808.871 892.938 808.58 893.25C808.289 893.562 807.689 893.651 807.24 893.449Z" fill="white"/>
<path d="M736.966 920.425C736.518 920.222 736.39 919.805 736.681 919.493C736.973 919.18 737.573 919.092 738.021 919.294C738.47 919.497 738.598 919.914 738.306 920.226C738.015 920.538 737.415 920.627 736.966 920.425Z" fill="white"/>
<path opacity="0.11" d="M876.457 988.994C876.008 988.791 875.88 988.374 876.172 988.062C876.463 987.75 877.063 987.661 877.512 987.863C877.96 988.066 878.088 988.483 877.797 988.795C877.505 989.107 876.905 989.196 876.457 988.994Z" fill="white"/>
<path d="M1146.03 1006.13C1145.58 1005.93 1145.45 1005.51 1145.75 1005.2C1146.04 1004.88 1146.64 1004.8 1147.09 1005C1147.53 1005.2 1147.66 1005.62 1147.37 1005.93C1147.08 1006.24 1146.48 1006.33 1146.03 1006.13Z" fill="white"/>
<path d="M1021.8 948.467C1021.36 948.264 1021.23 947.847 1021.52 947.535C1021.81 947.223 1022.41 947.134 1022.86 947.336C1023.31 947.539 1023.44 947.956 1023.14 948.268C1022.85 948.58 1022.25 948.669 1021.8 948.467Z" fill="white"/>
<path opacity="0.3" d="M1118.71 1013.1C1118.26 1012.89 1118.13 1012.48 1118.42 1012.16C1118.71 1011.85 1119.31 1011.76 1119.76 1011.97C1120.21 1012.17 1120.34 1012.59 1120.05 1012.9C1119.76 1013.21 1119.16 1013.3 1118.71 1013.1Z" fill="white"/>
<path opacity="0.3" d="M776.613 880.434C776.164 880.232 776.036 879.815 776.328 879.502C776.619 879.19 777.219 879.101 777.668 879.304C778.117 879.506 778.244 879.924 777.953 880.236C777.662 880.548 777.062 880.637 776.613 880.434Z" fill="white"/>
<path opacity="0.11" d="M929.236 916.341C928.787 916.139 928.66 915.721 928.951 915.409C929.242 915.097 929.842 915.008 930.291 915.211C930.74 915.413 930.867 915.83 930.576 916.142C930.285 916.455 929.685 916.544 929.236 916.341Z" fill="white"/>
<path opacity="0.11" d="M775.876 914.666C775.428 914.463 775.3 914.046 775.591 913.734C775.883 913.422 776.483 913.333 776.932 913.535C777.38 913.738 777.508 914.155 777.217 914.467C776.925 914.779 776.325 914.868 775.876 914.666Z" fill="white"/>
<path opacity="0.3" d="M976.945 1012.63C976.046 1012.23 975.791 1011.39 976.374 1010.77C976.957 1010.14 978.159 1009.97 979.058 1010.37C979.957 1010.78 980.213 1011.61 979.629 1012.24C979.046 1012.86 977.844 1013.04 976.945 1012.63Z" fill="white"/>
<path opacity="0.11" d="M944.781 974.006C943.882 973.6 943.627 972.765 944.21 972.14C944.793 971.515 945.995 971.337 946.894 971.742C947.793 972.148 948.049 972.984 947.465 973.609C946.882 974.234 945.68 974.411 944.781 974.006Z" fill="white"/>
<path d="M963.662 954.391C962.988 954.087 962.797 953.461 963.234 952.992C963.671 952.523 964.572 952.39 965.246 952.694C965.92 952.998 966.112 953.625 965.675 954.093C965.237 954.562 964.336 954.696 963.662 954.391Z" fill="white"/>
<path d="M964.36 1039.12C963.686 1038.81 963.494 1038.18 963.931 1037.72C964.369 1037.25 965.27 1037.11 965.944 1037.42C966.618 1037.72 966.809 1038.35 966.372 1038.82C965.935 1039.29 965.034 1039.42 964.36 1039.12Z" fill="white"/>
<path d="M683.715 928.554C683.041 928.25 682.849 927.623 683.287 927.155C683.724 926.686 684.625 926.553 685.299 926.857C685.973 927.161 686.165 927.787 685.728 928.256C685.29 928.725 684.389 928.858 683.715 928.554Z" fill="white"/>
<path d="M992.149 983.325C991.475 983.02 991.283 982.394 991.72 981.925C992.158 981.457 993.059 981.323 993.733 981.627C994.407 981.932 994.598 982.558 994.161 983.027C993.724 983.495 992.823 983.629 992.149 983.325Z" fill="white"/>
<path d="M866.928 1020.88C866.254 1020.57 866.062 1019.94 866.5 1019.48C866.937 1019.01 867.838 1018.87 868.512 1019.18C869.186 1019.48 869.378 1020.11 868.94 1020.58C868.503 1021.05 867.602 1021.18 866.928 1020.88Z" fill="white"/>
<path d="M687.252 885.129C686.578 884.825 686.386 884.199 686.824 883.73C687.261 883.261 688.162 883.128 688.836 883.432C689.51 883.736 689.702 884.363 689.265 884.831C688.827 885.3 687.926 885.433 687.252 885.129Z" fill="white"/>
<path d="M696.76 845.208C696.086 844.903 695.894 844.277 696.332 843.808C696.769 843.34 697.67 843.206 698.344 843.51C699.018 843.814 699.21 844.441 698.772 844.91C698.335 845.378 697.434 845.512 696.76 845.208Z" fill="white"/>
<path opacity="0.3" d="M896.016 924.67C895.117 924.265 894.861 923.429 895.444 922.804C896.028 922.179 897.229 922.001 898.128 922.407C899.027 922.813 899.283 923.648 898.7 924.273C898.116 924.898 896.915 925.076 896.016 924.67Z" fill="white"/>
<path d="M933.506 884.51C932.607 884.104 932.351 883.268 932.934 882.643C933.518 882.018 934.719 881.84 935.618 882.246C936.517 882.652 936.773 883.487 936.19 884.112C935.606 884.737 934.405 884.915 933.506 884.51Z" fill="white"/>
<path d="M842.506 918.21C841.832 917.906 841.64 917.279 842.078 916.811C842.515 916.342 843.416 916.209 844.09 916.513C844.764 916.817 844.956 917.444 844.519 917.912C844.081 918.381 843.18 918.514 842.506 918.21Z" fill="white"/>
<path opacity="0.3" d="M823.639 878.345C822.74 877.939 822.484 877.104 823.067 876.479C823.651 875.854 824.852 875.676 825.751 876.082C826.65 876.487 826.906 877.323 826.323 877.948C825.739 878.573 824.538 878.751 823.639 878.345Z" fill="white"/>
<path opacity="0.3" d="M705.615 882.165C704.716 881.759 704.46 880.924 705.044 880.299C705.627 879.674 706.829 879.496 707.728 879.902C708.627 880.307 708.883 881.143 708.299 881.768C707.716 882.393 706.514 882.571 705.615 882.165Z" fill="white"/>
<path opacity="0.3" d="M799.746 926.245C798.847 925.839 798.591 925.004 799.175 924.379C799.758 923.754 800.96 923.576 801.859 923.982C802.758 924.387 803.013 925.223 802.43 925.848C801.847 926.473 800.645 926.651 799.746 926.245Z" fill="white"/>
<path opacity="0.11" d="M754.811 880.246C753.912 879.84 753.656 879.005 754.239 878.38C754.823 877.755 756.024 877.577 756.923 877.982C757.822 878.388 758.078 879.224 757.494 879.849C756.911 880.474 755.709 880.652 754.811 880.246Z" fill="white"/>
<path opacity="0.11" d="M942.783 721.179C941.884 720.773 941.628 719.938 942.212 719.313C942.795 718.688 943.997 718.51 944.896 718.915C945.795 719.321 946.051 720.157 945.467 720.782C944.884 721.407 943.682 721.585 942.783 721.179Z" fill="white"/>
<path d="M931.692 725.017C931.018 724.713 930.826 724.086 931.263 723.618C931.701 723.149 932.602 723.016 933.276 723.32C933.95 723.624 934.141 724.25 933.704 724.719C933.267 725.188 932.366 725.321 931.692 725.017Z" fill="white"/>
<path d="M915.928 701.024C915.254 700.72 915.062 700.094 915.5 699.625C915.937 699.156 916.838 699.023 917.512 699.327C918.186 699.631 918.378 700.258 917.94 700.727C917.503 701.195 916.602 701.329 915.928 701.024Z" fill="white"/>
<path d="M986.137 731.094C985.463 730.79 985.271 730.163 985.709 729.695C986.146 729.226 987.047 729.093 987.721 729.397C988.395 729.701 988.587 730.328 988.149 730.796C987.712 731.265 986.811 731.398 986.137 731.094Z" fill="white"/>
<path opacity="0.11" d="M1013.74 762.842C1012.84 762.436 1012.58 761.601 1013.17 760.976C1013.75 760.351 1014.95 760.173 1015.85 760.579C1016.75 760.984 1017.01 761.82 1016.42 762.445C1015.84 763.07 1014.64 763.248 1013.74 762.842Z" fill="white"/>
<path d="M1040.81 757.372C1040.36 757.169 1040.23 756.752 1040.52 756.44C1040.81 756.128 1041.41 756.039 1041.86 756.241C1042.31 756.444 1042.44 756.861 1042.15 757.173C1041.85 757.485 1041.25 757.574 1040.81 757.372Z" fill="white"/>
<path d="M924.644 744.343C924.195 744.14 924.068 743.723 924.359 743.411C924.65 743.099 925.25 743.01 925.699 743.212C926.148 743.415 926.276 743.832 925.984 744.144C925.693 744.456 925.093 744.545 924.644 744.343Z" fill="white"/>
<path d="M747.289 664.318C746.84 664.116 746.712 663.698 747.004 663.386C747.295 663.074 747.895 662.985 748.344 663.188C748.792 663.39 748.92 663.807 748.629 664.12C748.337 664.432 747.737 664.521 747.289 664.318Z" fill="white"/>
<path d="M687.128 593.757C686.68 593.555 686.552 593.138 686.843 592.825C687.135 592.513 687.735 592.424 688.184 592.627C688.632 592.829 688.76 593.247 688.469 593.559C688.177 593.871 687.577 593.96 687.128 593.757Z" fill="white"/>
<path d="M616.855 620.736C616.406 620.533 616.279 620.116 616.57 619.804C616.861 619.492 617.461 619.403 617.91 619.605C618.359 619.808 618.486 620.225 618.195 620.537C617.904 620.849 617.304 620.938 616.855 620.736Z" fill="white"/>
<path d="M1208.74 852.443C1208.29 852.24 1208.17 851.823 1208.46 851.511C1208.75 851.199 1209.35 851.11 1209.8 851.312C1210.25 851.515 1210.38 851.932 1210.08 852.244C1209.79 852.556 1209.19 852.645 1208.74 852.443Z" fill="white"/>
<path opacity="0.11" d="M1249.45 827.401C1249 827.199 1248.87 826.782 1249.16 826.47C1249.46 826.157 1250.06 826.069 1250.5 826.271C1250.95 826.474 1251.08 826.891 1250.79 827.203C1250.5 827.515 1249.9 827.604 1249.45 827.401Z" fill="white"/>
<path opacity="0.11" d="M1272.28 856.197C1271.84 855.994 1271.71 855.577 1272 855.265C1272.29 854.952 1272.89 854.864 1273.34 855.066C1273.79 855.269 1273.92 855.686 1273.62 855.998C1273.33 856.31 1272.73 856.399 1272.28 856.197Z" fill="white"/>
<path opacity="0.11" d="M1213.76 878.024C1213.31 877.821 1213.19 877.404 1213.48 877.092C1213.77 876.78 1214.37 876.691 1214.82 876.893C1215.27 877.096 1215.39 877.513 1215.1 877.825C1214.81 878.137 1214.21 878.226 1213.76 878.024Z" fill="white"/>
<path opacity="0.11" d="M1041.27 768.028C1040.82 767.825 1040.69 767.408 1040.99 767.096C1041.28 766.784 1041.88 766.695 1042.33 766.898C1042.77 767.1 1042.9 767.517 1042.61 767.829C1042.32 768.142 1041.72 768.23 1041.27 768.028Z" fill="white"/>
<path opacity="0.11" d="M907.252 765.441C906.803 765.238 906.675 764.821 906.966 764.509C907.258 764.197 907.858 764.108 908.307 764.31C908.755 764.513 908.883 764.93 908.592 765.242C908.3 765.554 907.7 765.643 907.252 765.441Z" fill="white"/>
<path opacity="0.11" d="M756.343 689.302C755.895 689.099 755.767 688.682 756.058 688.37C756.35 688.058 756.95 687.969 757.398 688.171C757.847 688.374 757.975 688.791 757.683 689.103C757.392 689.415 756.792 689.504 756.343 689.302Z" fill="white"/>
<path opacity="0.3" d="M1184.52 821.414C1184.07 821.211 1183.94 820.794 1184.23 820.482C1184.52 820.17 1185.12 820.081 1185.57 820.283C1186.02 820.486 1186.15 820.903 1185.86 821.215C1185.57 821.527 1184.97 821.616 1184.52 821.414Z" fill="white"/>
<path d="M1025.92 706.436C1025.47 706.234 1025.34 705.816 1025.63 705.504C1025.92 705.192 1026.52 705.103 1026.97 705.306C1027.42 705.508 1027.55 705.925 1027.26 706.238C1026.97 706.55 1026.37 706.639 1025.92 706.436Z" fill="white"/>
<path d="M901.691 648.774C901.242 648.571 901.115 648.154 901.406 647.842C901.697 647.53 902.297 647.441 902.746 647.643C903.195 647.846 903.322 648.263 903.031 648.575C902.74 648.888 902.14 648.976 901.691 648.774Z" fill="white"/>
<path d="M1032.67 783.441C1032.22 783.239 1032.09 782.821 1032.38 782.509C1032.67 782.197 1033.27 782.108 1033.72 782.311C1034.17 782.513 1034.3 782.93 1034.01 783.242C1033.71 783.555 1033.11 783.644 1032.67 783.441Z" fill="white"/>
<path opacity="0.3" d="M1089.61 809.138C1089.16 808.936 1089.04 808.518 1089.33 808.206C1089.62 807.894 1090.22 807.805 1090.67 808.008C1091.12 808.21 1091.24 808.627 1090.95 808.939C1090.66 809.252 1090.06 809.341 1089.61 809.138Z" fill="white"/>
<path opacity="0.11" d="M1189.04 804.166C1188.6 803.964 1188.47 803.547 1188.76 803.234C1189.05 802.922 1189.65 802.833 1190.1 803.036C1190.55 803.238 1190.68 803.656 1190.38 803.968C1190.09 804.28 1189.49 804.369 1189.04 804.166Z" fill="white"/>
<path opacity="0.3" d="M998.595 713.404C998.146 713.201 998.019 712.784 998.31 712.472C998.602 712.16 999.202 712.071 999.65 712.273C1000.1 712.476 1000.23 712.893 999.935 713.205C999.644 713.517 999.044 713.606 998.595 713.404Z" fill="white"/>
<path opacity="0.3" d="M1008.8 787.948C1008.35 787.745 1008.22 787.328 1008.51 787.016C1008.8 786.704 1009.4 786.615 1009.85 786.817C1010.3 787.02 1010.43 787.437 1010.14 787.749C1009.85 788.061 1009.25 788.15 1008.8 787.948Z" fill="white"/>
<path opacity="0.3" d="M1101.96 838.022C1101.51 837.82 1101.38 837.402 1101.67 837.09C1101.96 836.778 1102.56 836.689 1103.01 836.892C1103.46 837.094 1103.59 837.511 1103.3 837.824C1103.01 838.136 1102.41 838.225 1101.96 838.022Z" fill="white"/>
<path opacity="0.3" d="M1160.92 810.77C1160.47 810.568 1160.34 810.151 1160.63 809.839C1160.93 809.526 1161.53 809.437 1161.97 809.64C1162.42 809.842 1162.55 810.26 1162.26 810.572C1161.97 810.884 1161.37 810.973 1160.92 810.77Z" fill="white"/>
<path opacity="0.3" d="M656.5 580.742C656.051 580.54 655.923 580.122 656.215 579.81C656.506 579.498 657.106 579.409 657.555 579.612C658.003 579.814 658.131 580.231 657.84 580.544C657.548 580.856 656.948 580.945 656.5 580.742Z" fill="white"/>
<path opacity="0.11" d="M809.125 616.651C808.676 616.448 808.548 616.031 808.84 615.719C809.131 615.407 809.731 615.318 810.18 615.521C810.628 615.723 810.756 616.14 810.465 616.452C810.173 616.765 809.573 616.853 809.125 616.651Z" fill="white"/>
<path opacity="0.11" d="M655.765 614.975C655.316 614.773 655.189 614.355 655.48 614.043C655.771 613.731 656.371 613.642 656.82 613.845C657.269 614.047 657.397 614.464 657.105 614.777C656.814 615.089 656.214 615.178 655.765 614.975Z" fill="white"/>
<path opacity="0.3" d="M856.832 712.943C855.933 712.538 855.677 711.702 856.261 711.077C856.844 710.452 858.046 710.274 858.945 710.68C859.844 711.085 860.099 711.921 859.516 712.546C858.933 713.171 857.731 713.349 856.832 712.943Z" fill="white"/>
<path opacity="0.11" d="M824.67 674.314C823.771 673.909 823.515 673.073 824.099 672.448C824.682 671.823 825.884 671.645 826.782 672.051C827.681 672.456 827.937 673.292 827.354 673.917C826.77 674.542 825.569 674.72 824.67 674.314Z" fill="white"/>
<path d="M843.551 654.699C842.877 654.395 842.685 653.768 843.123 653.3C843.56 652.831 844.461 652.698 845.135 653.002C845.809 653.306 846.001 653.933 845.563 654.401C845.126 654.87 844.225 655.003 843.551 654.699Z" fill="white"/>
<path d="M844.246 739.423C843.572 739.118 843.381 738.492 843.818 738.023C844.255 737.555 845.156 737.421 845.83 737.725C846.504 738.03 846.696 738.656 846.259 739.125C845.821 739.593 844.92 739.727 844.246 739.423Z" fill="white"/>
<path d="M563.604 628.862C562.93 628.558 562.738 627.932 563.175 627.463C563.613 626.994 564.514 626.861 565.188 627.165C565.862 627.469 566.054 628.096 565.616 628.564C565.179 629.033 564.278 629.166 563.604 628.862Z" fill="white"/>
<path d="M1100.56 857.488C1099.88 857.184 1099.69 856.557 1100.13 856.089C1100.57 855.62 1101.47 855.487 1102.14 855.791C1102.82 856.095 1103.01 856.721 1102.57 857.19C1102.13 857.659 1101.23 857.792 1100.56 857.488Z" fill="white"/>
<path d="M1220.89 893.3C1220.22 892.995 1220.03 892.369 1220.46 891.9C1220.9 891.432 1221.8 891.298 1222.47 891.602C1223.15 891.907 1223.34 892.533 1222.9 893.002C1222.47 893.47 1221.56 893.604 1220.89 893.3Z" fill="white"/>
<path d="M1255.84 876.914C1255.17 876.61 1254.97 875.983 1255.41 875.515C1255.85 875.046 1256.75 874.913 1257.42 875.217C1258.1 875.521 1258.29 876.147 1257.85 876.616C1257.42 877.085 1256.51 877.218 1255.84 876.914Z" fill="white"/>
<path d="M872.037 683.633C871.363 683.329 871.172 682.703 871.609 682.234C872.046 681.765 872.947 681.632 873.621 681.936C874.295 682.24 874.487 682.867 874.05 683.335C873.612 683.804 872.711 683.937 872.037 683.633Z" fill="white"/>
<path d="M974.526 789.365C973.852 789.061 973.66 788.434 974.097 787.965C974.535 787.497 975.436 787.363 976.11 787.668C976.784 787.972 976.975 788.598 976.538 789.067C976.101 789.536 975.2 789.669 974.526 789.365Z" fill="white"/>
<path d="M746.817 721.182C746.143 720.878 745.951 720.252 746.388 719.783C746.826 719.314 747.727 719.181 748.401 719.485C749.075 719.789 749.266 720.416 748.829 720.884C748.392 721.353 747.491 721.486 746.817 721.182Z" fill="white"/>
<path d="M567.139 585.437C566.465 585.133 566.273 584.507 566.711 584.038C567.148 583.569 568.049 583.436 568.723 583.74C569.397 584.044 569.589 584.671 569.151 585.139C568.714 585.608 567.813 585.741 567.139 585.437Z" fill="white"/>
<path d="M576.647 545.517C575.973 545.213 575.781 544.587 576.218 544.118C576.656 543.649 577.557 543.516 578.231 543.82C578.905 544.124 579.097 544.751 578.659 545.219C578.222 545.688 577.321 545.821 576.647 545.517Z" fill="white"/>
<path opacity="0.3" d="M775.904 624.978C775.005 624.572 774.75 623.736 775.333 623.111C775.916 622.486 777.118 622.309 778.017 622.714C778.916 623.12 779.172 623.955 778.588 624.58C778.005 625.205 776.803 625.383 775.904 624.978Z" fill="white"/>
<path d="M813.395 584.818C812.496 584.412 812.24 583.577 812.823 582.952C813.407 582.327 814.608 582.149 815.507 582.554C816.406 582.96 816.662 583.796 816.078 584.421C815.495 585.046 814.293 585.224 813.395 584.818Z" fill="white"/>
<path d="M722.395 618.518C721.721 618.214 721.529 617.588 721.966 617.119C722.404 616.65 723.305 616.517 723.979 616.821C724.653 617.125 724.845 617.752 724.407 618.221C723.97 618.689 723.069 618.823 722.395 618.518Z" fill="white"/>
<path opacity="0.3" d="M703.525 578.653C702.626 578.247 702.371 577.412 702.954 576.787C703.537 576.162 704.739 575.984 705.638 576.389C706.537 576.795 706.793 577.63 706.209 578.256C705.626 578.881 704.424 579.058 703.525 578.653Z" fill="white"/>
<path opacity="0.3" d="M585.506 582.474C584.607 582.068 584.351 581.232 584.935 580.607C585.518 579.982 586.72 579.804 587.618 580.21C588.517 580.616 588.773 581.451 588.19 582.076C587.606 582.701 586.405 582.879 585.506 582.474Z" fill="white"/>
<path opacity="0.3" d="M679.633 626.553C678.734 626.148 678.478 625.312 679.061 624.687C679.645 624.062 680.846 623.884 681.745 624.29C682.644 624.696 682.9 625.531 682.317 626.156C681.733 626.781 680.532 626.959 679.633 626.553Z" fill="white"/>
<path opacity="0.3" d="M1137.62 846.88C1136.72 846.474 1136.46 845.638 1137.05 845.013C1137.63 844.388 1138.83 844.21 1139.73 844.616C1140.63 845.022 1140.89 845.857 1140.3 846.482C1139.72 847.107 1138.52 847.285 1137.62 846.88Z" fill="white"/>
<path opacity="0.3" d="M1232.56 845.505C1231.66 845.1 1231.41 844.264 1231.99 843.639C1232.57 843.014 1233.77 842.836 1234.67 843.242C1235.57 843.647 1235.83 844.483 1235.24 845.108C1234.66 845.733 1233.46 845.911 1232.56 845.505Z" fill="white"/>
<path opacity="0.11" d="M634.697 580.554C633.798 580.149 633.543 579.313 634.126 578.688C634.709 578.063 635.911 577.885 636.81 578.291C637.709 578.697 637.965 579.532 637.381 580.157C636.798 580.782 635.596 580.96 634.697 580.554Z" fill="white"/>
<path opacity="0.3" d="M1134.18 773.78C1133.28 773.374 1133.02 772.538 1133.6 771.913C1134.19 771.288 1135.39 771.11 1136.29 771.516C1137.19 771.922 1137.44 772.757 1136.86 773.382C1136.28 774.007 1135.07 774.185 1134.18 773.78Z" fill="white"/>
<path opacity="0.11" d="M1166.7 772.376C1165.8 771.97 1165.54 771.134 1166.13 770.509C1166.71 769.884 1167.91 769.706 1168.81 770.112C1169.71 770.518 1169.97 771.353 1169.38 771.978C1168.8 772.603 1167.6 772.781 1166.7 772.376Z" fill="white"/>
<path opacity="0.3" d="M1139.41 811.515C1138.51 811.11 1138.26 810.274 1138.84 809.649C1139.42 809.024 1140.63 808.846 1141.52 809.252C1142.42 809.657 1142.68 810.493 1142.1 811.118C1141.51 811.743 1140.31 811.921 1139.41 811.515Z" fill="white"/>
<path d="M1089.1 788.007C1088.43 787.703 1088.24 787.076 1088.67 786.608C1089.11 786.139 1090.01 786.006 1090.69 786.31C1091.36 786.614 1091.55 787.24 1091.11 787.709C1090.68 788.178 1089.78 788.311 1089.1 788.007Z" fill="white"/>
<path opacity="0.11" d="M432.287 616.781C431.388 616.375 431.132 615.539 431.716 614.914C432.299 614.289 433.501 614.111 434.4 614.517C435.299 614.923 435.554 615.758 434.971 616.383C434.388 617.008 433.186 617.186 432.287 616.781Z" fill="white"/>
<path d="M421.198 620.618C420.524 620.313 420.332 619.687 420.769 619.218C421.207 618.75 422.108 618.616 422.782 618.92C423.456 619.225 423.647 619.851 423.21 620.32C422.773 620.788 421.872 620.922 421.198 620.618Z" fill="white"/>
<path d="M405.432 596.626C404.758 596.322 404.566 595.695 405.004 595.227C405.441 594.758 406.342 594.625 407.016 594.929C407.69 595.233 407.882 595.859 407.444 596.328C407.007 596.797 406.106 596.93 405.432 596.626Z" fill="white"/>
<path d="M475.643 626.695C474.969 626.391 474.777 625.764 475.215 625.295C475.652 624.827 476.553 624.693 477.227 624.998C477.901 625.302 478.093 625.928 477.655 626.397C477.218 626.865 476.317 626.999 475.643 626.695Z" fill="white"/>
<path opacity="0.11" d="M503.244 658.443C502.345 658.037 502.089 657.201 502.673 656.576C503.256 655.951 504.458 655.773 505.357 656.179C506.256 656.585 506.511 657.42 505.928 658.045C505.345 658.67 504.143 658.848 503.244 658.443Z" fill="white"/>
<path d="M530.312 652.973C529.863 652.77 529.736 652.353 530.027 652.041C530.318 651.728 530.918 651.64 531.367 651.842C531.816 652.045 531.944 652.462 531.652 652.774C531.361 653.086 530.761 653.175 530.312 652.973Z" fill="white"/>
<path d="M414.15 639.944C413.701 639.741 413.574 639.324 413.865 639.012C414.156 638.7 414.756 638.611 415.205 638.813C415.654 639.016 415.781 639.433 415.49 639.745C415.199 640.057 414.599 640.146 414.15 639.944Z" fill="white"/>
<path d="M236.793 559.919C236.344 559.716 236.216 559.299 236.508 558.987C236.799 558.675 237.399 558.586 237.848 558.788C238.296 558.991 238.424 559.408 238.133 559.72C237.841 560.032 237.241 560.121 236.793 559.919Z" fill="white"/>
<path d="M176.634 489.358C176.186 489.156 176.058 488.738 176.349 488.426C176.641 488.114 177.241 488.025 177.689 488.228C178.138 488.43 178.266 488.847 177.974 489.159C177.683 489.472 177.083 489.561 176.634 489.358Z" fill="white"/>
<path d="M106.361 516.335C105.912 516.132 105.784 515.715 106.076 515.403C106.367 515.091 106.967 515.002 107.416 515.204C107.865 515.407 107.992 515.824 107.701 516.136C107.41 516.448 106.81 516.537 106.361 516.335Z" fill="white"/>
<path d="M698.25 748.044C697.801 747.841 697.673 747.424 697.965 747.112C698.256 746.8 698.856 746.711 699.305 746.913C699.753 747.116 699.881 747.533 699.59 747.845C699.298 748.157 698.698 748.246 698.25 748.044Z" fill="white"/>
<path opacity="0.11" d="M738.953 723.003C738.504 722.801 738.376 722.383 738.668 722.071C738.959 721.759 739.559 721.67 740.008 721.873C740.457 722.075 740.584 722.492 740.293 722.804C740.001 723.117 739.401 723.206 738.953 723.003Z" fill="white"/>
<path opacity="0.11" d="M761.789 751.798C761.34 751.596 761.212 751.178 761.504 750.866C761.795 750.554 762.395 750.465 762.844 750.668C763.292 750.87 763.42 751.287 763.129 751.6C762.837 751.912 762.237 752.001 761.789 751.798Z" fill="white"/>
<path opacity="0.11" d="M703.269 773.625C702.82 773.422 702.693 773.005 702.984 772.693C703.275 772.381 703.875 772.292 704.324 772.494C704.773 772.697 704.901 773.114 704.609 773.426C704.318 773.738 703.718 773.827 703.269 773.625Z" fill="white"/>
<path opacity="0.11" d="M530.777 663.629C530.328 663.427 530.2 663.01 530.492 662.697C530.783 662.385 531.383 662.296 531.832 662.499C532.281 662.701 532.408 663.119 532.117 663.431C531.826 663.743 531.226 663.832 530.777 663.629Z" fill="white"/>
<path opacity="0.11" d="M396.771 661.042C396.322 660.839 396.195 660.422 396.486 660.11C396.777 659.798 397.377 659.709 397.826 659.911C398.275 660.114 398.402 660.531 398.111 660.843C397.82 661.155 397.22 661.244 396.771 661.042Z" fill="white"/>
<path opacity="0.11" d="M245.849 584.903C245.4 584.701 245.273 584.284 245.564 583.971C245.855 583.659 246.456 583.57 246.904 583.773C247.353 583.975 247.481 584.393 247.189 584.705C246.898 585.017 246.298 585.106 245.849 584.903Z" fill="white"/>
<path opacity="0.3" d="M674.021 717.015C673.572 716.812 673.445 716.395 673.736 716.083C674.027 715.77 674.627 715.682 675.076 715.884C675.525 716.087 675.652 716.504 675.361 716.816C675.07 717.128 674.47 717.217 674.021 717.015Z" fill="white"/>
<path d="M515.425 602.038C514.977 601.836 514.849 601.419 515.14 601.107C515.432 600.794 516.032 600.705 516.48 600.908C516.929 601.11 517.057 601.528 516.765 601.84C516.474 602.152 515.874 602.241 515.425 602.038Z" fill="white"/>
<path d="M391.197 544.376C390.748 544.173 390.621 543.756 390.912 543.444C391.203 543.131 391.803 543.043 392.252 543.245C392.701 543.448 392.828 543.865 392.537 544.177C392.246 544.489 391.646 544.578 391.197 544.376Z" fill="white"/>
<path d="M522.173 679.043C521.725 678.841 521.597 678.424 521.888 678.111C522.18 677.799 522.78 677.71 523.228 677.913C523.677 678.115 523.805 678.533 523.513 678.845C523.222 679.157 522.622 679.246 522.173 679.043Z" fill="white"/>
<path opacity="0.3" d="M579.119 704.74C578.67 704.537 578.542 704.12 578.834 703.808C579.125 703.496 579.725 703.407 580.174 703.609C580.623 703.812 580.75 704.229 580.459 704.541C580.167 704.853 579.568 704.942 579.119 704.74Z" fill="white"/>
<path opacity="0.11" d="M678.55 699.767C678.102 699.564 677.974 699.147 678.265 698.835C678.557 698.523 679.157 698.434 679.605 698.637C680.054 698.839 680.182 699.256 679.89 699.568C679.599 699.881 678.999 699.969 678.55 699.767Z" fill="white"/>
<path opacity="0.3" d="M488.099 609.005C487.65 608.803 487.523 608.386 487.814 608.073C488.105 607.761 488.705 607.672 489.154 607.875C489.603 608.077 489.731 608.495 489.439 608.807C489.148 609.119 488.548 609.208 488.099 609.005Z" fill="white"/>
<path opacity="0.3" d="M498.304 683.549C497.856 683.347 497.728 682.929 498.019 682.617C498.311 682.305 498.911 682.216 499.359 682.419C499.808 682.621 499.936 683.038 499.644 683.351C499.353 683.663 498.753 683.752 498.304 683.549Z" fill="white"/>
<path opacity="0.3" d="M591.466 733.624C591.018 733.421 590.89 733.004 591.181 732.692C591.473 732.379 592.073 732.291 592.521 732.493C592.97 732.696 593.098 733.113 592.806 733.425C592.515 733.737 591.915 733.826 591.466 733.624Z" fill="white"/>
<path opacity="0.3" d="M650.425 706.371C649.977 706.169 649.849 705.752 650.14 705.44C650.432 705.127 651.032 705.038 651.48 705.241C651.929 705.444 652.057 705.861 651.765 706.173C651.474 706.485 650.874 706.574 650.425 706.371Z" fill="white"/>
<path opacity="0.3" d="M146.007 476.344C145.559 476.142 145.431 475.725 145.722 475.412C146.014 475.1 146.614 475.011 147.062 475.214C147.511 475.416 147.639 475.834 147.347 476.146C147.056 476.458 146.456 476.547 146.007 476.344Z" fill="white"/>
<path opacity="0.11" d="M298.628 512.252C298.18 512.049 298.052 511.632 298.343 511.32C298.635 511.008 299.235 510.919 299.684 511.121C300.132 511.324 300.26 511.741 299.969 512.053C299.677 512.365 299.077 512.454 298.628 512.252Z" fill="white"/>
<path opacity="0.11" d="M145.271 510.576C144.822 510.373 144.695 509.956 144.986 509.644C145.277 509.332 145.877 509.243 146.326 509.445C146.775 509.648 146.902 510.065 146.611 510.377C146.32 510.689 145.72 510.778 145.271 510.576Z" fill="white"/>
<path opacity="0.3" d="M346.34 608.545C345.441 608.139 345.185 607.303 345.768 606.678C346.352 606.053 347.553 605.875 348.452 606.281C349.351 606.687 349.607 607.522 349.024 608.147C348.44 608.772 347.239 608.95 346.34 608.545Z" fill="white"/>
<path opacity="0.11" d="M314.176 569.916C313.277 569.51 313.021 568.675 313.604 568.05C314.188 567.425 315.389 567.247 316.288 567.652C317.187 568.058 317.443 568.894 316.86 569.519C316.276 570.144 315.075 570.322 314.176 569.916Z" fill="white"/>
<path d="M333.055 550.301C332.381 549.997 332.189 549.37 332.627 548.901C333.064 548.433 333.965 548.299 334.639 548.603C335.313 548.908 335.505 549.534 335.067 550.003C334.63 550.471 333.729 550.605 333.055 550.301Z" fill="white"/>
<path d="M333.752 635.024C333.078 634.72 332.886 634.094 333.324 633.625C333.761 633.156 334.662 633.023 335.336 633.327C336.01 633.631 336.202 634.258 335.765 634.726C335.327 635.195 334.426 635.328 333.752 635.024Z" fill="white"/>
<path d="M53.1097 524.464C52.4357 524.16 52.2439 523.533 52.6813 523.064C53.1187 522.596 54.0197 522.462 54.6937 522.767C55.3677 523.071 55.5595 523.697 55.1221 524.166C54.6847 524.635 53.7837 524.768 53.1097 524.464Z" fill="white"/>
<path d="M590.065 753.09C589.391 752.786 589.199 752.159 589.636 751.69C590.074 751.222 590.975 751.088 591.649 751.393C592.323 751.697 592.515 752.323 592.077 752.792C591.64 753.26 590.739 753.394 590.065 753.09Z" fill="white"/>
<path d="M710.397 788.901C709.723 788.597 709.531 787.971 709.968 787.502C710.406 787.033 711.307 786.9 711.981 787.204C712.655 787.508 712.847 788.135 712.409 788.603C711.972 789.072 711.071 789.205 710.397 788.901Z" fill="white"/>
<path d="M745.344 772.516C744.67 772.211 744.478 771.585 744.916 771.116C745.353 770.648 746.254 770.514 746.928 770.818C747.602 771.123 747.794 771.749 747.356 772.218C746.919 772.686 746.018 772.82 745.344 772.516Z" fill="white"/>
<path d="M361.541 579.234C360.867 578.93 360.676 578.303 361.113 577.835C361.55 577.366 362.451 577.233 363.125 577.537C363.799 577.841 363.991 578.467 363.554 578.936C363.116 579.405 362.215 579.538 361.541 579.234Z" fill="white"/>
<path d="M464.032 684.966C463.358 684.662 463.166 684.036 463.603 683.567C464.041 683.098 464.942 682.965 465.616 683.269C466.29 683.573 466.481 684.2 466.044 684.668C465.607 685.137 464.706 685.27 464.032 684.966Z" fill="white"/>
<path d="M236.321 616.784C235.647 616.48 235.455 615.853 235.892 615.385C236.33 614.916 237.231 614.783 237.905 615.087C238.579 615.391 238.77 616.017 238.333 616.486C237.896 616.955 236.995 617.088 236.321 616.784Z" fill="white"/>
<path d="M56.6449 481.039C55.9709 480.735 55.7791 480.108 56.2165 479.639C56.6539 479.171 57.5548 479.037 58.2288 479.342C58.9029 479.646 59.0946 480.272 58.6572 480.741C58.2198 481.209 57.3189 481.343 56.6449 481.039Z" fill="white"/>
<path d="M66.1527 441.118C65.4787 440.814 65.2869 440.187 65.7243 439.719C66.1617 439.25 67.0626 439.117 67.7367 439.421C68.4107 439.725 68.6024 440.351 68.165 440.82C67.7276 441.289 66.8267 441.422 66.1527 441.118Z" fill="white"/>
<path opacity="0.3" d="M265.422 520.58C264.523 520.174 264.267 519.339 264.85 518.713C265.434 518.088 266.635 517.911 267.534 518.316C268.433 518.722 268.689 519.557 268.106 520.182C267.522 520.807 266.321 520.985 265.422 520.58Z" fill="white"/>
<path d="M302.9 480.42C302.001 480.014 301.746 479.179 302.329 478.553C302.912 477.928 304.114 477.751 305.013 478.156C305.912 478.562 306.168 479.397 305.584 480.022C305.001 480.647 303.799 480.825 302.9 480.42Z" fill="white"/>
<path d="M211.899 514.12C211.225 513.816 211.033 513.189 211.47 512.721C211.908 512.252 212.809 512.119 213.483 512.423C214.157 512.727 214.349 513.353 213.911 513.822C213.474 514.291 212.573 514.424 211.899 514.12Z" fill="white"/>
<path opacity="0.3" d="M193.033 474.255C192.134 473.849 191.878 473.014 192.462 472.389C193.045 471.764 194.247 471.586 195.146 471.992C196.045 472.397 196.301 473.233 195.717 473.858C195.134 474.483 193.932 474.661 193.033 474.255Z" fill="white"/>
<path opacity="0.3" d="M75.0098 478.075C74.1108 477.669 73.8551 476.834 74.4384 476.209C75.0218 475.584 76.2234 475.406 77.1224 475.812C78.0213 476.217 78.2771 477.053 77.6937 477.678C77.1103 478.303 75.9087 478.481 75.0098 478.075Z" fill="white"/>
<path opacity="0.3" d="M169.139 522.155C168.24 521.75 167.984 520.914 168.567 520.289C169.151 519.664 170.352 519.486 171.251 519.892C172.15 520.297 172.406 521.133 171.823 521.758C171.239 522.383 170.038 522.561 169.139 522.155Z" fill="white"/>
<path opacity="0.3" d="M627.125 742.481C626.226 742.076 625.97 741.24 626.554 740.615C627.137 739.99 628.339 739.812 629.238 740.218C630.136 740.623 630.392 741.459 629.809 742.084C629.226 742.709 628.024 742.887 627.125 742.481Z" fill="white"/>
<path opacity="0.3" d="M722.066 741.107C721.167 740.701 720.912 739.866 721.495 739.241C722.078 738.616 723.28 738.438 724.179 738.843C725.078 739.249 725.334 740.085 724.75 740.71C724.167 741.335 722.965 741.513 722.066 741.107Z" fill="white"/>
<path opacity="0.11" d="M124.203 476.156C123.304 475.75 123.048 474.915 123.632 474.29C124.215 473.665 125.417 473.487 126.316 473.892C127.215 474.298 127.47 475.134 126.887 475.759C126.304 476.384 125.102 476.562 124.203 476.156Z" fill="white"/>
<path opacity="0.3" d="M623.68 669.38C622.781 668.974 622.525 668.139 623.108 667.514C623.692 666.889 624.893 666.711 625.792 667.117C626.691 667.522 626.947 668.358 626.364 668.983C625.78 669.608 624.579 669.786 623.68 669.38Z" fill="white"/>
<path opacity="0.11" d="M656.203 667.978C655.304 667.573 655.048 666.737 655.632 666.112C656.215 665.487 657.417 665.309 658.316 665.715C659.215 666.12 659.47 666.956 658.887 667.581C658.304 668.206 657.102 668.384 656.203 667.978Z" fill="white"/>
<path opacity="0.3" d="M628.918 707.116C628.019 706.71 627.763 705.875 628.347 705.249C628.93 704.624 630.132 704.447 631.031 704.852C631.929 705.258 632.185 706.093 631.602 706.718C631.019 707.343 629.817 707.521 628.918 707.116Z" fill="white"/>
<path d="M578.61 683.608C577.936 683.304 577.744 682.677 578.181 682.209C578.619 681.74 579.52 681.607 580.194 681.911C580.868 682.215 581.059 682.842 580.622 683.31C580.185 683.779 579.284 683.912 578.61 683.608Z" fill="white"/>
</g>
</g>
</g>
<defs>
<radialGradient id="paint0_radial_22506_37081" cx="0" cy="0" r="1" gradientUnits="userSpaceOnUse" gradientTransform="translate(720 608.5) rotate(40.2025) scale(942.694 929.506)">
<stop stop-color="#0082A0"/>
<stop offset="0.7" stop-color="#001B31" stop-opacity="0"/>
</radialGradient>
<clipPath id="clip0_22506_37081">
<rect width="1440" height="1039" fill="white"/>
</clipPath>
<clipPath id="clip1_22506_37081">
<rect width="1440" height="1217" fill="white" transform="matrix(-1 0 0 1 1440 143)"/>
</clipPath>
</defs>
</svg>
