<svg width="106" height="54" viewBox="0 0 106 54" fill="none" xmlns="http://www.w3.org/2000/svg">
<g clip-path="url(#clip0_24024_156486)">
<path d="M8.98796 49.9419H85.9532L105.211 53.168L94.4463 39.8028V8.39778C94.4463 4.08536 90.9569 0.563 86.6116 0.563H8.98796C4.64262 0.563 1.12026 4.08536 1.12026 8.39778V42.1071C1.12026 46.4524 4.64262 49.9419 8.98796 49.9419Z" fill="#6B4E99"/>
<path d="M38.9279 14.9315V33.3145H36.2981V20.7145C36.2981 20.5102 36.3024 20.2889 36.3109 20.0506C36.3279 19.8038 36.3492 19.557 36.3747 19.3102L30.4641 30.2251C30.2343 30.6762 29.8811 30.9017 29.4045 30.9017H28.9832C28.4981 30.9017 28.1449 30.6762 27.9237 30.2251L21.9237 19.2847C21.9492 19.5315 21.9662 19.7783 21.9747 20.0251C21.9918 20.2719 22.0003 20.5017 22.0003 20.7145V33.3145H19.3705V14.9315H21.6045C21.8684 14.9315 22.0726 14.957 22.2173 15.0081C22.362 15.0506 22.4939 15.191 22.613 15.4293L28.5109 26.1145C28.6386 26.3613 28.7577 26.6166 28.8684 26.8804C28.9875 27.1357 29.0939 27.3996 29.1875 27.6719C29.2896 27.3996 29.396 27.1315 29.5066 26.8676C29.6258 26.5953 29.7492 26.3357 29.8769 26.0889L35.6854 15.4293C35.8045 15.191 35.9364 15.0506 36.0811 15.0081C36.2258 14.957 36.4301 14.9315 36.6939 14.9315H38.9279ZM54.05 20.2932L46.8755 37.0166C46.7819 37.2123 46.667 37.3655 46.5308 37.4762C46.4032 37.5868 46.2032 37.6421 45.9308 37.6421H43.9011L46.3011 32.4336L40.9904 20.2932H43.3777C43.6074 20.2932 43.7819 20.3485 43.9011 20.4591C44.0287 20.5613 44.1223 20.6847 44.1819 20.8293L47.284 28.2208C47.3606 28.4336 47.4287 28.6464 47.4883 28.8591C47.5564 29.0634 47.6202 29.2762 47.6798 29.4974C47.7479 29.2762 47.816 29.0591 47.884 28.8464C47.9521 28.6336 48.0287 28.4208 48.1138 28.2081L51.0883 20.8293C51.1479 20.6762 51.2457 20.5485 51.3819 20.4464C51.5266 20.3442 51.684 20.2932 51.8543 20.2932H54.05ZM60.0107 33.5187C58.9299 33.5187 58.0958 33.2166 57.5086 32.6123C56.9299 31.9996 56.6405 31.14 56.6405 30.0336V22.4506H55.2107C55.0575 22.4506 54.9256 22.4038 54.815 22.3102C54.7043 22.2081 54.649 22.0591 54.649 21.8634V20.7528L56.7554 20.4464L57.3554 16.6804C57.3979 16.5357 57.4703 16.4208 57.5724 16.3357C57.6745 16.2421 57.8107 16.1953 57.9809 16.1953H59.3852V20.4719H62.9979V22.4506H59.3852V29.8421C59.3852 30.3102 59.5001 30.6676 59.7299 30.9145C59.9596 31.1613 60.266 31.2847 60.649 31.2847C60.8618 31.2847 61.0447 31.2591 61.1979 31.2081C61.3511 31.1485 61.483 31.0889 61.5937 31.0293C61.7043 30.9613 61.7979 30.9017 61.8745 30.8506C61.9596 30.791 62.0405 30.7613 62.1171 30.7613C62.2703 30.7613 62.3937 30.8464 62.4873 31.0166L63.3043 32.357C62.8788 32.7315 62.3767 33.0208 61.7979 33.2251C61.2192 33.4208 60.6235 33.5187 60.0107 33.5187ZM67.9061 21.8379C68.4422 21.3102 69.0295 20.8889 69.6678 20.574C70.3061 20.2506 71.0507 20.0889 71.9018 20.0889C72.6167 20.0889 73.2422 20.2081 73.7784 20.4464C74.3231 20.6847 74.7784 21.0208 75.1443 21.4549C75.5188 21.8889 75.7997 22.4123 75.9869 23.0251C76.1741 23.6293 76.2678 24.2974 76.2678 25.0293V33.3145H73.5358V25.0293C73.5358 24.1528 73.3316 23.4719 72.9231 22.9868C72.5231 22.5017 71.9103 22.2591 71.0848 22.2591C70.472 22.2591 69.9018 22.3996 69.3741 22.6804C68.855 22.9613 68.3656 23.3442 67.9061 23.8293V33.3145H65.1614V14.4208H67.9061V21.8379Z" fill="#FEFEFE"/>
</g>
<defs>
<clipPath id="clip0_24024_156486">
<rect width="104.354" height="53" fill="white" transform="matrix(-1 0 0 -1 105.18 53.3652)"/>
</clipPath>
</defs>
</svg>
