<svg width="20" height="28" viewBox="0 0 20 28" fill="none" xmlns="http://www.w3.org/2000/svg">
<path d="M19.6224 27.9999H0.09375V0H14.7743L19.6224 4.78584V27.9999Z" fill="#EAEAEA"/>
<path d="M5.21953 17.8819C4.94971 17.8819 4.65817 17.7813 4.39635 17.4754C3.97333 16.9821 3.95618 16.4185 4.35005 15.928C4.70904 15.4815 5.41389 15.0774 6.44457 14.7275C6.84015 14.5932 7.27403 14.4691 7.73707 14.3588C8.02289 13.8403 8.299 13.2727 8.55681 12.6753C8.79576 12.122 9.0027 11.5795 9.17305 11.0644C8.50022 9.9354 8.00288 8.78353 8.01546 7.94606C8.02804 7.24351 8.41561 6.7919 9.0793 6.7073C9.6681 6.63241 10.1163 6.91824 10.3072 7.4916C10.5707 8.28505 10.3409 9.61928 9.92134 10.9701C10.2621 11.516 10.6311 12.0438 11.0269 12.5513C11.3756 13 11.7312 13.4185 12.0816 13.7957C13.7394 13.7626 14.8404 13.9958 15.3874 14.2896C15.9631 14.5978 16.1946 15.0831 16.0243 15.6216C15.8173 16.2738 15.3274 16.5871 14.6797 16.4791C13.8428 16.3419 12.7779 15.5033 11.8003 14.4914C11.1034 14.5188 10.4083 14.5818 9.71783 14.6801C9.1822 14.755 8.66771 14.8481 8.18638 14.955C7.50041 16.1607 6.7001 17.2371 5.9358 17.6687C5.71888 17.7991 5.47246 17.8724 5.21953 17.8819ZM7.24316 15.1951C6.07986 15.5296 5.21667 15.9429 4.88511 16.3556C4.6959 16.5911 4.70447 16.7792 4.91655 17.0267C5.04632 17.1776 5.21838 17.2879 5.59796 17.073C6.07071 16.8066 6.65551 16.1275 7.24316 15.1974V15.1951ZM12.7676 14.4869C13.5679 15.238 14.2933 15.7222 14.7906 15.8017C15.0507 15.8445 15.248 15.7942 15.3703 15.4112C15.404 15.3049 15.4669 15.1071 15.0639 14.891C14.61 14.6526 13.7891 14.5149 12.7676 14.4892V14.4869ZM9.64066 11.8001C9.49775 12.1934 9.34397 12.5793 9.18677 12.9434C9.01527 13.3436 8.82091 13.7557 8.61055 14.1685C8.93867 14.1061 9.27709 14.0507 9.62236 14.0021C10.1856 13.9232 10.7102 13.8674 11.1961 13.8346C10.9457 13.5488 10.7068 13.2567 10.485 12.9714C10.202 12.6096 9.91448 12.2128 9.64066 11.8024V11.8001ZM9.16619 7.38756C8.78833 7.43558 8.70887 7.64995 8.70144 7.95921C8.69229 8.46969 8.96611 9.25114 9.44458 10.1492C9.73041 9.06878 9.81444 8.1873 9.65552 7.7094C9.56806 7.4453 9.43086 7.35498 9.16562 7.38928L9.16619 7.38756Z" fill="#D9251C"/>
<path d="M14.7773 4.84815H19.6255L14.7773 0V4.84815Z" fill="#C9C9C9"/>
<path d="M0 21.9795H19.6247V28.0001H0V21.9795Z" fill="#D9251C"/>
<path d="M5.60938 23.2874H6.90988C7.57756 23.2874 8.03145 23.6635 8.03145 24.2592C8.03145 24.9451 7.51411 25.2555 6.89387 25.2555H6.28849V26.4297H5.60938V23.2874ZM6.28964 24.7165H6.80812C7.1231 24.7165 7.34547 24.5959 7.34547 24.2746C7.34547 23.9533 7.11052 23.8293 6.82241 23.8293H6.28849L6.28964 24.7165Z" fill="white"/>
<path d="M8.63281 23.2874H9.87901C10.7936 23.2874 11.3933 23.8904 11.3933 24.8199C11.3933 25.7346 10.8125 26.4314 9.84985 26.4314H8.63281V23.2874ZM9.3125 25.8821H9.82241C10.4249 25.8821 10.6913 25.4339 10.6913 24.8217C10.6913 24.3072 10.4421 23.8367 9.82642 23.8367H9.31193L9.3125 25.8821Z" fill="white"/>
<path d="M12.082 23.2874H14.2766V23.8447H12.7457V24.6147H14.1788V25.1721H12.7457V26.4297H12.082V23.2874Z" fill="white"/>
</svg>
