<svg width="16" height="17" viewBox="0 0 16 17" fill="none" xmlns="http://www.w3.org/2000/svg">
<path fill-rule="evenodd" clip-rule="evenodd" d="M9.5 4.83203C9.5 3.45132 10.6193 2.33203 12 2.33203C13.3807 2.33203 14.5 3.45132 14.5 4.83203C14.5 6.21274 13.3807 7.33203 12 7.33203C10.6193 7.33203 9.5 6.21274 9.5 4.83203Z" fill="#0082A0"/>
<path fill-rule="evenodd" clip-rule="evenodd" d="M1.5 8.5C1.5 7.11929 2.61929 6 4 6C5.38071 6 6.5 7.11929 6.5 8.5C6.5 9.88073 5.38071 11 4 11C2.61929 11 1.5 9.88073 1.5 8.5Z" fill="#0082A0"/>
<path fill-rule="evenodd" clip-rule="evenodd" d="M9.5 12.168C9.5 10.7872 10.6193 9.66797 12 9.66797C13.3807 9.66797 14.5 10.7872 14.5 12.168C14.5 13.5487 13.3807 14.668 12 14.668C10.6193 14.668 9.5 13.5487 9.5 12.168Z" fill="#0082A0"/>
<path fill-rule="evenodd" clip-rule="evenodd" d="M10.4311 6.27315L6.09773 8.2728L5.53906 7.06214L9.8724 5.0625L10.4311 6.27315ZM6.09773 8.72913L10.4311 10.7288L9.8724 11.9395L5.53906 9.9398L6.09773 8.72913Z" fill="#0082A0"/>
</svg>
