<svg width="170" height="32" viewBox="0 0 170 32" fill="none" xmlns="http://www.w3.org/2000/svg">
<path d="M65.0566 27.8937C65.0566 28.0868 65.0875 28.2491 65.157 28.3882C65.2266 28.5273 65.3193 28.6355 65.4275 28.7282C65.5434 28.8055 65.6748 28.875 65.8216 28.9214C65.9684 28.9755 66.1307 28.9987 66.3007 28.9987C66.3084 28.9987 66.3239 28.9987 66.3393 28.9987C66.3548 28.9987 66.3702 28.9987 66.3857 28.9987C66.6484 28.9909 66.888 28.9291 67.1043 28.8132C67.3207 28.6973 67.4289 28.4964 67.4289 28.2028C67.4289 27.94 67.2743 27.7546 66.9575 27.6309C66.6407 27.515 66.2698 27.4068 65.8216 27.3141C65.6361 27.2832 65.4584 27.2446 65.2652 27.2137C65.0798 27.1828 64.8866 27.1364 64.6934 27.09C63.998 26.92 63.372 26.6496 62.8002 26.2864C62.2284 25.9232 61.9502 25.3128 61.9502 24.4473C61.9502 23.5046 62.2825 22.8168 62.9548 22.3841C63.627 21.9514 64.3611 21.6809 65.157 21.565C65.327 21.5418 65.497 21.5264 65.667 21.5109C65.837 21.4955 66.007 21.4955 66.177 21.4955C66.3161 21.4955 66.4552 21.4955 66.5943 21.5032C66.7334 21.5109 66.8725 21.5187 67.0116 21.5264C67.8616 21.5959 68.6575 21.82 69.3839 22.1987C70.1102 22.5773 70.5198 23.2805 70.6125 24.3082H67.3902C67.3825 24.1691 67.3439 24.0455 67.282 23.945C67.2202 23.8446 67.143 23.7518 67.0502 23.6668C66.9575 23.5896 66.8493 23.5278 66.7257 23.4891C66.602 23.4582 66.4707 23.435 66.3316 23.435C66.0225 23.435 65.783 23.4814 65.5975 23.5818C65.412 23.6823 65.327 23.8368 65.327 24.0687C65.327 24.2773 65.4661 24.4318 65.7443 24.5478C66.0225 24.6637 66.3702 24.7641 66.7798 24.8568C66.9961 24.9032 67.2202 24.9496 67.452 25.0037C67.6839 25.0578 67.9234 25.1118 68.163 25.1659C68.8661 25.3514 69.5152 25.6296 70.0948 26.0005C70.6743 26.3714 70.9757 26.9818 70.9757 27.8241C70.9757 28.7591 70.5816 29.5087 69.8011 30.0728C69.013 30.6446 67.8075 30.9228 66.1693 30.9228C66.0766 30.9228 65.9839 30.9228 65.8989 30.9228C65.8061 30.9228 65.7134 30.915 65.6052 30.9073C64.6702 30.8532 63.8125 30.6059 63.0166 30.1809C62.2207 29.7559 61.7802 28.9909 61.6875 27.8937H65.0566Z" fill="#059BB6"/>
<path d="M72.3047 21.735H75.5579V23.0641C75.6042 23.01 75.6583 22.9482 75.7124 22.8787C75.7665 22.8091 75.8283 22.7396 75.8979 22.6546C76.1683 22.3687 76.5238 22.1059 76.9642 21.8587C77.4047 21.6114 77.8761 21.4955 78.3861 21.4955C79.1897 21.4955 79.8233 21.65 80.287 21.9591C80.7506 22.2682 81.0829 22.6623 81.2992 23.1337C81.6856 22.6005 82.1338 22.1909 82.6361 21.9128C83.1383 21.6346 83.7256 21.4955 84.3824 21.4955C85.6883 21.4955 86.5847 21.8432 87.0792 22.5387C87.5661 23.2341 87.8133 24.1846 87.8133 25.4055V30.6755H84.2665V26.1241C84.2665 25.475 84.1815 25.0114 84.0192 24.7255C83.857 24.4396 83.5401 24.3005 83.0765 24.3005C82.5511 24.3005 82.2188 24.4937 82.0642 24.8878C81.9097 25.2818 81.8324 25.7455 81.8324 26.2787V30.6755H78.2856V26.1241C78.2856 25.475 78.2006 25.0114 78.0383 24.7255C77.8761 24.4396 77.5592 24.3005 77.0956 24.3005C76.5701 24.3005 76.2379 24.4937 76.0833 24.8878C75.9288 25.2818 75.8515 25.7455 75.8515 26.2787V30.6755H72.3047V21.735Z" fill="#059BB6"/>
<path d="M95.7335 30.6678L95.5635 29.7096C95.0612 30.1887 94.5435 30.5055 94.0103 30.6755C93.4771 30.8378 92.8744 30.9228 92.2021 30.9228C91.3598 30.9228 90.618 30.7064 89.9767 30.2814C89.3353 29.8564 89.0107 29.1764 89.0107 28.2414C89.0107 27.2291 89.343 26.5337 90.0076 26.1628C90.6721 25.7918 91.4062 25.5291 92.2021 25.3978C92.3953 25.3746 92.5885 25.3514 92.7894 25.3205C92.9903 25.2896 93.1835 25.2664 93.3766 25.2432C93.933 25.1737 94.4044 25.0887 94.7907 24.9805C95.1771 24.8723 95.3703 24.6637 95.3703 24.3623C95.3703 24.1459 95.3007 23.9837 95.1539 23.8832C95.0148 23.7828 94.8526 23.7132 94.6826 23.6823C94.5898 23.6591 94.5048 23.6437 94.4276 23.6359C94.3503 23.6282 94.273 23.6282 94.2035 23.6282C94.1494 23.6282 94.0876 23.6282 94.0335 23.6359C93.9794 23.6437 93.9176 23.6437 93.848 23.6437C93.6471 23.6746 93.4539 23.7518 93.2762 23.8755C93.0985 23.9914 92.998 24.2 92.9594 24.4937H89.5516C89.5516 23.5587 89.9226 22.8246 90.6721 22.2914C91.4216 21.7582 92.6735 21.4955 94.4353 21.4955C96.5526 21.4955 97.8276 21.8432 98.268 22.5464C98.7085 23.2418 98.9248 24.1305 98.9248 25.1968V29.3541C98.9248 29.5396 98.9326 29.6864 98.948 29.8178C98.9635 29.9414 99.0098 30.065 99.0794 30.1732C99.1103 30.2273 99.1566 30.2891 99.2185 30.3432C99.2726 30.3973 99.3344 30.4591 99.4039 30.5132V30.6678H95.7335ZM95.0303 28.3805C95.2776 28.025 95.3935 27.5691 95.3935 27.0282C95.3935 27.005 95.3935 26.9818 95.3935 26.9587C95.3935 26.9355 95.3935 26.9123 95.3935 26.8891C95.3857 26.8659 95.378 26.8428 95.378 26.8118C95.378 26.7809 95.378 26.7578 95.378 26.7346C95.2621 26.7887 95.1462 26.8428 95.0303 26.8814C94.9144 26.92 94.7907 26.9587 94.6671 26.9896C94.5667 27.0128 94.4585 27.0359 94.3503 27.0591C94.2421 27.0823 94.1339 27.1055 94.0335 27.1287C93.6703 27.2059 93.3535 27.3141 93.0907 27.4455C92.8203 27.5768 92.6889 27.8241 92.6889 28.1873C92.6889 28.4037 92.7894 28.5814 92.9903 28.7128C93.1912 28.8441 93.4617 28.9137 93.8171 28.9137C94.3735 28.9137 94.783 28.7359 95.0303 28.3805Z" fill="#059BB6"/>
<path d="M100.85 21.735H104.072V23.5432H104.103C104.35 22.8478 104.698 22.3378 105.146 21.9978C105.586 21.6655 106.158 21.4955 106.854 21.4955C106.908 21.4955 106.962 21.4955 107.016 21.5032C107.07 21.5109 107.116 21.5187 107.163 21.5264C107.186 21.5264 107.209 21.5264 107.24 21.5341C107.271 21.5418 107.294 21.5418 107.317 21.5418V25.0732C107.286 25.0732 107.24 25.0732 107.201 25.0655C107.155 25.0578 107.116 25.0578 107.086 25.0578C107.062 25.05 107.039 25.0423 107.016 25.0423C106.993 25.0423 106.977 25.0346 106.962 25.0268C106.892 25.0191 106.831 25.0037 106.769 25.0037C106.707 24.9959 106.645 24.9959 106.591 24.9959C105.865 24.9959 105.316 25.1891 104.953 25.5755C104.59 25.9618 104.404 26.6418 104.404 27.6078V30.6755H100.857V21.735H100.85Z" fill="#059BB6"/>
<path d="M108.059 18.3892H119.317V21.6114H115.701V30.6678H111.675V21.6114H108.059V18.3892Z" fill="#FEFEFE"/>
<path d="M121.442 30.6601L124 18.4819H128.366L128.946 27.1597H128.976L133.172 18.4819H137.546L135.004 30.6601H132.006L134.285 20.9933H134.254L129.448 30.6601H127.006L126.287 20.9933H126.256L124.448 30.6601H121.442Z" fill="#F89822"/>
<path d="M137.237 30.6601L139.78 18.4819H148.836L148.272 21.2097H142.391L141.912 23.5124H146.974L146.464 25.9697H141.402L140.413 30.6601H137.237Z" fill="#F89822"/>
<path d="M147.677 30.6601L150.25 18.4819H154.824C156.494 18.4819 157.792 18.8683 158.711 19.641C159.731 20.5142 160.249 21.8433 160.249 23.6283C160.249 25.6374 159.662 27.2833 158.495 28.5583C157.212 29.9569 155.419 30.6524 153.124 30.6524H147.677V30.6601ZM152.839 21.2097L151.424 27.9324H153.519C154.747 27.9324 155.674 27.4533 156.316 26.5028C156.818 25.761 157.065 24.8956 157.065 23.891C157.065 22.106 156.262 21.2174 154.662 21.2174H152.839V21.2097Z" fill="#F89822"/>
<path d="M92.6736 9.2942C94.1959 8.75329 95.0459 7.54011 95.0459 5.8942V5.83238C95.0459 4.80465 94.6827 3.89284 94.0723 3.28238C93.3459 2.4942 92.2486 2.12329 90.85 2.12329H85.75V13.2351H88.0527V9.59556H90.1777L92.6041 13.2351H92.6118V13.3587H95.2855L92.55 9.34829L92.6736 9.2942ZM90.6723 7.58647H88.0605L88.0682 4.13238H90.6182C91.955 4.13238 92.6814 4.74284 92.6814 5.83238V5.88647C92.6736 6.9142 91.8855 7.58647 90.6723 7.58647Z" fill="#FEFEFE"/>
<path d="M102.572 1.93787C99.2339 1.93787 96.6221 4.48787 96.6221 7.70241V7.76423C96.6221 10.9865 99.1798 13.4747 102.572 13.4747C105.91 13.4747 108.522 10.917 108.46 7.70241C108.468 4.43378 105.972 1.93787 102.572 1.93787ZM106.042 7.64832C106.042 9.7115 104.589 11.2879 102.58 11.2879C100.578 11.2879 99.0562 9.7115 99.0562 7.64832C99.0562 5.58514 100.571 4.00877 102.58 4.00877C104.519 4.00877 106.103 5.64696 106.042 7.5865V7.64832Z" fill="#FEFEFE"/>
<path d="M118.606 7.5942L118.421 7.53238L118.606 7.40875C119.58 6.86011 120.067 6.07193 120.067 5.03647V4.98238C120.067 4.1942 119.827 3.58375 119.341 3.09693C118.676 2.48647 117.702 2.12329 116.427 2.12329H111.266V13.2351H111.258V13.3587H116.543C119.155 13.3587 120.677 12.2692 120.677 10.3219C120.67 8.93102 120.059 8.14284 118.606 7.5942ZM113.514 4.06284H116.064C117.154 4.06284 117.764 4.54965 117.764 5.33784V5.39965C117.764 5.94829 117.455 6.67465 115.879 6.67465H113.514V4.06284ZM118.421 9.89693C118.421 10.5074 118.058 11.2337 116.536 11.2337H113.499V8.49829H116.474C118.112 8.49829 118.413 9.22465 118.413 9.83511V9.89693H118.421Z" fill="#FEFEFE"/>
<path d="M123.892 13.2428H132.276V11.2337H126.202V8.67598H132.276V6.61279H123.892V13.2428Z" fill="#FEFEFE"/>
<path d="M141.208 11.2956C139.269 11.2956 137.808 9.71921 137.808 7.65602C137.808 5.59284 139.269 4.01648 141.208 4.01648C142.236 4.01648 143.148 4.37966 144.121 5.22966L145.582 3.52966C144.361 2.37057 143.024 1.89148 141.208 1.89148C137.87 1.89148 135.374 4.37966 135.374 7.66375V7.72557C135.374 11.0019 137.808 13.4978 141.084 13.4978C142.97 13.4978 144.307 12.8874 145.644 11.4888L144.183 10.0283C143.271 10.8088 142.483 11.2956 141.208 11.2956Z" fill="#FEFEFE"/>
<path d="M153.657 1.93787C150.319 1.93787 147.707 4.48787 147.707 7.70241V7.76423C147.707 10.9865 150.195 13.4747 153.595 13.4747C156.933 13.4747 159.545 10.917 159.615 7.70241C159.615 4.43378 157.057 1.93787 153.657 1.93787ZM157.119 7.64832C157.119 9.7115 155.658 11.2879 153.657 11.2879C151.717 11.2879 150.133 9.7115 150.133 7.64832C150.133 5.58514 151.594 4.00877 153.595 4.00877C155.535 4.00877 157.119 5.64696 157.119 7.5865V7.64832Z" fill="#FEFEFE"/>
<path d="M132.276 2.12329H123.892V4.18647H132.276V2.12329Z" fill="#0B9BB6"/>
<path d="M12.3253 11.2955C10.3858 11.2955 8.9253 9.71917 8.9253 7.65599V7.58644C8.9253 5.52326 10.4398 3.9469 12.3253 3.9469C13.353 3.9469 14.2648 4.31008 15.2385 5.16008L16.6989 3.46008C15.478 2.30099 14.1412 1.8219 12.3253 1.8219C8.98712 1.8219 6.49121 4.31008 6.49121 7.59417V7.65599C6.49121 10.8783 8.9253 13.3664 12.2017 13.3664C14.0871 13.3664 15.4239 12.8178 16.7608 11.481L15.3003 10.0205C14.3885 10.8087 13.6003 11.2955 12.3253 11.2955Z" fill="#0B9BB6"/>
<path d="M22.7644 1.93787L17.958 13.1733H20.3303L21.3657 10.6233H26.288L27.3235 13.1733H29.7498L24.9512 1.93787H22.7644ZM22.2157 8.62196L23.8539 4.6115L25.4921 8.62196H22.2157Z" fill="#0B9BB6"/>
<path d="M39.3479 9.16282L33.8847 1.99963H31.752V13.1733H34.0006V5.76282L39.6492 13.1733H41.6583V1.99963H39.3479V9.16282Z" fill="#0B9BB6"/>
<path d="M48.3885 1.93787L43.5898 13.1733H45.9621L46.9976 10.6233H51.9198L52.9553 13.1733H55.3739L50.5753 1.93787H48.3885ZM47.7858 8.62196L49.4239 4.6115L51.0621 8.62196H47.7858Z" fill="#0B9BB6"/>
<path d="M63.5877 9.10869C65.11 8.56778 65.96 7.3546 65.96 5.70869V5.64687C65.96 4.61914 65.5968 3.70732 64.9863 3.09687C64.26 2.37051 63.1627 2.00732 61.7641 2.00732H56.6641V13.181H58.9668V9.54141H61.0918L63.5181 13.181L66.1918 13.1887L63.4563 9.17823L63.5877 9.10869ZM61.6404 7.53232H59.0286L59.0363 4.07051H61.5863C62.9231 4.07051 63.6495 4.68096 63.6495 5.77051V5.83232C63.6418 6.86005 62.8536 7.53232 61.6404 7.53232Z" fill="#0B9BB6"/>
<path d="M72.2576 1.93787L67.459 13.1733H69.8313L70.8667 10.6233H75.789L76.8244 13.1733H79.2431L74.4444 1.93787H72.2576ZM71.6626 8.62196L73.3008 4.6115L74.939 8.62196H71.6626Z" fill="#0B9BB6"/>
<path d="M107.24 17.91H107.186V17.9178H107.24V17.91Z" fill="#0B9BB6"/>
<path d="M116.844 17.91H116.79V17.9178H116.844V17.91Z" fill="#0B9BB6"/>
<path d="M141.07 17.91H141.016V17.9178H141.07V17.91Z" fill="#0B9BB6"/>
</svg>
