<svg width="209" height="55" viewBox="0 0 209 55" fill="none" xmlns="http://www.w3.org/2000/svg">
<path fill-rule="evenodd" clip-rule="evenodd" d="M109.992 15.3523H113.207C114.72 15.3523 115.665 14.5014 115.665 13.2723C115.665 11.9487 114.72 11.1923 113.112 11.1923H109.898V15.3523H109.992ZM115.571 22.3487L112.545 17.8105H109.898V22.3487H107.062V8.54506H113.396C115.098 8.54506 116.516 9.01779 117.367 9.96324C118.123 10.7196 118.502 11.8542 118.502 13.0832V13.1778C118.502 15.2578 117.462 16.676 115.571 17.4323H115.382L118.785 22.3487H115.571Z" fill="#FEFEFE"/>
<path fill-rule="evenodd" clip-rule="evenodd" d="M127.956 10.9087C125.497 10.9087 123.607 12.7996 123.607 15.3523C123.607 17.905 125.497 19.8905 127.956 19.8905C130.414 19.8905 132.305 17.9996 132.305 15.4469C132.305 12.8941 130.414 10.9087 127.956 10.9087ZM127.956 22.6323C123.796 22.6323 120.581 19.6069 120.581 15.5414C120.581 11.5705 123.796 8.35596 127.956 8.35596C132.116 8.35596 135.33 11.3814 135.33 15.4469C135.33 19.5123 132.021 22.6323 127.956 22.6323Z" fill="#FEFEFE"/>
<path fill-rule="evenodd" clip-rule="evenodd" d="M141.476 14.2178H144.407C146.298 14.2178 146.771 13.3669 146.771 12.6105C146.771 11.6651 146.014 11.0978 144.596 11.0978H141.476V14.2178ZM141.476 19.8905H145.258C147.149 19.8905 147.527 19.0396 147.527 18.2832C147.527 17.5269 147.149 16.676 145.163 16.676H141.476V19.8905ZM138.64 22.3487V8.54506H145.069C146.581 8.54506 147.811 8.92324 148.661 9.77415C149.323 10.436 149.607 11.1923 149.607 12.0432C149.607 13.3669 149.04 14.3123 147.811 14.9741L147.621 15.0687L147.811 15.1632C149.607 15.8251 150.363 16.8651 150.363 18.4723C150.363 20.836 148.472 22.2541 145.258 22.2541H138.64V22.3487Z" fill="#FEFEFE"/>
<path fill-rule="evenodd" clip-rule="evenodd" d="M154.334 22.3487V14.1232H164.639V16.676H157.17V19.796H164.639V22.3487H154.334Z" fill="#FEFEFE"/>
<path fill-rule="evenodd" clip-rule="evenodd" d="M175.607 22.6323C171.541 22.6323 168.516 19.6069 168.516 15.5414V15.4469C168.516 11.3814 171.636 8.26141 175.701 8.26141C177.97 8.26141 179.577 8.82869 181.09 10.3414L179.294 12.4214C178.065 11.3814 177.025 10.9087 175.701 10.9087C173.337 10.9087 171.541 12.7996 171.541 15.3523C171.541 17.9051 173.337 19.8905 175.701 19.8905C177.308 19.8905 178.254 19.3232 179.388 18.2832L181.185 20.0796C179.577 21.876 177.97 22.6323 175.607 22.6323Z" fill="#FEFEFE"/>
<path fill-rule="evenodd" clip-rule="evenodd" d="M191.017 10.9087C188.559 10.9087 186.668 12.7996 186.668 15.3523C186.668 17.905 188.559 19.8905 191.017 19.8905C193.475 19.8905 195.366 17.9996 195.366 15.4469C195.366 12.8941 193.475 10.9087 191.017 10.9087ZM191.017 22.6323C186.857 22.6323 183.737 19.6069 183.737 15.5414C183.737 11.5705 186.952 8.35596 191.112 8.35596C195.272 8.35596 198.486 11.3814 198.486 15.4469C198.392 19.5123 195.177 22.6323 191.017 22.6323Z" fill="#FEFEFE"/>
<path d="M164.639 8.54506H154.334V11.0978H164.639V8.54506Z" fill="#0099B5"/>
<path fill-rule="evenodd" clip-rule="evenodd" d="M16.2032 22.4432C12.1378 22.4432 9.1123 19.4178 9.1123 15.3523C9.1123 11.2869 12.2323 8.16687 16.2978 8.16687C18.5669 8.16687 20.1741 8.73414 21.6869 10.2469L19.8905 12.3269C18.6614 11.2869 17.6214 10.8141 16.2978 10.8141C13.9341 10.8141 12.1378 12.7996 12.1378 15.2578C12.1378 17.8105 13.9341 19.796 16.2978 19.796C17.905 19.796 18.8505 19.2287 19.985 18.1887L21.7814 19.9851C20.1741 21.7814 18.5668 22.4432 16.2032 22.4432Z" fill="#0099B5"/>
<path fill-rule="evenodd" clip-rule="evenodd" d="M28.5887 16.5814H32.6541L30.6687 11.665L28.5887 16.5814ZM34.9232 22.2541L33.5996 19.1341H27.5487L26.225 22.2541H23.3887L29.345 8.35596H32.0869L37.9487 22.2541C37.8541 22.2541 34.9232 22.2541 34.9232 22.2541Z" fill="#0099B5"/>
<path fill-rule="evenodd" clip-rule="evenodd" d="M50.1452 22.2541L43.1489 13.0832V22.2541H40.3125V8.4505H43.0543L49.767 17.3378V8.4505H52.6034V22.2541H50.1452Z" fill="#0099B5"/>
<path fill-rule="evenodd" clip-rule="evenodd" d="M60.2615 16.5814H64.327L62.3415 11.665L60.2615 16.5814ZM66.5961 22.2541L65.2724 19.1341H59.2215L57.9924 22.2541H55.0615L60.9233 8.35596H63.6652L69.6215 22.2541C69.527 22.2541 66.5961 22.2541 66.5961 22.2541Z" fill="#0099B5"/>
<path fill-rule="evenodd" clip-rule="evenodd" d="M74.0647 15.2578H77.2792C78.792 15.2578 79.7374 14.4069 79.7374 13.1778C79.7374 11.8541 78.792 11.0978 77.1847 11.0978H73.9702L74.0647 15.2578ZM79.6429 22.2541L76.6174 17.716H73.9702V22.2541H71.1338V8.4505H77.4683C79.1701 8.4505 80.5883 8.92323 81.4392 9.86868C82.1956 10.625 82.5738 11.665 82.5738 12.9887C82.5738 14.9741 81.5338 16.4869 79.6429 17.2432H79.5483L82.952 22.1596H79.6429V22.2541Z" fill="#0099B5"/>
<path fill-rule="evenodd" clip-rule="evenodd" d="M89.7594 16.5814H93.8248L91.7448 11.665L89.7594 16.5814ZM96.0939 22.2541L94.7703 19.1341H88.7194L87.3958 22.2541H84.4648L90.4212 8.35596H93.0685L98.9303 22.2541C99.0248 22.2541 96.0939 22.2541 96.0939 22.2541Z" fill="#0099B5"/>
<path d="M104.414 43.3378C104.414 43.716 104.509 43.9996 104.793 44.1887C105.076 44.3778 105.36 44.4723 105.643 44.4723C105.927 44.4723 106.211 44.3778 106.494 44.2832C106.683 44.1887 106.778 43.9051 106.778 43.6214C106.778 43.3378 106.589 43.1487 106.305 43.0541C106.022 42.9596 105.549 42.7705 104.887 42.676C104.32 42.5814 103.847 42.4869 103.469 42.3923C103.091 42.2978 102.713 42.1087 102.334 41.9196C101.956 41.7305 101.673 41.4469 101.483 41.0687C101.294 40.6905 101.2 40.3123 101.2 39.8396C101.2 39.2723 101.294 38.7996 101.578 38.4214C101.862 38.0432 102.145 37.7596 102.618 37.476C102.996 37.2869 103.469 37.0978 104.036 37.0032C104.603 36.9087 105.076 36.8141 105.549 36.8141C106.116 36.8141 106.589 36.8141 107.156 36.9087C107.723 37.0032 108.102 37.0978 108.574 37.3814C109.047 37.5705 109.331 37.8541 109.614 38.2323C109.898 38.6105 110.087 39.0832 110.087 39.6505H106.778C106.778 39.3669 106.589 39.1778 106.4 38.9887C106.211 38.7996 105.927 38.7996 105.643 38.7996C105.36 38.7996 105.076 38.8941 104.887 38.9887C104.698 39.0832 104.603 39.2723 104.603 39.4614C104.603 39.6505 104.793 39.8396 105.076 39.9341C105.36 40.0287 105.833 40.1232 106.494 40.3123C107.062 40.4069 107.534 40.596 108.007 40.6905C108.385 40.7851 108.763 40.9741 109.142 41.1632C109.52 41.3523 109.803 41.636 110.087 42.0141C110.276 42.3923 110.465 42.7705 110.465 43.2432C110.465 44.1887 110.087 45.0396 109.236 45.5123C108.385 45.9851 107.156 46.3632 105.549 46.3632C104.982 46.3632 104.414 46.2687 103.942 46.1741C103.469 46.0796 102.996 45.8905 102.523 45.7014C102.051 45.5123 101.767 45.1341 101.483 44.756C101.2 44.3778 101.011 43.9051 101.011 43.2432H104.414V43.3378Z" fill="#0099B5"/>
<path d="M111.694 37.1923H115.003V38.516C115.287 38.1378 115.665 37.7596 116.232 37.3814C116.799 37.0032 117.272 36.9087 117.934 36.9087C118.69 36.9087 119.352 37.0978 119.825 37.3814C120.298 37.6651 120.676 38.0432 120.865 38.6105C121.621 37.476 122.661 36.9087 123.985 36.9087C125.214 36.9087 126.159 37.2869 126.632 37.9487C127.199 38.6105 127.389 39.556 127.389 40.8796V46.2687H123.796V41.636C123.796 40.9741 123.701 40.5014 123.512 40.2178C123.323 39.9341 123.039 39.8396 122.567 39.8396C122.094 39.8396 121.716 40.0287 121.527 40.4069C121.338 40.7851 121.243 41.2578 121.243 41.9196V46.3632H117.65V41.7305C117.65 41.0687 117.556 40.596 117.367 40.3123C117.178 40.0287 116.894 39.9341 116.421 39.9341C115.949 39.9341 115.57 40.1232 115.381 40.5014C115.192 40.8796 115.098 41.3523 115.098 42.0141V46.4578H111.505V37.1923H111.694Z" fill="#0099B5"/>
<path d="M135.425 46.1741L135.236 45.2287C134.764 45.7014 134.196 45.9851 133.724 46.1741C133.156 46.3632 132.589 46.4578 131.833 46.4578C130.887 46.4578 130.131 46.2687 129.564 45.796C128.902 45.3232 128.618 44.6614 128.618 43.8105C128.618 43.2432 128.713 42.7705 128.996 42.3923C129.28 42.0141 129.564 41.7305 130.036 41.5414C130.415 41.3523 130.887 41.1632 131.265 41.0687C131.738 40.9742 132.211 40.8796 132.873 40.7851C133.629 40.6905 134.196 40.596 134.575 40.5014C134.953 40.4069 135.047 40.2178 135.047 39.9341C135.047 39.6505 134.953 39.4614 134.669 39.3669C134.385 39.2723 134.196 39.1778 133.913 39.1778C133.629 39.1778 133.345 39.2723 133.062 39.3669C132.778 39.4614 132.684 39.7451 132.684 40.0287H129.185C129.185 39.0832 129.564 38.3269 130.32 37.7596C131.076 37.2869 132.4 37.0032 134.102 37.0032C135.142 37.0032 135.993 37.0978 136.56 37.2869C137.222 37.476 137.6 37.7596 137.884 38.0432C138.167 38.3269 138.356 38.7051 138.451 39.1778C138.545 39.556 138.545 40.1232 138.545 40.7851V45.0396C138.545 45.3232 138.545 45.5123 138.64 45.7014C138.735 45.8905 138.829 45.9851 139.018 46.1741V46.3632H135.425V46.1741ZM134.764 43.9051C135.047 43.5269 135.142 43.0542 135.142 42.4869V42.2978C135.142 42.2978 135.142 42.2032 135.142 42.1087C134.858 42.2032 134.48 42.3923 133.913 42.4869C133.44 42.5814 133.062 42.7705 132.778 42.8651C132.589 42.9596 132.4 43.2432 132.4 43.6214C132.4 43.8105 132.495 43.9996 132.684 44.1887C132.873 44.3778 133.156 44.3778 133.535 44.3778C134.102 44.3778 134.48 44.2832 134.764 43.9051Z" fill="#0099B5"/>
<path d="M140.625 37.1923H143.934V38.9887C144.407 37.5705 145.352 36.9087 146.676 36.9087C146.77 36.9087 146.865 36.9087 146.96 36.9087H147.149V40.5014C147.149 40.5014 147.054 40.5014 146.865 40.5014C146.676 40.5014 146.487 40.4069 146.392 40.4069C145.636 40.4069 145.069 40.596 144.69 40.9741C144.312 41.3523 144.123 42.0141 144.123 43.0541V46.1741H140.625V37.1923Z" fill="#0099B5"/>
<path d="M147.905 33.7887H159.345V37.0978H155.658V46.2687H151.593V37.0978H147.905V33.7887Z" fill="#FEFEFE"/>
<path d="M164.072 33.8832H167.287L165.301 43.4323H171.069L170.501 46.1741H161.52L164.072 33.8832Z" fill="#F7961D"/>
<path d="M173.621 37.1923H176.552L174.661 46.1741H171.73L173.621 37.1923ZM176.741 36.0578H173.81L174.283 33.7887H177.214L176.741 36.0578Z" fill="#F7961D"/>
<path d="M178.727 37.1923H181.658L181.374 38.3269C181.847 37.7596 182.887 37.0032 184.494 37.0032C186.102 37.0032 187.047 37.9487 187.047 39.556C187.047 40.1232 186.858 41.0687 186.763 41.4469L185.723 46.1741H182.792L183.832 41.4469C183.927 41.0687 184.022 40.6905 184.022 40.3123C184.022 39.556 183.549 39.1778 182.982 39.1778C181.185 39.1778 180.996 40.8796 180.618 42.3923L179.862 46.1741H176.931L178.727 37.1923Z" fill="#F7961D"/>
<path d="M190.356 33.8832H193.287L191.964 40.3123L194.989 37.2869H198.582L194.516 40.7851L196.785 46.2687H193.571L192.247 42.676L191.207 43.5269L190.64 46.2687H187.709L190.356 33.8832Z" fill="#F7961D"/>
</svg>
