<svg width="235" height="82" viewBox="0 0 235 82" fill="none" xmlns="http://www.w3.org/2000/svg">
<g clip-path="url(#clip0_72_12943)">
<rect y="0.359863" width="234.093" height="81.3071" rx="4.34889" fill="#B0D8E2"/>
<path d="M92.6446 63.8268C92.6446 64.0632 92.6825 64.2617 92.7676 64.4319C92.8526 64.6021 92.9661 64.7345 93.0985 64.8479C93.2403 64.9425 93.401 65.0276 93.5806 65.0843C93.7603 65.1505 93.9588 65.1788 94.1668 65.1788C94.1763 65.1788 94.1952 65.1788 94.2141 65.1788C94.233 65.1788 94.2519 65.1788 94.2708 65.1788C94.5923 65.1694 94.8854 65.0937 95.1501 64.9519C95.4148 64.8101 95.5472 64.5643 95.5472 64.205C95.5472 63.8836 95.3581 63.6567 94.9705 63.5054C94.5828 63.3636 94.129 63.2312 93.5806 63.1177C93.3537 63.0799 93.1363 63.0327 92.8999 62.9948C92.673 62.957 92.4366 62.9003 92.2003 62.8436C91.3494 62.6356 90.5835 62.3047 89.8839 61.8603C89.1843 61.4159 88.8439 60.669 88.8439 59.6101C88.8439 58.4567 89.2505 57.6152 90.073 57.0857C90.8956 56.5563 91.7937 56.2254 92.7676 56.0836C92.9756 56.0552 93.1836 56.0363 93.3916 56.0174C93.5996 55.9985 93.8075 55.9985 94.0155 55.9985C94.1857 55.9985 94.3559 55.9985 94.5261 56.0079C94.6963 56.0174 94.8665 56.0268 95.0366 56.0363C96.0766 56.1214 97.0505 56.3956 97.9392 56.8588C98.8279 57.3221 99.329 58.1825 99.4425 59.4399H95.4999C95.4905 59.2697 95.4432 59.1185 95.3676 58.9956C95.2919 58.8727 95.1974 58.7592 95.0839 58.6552C94.9705 58.5607 94.8381 58.485 94.6868 58.4377C94.5355 58.3999 94.3748 58.3716 94.2046 58.3716C93.8265 58.3716 93.5334 58.4283 93.3065 58.5512C93.0795 58.6741 92.9756 58.8632 92.9756 59.1468C92.9756 59.4021 93.1457 59.5912 93.4861 59.733C93.8265 59.8748 94.2519 59.9977 94.753 60.1112C95.0177 60.1679 95.2919 60.2247 95.5756 60.2908C95.8592 60.357 96.1523 60.4232 96.4454 60.4894C97.3057 60.7163 98.0999 61.0567 98.809 61.5105C99.5181 61.9643 99.8868 62.7112 99.8868 63.7417C99.8868 64.8857 99.4046 65.8028 98.4497 66.493C97.4854 67.1927 96.0105 67.533 94.0061 67.533C93.8926 67.533 93.7792 67.533 93.6752 67.533C93.5617 67.533 93.4483 67.5236 93.3159 67.5141C92.1719 67.4479 91.1225 67.1454 90.1486 66.6254C89.1748 66.1054 88.6359 65.1694 88.5225 63.8268H92.6446Z" fill="#059BB6"/>
<path d="M101.513 56.2916H105.494V57.9177C105.55 57.8516 105.616 57.7759 105.683 57.6908C105.749 57.6057 105.824 57.5207 105.91 57.4167C106.24 57.0668 106.675 56.7454 107.214 56.4428C107.753 56.1403 108.33 55.9985 108.954 55.9985C109.937 55.9985 110.712 56.1876 111.28 56.5657C111.847 56.9439 112.254 57.4261 112.518 58.0028C112.991 57.3505 113.539 56.8494 114.154 56.509C114.768 56.1687 115.487 55.9985 116.291 55.9985C117.888 55.9985 118.985 56.4239 119.59 57.2748C120.186 58.1257 120.488 59.2887 120.488 60.7825V67.2305H116.149V61.6617C116.149 60.8676 116.045 60.3003 115.846 59.9505C115.648 59.6007 115.26 59.4305 114.693 59.4305C114.05 59.4305 113.643 59.6668 113.454 60.149C113.265 60.6312 113.171 61.1985 113.171 61.8508V67.2305H108.831V61.6617C108.831 60.8676 108.727 60.3003 108.528 59.9505C108.33 59.6007 107.942 59.4305 107.375 59.4305C106.732 59.4305 106.326 59.6668 106.136 60.149C105.947 60.6312 105.853 61.1985 105.853 61.8508V67.2305H101.513V56.2916Z" fill="#059BB6"/>
<path d="M130.179 67.221L129.971 66.0487C129.357 66.6348 128.723 67.0225 128.071 67.2305C127.418 67.429 126.681 67.533 125.858 67.533C124.828 67.533 123.92 67.2683 123.135 66.7483C122.351 66.2283 121.954 65.3963 121.954 64.2523C121.954 63.0137 122.36 62.1628 123.173 61.709C123.986 61.2552 124.885 60.9337 125.858 60.773C126.095 60.7447 126.331 60.7163 126.577 60.6785C126.823 60.6407 127.059 60.6123 127.295 60.5839C127.976 60.4988 128.553 60.3948 129.026 60.2625C129.498 60.1301 129.735 59.8748 129.735 59.5061C129.735 59.2414 129.65 59.0428 129.47 58.9199C129.3 58.797 129.101 58.7119 128.893 58.6741C128.78 58.6457 128.676 58.6268 128.581 58.6174C128.487 58.6079 128.392 58.6079 128.307 58.6079C128.241 58.6079 128.165 58.6079 128.099 58.6174C128.033 58.6268 127.957 58.6268 127.872 58.6268C127.626 58.6647 127.39 58.7592 127.173 58.9105C126.955 59.0523 126.832 59.3076 126.785 59.6668H122.615C122.615 58.5228 123.069 57.6247 123.986 56.9723C124.903 56.3199 126.435 55.9985 128.591 55.9985C131.181 55.9985 132.741 56.4239 133.28 57.2843C133.819 58.1352 134.084 59.2225 134.084 60.5272V65.6137C134.084 65.8407 134.093 66.0203 134.112 66.181C134.131 66.3323 134.188 66.4836 134.273 66.6159C134.311 66.6821 134.367 66.7577 134.443 66.8239C134.509 66.8901 134.585 66.9657 134.67 67.0319V67.221H130.179ZM129.319 64.4225C129.621 63.9876 129.763 63.4297 129.763 62.7679C129.763 62.7396 129.763 62.7112 129.763 62.6828C129.763 62.6545 129.763 62.6261 129.763 62.5977C129.754 62.5694 129.744 62.541 129.744 62.5032C129.744 62.4654 129.744 62.437 129.744 62.4087C129.602 62.4748 129.461 62.541 129.319 62.5883C129.177 62.6356 129.026 62.6828 128.874 62.7207C128.751 62.749 128.619 62.7774 128.487 62.8057C128.354 62.8341 128.222 62.8625 128.099 62.8908C127.655 62.9854 127.267 63.1177 126.946 63.2785C126.615 63.4392 126.454 63.7417 126.454 64.1861C126.454 64.4508 126.577 64.6683 126.823 64.829C127.069 64.9897 127.399 65.0748 127.834 65.0748C128.515 65.0748 129.016 64.8574 129.319 64.4225Z" fill="#059BB6"/>
<path d="M136.438 56.2916H140.381V58.5039H140.418C140.721 57.653 141.146 57.029 141.695 56.613C142.234 56.2065 142.933 55.9985 143.784 55.9985C143.85 55.9985 143.917 55.9985 143.983 56.0079C144.049 56.0174 144.106 56.0268 144.162 56.0363C144.191 56.0363 144.219 56.0363 144.257 56.0457C144.295 56.0552 144.323 56.0552 144.351 56.0552V60.3759C144.314 60.3759 144.257 60.3759 144.21 60.3665C144.153 60.357 144.106 60.357 144.068 60.357C144.039 60.3476 144.011 60.3381 143.983 60.3381C143.954 60.3381 143.935 60.3287 143.917 60.3192C143.831 60.3097 143.756 60.2908 143.68 60.2908C143.605 60.2814 143.529 60.2814 143.463 60.2814C142.574 60.2814 141.903 60.5177 141.458 60.9905C141.014 61.4632 140.787 62.2952 140.787 63.477V67.2305H136.447V56.2916H136.438Z" fill="#059BB6"/>
<path d="M145.259 52.1978H159.035V56.1403H154.61V67.221H149.684V56.1403H145.259V52.1978Z" fill="#010101"/>
<path d="M161.634 67.2116L164.764 52.3112H170.106L170.815 62.9287H170.852L175.986 52.3112H181.338L178.227 67.2116H174.559L177.348 55.3839H177.31L171.429 67.2116H168.442L167.562 55.3839H167.524L165.312 67.2116H161.634Z" fill="#F89822"/>
<path d="M180.959 67.2116L184.07 52.3112H195.151L194.461 55.6487H187.266L186.679 58.4661H192.872L192.248 61.4727H186.055L184.845 67.2116H180.959Z" fill="#F89822"/>
<path d="M193.732 67.2116L196.881 52.3112H202.478C204.52 52.3112 206.108 52.7839 207.234 53.7294C208.482 54.7978 209.115 56.4239 209.115 58.6079C209.115 61.0661 208.396 63.0799 206.969 64.6399C205.399 66.3512 203.206 67.2021 200.398 67.2021H193.732V67.2116ZM200.048 55.6487L198.318 63.8741H200.88C202.383 63.8741 203.518 63.2879 204.303 62.125C204.917 61.2174 205.22 60.1585 205.22 58.9294C205.22 56.7454 204.236 55.6581 202.279 55.6581H200.048V55.6487Z" fill="#F89822"/>
<path d="M126.435 41.0697C128.298 40.4079 129.338 38.9235 129.338 36.9097V36.8341C129.338 35.5766 128.893 34.461 128.146 33.7141C127.258 32.7497 125.915 32.2959 124.204 32.2959H117.964V45.8915H120.781V41.4384H123.381L126.35 45.8915H126.36V46.0428H129.631L126.284 41.1359L126.435 41.0697ZM123.986 38.9803H120.791L120.8 34.7541H123.92C125.556 34.7541 126.445 35.501 126.445 36.8341V36.9003C126.435 38.1577 125.471 38.9803 123.986 38.9803Z" fill="#020202"/>
<path d="M138.547 32.069C134.462 32.069 131.267 35.189 131.267 39.1221V39.1978C131.267 43.1403 134.396 46.1847 138.547 46.1847C142.631 46.1847 145.827 43.0552 145.751 39.1221C145.76 35.1228 142.707 32.069 138.547 32.069ZM142.792 39.0559C142.792 41.5803 141.014 43.509 138.556 43.509C136.107 43.509 134.245 41.5803 134.245 39.0559C134.245 36.5316 136.098 34.6028 138.556 34.6028C140.929 34.6028 142.867 36.6072 142.792 38.9803V39.0559Z" fill="#020202"/>
<path d="M158.165 38.9897L157.938 38.9141L158.165 38.7628C159.356 38.0915 159.952 37.1272 159.952 35.8603V35.7941C159.952 34.8297 159.658 34.0828 159.063 33.4872C158.25 32.7403 157.058 32.2959 155.498 32.2959H149.183V45.8915H149.173V46.0428H155.64C158.836 46.0428 160.698 44.7097 160.698 42.3272C160.689 40.6254 159.942 39.661 158.165 38.9897ZM151.934 34.669H155.054C156.387 34.669 157.134 35.2646 157.134 36.229V36.3046C157.134 36.9759 156.756 37.8646 154.827 37.8646H151.934V34.669ZM157.938 41.8072C157.938 42.5541 157.493 43.4428 155.631 43.4428H151.915V40.0959H155.555C157.56 40.0959 157.928 40.9846 157.928 41.7315V41.8072H157.938Z" fill="#020202"/>
<path d="M164.632 45.901H174.89V43.4428H167.459V40.3134H174.89V37.789H164.632V45.901Z" fill="#020202"/>
<path d="M185.819 43.5184C183.446 43.5184 181.659 41.5897 181.659 39.0654C181.659 36.541 183.446 34.6123 185.819 34.6123C187.077 34.6123 188.192 35.0566 189.384 36.0966L191.171 34.0166C189.677 32.5984 188.041 32.0123 185.819 32.0123C181.735 32.0123 178.681 35.0566 178.681 39.0748V39.1505C178.681 43.1592 181.659 46.213 185.668 46.213C187.975 46.213 189.611 45.4661 191.246 43.7548L189.459 41.9679C188.344 42.9228 187.379 43.5184 185.819 43.5184Z" fill="#020202"/>
<path d="M201.051 32.069C196.966 32.069 193.771 35.189 193.771 39.1221V39.1978C193.771 43.1403 196.815 46.1847 200.975 46.1847C205.059 46.1847 208.255 43.0552 208.34 39.1221C208.34 35.1228 205.211 32.069 201.051 32.069ZM205.286 39.0559C205.286 41.5803 203.499 43.509 201.051 43.509C198.677 43.509 196.739 41.5803 196.739 39.0559C196.739 36.5316 198.526 34.6028 200.975 34.6028C203.348 34.6028 205.286 36.6072 205.286 38.9803V39.0559Z" fill="#020202"/>
<path d="M174.89 32.2959H164.632V34.8203H174.89V32.2959Z" fill="#0B9BB6"/>
<path d="M28.127 43.5185C25.7539 43.5185 23.967 41.5897 23.967 39.0654V38.9803C23.967 36.4559 25.82 34.5272 28.127 34.5272C29.3844 34.5272 30.5 34.9715 31.6913 36.0115L33.4782 33.9315C31.9844 32.5134 30.3488 31.9272 28.127 31.9272C24.0426 31.9272 20.9888 34.9715 20.9888 38.9897V39.0654C20.9888 43.0079 23.967 46.0523 27.9757 46.0523C30.2826 46.0523 31.9182 45.381 33.5539 43.7454L31.767 41.9585C30.6513 42.9228 29.687 43.5185 28.127 43.5185Z" fill="#0B9BB6"/>
<path d="M40.9003 32.069L35.0195 45.8159H37.9221L39.189 42.6959H45.2115L46.4784 45.8159H49.4472L43.5759 32.069H40.9003ZM40.229 40.2472L42.2334 35.3403L44.2377 40.2472H40.229Z" fill="#0B9BB6"/>
<path d="M61.1893 40.909L54.505 32.1447H51.8955V45.8159H54.6468V36.749L61.5581 45.8159H64.0162V32.1447H61.1893V40.909Z" fill="#0B9BB6"/>
<path d="M72.2512 32.069L66.3799 45.8159H69.2824L70.5493 42.6959H76.5719L77.8388 45.8159H80.7981L74.9268 32.069H72.2512ZM71.5137 40.2472L73.5181 35.3403L75.5224 40.2472H71.5137Z" fill="#0B9BB6"/>
<path d="M90.8482 40.8428C92.7108 40.181 93.7508 38.6967 93.7508 36.6828V36.6072C93.7508 35.3497 93.3064 34.2341 92.5595 33.4872C91.6708 32.5985 90.3282 32.1541 88.617 32.1541H82.377V45.8254H85.1944V41.3723H87.7944L90.7631 45.8254L94.0344 45.8348L90.6875 40.9279L90.8482 40.8428ZM88.4657 38.9141H85.27L85.2795 34.6785H88.3995C90.0351 34.6785 90.9239 35.4254 90.9239 36.7585V36.8341C90.9144 38.0916 89.95 38.9141 88.4657 38.9141Z" fill="#0B9BB6"/>
<path d="M101.456 32.069L95.585 45.8159H98.4875L99.7544 42.6959H105.777L107.044 45.8159H110.003L104.132 32.069H101.456ZM100.728 40.2472L102.733 35.3403L104.737 40.2472H100.728Z" fill="#0B9BB6"/>
<path d="M144.257 51.6116H144.191V51.621H144.257V51.6116Z" fill="#0B9BB6"/>
<path d="M156.009 51.6116H155.943V51.621H156.009V51.6116Z" fill="#0B9BB6"/>
<path d="M185.649 51.6116H185.583V51.621H185.649V51.6116Z" fill="#0B9BB6"/>
<path d="M-0.871094 4.53481C-0.871094 2.13298 1.07597 0.185913 3.4778 0.185913H229.62C232.022 0.185913 233.969 2.13298 233.969 4.53481V21.9304H-0.871094V4.53481Z" fill="#54ABBF"/>
<path d="M59.4858 7.2489V11.1707H64.0965V12.4076H59.4858V17.2296H57.9672V6.01208H64.8793V7.2489H59.4858ZM69.1453 9.17459C69.7246 9.17459 70.2465 9.27114 70.7109 9.46423C71.1754 9.65732 71.572 9.9313 71.9008 10.2862C72.2296 10.641 72.4801 11.0716 72.6523 11.5778C72.8297 12.0788 72.9184 12.6398 72.9184 13.2608C72.9184 13.8871 72.8297 14.4507 72.6523 14.9517C72.4801 15.4527 72.2296 15.8806 71.9008 16.2355C71.572 16.5903 71.1754 16.8643 70.7109 17.0574C70.2465 17.2453 69.7246 17.3392 69.1453 17.3392C68.5609 17.3392 68.0338 17.2453 67.5641 17.0574C67.0996 16.8643 66.703 16.5903 66.3742 16.2355C66.0455 15.8806 65.7923 15.4527 65.6149 14.9517C65.4427 14.4507 65.3566 13.8871 65.3566 13.2608C65.3566 12.6398 65.4427 12.0788 65.6149 11.5778C65.7923 11.0716 66.0455 10.641 66.3742 10.2862C66.703 9.9313 67.0996 9.65732 67.5641 9.46423C68.0338 9.27114 68.5609 9.17459 69.1453 9.17459ZM69.1453 16.2511C69.9281 16.2511 70.5126 15.9902 70.8988 15.4683C71.285 14.9412 71.4781 14.208 71.4781 13.2686C71.4781 12.3241 71.285 11.5882 70.8988 11.0611C70.5126 10.5341 69.9281 10.2705 69.1453 10.2705C68.7487 10.2705 68.4017 10.3384 68.1042 10.474C67.812 10.6097 67.5667 10.8054 67.3684 11.0611C67.1753 11.3169 67.0292 11.6326 66.93 12.0083C66.8361 12.3789 66.7891 12.799 66.7891 13.2686C66.7891 14.208 66.9822 14.9412 67.3684 15.4683C67.7598 15.9902 68.3521 16.2511 69.1453 16.2511ZM76.0087 10.8889C76.2592 10.3462 76.5671 9.92347 76.9324 9.62079C77.2977 9.31289 77.7439 9.15894 78.271 9.15894C78.438 9.15894 78.5971 9.1772 78.7485 9.21373C78.905 9.25026 79.0433 9.30767 79.1634 9.38595L79.0616 10.4271C79.0303 10.5575 78.952 10.6228 78.8268 10.6228C78.7537 10.6228 78.6467 10.6071 78.5058 10.5758C78.3649 10.5445 78.2057 10.5288 78.0283 10.5288C77.7778 10.5288 77.5534 10.5654 77.3551 10.6384C77.162 10.7115 76.9872 10.8211 76.8306 10.9672C76.6793 11.1081 76.541 11.2855 76.4157 11.4995C76.2957 11.7083 76.1861 11.9483 76.087 12.2197V17.2296H74.6857V9.29984H75.4842C75.6355 9.29984 75.7399 9.32854 75.7973 9.38595C75.8547 9.44335 75.8939 9.54251 75.9147 9.68341L76.0087 10.8889ZM94.1091 11.6248C94.1091 12.465 93.976 13.2295 93.7099 13.9184C93.4437 14.6072 93.068 15.1969 92.5827 15.6875C92.0973 16.1781 91.5128 16.559 90.8292 16.8304C90.1508 17.0965 89.3993 17.2296 88.5747 17.2296H84.3867V6.01208H88.5747C89.3993 6.01208 90.1508 6.14776 90.8292 6.41913C91.5128 6.68528 92.0973 7.06625 92.5827 7.56202C93.068 8.05258 93.4437 8.64229 93.7099 9.33115C93.976 10.02 94.1091 10.7846 94.1091 11.6248ZM92.5513 11.6248C92.5513 10.9359 92.4574 10.3201 92.2695 9.77735C92.0817 9.23461 91.8155 8.77536 91.4711 8.39962C91.1266 8.02387 90.7091 7.73685 90.2186 7.53854C89.728 7.34023 89.1801 7.24107 88.5747 7.24107H85.9054V16.0006H88.5747C89.1801 16.0006 89.728 15.9015 90.2186 15.7032C90.7091 15.5048 91.1266 15.2204 91.4711 14.8499C91.8155 14.4742 92.0817 14.0149 92.2695 13.4722C92.4574 12.9294 92.5513 12.3136 92.5513 11.6248ZM97.2869 9.29984V17.2296H95.8935V9.29984H97.2869ZM97.5844 6.81053C97.5844 6.94622 97.5557 7.07408 97.4983 7.19411C97.4461 7.30892 97.373 7.41329 97.2791 7.50723C97.1904 7.59594 97.0834 7.6664 96.9581 7.71858C96.8381 7.77077 96.7103 7.79686 96.5746 7.79686C96.4389 7.79686 96.311 7.77077 96.191 7.71858C96.0762 7.6664 95.9744 7.59594 95.8857 7.50723C95.797 7.41329 95.7265 7.30892 95.6743 7.19411C95.6222 7.07408 95.5961 6.94622 95.5961 6.81053C95.5961 6.67485 95.6222 6.54699 95.6743 6.42696C95.7265 6.30171 95.797 6.19473 95.8857 6.10601C95.9744 6.01208 96.0762 5.93901 96.191 5.88683C96.311 5.83464 96.4389 5.80855 96.5746 5.80855C96.7103 5.80855 96.8381 5.83464 96.9581 5.88683C97.0834 5.93901 97.1904 6.01208 97.2791 6.10601C97.373 6.19473 97.4461 6.30171 97.4983 6.42696C97.5557 6.54699 97.5844 6.67485 97.5844 6.81053ZM104.195 10.6071C104.132 10.7219 104.036 10.7793 103.905 10.7793C103.827 10.7793 103.738 10.7506 103.639 10.6932C103.54 10.6358 103.417 10.5732 103.271 10.5054C103.13 10.4323 102.961 10.3671 102.762 10.3097C102.564 10.247 102.329 10.2157 102.058 10.2157C101.823 10.2157 101.612 10.247 101.424 10.3097C101.236 10.3671 101.074 10.4479 100.938 10.5523C100.808 10.6567 100.706 10.7793 100.633 10.9202C100.565 11.0559 100.531 11.2047 100.531 11.3664C100.531 11.57 100.589 11.7396 100.704 11.8753C100.824 12.0109 100.98 12.1284 101.173 12.2275C101.366 12.3267 101.586 12.4154 101.831 12.4937C102.076 12.5667 102.327 12.6476 102.582 12.7363C102.843 12.8198 103.096 12.9138 103.342 13.0181C103.587 13.1225 103.806 13.253 103.999 13.4095C104.192 13.5661 104.346 13.7592 104.461 13.9888C104.581 14.2132 104.641 14.4846 104.641 14.8029C104.641 15.1682 104.576 15.5075 104.445 15.8206C104.315 16.1285 104.122 16.3972 103.866 16.6269C103.61 16.8513 103.297 17.0287 102.927 17.1592C102.556 17.2896 102.128 17.3549 101.643 17.3549C101.09 17.3549 100.589 17.2661 100.14 17.0887C99.6912 16.9061 99.3102 16.6738 98.9971 16.392L99.3259 15.8597C99.3676 15.7919 99.4172 15.7397 99.4746 15.7032C99.532 15.6666 99.6051 15.6484 99.6938 15.6484C99.7877 15.6484 99.8869 15.6849 99.9913 15.7579C100.096 15.831 100.221 15.9119 100.367 16.0006C100.518 16.0893 100.701 16.1702 100.915 16.2433C101.129 16.3163 101.395 16.3529 101.713 16.3529C101.985 16.3529 102.222 16.319 102.426 16.2511C102.629 16.1781 102.799 16.0815 102.935 15.9615C103.07 15.8414 103.169 15.7032 103.232 15.5466C103.3 15.39 103.334 15.223 103.334 15.0456C103.334 14.8264 103.274 14.6464 103.154 14.5055C103.039 14.3593 102.885 14.2367 102.692 14.1376C102.499 14.0332 102.277 13.9445 102.027 13.8714C101.781 13.7931 101.528 13.7122 101.267 13.6287C101.012 13.5452 100.758 13.4513 100.508 13.3469C100.263 13.2373 100.043 13.1016 99.8503 12.9399C99.6573 12.7781 99.5007 12.5798 99.3807 12.3449C99.2659 12.1049 99.2085 11.8152 99.2085 11.476C99.2085 11.1733 99.2711 10.8837 99.3963 10.6071C99.5216 10.3253 99.7042 10.08 99.9443 9.87128C100.184 9.65732 100.479 9.48771 100.829 9.36246C101.179 9.23722 101.578 9.17459 102.027 9.17459C102.548 9.17459 103.015 9.25809 103.428 9.42509C103.845 9.58687 104.205 9.81127 104.508 10.0983L104.195 10.6071ZM108.784 17.3549C108.158 17.3549 107.675 17.18 107.336 16.8304C107.002 16.4807 106.835 15.9771 106.835 15.3196V10.4662H105.88C105.796 10.4662 105.726 10.4427 105.668 10.3958C105.611 10.3436 105.582 10.2653 105.582 10.1609V9.60513L106.882 9.44074L107.203 6.99058C107.218 6.9123 107.252 6.84967 107.304 6.80271C107.362 6.75052 107.435 6.72443 107.524 6.72443H108.228V9.4564H110.522V10.4662H108.228V15.2256C108.228 15.5596 108.309 15.8075 108.471 15.9693C108.633 16.1311 108.841 16.212 109.097 16.212C109.243 16.212 109.368 16.1937 109.473 16.1572C109.582 16.1154 109.676 16.0711 109.755 16.0241C109.833 15.9771 109.898 15.9354 109.95 15.8989C110.008 15.8571 110.057 15.8362 110.099 15.8362C110.172 15.8362 110.237 15.8806 110.295 15.9693L110.702 16.6347C110.462 16.8591 110.172 17.0365 109.833 17.167C109.494 17.2922 109.144 17.3549 108.784 17.3549ZM113.283 10.8889C113.534 10.3462 113.842 9.92347 114.207 9.62079C114.572 9.31289 115.019 9.15894 115.546 9.15894C115.713 9.15894 115.872 9.1772 116.023 9.21373C116.18 9.25026 116.318 9.30767 116.438 9.38595L116.336 10.4271C116.305 10.5575 116.227 10.6228 116.102 10.6228C116.028 10.6228 115.921 10.6071 115.781 10.5758C115.64 10.5445 115.481 10.5288 115.303 10.5288C115.053 10.5288 114.828 10.5654 114.63 10.6384C114.437 10.7115 114.262 10.8211 114.105 10.9672C113.954 11.1081 113.816 11.2855 113.691 11.4995C113.57 11.7083 113.461 11.9483 113.362 12.2197V17.2296H111.961V9.29984H112.759C112.91 9.29984 113.015 9.32854 113.072 9.38595C113.13 9.44335 113.169 9.54251 113.19 9.68341L113.283 10.8889ZM119.135 9.29984V17.2296H117.742V9.29984H119.135ZM119.432 6.81053C119.432 6.94622 119.404 7.07408 119.346 7.19411C119.294 7.30892 119.221 7.41329 119.127 7.50723C119.038 7.59594 118.931 7.6664 118.806 7.71858C118.686 7.77077 118.558 7.79686 118.423 7.79686C118.287 7.79686 118.159 7.77077 118.039 7.71858C117.924 7.6664 117.823 7.59594 117.734 7.50723C117.645 7.41329 117.575 7.30892 117.522 7.19411C117.47 7.07408 117.444 6.94622 117.444 6.81053C117.444 6.67485 117.47 6.54699 117.522 6.42696C117.575 6.30171 117.645 6.19473 117.734 6.10601C117.823 6.01208 117.924 5.93901 118.039 5.88683C118.159 5.83464 118.287 5.80855 118.423 5.80855C118.558 5.80855 118.686 5.83464 118.806 5.88683C118.931 5.93901 119.038 6.01208 119.127 6.10601C119.221 6.19473 119.294 6.30171 119.346 6.42696C119.404 6.54699 119.432 6.67485 119.432 6.81053ZM122.826 15.3196C123.081 15.664 123.361 15.9067 123.663 16.0476C123.971 16.1885 124.308 16.2589 124.673 16.2589C125.419 16.2589 125.991 15.9954 126.387 15.4683C126.784 14.9412 126.982 14.1558 126.982 13.1121C126.982 12.1414 126.805 11.4291 126.45 10.975C126.1 10.5158 125.599 10.2862 124.947 10.2862C124.493 10.2862 124.096 10.3905 123.757 10.5993C123.423 10.808 123.113 11.1029 122.826 11.4839V15.3196ZM122.826 10.4427C123.16 10.0565 123.535 9.74865 123.953 9.51902C124.376 9.2894 124.861 9.17459 125.409 9.17459C125.873 9.17459 126.291 9.26331 126.661 9.44074C127.037 9.61818 127.355 9.8765 127.616 10.2157C127.877 10.5497 128.076 10.9568 128.211 11.4369C128.352 11.917 128.423 12.4571 128.423 13.0573C128.423 13.6992 128.344 14.2837 128.188 14.8108C128.031 15.3378 127.804 15.7893 127.507 16.165C127.215 16.5355 126.857 16.8252 126.434 17.0339C126.012 17.2374 125.537 17.3392 125.01 17.3392C124.488 17.3392 124.047 17.2427 123.687 17.0496C123.332 16.8513 123.021 16.5721 122.755 16.212L122.685 16.9321C122.643 17.1305 122.523 17.2296 122.325 17.2296H121.424V5.69896H122.826V10.4427ZM136.706 9.29984V17.2296H135.876C135.678 17.2296 135.553 17.1331 135.5 16.94L135.391 16.0867C135.046 16.4677 134.66 16.7756 134.232 17.0104C133.804 17.2401 133.314 17.3549 132.761 17.3549C132.327 17.3549 131.944 17.2844 131.61 17.1435C131.281 16.9974 131.004 16.7939 130.78 16.5329C130.556 16.272 130.386 15.9563 130.271 15.5857C130.162 15.2152 130.107 14.8055 130.107 14.3567V9.29984H131.5V14.3567C131.5 14.9569 131.636 15.4213 131.907 15.7501C132.184 16.0789 132.604 16.2433 133.168 16.2433C133.58 16.2433 133.963 16.1467 134.318 15.9536C134.678 15.7553 135.01 15.484 135.312 15.1395V9.29984H136.706ZM141.35 17.3549C140.723 17.3549 140.241 17.18 139.902 16.8304C139.568 16.4807 139.401 15.9771 139.401 15.3196V10.4662H138.445C138.362 10.4662 138.292 10.4427 138.234 10.3958C138.177 10.3436 138.148 10.2653 138.148 10.1609V9.60513L139.447 9.44074L139.768 6.99058C139.784 6.9123 139.818 6.84967 139.87 6.80271C139.928 6.75052 140.001 6.72443 140.089 6.72443H140.794V9.4564H143.088V10.4662H140.794V15.2256C140.794 15.5596 140.875 15.8075 141.037 15.9693C141.198 16.1311 141.407 16.212 141.663 16.212C141.809 16.212 141.934 16.1937 142.039 16.1572C142.148 16.1154 142.242 16.0711 142.32 16.0241C142.399 15.9771 142.464 15.9354 142.516 15.8989C142.573 15.8571 142.623 15.8362 142.665 15.8362C142.738 15.8362 142.803 15.8806 142.86 15.9693L143.268 16.6347C143.027 16.8591 142.738 17.0365 142.399 17.167C142.059 17.2922 141.71 17.3549 141.35 17.3549ZM147.823 9.17459C148.402 9.17459 148.924 9.27114 149.389 9.46423C149.853 9.65732 150.25 9.9313 150.578 10.2862C150.907 10.641 151.158 11.0716 151.33 11.5778C151.507 12.0788 151.596 12.6398 151.596 13.2608C151.596 13.8871 151.507 14.4507 151.33 14.9517C151.158 15.4527 150.907 15.8806 150.578 16.2355C150.25 16.5903 149.853 16.8643 149.389 17.0574C148.924 17.2453 148.402 17.3392 147.823 17.3392C147.238 17.3392 146.711 17.2453 146.242 17.0574C145.777 16.8643 145.381 16.5903 145.052 16.2355C144.723 15.8806 144.47 15.4527 144.293 14.9517C144.12 14.4507 144.034 13.8871 144.034 13.2608C144.034 12.6398 144.12 12.0788 144.293 11.5778C144.47 11.0716 144.723 10.641 145.052 10.2862C145.381 9.9313 145.777 9.65732 146.242 9.46423C146.711 9.27114 147.238 9.17459 147.823 9.17459ZM147.823 16.2511C148.606 16.2511 149.19 15.9902 149.576 15.4683C149.963 14.9412 150.156 14.208 150.156 13.2686C150.156 12.3241 149.963 11.5882 149.576 11.0611C149.19 10.5341 148.606 10.2705 147.823 10.2705C147.426 10.2705 147.079 10.3384 146.782 10.474C146.49 10.6097 146.244 10.8054 146.046 11.0611C145.853 11.3169 145.707 11.6326 145.608 12.0083C145.514 12.3789 145.467 12.799 145.467 13.2686C145.467 14.208 145.66 14.9412 146.046 15.4683C146.437 15.9902 147.03 16.2511 147.823 16.2511ZM154.686 10.8889C154.937 10.3462 155.245 9.92347 155.61 9.62079C155.975 9.31289 156.421 9.15894 156.949 9.15894C157.116 9.15894 157.275 9.1772 157.426 9.21373C157.583 9.25026 157.721 9.30767 157.841 9.38595L157.739 10.4271C157.708 10.5575 157.63 10.6228 157.504 10.6228C157.431 10.6228 157.324 10.6071 157.183 10.5758C157.043 10.5445 156.883 10.5288 156.706 10.5288C156.455 10.5288 156.231 10.5654 156.033 10.6384C155.84 10.7115 155.665 10.8211 155.508 10.9672C155.357 11.1081 155.219 11.2855 155.093 11.4995C154.973 11.7083 154.864 11.9483 154.765 12.2197V17.2296H153.363V9.29984H154.162C154.313 9.29984 154.418 9.32854 154.475 9.38595C154.532 9.44335 154.571 9.54251 154.592 9.68341L154.686 10.8889ZM163.639 10.6071C163.576 10.7219 163.48 10.7793 163.349 10.7793C163.271 10.7793 163.182 10.7506 163.083 10.6932C162.984 10.6358 162.861 10.5732 162.715 10.5054C162.574 10.4323 162.405 10.3671 162.206 10.3097C162.008 10.247 161.773 10.2157 161.502 10.2157C161.267 10.2157 161.056 10.247 160.868 10.3097C160.68 10.3671 160.518 10.4479 160.382 10.5523C160.252 10.6567 160.15 10.7793 160.077 10.9202C160.009 11.0559 159.975 11.2047 159.975 11.3664C159.975 11.57 160.033 11.7396 160.148 11.8753C160.268 12.0109 160.424 12.1284 160.617 12.2275C160.81 12.3267 161.03 12.4154 161.275 12.4937C161.52 12.5667 161.771 12.6476 162.026 12.7363C162.287 12.8198 162.54 12.9138 162.786 13.0181C163.031 13.1225 163.25 13.253 163.443 13.4095C163.636 13.5661 163.79 13.7592 163.905 13.9888C164.025 14.2132 164.085 14.4846 164.085 14.8029C164.085 15.1682 164.02 15.5075 163.889 15.8206C163.759 16.1285 163.566 16.3972 163.31 16.6269C163.054 16.8513 162.741 17.0287 162.371 17.1592C162 17.2896 161.572 17.3549 161.087 17.3549C160.534 17.3549 160.033 17.2661 159.584 17.0887C159.135 16.9061 158.754 16.6738 158.441 16.392L158.77 15.8597C158.812 15.7919 158.861 15.7397 158.919 15.7032C158.976 15.6666 159.049 15.6484 159.138 15.6484C159.232 15.6484 159.331 15.6849 159.435 15.7579C159.54 15.831 159.665 15.9119 159.811 16.0006C159.962 16.0893 160.145 16.1702 160.359 16.2433C160.573 16.3163 160.839 16.3529 161.157 16.3529C161.429 16.3529 161.666 16.319 161.87 16.2511C162.073 16.1781 162.243 16.0815 162.379 15.9615C162.514 15.8414 162.613 15.7032 162.676 15.5466C162.744 15.39 162.778 15.223 162.778 15.0456C162.778 14.8264 162.718 14.6464 162.598 14.5055C162.483 14.3593 162.329 14.2367 162.136 14.1376C161.943 14.0332 161.721 13.9445 161.47 13.8714C161.225 13.7931 160.972 13.7122 160.711 13.6287C160.455 13.5452 160.202 13.4513 159.952 13.3469C159.707 13.2373 159.487 13.1016 159.294 12.9399C159.101 12.7781 158.945 12.5798 158.825 12.3449C158.71 12.1049 158.652 11.8152 158.652 11.476C158.652 11.1733 158.715 10.8837 158.84 10.6071C158.966 10.3253 159.148 10.08 159.388 9.87128C159.628 9.65732 159.923 9.48771 160.273 9.36246C160.622 9.23722 161.022 9.17459 161.47 9.17459C161.992 9.17459 162.459 9.25809 162.872 9.42509C163.289 9.58687 163.649 9.81127 163.952 10.0983L163.639 10.6071Z" fill="white"/>
</g>
<defs>
<clipPath id="clip0_72_12943">
<rect y="0.359863" width="234.093" height="81.3071" rx="4.34889" fill="white"/>
</clipPath>
</defs>
</svg>
