<svg width="209" height="55" viewBox="0 0 209 55" fill="none" xmlns="http://www.w3.org/2000/svg">
<path fill-rule="evenodd" clip-rule="evenodd" d="M109.992 15.4598H113.207C114.72 15.4598 115.665 14.6089 115.665 13.3798C115.665 12.0562 114.72 11.2998 113.112 11.2998H109.898V15.4598H109.992ZM115.571 22.4562L112.545 17.918H109.898V22.4562H107.062V8.65257H113.396C115.098 8.65257 116.516 9.12529 117.367 10.0707C118.123 10.8271 118.502 11.9617 118.502 13.1907V13.2853C118.502 15.3653 117.462 16.7835 115.571 17.5398H115.382L118.785 22.4562H115.571Z" fill="#231F20"/>
<path fill-rule="evenodd" clip-rule="evenodd" d="M127.956 11.0162C125.497 11.0162 123.607 12.9071 123.607 15.4598C123.607 18.0126 125.497 19.998 127.956 19.998C130.414 19.998 132.305 18.1071 132.305 15.5544C132.305 13.0017 130.414 11.0162 127.956 11.0162ZM127.956 22.7398C123.796 22.7398 120.581 19.7144 120.581 15.6489C120.581 11.678 123.796 8.46347 127.956 8.46347C132.116 8.46347 135.33 11.4889 135.33 15.5544C135.33 19.6198 132.021 22.7398 127.956 22.7398Z" fill="#231F20"/>
<path fill-rule="evenodd" clip-rule="evenodd" d="M141.476 14.3253H144.407C146.298 14.3253 146.771 13.4744 146.771 12.718C146.771 11.7726 146.014 11.2053 144.596 11.2053H141.476V14.3253ZM141.476 19.998H145.258C147.149 19.998 147.527 19.1471 147.527 18.3907C147.527 17.6344 147.149 16.7835 145.163 16.7835H141.476V19.998ZM138.64 22.4562V8.65257H145.069C146.581 8.65257 147.811 9.03075 148.661 9.88166C149.323 10.5435 149.607 11.2998 149.607 12.1507C149.607 13.4744 149.04 14.4198 147.811 15.0817L147.621 15.1762L147.811 15.2707C149.607 15.9326 150.363 16.9726 150.363 18.5798C150.363 20.9435 148.472 22.3617 145.258 22.3617H138.64V22.4562Z" fill="#231F20"/>
<path fill-rule="evenodd" clip-rule="evenodd" d="M154.334 22.4562V14.2307H164.639V16.7835H157.17V19.9035H164.639V22.4562H154.334Z" fill="#231F20"/>
<path fill-rule="evenodd" clip-rule="evenodd" d="M175.607 22.7398C171.541 22.7398 168.516 19.7144 168.516 15.6489V15.5544C168.516 11.4889 171.636 8.36893 175.701 8.36893C177.97 8.36893 179.577 8.9362 181.09 10.4489L179.294 12.5289C178.065 11.4889 177.025 11.0162 175.701 11.0162C173.337 11.0162 171.541 12.9071 171.541 15.4598C171.541 18.0126 173.337 19.998 175.701 19.998C177.308 19.998 178.254 19.4307 179.388 18.3907L181.185 20.1871C179.577 21.9835 177.97 22.7398 175.607 22.7398Z" fill="#231F20"/>
<path fill-rule="evenodd" clip-rule="evenodd" d="M191.017 11.0162C188.559 11.0162 186.668 12.9071 186.668 15.4598C186.668 18.0126 188.559 19.998 191.017 19.998C193.475 19.998 195.366 18.1071 195.366 15.5544C195.366 13.0017 193.475 11.0162 191.017 11.0162ZM191.017 22.7398C186.857 22.7398 183.737 19.7144 183.737 15.6489C183.737 11.678 186.952 8.46347 191.112 8.46347C195.272 8.46347 198.486 11.4889 198.486 15.5544C198.392 19.6198 195.177 22.7398 191.017 22.7398Z" fill="#231F20"/>
<path d="M164.639 8.65257H154.334V11.2053H164.639V8.65257Z" fill="#0099B5"/>
<path fill-rule="evenodd" clip-rule="evenodd" d="M16.2032 22.5507C12.1378 22.5507 9.1123 19.5253 9.1123 15.4598C9.1123 11.3944 12.2323 8.27438 16.2978 8.27438C18.5669 8.27438 20.1741 8.84166 21.6869 10.3544L19.8905 12.4344C18.6614 11.3944 17.6214 10.9217 16.2978 10.9217C13.9341 10.9217 12.1378 12.9071 12.1378 15.3653C12.1378 17.918 13.9341 19.9035 16.2978 19.9035C17.905 19.9035 18.8505 19.3362 19.985 18.2962L21.7814 20.0926C20.1741 21.8889 18.5668 22.5507 16.2032 22.5507Z" fill="#0099B5"/>
<path fill-rule="evenodd" clip-rule="evenodd" d="M28.5887 16.6889H32.6541L30.6687 11.7726L28.5887 16.6889ZM34.9232 22.3617L33.5996 19.2417H27.5487L26.225 22.3617H23.3887L29.345 8.46347H32.0869L37.9487 22.3617C37.8541 22.3617 34.9232 22.3617 34.9232 22.3617Z" fill="#0099B5"/>
<path fill-rule="evenodd" clip-rule="evenodd" d="M50.1452 22.3617L43.1489 13.1907V22.3617H40.3125V8.55802H43.0543L49.767 17.4453V8.55802H52.6034V22.3617H50.1452Z" fill="#0099B5"/>
<path fill-rule="evenodd" clip-rule="evenodd" d="M60.2615 16.6889H64.327L62.3415 11.7726L60.2615 16.6889ZM66.5961 22.3617L65.2724 19.2417H59.2215L57.9924 22.3617H55.0615L60.9233 8.46347H63.6652L69.6215 22.3617C69.527 22.3617 66.5961 22.3617 66.5961 22.3617Z" fill="#0099B5"/>
<path fill-rule="evenodd" clip-rule="evenodd" d="M74.0647 15.3653H77.2792C78.792 15.3653 79.7374 14.5144 79.7374 13.2853C79.7374 11.9617 78.792 11.2053 77.1847 11.2053H73.9702L74.0647 15.3653ZM79.6429 22.3617L76.6174 17.8235H73.9702V22.3617H71.1338V8.55802H77.4683C79.1701 8.55802 80.5883 9.03074 81.4392 9.9762C82.1956 10.7326 82.5738 11.7726 82.5738 13.0962C82.5738 15.0817 81.5338 16.5944 79.6429 17.3507H79.5483L82.952 22.2671H79.6429V22.3617Z" fill="#0099B5"/>
<path fill-rule="evenodd" clip-rule="evenodd" d="M89.7594 16.6889H93.8248L91.7448 11.7726L89.7594 16.6889ZM96.0939 22.3617L94.7703 19.2417H88.7194L87.3958 22.3617H84.4648L90.4212 8.46347H93.0685L98.9303 22.3617C99.0248 22.3617 96.0939 22.3617 96.0939 22.3617Z" fill="#0099B5"/>
<path d="M104.414 43.4453C104.414 43.8235 104.509 44.1071 104.793 44.2962C105.076 44.4853 105.36 44.5798 105.643 44.5798C105.927 44.5798 106.211 44.4853 106.494 44.3907C106.683 44.2962 106.778 44.0126 106.778 43.7289C106.778 43.4453 106.589 43.2562 106.305 43.1617C106.022 43.0671 105.549 42.878 104.887 42.7835C104.32 42.6889 103.847 42.5944 103.469 42.4998C103.091 42.4053 102.713 42.2162 102.334 42.0271C101.956 41.838 101.673 41.5544 101.483 41.1762C101.294 40.798 101.2 40.4198 101.2 39.9471C101.2 39.3798 101.294 38.9071 101.578 38.5289C101.862 38.1507 102.145 37.8671 102.618 37.5835C102.996 37.3944 103.469 37.2053 104.036 37.1107C104.603 37.0162 105.076 36.9217 105.549 36.9217C106.116 36.9217 106.589 36.9217 107.156 37.0162C107.723 37.1107 108.102 37.2053 108.574 37.4889C109.047 37.678 109.331 37.9617 109.614 38.3398C109.898 38.718 110.087 39.1907 110.087 39.758H106.778C106.778 39.4744 106.589 39.2853 106.4 39.0962C106.211 38.9071 105.927 38.9071 105.643 38.9071C105.36 38.9071 105.076 39.0017 104.887 39.0962C104.698 39.1907 104.603 39.3798 104.603 39.5689C104.603 39.758 104.793 39.9471 105.076 40.0417C105.36 40.1362 105.833 40.2307 106.494 40.4198C107.062 40.5144 107.534 40.7035 108.007 40.798C108.385 40.8926 108.763 41.0817 109.142 41.2707C109.52 41.4598 109.803 41.7435 110.087 42.1217C110.276 42.4998 110.465 42.878 110.465 43.3507C110.465 44.2962 110.087 45.1471 109.236 45.6198C108.385 46.0926 107.156 46.4707 105.549 46.4707C104.982 46.4707 104.414 46.3762 103.942 46.2817C103.469 46.1871 102.996 45.998 102.523 45.8089C102.051 45.6198 101.767 45.2417 101.483 44.8635C101.2 44.4853 101.011 44.0126 101.011 43.3507H104.414V43.4453Z" fill="#0099B5"/>
<path d="M111.694 37.2998H115.003V38.6235C115.287 38.2453 115.665 37.8671 116.232 37.4889C116.799 37.1107 117.272 37.0162 117.934 37.0162C118.69 37.0162 119.352 37.2053 119.825 37.4889C120.298 37.7726 120.676 38.1507 120.865 38.718C121.621 37.5835 122.661 37.0162 123.985 37.0162C125.214 37.0162 126.159 37.3944 126.632 38.0562C127.199 38.718 127.389 39.6635 127.389 40.9871V46.3762H123.796V41.7435C123.796 41.0817 123.701 40.6089 123.512 40.3253C123.323 40.0417 123.039 39.9471 122.567 39.9471C122.094 39.9471 121.716 40.1362 121.527 40.5144C121.338 40.8926 121.243 41.3653 121.243 42.0271V46.4707H117.65V41.838C117.65 41.1762 117.556 40.7035 117.367 40.4198C117.178 40.1362 116.894 40.0417 116.421 40.0417C115.949 40.0417 115.57 40.2307 115.381 40.6089C115.192 40.9871 115.098 41.4598 115.098 42.1217V46.5653H111.505V37.2998H111.694Z" fill="#0099B5"/>
<path d="M135.425 46.2817L135.236 45.3362C134.764 45.8089 134.196 46.0926 133.724 46.2817C133.156 46.4707 132.589 46.5653 131.833 46.5653C130.887 46.5653 130.131 46.3762 129.564 45.9035C128.902 45.4307 128.618 44.7689 128.618 43.918C128.618 43.3507 128.713 42.878 128.996 42.4998C129.28 42.1217 129.564 41.838 130.036 41.6489C130.415 41.4598 130.887 41.2707 131.265 41.1762C131.738 41.0817 132.211 40.9871 132.873 40.8926C133.629 40.798 134.196 40.7035 134.575 40.6089C134.953 40.5144 135.047 40.3253 135.047 40.0417C135.047 39.758 134.953 39.5689 134.669 39.4744C134.385 39.3798 134.196 39.2853 133.913 39.2853C133.629 39.2853 133.345 39.3798 133.062 39.4744C132.778 39.5689 132.684 39.8526 132.684 40.1362H129.185C129.185 39.1907 129.564 38.4344 130.32 37.8671C131.076 37.3944 132.4 37.1107 134.102 37.1107C135.142 37.1107 135.993 37.2053 136.56 37.3944C137.222 37.5835 137.6 37.8671 137.884 38.1507C138.167 38.4344 138.356 38.8126 138.451 39.2853C138.545 39.6635 138.545 40.2307 138.545 40.8926V45.1471C138.545 45.4307 138.545 45.6198 138.64 45.8089C138.735 45.998 138.829 46.0926 139.018 46.2817V46.4707H135.425V46.2817ZM134.764 44.0126C135.047 43.6344 135.142 43.1617 135.142 42.5944V42.4053C135.142 42.4053 135.142 42.3107 135.142 42.2162C134.858 42.3107 134.48 42.4998 133.913 42.5944C133.44 42.6889 133.062 42.878 132.778 42.9726C132.589 43.0671 132.4 43.3507 132.4 43.7289C132.4 43.918 132.495 44.1071 132.684 44.2962C132.873 44.4853 133.156 44.4853 133.535 44.4853C134.102 44.4853 134.48 44.3907 134.764 44.0126Z" fill="#0099B5"/>
<path d="M140.625 37.2998H143.934V39.0962C144.407 37.678 145.352 37.0162 146.676 37.0162C146.77 37.0162 146.865 37.0162 146.96 37.0162H147.149V40.6089C147.149 40.6089 147.054 40.6089 146.865 40.6089C146.676 40.6089 146.487 40.5144 146.392 40.5144C145.636 40.5144 145.069 40.7035 144.69 41.0817C144.312 41.4598 144.123 42.1217 144.123 43.1617V46.2817H140.625V37.2998Z" fill="#0099B5"/>
<path d="M147.905 33.8962H159.345V37.2053H155.658V46.3762H151.593V37.2053H147.905V33.8962Z" fill="#231F20"/>
<path d="M164.072 33.9907H167.287L165.301 43.5398H171.069L170.501 46.2817H161.52L164.072 33.9907Z" fill="#F7961D"/>
<path d="M173.621 37.2998H176.552L174.661 46.2817H171.73L173.621 37.2998ZM176.741 36.1653H173.81L174.283 33.8962H177.214L176.741 36.1653Z" fill="#F7961D"/>
<path d="M178.727 37.2998H181.658L181.374 38.4344C181.847 37.8671 182.887 37.1107 184.494 37.1107C186.102 37.1107 187.047 38.0562 187.047 39.6635C187.047 40.2307 186.858 41.1762 186.763 41.5544L185.723 46.2817H182.792L183.832 41.5544C183.927 41.1762 184.022 40.798 184.022 40.4198C184.022 39.6635 183.549 39.2853 182.982 39.2853C181.185 39.2853 180.996 40.9871 180.618 42.4998L179.862 46.2817H176.931L178.727 37.2998Z" fill="#F7961D"/>
<path d="M190.356 33.9907H193.287L191.964 40.4198L194.989 37.3944H198.582L194.516 40.8926L196.785 46.3762H193.571L192.247 42.7835L191.207 43.6344L190.64 46.3762H187.709L190.356 33.9907Z" fill="#F7961D"/>
</svg>
