<svg width="48" height="48" viewBox="0 0 48 48" fill="none" xmlns="http://www.w3.org/2000/svg">
<rect width="48" height="48" rx="24" fill="#0082A0"/>
<g clip-path="url(#clip0_26404_52452)">
<path d="M20.4398 24.5284C20.4398 22.9857 19.3169 21.7305 17.9367 21.7305C16.5565 21.7305 15.4336 22.9857 15.4336 24.5284C15.4336 26.0712 16.5565 27.3264 17.9367 27.3264C19.3169 27.3264 20.4398 26.0712 20.4398 24.5284ZM17.9366 25.9592C17.3102 25.9592 16.8007 25.3174 16.8007 24.5284C16.8007 23.7395 17.3103 23.0977 17.9366 23.0977C18.563 23.0977 19.0726 23.7395 19.0726 24.5284C19.0726 25.3174 18.563 25.9592 17.9366 25.9592Z" fill="#FEFEFE"/>
<path d="M23.4992 28.4395C22.119 28.4395 20.9961 29.6946 20.9961 31.2374C20.9961 32.7802 22.119 34.0354 23.4992 34.0354C24.8794 34.0354 26.0023 32.7802 26.0023 31.2374C26.0023 29.6946 24.8794 28.4395 23.4992 28.4395ZM23.4992 32.6682C22.8729 32.6682 22.3633 32.0264 22.3633 31.2374C22.3633 30.4485 22.8729 29.8066 23.4992 29.8066C24.1256 29.8066 24.6351 30.4485 24.6351 31.2374C24.6351 32.0264 24.1255 32.6682 23.4992 32.6682Z" fill="#FEFEFE"/>
<path d="M37.125 25.4219H33.8438C33.3907 25.4219 33.0234 25.7892 33.0234 26.2422V28.7031H31.3525C31.2136 26.7935 30.6 24.7678 29.5899 22.9144C28.6891 21.2615 27.5141 19.8308 26.1998 18.7668C26.6959 18.3164 27.0078 17.6666 27.0078 16.9453C27.0078 15.6609 26.0186 14.6039 24.7622 14.4944L26.3779 11.1821C26.7013 10.5191 26.0536 9.79946 25.3603 10.0516L22.7098 11.0154L21.1257 10.1102C20.8736 9.96614 20.5639 9.96614 20.3118 10.1102L18.7277 11.0154L16.0772 10.0516C15.384 9.79946 14.7362 10.5191 15.0596 11.1821L16.6753 14.4944C15.4189 14.6038 14.4297 15.6609 14.4297 16.9453C14.4297 17.6666 14.7416 18.3164 15.2376 18.7669C13.9234 19.8308 12.7484 21.2615 11.8476 22.9144C10.6914 25.0358 10.0547 27.3829 10.0547 29.5234C10.0547 32.3354 11.1738 34.5973 13.2909 36.0645C15.118 37.3307 17.6865 38 20.7188 38C22.9012 38 24.8571 37.6486 26.4609 36.9759V37.1797C26.4609 37.6327 26.8282 38 27.2812 38H37.125C37.578 38 37.9453 37.6327 37.9453 37.1797V26.2422C37.9453 25.7892 37.578 25.4219 37.125 25.4219ZM18.5244 12.6872C18.751 12.7696 19.0023 12.7481 19.2117 12.6285L20.7188 11.7673L22.2258 12.6284C22.4352 12.7481 22.6866 12.7695 22.9131 12.6871L24.0135 12.287L22.9416 14.4844H18.4959L17.424 12.287L18.5244 12.6872ZM16.8906 16.125H24.5469C24.9992 16.125 25.3672 16.493 25.3672 16.9453C25.3672 17.3976 24.9992 17.7656 24.5469 17.7656H16.8906C16.4383 17.7656 16.0703 17.3976 16.0703 16.9453C16.0703 16.493 16.4383 16.125 16.8906 16.125ZM29.7422 36.3594H28.1016V33.625H29.7422V36.3594ZM29.7422 31.9844H27.2812C26.8282 31.9844 26.4609 32.3517 26.4609 32.8047V35.1651C24.9695 35.9475 22.9968 36.3594 20.7188 36.3594C18.0221 36.3594 15.7768 35.7911 14.2254 34.716C12.5466 33.5526 11.6953 31.8055 11.6953 29.5234C11.6953 25.6682 14.0299 21.3645 17.1562 19.4062H24.2813C27.4076 21.3645 29.7422 25.6682 29.7422 29.5234V31.9844ZM33.0234 36.3594H31.3828V30.3437H33.0234V36.3594ZM36.3047 36.3594H34.6641V27.0625H36.3047V36.3594Z" fill="#FEFEFE"/>
<path d="M23.1092 22.2409C22.7611 22.0948 22.3605 22.2586 22.2143 22.6068L18.0964 32.4189C17.9503 32.767 18.1141 33.1677 18.4622 33.3138C18.8104 33.4599 19.211 33.2961 19.3571 32.948L23.475 23.1359C23.6211 22.7877 23.4574 22.3871 23.1092 22.2409Z" fill="#FEFEFE"/>
</g>
<defs>
<clipPath id="clip0_26404_52452">
<rect width="28" height="28" fill="white" transform="translate(10 10)"/>
</clipPath>
</defs>
</svg>
