<svg width="48" height="48" viewBox="0 0 48 48" fill="none" xmlns="http://www.w3.org/2000/svg">
<rect width="48" height="48" rx="24" fill="#0082A0"/>
<g clip-path="url(#clip0_26389_52242)">
<path d="M23.9447 16.6183C20.1564 16.6445 17.1374 19.5378 16.6838 22.9835C16.088 27.5086 19.5664 31.3836 23.9994 31.3836C28.1439 31.3836 31.3822 28.0236 31.3822 24.0008C31.3822 19.8853 28.0123 16.5903 23.9447 16.6183ZM23.9994 29.743C22.8574 29.743 21.7736 29.4142 20.8535 28.8096C21.2598 27.4429 22.5372 26.4617 23.9994 26.4617C25.4615 26.4617 26.7388 27.4427 27.1453 28.8093C26.225 29.4141 25.1413 29.743 23.9994 29.743ZM22.3588 23.1805C22.3588 22.2758 23.0948 21.5398 23.9994 21.5398C24.9041 21.5398 25.64 22.2758 25.64 23.1805C25.64 24.0851 24.9041 24.8211 23.9994 24.8211C23.0948 24.8211 22.3588 24.0851 22.3588 23.1805ZM28.4459 27.6332C28.1593 27.0297 27.7506 26.4851 27.2391 26.0376C26.9732 25.8049 26.6846 25.6041 26.3795 25.4356C26.9374 24.8471 27.2807 24.0534 27.2807 23.1805C27.2807 21.3712 25.8087 19.8992 23.9994 19.8992C22.1901 19.8992 20.7182 21.3712 20.7182 23.1805C20.7182 24.0534 21.0614 24.8471 21.6193 25.4356C21.3142 25.6042 21.0255 25.805 20.7596 26.0377C20.2481 26.4853 19.8394 27.03 19.5528 27.6335C18.4954 26.3388 18.1014 24.7854 18.3104 23.1976C18.6584 20.5543 20.997 18.2579 24.0087 18.2579C27.2013 18.2579 29.7416 20.8745 29.7416 24.0008C29.7416 25.2998 29.318 26.5653 28.4459 27.6332Z" fill="#FEFEFE"/>
<path d="M37.1797 23.1797H36.2771C35.8756 17.039 30.9701 12.125 24.8203 11.7229V10.8203C24.8203 10.3673 24.453 10 24 10C23.547 10 23.1797 10.3673 23.1797 10.8203V11.7229C17.0389 12.1244 12.125 17.0299 11.7229 23.1797H10.8203C10.3673 23.1797 10 23.547 10 24C10 24.453 10.3673 24.8203 10.8203 24.8203H11.7229C12.1244 30.9611 17.0299 35.875 23.1797 36.2771V37.1797C23.1797 37.6327 23.547 38 24 38C24.453 38 24.8203 37.6327 24.8203 37.1797V36.2771C30.9611 35.8756 35.875 30.9701 36.2771 24.8203H37.1797C37.6327 24.8203 38 24.453 38 24C38 23.547 37.6327 23.1797 37.1797 23.1797ZM33.8438 24.8148H34.6328C34.2333 30.0425 30.0479 34.2333 24.8203 34.6328V33.8438C24.8203 33.3907 24.453 33.0234 24 33.0234C23.547 33.0234 23.1797 33.3907 23.1797 33.8438V34.6328C17.9521 34.2333 13.7667 30.0479 13.3672 24.8203H14.1562C14.6093 24.8203 14.9766 24.453 14.9766 24C14.9766 23.547 14.6093 23.1797 14.1562 23.1797H13.3672C13.7667 17.9521 17.9521 13.7667 23.1797 13.3672V14.1562C23.1797 14.6093 23.547 14.9766 24 14.9766C24.453 14.9766 24.8203 14.6093 24.8203 14.1562V13.3672C30.0479 13.7667 34.2333 17.9521 34.6328 23.1797H33.8438C33.3907 23.1797 33.0234 23.547 33.0234 24C33.0234 24.453 33.3907 24.8148 33.8438 24.8148Z" fill="#FEFEFE"/>
</g>
<defs>
<clipPath id="clip0_26389_52242">
<rect width="28" height="28" fill="white" transform="translate(10 10)"/>
</clipPath>
</defs>
</svg>
