<svg width="46" height="47" viewBox="0 0 46 47" fill="none" xmlns="http://www.w3.org/2000/svg">
<g clip-path="url(#clip0_20472_20167)">
<rect x="6.46875" y="7.06836" width="33.0625" height="33.4219" fill="white"/>
<path d="M24.5377 22.8134L34.8893 37.62H30.641L22.1938 25.5377V25.537L20.9536 23.7633L11.0859 9.64844H15.3343L23.2975 21.0397L24.5377 22.8134Z" fill="black"/>
<path d="M41.0296 0.599609H4.9704C2.2254 0.599609 0 2.825 0 5.57001V41.6292C0 44.3742 2.2254 46.5996 4.9704 46.5996H41.0296C43.7746 46.5996 46 44.3742 46 41.6292V5.57001C46 2.825 43.7746 0.599609 41.0296 0.599609ZM29.3403 39.6085L20.7922 27.1679L10.09 39.6085H7.32401L19.5641 25.3811L7.32401 7.56709H16.6597L24.7541 19.3475L34.8884 7.56709H37.6544L25.9827 21.1347H25.9819L38.676 39.6085H29.3403Z" fill="black"/>
</g>
<defs>
<clipPath id="clip0_20472_20167">
<rect width="46" height="46" fill="white" transform="translate(0 0.599609)"/>
</clipPath>
</defs>
</svg>
