<svg width="708" height="600" viewBox="0 0 708 600" fill="none" xmlns="http://www.w3.org/2000/svg">
<g clip-path="url(#clip0_12_11669)">
<rect opacity="0.4" width="708" height="598.358" transform="matrix(-1 0 0 1 708 -0.281311)" fill="url(#paint0_radial_12_11669)" fill-opacity="0.6"/>
<g opacity="0.7">
<path opacity="0.11" d="M522.59 487.423C522.148 487.11 522.022 486.465 522.309 485.983C522.596 485.501 523.186 485.363 523.628 485.676C524.07 485.989 524.196 486.634 523.909 487.116C523.623 487.599 523.032 487.736 522.59 487.423Z" fill="white"/>
<path d="M517.138 490.384C516.807 490.149 516.713 489.666 516.928 489.304C517.143 488.942 517.586 488.839 517.917 489.074C518.248 489.309 518.343 489.792 518.128 490.154C517.913 490.515 517.47 490.618 517.138 490.384Z" fill="white"/>
<path d="M509.387 471.871C509.055 471.637 508.961 471.153 509.176 470.792C509.391 470.43 509.834 470.327 510.166 470.562C510.497 470.796 510.591 471.28 510.376 471.641C510.161 472.003 509.718 472.106 509.387 471.871Z" fill="white"/>
<path d="M543.906 495.073C543.574 494.839 543.48 494.355 543.695 493.993C543.91 493.632 544.353 493.529 544.685 493.764C545.016 493.998 545.11 494.482 544.895 494.843C544.68 495.205 544.237 495.308 543.906 495.073Z" fill="white"/>
<path opacity="0.11" d="M557.477 519.572C557.035 519.259 556.909 518.614 557.196 518.132C557.483 517.649 558.074 517.512 558.516 517.825C558.958 518.138 559.083 518.783 558.797 519.265C558.51 519.747 557.919 519.885 557.477 519.572Z" fill="white"/>
<path d="M570.784 515.349C570.563 515.193 570.5 514.871 570.644 514.63C570.787 514.389 571.082 514.32 571.303 514.476C571.524 514.633 571.587 514.955 571.444 515.196C571.3 515.437 571.005 515.506 570.784 515.349Z" fill="white"/>
<path d="M513.67 505.296C513.45 505.139 513.387 504.817 513.53 504.576C513.673 504.335 513.969 504.267 514.189 504.423C514.41 504.58 514.473 504.902 514.33 505.143C514.187 505.384 513.891 505.452 513.67 505.296Z" fill="white"/>
<path d="M426.471 443.546C426.25 443.39 426.187 443.068 426.33 442.827C426.474 442.586 426.769 442.517 426.99 442.674C427.211 442.83 427.273 443.152 427.13 443.393C426.987 443.634 426.692 443.703 426.471 443.546Z" fill="white"/>
<path d="M396.893 389.101C396.672 388.944 396.609 388.622 396.752 388.381C396.896 388.14 397.191 388.072 397.412 388.228C397.632 388.384 397.695 388.707 397.552 388.948C397.409 389.189 397.113 389.257 396.893 389.101Z" fill="white"/>
<path d="M362.341 409.916C362.12 409.76 362.058 409.437 362.201 409.196C362.344 408.955 362.639 408.887 362.86 409.043C363.081 409.2 363.144 409.522 363.001 409.763C362.857 410.004 362.562 410.072 362.341 409.916Z" fill="white"/>
<path d="M653.354 588.709C653.133 588.553 653.07 588.231 653.214 587.99C653.357 587.749 653.652 587.68 653.873 587.837C654.094 587.993 654.157 588.315 654.013 588.556C653.87 588.797 653.575 588.866 653.354 588.709Z" fill="white"/>
<path opacity="0.11" d="M673.367 569.386C673.146 569.23 673.083 568.908 673.226 568.667C673.37 568.426 673.665 568.357 673.886 568.514C674.107 568.67 674.169 568.992 674.026 569.233C673.883 569.474 673.588 569.543 673.367 569.386Z" fill="white"/>
<path opacity="0.11" d="M684.593 591.605C684.372 591.449 684.31 591.127 684.453 590.886C684.596 590.645 684.891 590.576 685.112 590.733C685.333 590.889 685.396 591.211 685.253 591.452C685.109 591.693 684.814 591.762 684.593 591.605Z" fill="white"/>
<path opacity="0.11" d="M571.014 523.573C570.793 523.416 570.73 523.094 570.873 522.853C571.017 522.612 571.312 522.544 571.533 522.7C571.754 522.857 571.816 523.179 571.673 523.42C571.53 523.661 571.235 523.729 571.014 523.573Z" fill="white"/>
<path opacity="0.11" d="M505.119 521.576C504.898 521.42 504.835 521.098 504.979 520.857C505.122 520.616 505.417 520.547 505.638 520.703C505.859 520.86 505.922 521.182 505.779 521.423C505.635 521.664 505.34 521.733 505.119 521.576Z" fill="white"/>
<path opacity="0.11" d="M430.924 462.826C430.703 462.669 430.641 462.347 430.784 462.106C430.927 461.865 431.222 461.797 431.443 461.953C431.664 462.109 431.727 462.432 431.584 462.673C431.44 462.914 431.145 462.982 430.924 462.826Z" fill="white"/>
<path opacity="0.3" d="M641.441 564.766C641.221 564.61 641.158 564.288 641.301 564.047C641.444 563.806 641.74 563.737 641.96 563.894C642.181 564.05 642.244 564.372 642.101 564.613C641.958 564.854 641.662 564.923 641.441 564.766Z" fill="white"/>
<path d="M563.465 476.047C563.244 475.891 563.181 475.569 563.324 475.328C563.468 475.087 563.763 475.018 563.984 475.174C564.205 475.331 564.268 475.653 564.124 475.894C563.981 476.135 563.686 476.204 563.465 476.047Z" fill="white"/>
<path d="M502.386 431.554C502.165 431.397 502.103 431.075 502.246 430.834C502.389 430.593 502.684 430.525 502.905 430.681C503.126 430.838 503.189 431.16 503.046 431.401C502.902 431.642 502.607 431.71 502.386 431.554Z" fill="white"/>
<path d="M566.782 535.465C566.561 535.309 566.498 534.987 566.641 534.746C566.785 534.505 567.08 534.436 567.301 534.593C567.522 534.749 567.585 535.071 567.441 535.312C567.298 535.553 567.003 535.622 566.782 535.465Z" fill="white"/>
<path opacity="0.3" d="M594.781 555.295C594.56 555.138 594.497 554.816 594.64 554.575C594.784 554.334 595.079 554.266 595.3 554.422C595.521 554.579 595.584 554.901 595.44 555.142C595.297 555.383 595.002 555.451 594.781 555.295Z" fill="white"/>
<path opacity="0.11" d="M643.668 551.457C643.447 551.301 643.384 550.978 643.528 550.737C643.671 550.496 643.966 550.428 644.187 550.584C644.408 550.741 644.471 551.063 644.327 551.304C644.184 551.545 643.889 551.613 643.668 551.457Z" fill="white"/>
<path opacity="0.3" d="M550.03 481.424C549.809 481.267 549.747 480.945 549.89 480.704C550.033 480.463 550.328 480.395 550.549 480.551C550.77 480.708 550.833 481.03 550.69 481.271C550.546 481.512 550.251 481.58 550.03 481.424Z" fill="white"/>
<path opacity="0.3" d="M555.047 538.943C554.827 538.787 554.764 538.465 554.907 538.224C555.05 537.983 555.346 537.914 555.566 538.071C555.787 538.227 555.85 538.549 555.707 538.79C555.564 539.031 555.268 539.1 555.047 538.943Z" fill="white"/>
<path opacity="0.3" d="M600.852 577.581C600.631 577.425 600.568 577.103 600.711 576.862C600.854 576.621 601.15 576.552 601.371 576.709C601.591 576.865 601.654 577.187 601.511 577.428C601.368 577.669 601.072 577.738 600.852 577.581Z" fill="white"/>
<path opacity="0.3" d="M629.839 556.553C629.619 556.397 629.556 556.075 629.699 555.834C629.842 555.593 630.138 555.524 630.358 555.68C630.579 555.837 630.642 556.159 630.499 556.4C630.355 556.641 630.06 556.71 629.839 556.553Z" fill="white"/>
<path opacity="0.3" d="M381.834 379.058C381.613 378.902 381.55 378.58 381.694 378.339C381.837 378.098 382.132 378.029 382.353 378.186C382.574 378.342 382.637 378.664 382.493 378.905C382.35 379.146 382.055 379.215 381.834 379.058Z" fill="white"/>
<path opacity="0.11" d="M456.874 406.765C456.653 406.609 456.59 406.286 456.734 406.045C456.877 405.804 457.172 405.736 457.393 405.892C457.614 406.049 457.677 406.371 457.533 406.612C457.39 406.853 457.095 406.921 456.874 406.765Z" fill="white"/>
<path opacity="0.11" d="M381.472 405.472C381.251 405.316 381.188 404.994 381.331 404.753C381.475 404.512 381.77 404.443 381.991 404.6C382.212 404.756 382.274 405.078 382.131 405.319C381.988 405.56 381.693 405.629 381.472 405.472Z" fill="white"/>
<path opacity="0.3" d="M480.332 481.067C479.89 480.754 479.764 480.11 480.051 479.627C480.338 479.145 480.929 479.008 481.371 479.321C481.813 479.634 481.938 480.278 481.652 480.761C481.365 481.243 480.774 481.38 480.332 481.067Z" fill="white"/>
<path opacity="0.11" d="M464.517 451.26C464.076 450.947 463.95 450.303 464.237 449.82C464.523 449.338 465.114 449.201 465.556 449.514C465.998 449.827 466.124 450.472 465.837 450.954C465.55 451.436 464.959 451.573 464.517 451.26Z" fill="white"/>
<path d="M473.801 436.126C473.47 435.891 473.376 435.407 473.591 435.046C473.806 434.684 474.249 434.581 474.58 434.816C474.912 435.051 475.006 435.534 474.791 435.896C474.576 436.257 474.133 436.36 473.801 436.126Z" fill="white"/>
<path d="M474.143 501.501C473.812 501.266 473.717 500.782 473.933 500.421C474.148 500.059 474.591 499.956 474.922 500.191C475.253 500.426 475.348 500.909 475.133 501.271C474.918 501.632 474.475 501.735 474.143 501.501Z" fill="white"/>
<path d="M336.16 416.189C335.829 415.954 335.735 415.47 335.95 415.109C336.165 414.747 336.608 414.644 336.939 414.879C337.27 415.114 337.365 415.597 337.15 415.959C336.935 416.32 336.492 416.423 336.16 416.189Z" fill="white"/>
<path d="M600.164 592.602C599.832 592.367 599.738 591.884 599.953 591.522C600.168 591.161 600.611 591.058 600.942 591.292C601.274 591.527 601.368 592.01 601.153 592.372C600.938 592.734 600.495 592.837 600.164 592.602Z" fill="white"/>
<path d="M487.807 458.451C487.475 458.216 487.381 457.733 487.596 457.371C487.811 457.01 488.254 456.907 488.586 457.141C488.917 457.376 489.011 457.86 488.796 458.221C488.581 458.583 488.138 458.686 487.807 458.451Z" fill="white"/>
<path d="M538.197 540.037C537.865 539.802 537.771 539.319 537.986 538.957C538.201 538.596 538.644 538.493 538.976 538.727C539.307 538.962 539.401 539.446 539.186 539.807C538.971 540.169 538.528 540.272 538.197 540.037Z" fill="white"/>
<path d="M426.239 487.426C425.908 487.191 425.814 486.708 426.029 486.346C426.244 485.985 426.687 485.882 427.018 486.116C427.35 486.351 427.444 486.834 427.229 487.196C427.014 487.558 426.571 487.661 426.239 487.426Z" fill="white"/>
<path d="M337.899 382.681C337.568 382.446 337.473 381.963 337.688 381.601C337.903 381.24 338.346 381.137 338.678 381.372C339.009 381.606 339.103 382.09 338.888 382.451C338.673 382.813 338.23 382.916 337.899 382.681Z" fill="white"/>
<path d="M342.574 351.876C342.243 351.642 342.149 351.158 342.364 350.797C342.579 350.435 343.022 350.332 343.353 350.567C343.684 350.802 343.779 351.285 343.564 351.647C343.349 352.008 342.906 352.111 342.574 351.876Z" fill="white"/>
<path opacity="0.3" d="M440.541 413.192C440.099 412.879 439.973 412.234 440.26 411.752C440.547 411.27 441.138 411.132 441.58 411.445C442.022 411.758 442.147 412.403 441.861 412.885C441.574 413.368 440.983 413.505 440.541 413.192Z" fill="white"/>
<path d="M458.974 382.203C458.532 381.89 458.406 381.245 458.693 380.763C458.98 380.281 459.571 380.143 460.013 380.456C460.455 380.769 460.58 381.414 460.294 381.896C460.007 382.379 459.416 382.516 458.974 382.203Z" fill="white"/>
<path d="M414.232 408.207C413.901 407.972 413.807 407.489 414.022 407.127C414.237 406.766 414.68 406.663 415.011 406.897C415.343 407.132 415.437 407.616 415.222 407.977C415.007 408.339 414.564 408.442 414.232 408.207Z" fill="white"/>
<path opacity="0.3" d="M404.955 377.446C404.514 377.133 404.388 376.488 404.675 376.006C404.961 375.524 405.552 375.387 405.994 375.7C406.436 376.013 406.562 376.657 406.275 377.14C405.988 377.622 405.397 377.759 404.955 377.446Z" fill="white"/>
<path opacity="0.3" d="M346.928 380.394C346.486 380.081 346.36 379.436 346.647 378.954C346.934 378.472 347.524 378.334 347.966 378.647C348.408 378.96 348.534 379.605 348.247 380.087C347.96 380.57 347.37 380.707 346.928 380.394Z" fill="white"/>
<path opacity="0.3" d="M393.208 414.407C392.766 414.094 392.641 413.449 392.927 412.967C393.214 412.485 393.805 412.347 394.247 412.66C394.689 412.973 394.815 413.618 394.528 414.101C394.241 414.583 393.65 414.72 393.208 414.407Z" fill="white"/>
<path opacity="0.3" d="M618.385 584.416C617.943 584.103 617.817 583.458 618.104 582.976C618.391 582.494 618.981 582.356 619.423 582.669C619.865 582.982 619.991 583.627 619.704 584.109C619.417 584.592 618.827 584.729 618.385 584.416Z" fill="white"/>
<path opacity="0.3" d="M665.064 583.355C664.622 583.042 664.496 582.397 664.783 581.915C665.07 581.433 665.661 581.295 666.103 581.608C666.545 581.921 666.67 582.566 666.383 583.048C666.097 583.531 665.506 583.668 665.064 583.355Z" fill="white"/>
<path opacity="0.11" d="M371.115 378.913C370.673 378.6 370.547 377.955 370.834 377.473C371.121 376.991 371.712 376.853 372.154 377.166C372.596 377.479 372.722 378.124 372.435 378.607C372.148 379.089 371.557 379.226 371.115 378.913Z" fill="white"/>
<path opacity="0.3" d="M616.691 528.01C616.249 527.697 616.123 527.052 616.41 526.569C616.697 526.087 617.288 525.95 617.73 526.263C618.171 526.576 618.297 527.221 618.01 527.703C617.724 528.185 617.133 528.323 616.691 528.01Z" fill="white"/>
<path opacity="0.11" d="M632.682 526.928C632.24 526.615 632.114 525.97 632.401 525.488C632.687 525.006 633.278 524.868 633.72 525.181C634.162 525.494 634.288 526.139 634.001 526.621C633.714 527.104 633.124 527.241 632.682 526.928Z" fill="white"/>
<path opacity="0.3" d="M619.267 557.128C618.825 556.815 618.699 556.17 618.986 555.688C619.272 555.206 619.863 555.069 620.305 555.382C620.747 555.695 620.873 556.339 620.586 556.822C620.299 557.304 619.709 557.441 619.267 557.128Z" fill="white"/>
<path d="M594.531 538.989C594.2 538.754 594.106 538.271 594.321 537.909C594.536 537.548 594.979 537.445 595.31 537.68C595.642 537.914 595.736 538.398 595.521 538.759C595.306 539.121 594.863 539.224 594.531 538.989Z" fill="white"/>
<path opacity="0.11" d="M463.535 256.173C463.093 255.86 462.967 255.215 463.254 254.733C463.541 254.251 464.132 254.113 464.574 254.426C465.016 254.739 465.141 255.384 464.855 255.866C464.568 256.349 463.977 256.486 463.535 256.173Z" fill="white"/>
<path d="M458.082 259.134C457.751 258.9 457.656 258.416 457.871 258.055C458.087 257.693 458.53 257.59 458.861 257.825C459.192 258.06 459.287 258.543 459.072 258.905C458.856 259.266 458.413 259.369 458.082 259.134Z" fill="white"/>
<path d="M450.331 240.621C450 240.387 449.905 239.903 450.12 239.541C450.336 239.18 450.779 239.077 451.11 239.312C451.441 239.546 451.536 240.03 451.321 240.391C451.106 240.753 450.663 240.856 450.331 240.621Z" fill="white"/>
<path d="M484.851 263.824C484.52 263.589 484.425 263.106 484.641 262.744C484.856 262.382 485.299 262.279 485.63 262.514C485.961 262.749 486.056 263.232 485.841 263.594C485.626 263.956 485.183 264.058 484.851 263.824Z" fill="white"/>
<path opacity="0.11" d="M498.422 288.321C497.98 288.008 497.854 287.364 498.141 286.881C498.428 286.399 499.018 286.262 499.46 286.575C499.902 286.888 500.028 287.532 499.741 288.015C499.455 288.497 498.864 288.634 498.422 288.321Z" fill="white"/>
<path d="M511.73 284.1C511.509 283.944 511.446 283.622 511.589 283.381C511.732 283.14 512.028 283.071 512.249 283.228C512.469 283.384 512.532 283.706 512.389 283.947C512.246 284.188 511.95 284.257 511.73 284.1Z" fill="white"/>
<path d="M454.616 274.047C454.395 273.89 454.332 273.568 454.475 273.327C454.619 273.086 454.914 273.018 455.135 273.174C455.356 273.331 455.418 273.653 455.275 273.894C455.132 274.135 454.837 274.203 454.616 274.047Z" fill="white"/>
<path d="M367.416 212.298C367.195 212.141 367.132 211.819 367.276 211.578C367.419 211.337 367.714 211.269 367.935 211.425C368.156 211.582 368.219 211.904 368.075 212.145C367.932 212.386 367.637 212.454 367.416 212.298Z" fill="white"/>
<path d="M337.838 157.851C337.617 157.695 337.554 157.373 337.697 157.132C337.841 156.891 338.136 156.822 338.357 156.979C338.578 157.135 338.641 157.457 338.497 157.698C338.354 157.939 338.059 158.008 337.838 157.851Z" fill="white"/>
<path d="M303.287 178.669C303.066 178.512 303.003 178.19 303.147 177.949C303.29 177.708 303.585 177.64 303.806 177.796C304.027 177.952 304.09 178.275 303.947 178.516C303.803 178.757 303.508 178.825 303.287 178.669Z" fill="white"/>
<path d="M594.298 357.46C594.077 357.303 594.015 356.981 594.158 356.74C594.301 356.499 594.596 356.43 594.817 356.587C595.038 356.743 595.101 357.065 594.958 357.306C594.814 357.547 594.519 357.616 594.298 357.46Z" fill="white"/>
<path opacity="0.11" d="M614.312 338.137C614.091 337.981 614.028 337.658 614.171 337.417C614.314 337.177 614.61 337.108 614.831 337.264C615.051 337.421 615.114 337.743 614.971 337.984C614.828 338.225 614.532 338.293 614.312 338.137Z" fill="white"/>
<path opacity="0.11" d="M625.539 360.356C625.318 360.2 625.255 359.877 625.399 359.636C625.542 359.395 625.837 359.327 626.058 359.483C626.279 359.64 626.342 359.962 626.199 360.203C626.055 360.444 625.76 360.512 625.539 360.356Z" fill="white"/>
<path opacity="0.11" d="M596.766 377.198C596.545 377.042 596.482 376.72 596.626 376.479C596.769 376.238 597.064 376.169 597.285 376.326C597.506 376.482 597.569 376.804 597.426 377.045C597.282 377.286 596.987 377.355 596.766 377.198Z" fill="white"/>
<path opacity="0.11" d="M511.958 292.323C511.737 292.167 511.674 291.844 511.818 291.603C511.961 291.362 512.256 291.294 512.477 291.45C512.698 291.607 512.761 291.929 512.617 292.17C512.474 292.411 512.179 292.479 511.958 292.323Z" fill="white"/>
<path opacity="0.11" d="M446.065 290.327C445.844 290.17 445.781 289.848 445.925 289.607C446.068 289.366 446.363 289.298 446.584 289.454C446.805 289.61 446.868 289.933 446.724 290.174C446.581 290.415 446.286 290.483 446.065 290.327Z" fill="white"/>
<path opacity="0.11" d="M371.869 231.576C371.648 231.419 371.585 231.097 371.728 230.856C371.872 230.615 372.167 230.547 372.388 230.703C372.609 230.86 372.671 231.182 372.528 231.423C372.385 231.664 372.09 231.732 371.869 231.576Z" fill="white"/>
<path opacity="0.3" d="M582.387 333.517C582.166 333.36 582.103 333.038 582.246 332.797C582.39 332.556 582.685 332.488 582.906 332.644C583.127 332.801 583.189 333.123 583.046 333.364C582.903 333.605 582.608 333.673 582.387 333.517Z" fill="white"/>
<path d="M504.409 244.797C504.188 244.641 504.125 244.319 504.269 244.078C504.412 243.837 504.707 243.768 504.928 243.924C505.149 244.081 505.212 244.403 505.069 244.644C504.925 244.885 504.63 244.954 504.409 244.797Z" fill="white"/>
<path d="M443.332 200.304C443.111 200.147 443.048 199.825 443.191 199.584C443.334 199.343 443.63 199.274 443.851 199.431C444.071 199.587 444.134 199.909 443.991 200.15C443.848 200.391 443.552 200.46 443.332 200.304Z" fill="white"/>
<path d="M507.727 304.216C507.506 304.06 507.443 303.737 507.586 303.496C507.729 303.255 508.025 303.187 508.246 303.343C508.466 303.5 508.529 303.822 508.386 304.063C508.243 304.304 507.947 304.372 507.727 304.216Z" fill="white"/>
<path opacity="0.3" d="M535.726 324.045C535.505 323.888 535.442 323.566 535.585 323.325C535.729 323.084 536.024 323.015 536.245 323.172C536.465 323.328 536.528 323.65 536.385 323.891C536.242 324.132 535.947 324.201 535.726 324.045Z" fill="white"/>
<path opacity="0.11" d="M584.613 320.208C584.392 320.052 584.33 319.73 584.473 319.489C584.616 319.248 584.911 319.179 585.132 319.336C585.353 319.492 585.416 319.814 585.273 320.055C585.129 320.296 584.834 320.365 584.613 320.208Z" fill="white"/>
<path opacity="0.3" d="M490.975 250.173C490.754 250.017 490.691 249.695 490.835 249.454C490.978 249.213 491.273 249.144 491.494 249.301C491.715 249.457 491.778 249.779 491.635 250.02C491.491 250.261 491.196 250.33 490.975 250.173Z" fill="white"/>
<path opacity="0.3" d="M495.992 307.693C495.771 307.537 495.708 307.215 495.852 306.974C495.995 306.733 496.29 306.664 496.511 306.821C496.732 306.977 496.795 307.299 496.652 307.54C496.508 307.781 496.213 307.85 495.992 307.693Z" fill="white"/>
<path opacity="0.3" d="M541.796 346.332C541.575 346.176 541.512 345.854 541.656 345.613C541.799 345.372 542.094 345.303 542.315 345.46C542.536 345.616 542.599 345.938 542.455 346.179C542.312 346.42 542.017 346.489 541.796 346.332Z" fill="white"/>
<path opacity="0.3" d="M570.785 325.304C570.564 325.148 570.501 324.826 570.644 324.585C570.788 324.344 571.083 324.275 571.304 324.431C571.525 324.588 571.587 324.91 571.444 325.151C571.301 325.392 571.006 325.461 570.785 325.304Z" fill="white"/>
<path opacity="0.3" d="M322.779 147.809C322.558 147.652 322.495 147.33 322.638 147.089C322.782 146.848 323.077 146.779 323.298 146.936C323.519 147.092 323.582 147.414 323.438 147.655C323.295 147.896 323 147.965 322.779 147.809Z" fill="white"/>
<path opacity="0.11" d="M397.819 175.517C397.598 175.36 397.535 175.038 397.678 174.797C397.822 174.556 398.117 174.488 398.338 174.644C398.559 174.801 398.622 175.123 398.478 175.364C398.335 175.605 398.04 175.673 397.819 175.517Z" fill="white"/>
<path opacity="0.11" d="M322.418 174.224C322.197 174.067 322.134 173.745 322.277 173.504C322.42 173.263 322.716 173.195 322.936 173.351C323.157 173.507 323.22 173.83 323.077 174.071C322.934 174.312 322.638 174.38 322.418 174.224Z" fill="white"/>
<path opacity="0.3" d="M421.276 249.818C420.834 249.505 420.709 248.86 420.995 248.378C421.282 247.896 421.873 247.759 422.315 248.072C422.757 248.385 422.883 249.029 422.596 249.512C422.309 249.994 421.718 250.131 421.276 249.818Z" fill="white"/>
<path opacity="0.11" d="M405.463 220.011C405.021 219.698 404.896 219.053 405.182 218.571C405.469 218.089 406.06 217.951 406.502 218.264C406.944 218.577 407.07 219.222 406.783 219.704C406.496 220.187 405.905 220.324 405.463 220.011Z" fill="white"/>
<path d="M414.746 204.875C414.415 204.641 414.32 204.157 414.536 203.796C414.751 203.434 415.194 203.331 415.525 203.566C415.856 203.801 415.951 204.284 415.736 204.646C415.521 205.007 415.078 205.11 414.746 204.875Z" fill="white"/>
<path d="M415.088 270.25C414.757 270.016 414.663 269.532 414.878 269.171C415.093 268.809 415.536 268.706 415.867 268.941C416.199 269.175 416.293 269.659 416.078 270.02C415.863 270.382 415.42 270.485 415.088 270.25Z" fill="white"/>
<path d="M277.106 184.939C276.774 184.704 276.68 184.221 276.895 183.859C277.11 183.498 277.553 183.395 277.884 183.629C278.216 183.864 278.31 184.348 278.095 184.709C277.88 185.071 277.437 185.174 277.106 184.939Z" fill="white"/>
<path d="M541.108 361.352C540.777 361.118 540.683 360.634 540.898 360.273C541.113 359.911 541.556 359.808 541.887 360.043C542.219 360.278 542.313 360.761 542.098 361.123C541.883 361.484 541.44 361.587 541.108 361.352Z" fill="white"/>
<path d="M600.271 388.986C599.94 388.751 599.845 388.267 600.06 387.906C600.276 387.544 600.718 387.441 601.05 387.676C601.381 387.911 601.476 388.394 601.261 388.756C601.045 389.117 600.602 389.22 600.271 388.986Z" fill="white"/>
<path d="M617.455 376.342C617.124 376.107 617.029 375.624 617.245 375.262C617.46 374.901 617.903 374.798 618.234 375.032C618.565 375.267 618.66 375.75 618.445 376.112C618.23 376.474 617.787 376.577 617.455 376.342Z" fill="white"/>
<path d="M428.752 227.202C428.421 226.967 428.326 226.484 428.541 226.122C428.756 225.76 429.199 225.658 429.531 225.892C429.862 226.127 429.957 226.61 429.741 226.972C429.526 227.334 429.083 227.437 428.752 227.202Z" fill="white"/>
<path d="M479.142 308.787C478.811 308.552 478.716 308.069 478.932 307.707C479.147 307.345 479.59 307.242 479.921 307.477C480.252 307.712 480.347 308.195 480.132 308.557C479.917 308.919 479.474 309.021 479.142 308.787Z" fill="white"/>
<path d="M367.185 256.176C366.854 255.941 366.759 255.458 366.975 255.096C367.19 254.734 367.633 254.631 367.964 254.866C368.295 255.101 368.39 255.584 368.175 255.946C367.96 256.307 367.517 256.41 367.185 256.176Z" fill="white"/>
<path d="M278.843 151.431C278.512 151.197 278.418 150.713 278.633 150.352C278.848 149.99 279.291 149.887 279.622 150.122C279.954 150.356 280.048 150.84 279.833 151.201C279.618 151.563 279.175 151.666 278.843 151.431Z" fill="white"/>
<path d="M283.519 120.628C283.187 120.394 283.093 119.91 283.308 119.548C283.523 119.187 283.966 119.084 284.297 119.319C284.629 119.553 284.723 120.037 284.508 120.398C284.293 120.76 283.85 120.863 283.519 120.628Z" fill="white"/>
<path opacity="0.3" d="M381.486 181.942C381.044 181.629 380.918 180.984 381.205 180.502C381.492 180.019 382.083 179.882 382.525 180.195C382.967 180.508 383.093 181.153 382.806 181.635C382.519 182.117 381.928 182.255 381.486 181.942Z" fill="white"/>
<path d="M399.919 150.954C399.477 150.641 399.352 149.996 399.638 149.514C399.925 149.031 400.516 148.894 400.958 149.207C401.4 149.52 401.526 150.165 401.239 150.647C400.952 151.129 400.361 151.267 399.919 150.954Z" fill="white"/>
<path d="M355.177 176.958C354.846 176.723 354.752 176.239 354.967 175.878C355.182 175.516 355.625 175.413 355.956 175.648C356.288 175.883 356.382 176.366 356.167 176.728C355.952 177.089 355.509 177.192 355.177 176.958Z" fill="white"/>
<path opacity="0.3" d="M345.9 146.196C345.458 145.883 345.333 145.239 345.619 144.756C345.906 144.274 346.497 144.137 346.939 144.45C347.381 144.763 347.507 145.407 347.22 145.89C346.933 146.372 346.342 146.509 345.9 146.196Z" fill="white"/>
<path opacity="0.3" d="M287.873 149.144C287.431 148.831 287.306 148.187 287.593 147.704C287.879 147.222 288.47 147.085 288.912 147.398C289.354 147.711 289.48 148.356 289.193 148.838C288.906 149.32 288.315 149.457 287.873 149.144Z" fill="white"/>
<path opacity="0.3" d="M334.153 183.158C333.711 182.845 333.585 182.2 333.872 181.718C334.159 181.235 334.75 181.098 335.192 181.411C335.634 181.724 335.76 182.369 335.473 182.851C335.186 183.333 334.595 183.471 334.153 183.158Z" fill="white"/>
<path opacity="0.3" d="M559.33 353.167C558.888 352.854 558.762 352.209 559.049 351.727C559.335 351.244 559.926 351.107 560.368 351.42C560.81 351.733 560.936 352.378 560.649 352.86C560.362 353.342 559.771 353.48 559.33 353.167Z" fill="white"/>
<path opacity="0.3" d="M606.009 352.106C605.567 351.793 605.441 351.149 605.728 350.666C606.015 350.184 606.606 350.047 607.048 350.36C607.49 350.673 607.616 351.317 607.329 351.8C607.042 352.282 606.451 352.419 606.009 352.106Z" fill="white"/>
<path opacity="0.11" d="M312.06 147.664C311.618 147.351 311.492 146.706 311.779 146.224C312.066 145.741 312.657 145.604 313.099 145.917C313.541 146.23 313.666 146.875 313.38 147.357C313.093 147.839 312.502 147.977 312.06 147.664Z" fill="white"/>
<path opacity="0.3" d="M557.636 296.761C557.194 296.448 557.068 295.803 557.355 295.321C557.642 294.839 558.233 294.701 558.675 295.014C559.117 295.327 559.243 295.972 558.956 296.454C558.669 296.937 558.078 297.074 557.636 296.761Z" fill="white"/>
<path opacity="0.11" d="M573.627 295.678C573.185 295.365 573.06 294.72 573.346 294.238C573.633 293.755 574.224 293.618 574.666 293.931C575.108 294.244 575.234 294.889 574.947 295.371C574.66 295.853 574.069 295.991 573.627 295.678Z" fill="white"/>
<path opacity="0.3" d="M560.211 325.879C559.769 325.566 559.644 324.921 559.93 324.439C560.217 323.956 560.808 323.819 561.25 324.132C561.692 324.445 561.818 325.09 561.531 325.572C561.244 326.054 560.653 326.192 560.211 325.879Z" fill="white"/>
<path d="M535.476 307.739C535.144 307.504 535.05 307.021 535.265 306.659C535.48 306.298 535.923 306.195 536.254 306.43C536.586 306.664 536.68 307.148 536.465 307.509C536.25 307.871 535.807 307.974 535.476 307.739Z" fill="white"/>
<path opacity="0.11" d="M212.541 175.617C212.099 175.304 211.974 174.659 212.261 174.177C212.547 173.694 213.138 173.557 213.58 173.87C214.022 174.183 214.148 174.828 213.861 175.31C213.574 175.792 212.983 175.93 212.541 175.617Z" fill="white"/>
<path d="M207.089 178.577C206.758 178.343 206.664 177.859 206.879 177.498C207.094 177.136 207.537 177.033 207.868 177.268C208.2 177.502 208.294 177.986 208.079 178.347C207.864 178.709 207.421 178.812 207.089 178.577Z" fill="white"/>
<path d="M199.338 160.065C199.007 159.83 198.912 159.347 199.127 158.985C199.342 158.624 199.785 158.521 200.117 158.755C200.448 158.99 200.542 159.473 200.327 159.835C200.112 160.197 199.669 160.3 199.338 160.065Z" fill="white"/>
<path d="M233.858 183.267C233.526 183.032 233.432 182.549 233.647 182.187C233.862 181.825 234.305 181.722 234.636 181.957C234.968 182.192 235.062 182.675 234.847 183.037C234.632 183.398 234.189 183.501 233.858 183.267Z" fill="white"/>
<path opacity="0.11" d="M247.429 207.764C246.987 207.451 246.861 206.806 247.148 206.324C247.435 205.842 248.026 205.705 248.468 206.018C248.91 206.331 249.036 206.975 248.749 207.458C248.462 207.94 247.871 208.077 247.429 207.764Z" fill="white"/>
<path d="M260.736 203.543C260.516 203.387 260.453 203.065 260.596 202.824C260.739 202.583 261.034 202.514 261.255 202.671C261.476 202.827 261.539 203.149 261.396 203.39C261.252 203.631 260.957 203.7 260.736 203.543Z" fill="white"/>
<path d="M203.623 193.49C203.402 193.334 203.339 193.012 203.483 192.771C203.626 192.53 203.921 192.461 204.142 192.617C204.363 192.774 204.426 193.096 204.282 193.337C204.139 193.578 203.844 193.647 203.623 193.49Z" fill="white"/>
<path d="M116.423 131.741C116.202 131.584 116.139 131.262 116.282 131.021C116.426 130.78 116.721 130.712 116.942 130.868C117.163 131.025 117.226 131.347 117.082 131.588C116.939 131.829 116.644 131.897 116.423 131.741Z" fill="white"/>
<path d="M86.8443 77.2944C86.6234 77.138 86.5605 76.8158 86.7038 76.5748C86.8471 76.3338 87.1424 76.2653 87.3633 76.4217C87.5841 76.5781 87.647 76.9003 87.5037 77.1412C87.3604 77.3822 87.0652 77.4508 86.8443 77.2944Z" fill="white"/>
<path d="M52.2935 98.1102C52.0726 97.9537 52.0097 97.6316 52.153 97.3906C52.2964 97.1496 52.5916 97.081 52.8125 97.2375C53.0333 97.3939 53.0962 97.7161 52.9529 97.957C52.8096 98.198 52.5143 98.2666 52.2935 98.1102Z" fill="white"/>
<path d="M343.306 276.903C343.085 276.746 343.022 276.424 343.166 276.183C343.309 275.942 343.604 275.874 343.825 276.03C344.046 276.186 344.109 276.509 343.966 276.75C343.822 276.991 343.527 277.059 343.306 276.903Z" fill="white"/>
<path opacity="0.11" d="M363.318 257.581C363.098 257.424 363.035 257.102 363.178 256.861C363.321 256.62 363.617 256.552 363.837 256.708C364.058 256.864 364.121 257.187 363.978 257.428C363.834 257.669 363.539 257.737 363.318 257.581Z" fill="white"/>
<path opacity="0.11" d="M374.545 279.8C374.325 279.643 374.262 279.321 374.405 279.08C374.548 278.839 374.844 278.771 375.064 278.927C375.285 279.083 375.348 279.406 375.205 279.647C375.062 279.888 374.766 279.956 374.545 279.8Z" fill="white"/>
<path opacity="0.11" d="M345.773 296.642C345.552 296.485 345.489 296.163 345.633 295.922C345.776 295.681 346.071 295.612 346.292 295.769C346.513 295.925 346.576 296.247 346.432 296.488C346.289 296.729 345.994 296.798 345.773 296.642Z" fill="white"/>
<path opacity="0.11" d="M260.965 211.766C260.744 211.61 260.682 211.288 260.825 211.047C260.968 210.806 261.263 210.737 261.484 210.894C261.705 211.05 261.768 211.372 261.625 211.613C261.481 211.854 261.186 211.923 260.965 211.766Z" fill="white"/>
<path opacity="0.11" d="M195.078 209.77C194.857 209.613 194.794 209.291 194.938 209.05C195.081 208.809 195.376 208.741 195.597 208.897C195.818 209.053 195.881 209.376 195.738 209.617C195.594 209.858 195.299 209.926 195.078 209.77Z" fill="white"/>
<path opacity="0.11" d="M120.876 151.019C120.655 150.863 120.592 150.541 120.735 150.3C120.878 150.059 121.174 149.99 121.395 150.147C121.615 150.303 121.678 150.625 121.535 150.866C121.392 151.107 121.096 151.176 120.876 151.019Z" fill="white"/>
<path opacity="0.3" d="M331.394 252.96C331.173 252.803 331.11 252.481 331.253 252.24C331.396 251.999 331.692 251.931 331.913 252.087C332.133 252.243 332.196 252.566 332.053 252.807C331.91 253.048 331.614 253.116 331.394 252.96Z" fill="white"/>
<path d="M253.417 164.241C253.196 164.085 253.133 163.763 253.277 163.522C253.42 163.281 253.715 163.212 253.936 163.369C254.157 163.525 254.22 163.847 254.076 164.088C253.933 164.329 253.638 164.398 253.417 164.241Z" fill="white"/>
<path d="M192.338 119.747C192.117 119.591 192.054 119.269 192.198 119.028C192.341 118.787 192.636 118.718 192.857 118.875C193.078 119.031 193.141 119.353 192.997 119.594C192.854 119.835 192.559 119.904 192.338 119.747Z" fill="white"/>
<path d="M256.734 223.66C256.514 223.504 256.451 223.182 256.594 222.941C256.737 222.7 257.032 222.631 257.253 222.788C257.474 222.944 257.537 223.266 257.394 223.507C257.251 223.748 256.955 223.817 256.734 223.66Z" fill="white"/>
<path opacity="0.3" d="M284.733 243.488C284.512 243.332 284.449 243.01 284.593 242.769C284.736 242.528 285.031 242.459 285.252 242.615C285.473 242.772 285.536 243.094 285.392 243.335C285.249 243.576 284.954 243.645 284.733 243.488Z" fill="white"/>
<path opacity="0.11" d="M333.62 239.651C333.399 239.495 333.336 239.173 333.479 238.932C333.623 238.691 333.918 238.622 334.139 238.778C334.36 238.935 334.422 239.257 334.279 239.498C334.136 239.739 333.841 239.808 333.62 239.651Z" fill="white"/>
<path opacity="0.3" d="M239.982 169.617C239.761 169.461 239.698 169.139 239.842 168.898C239.985 168.657 240.28 168.588 240.501 168.744C240.722 168.901 240.785 169.223 240.641 169.464C240.498 169.705 240.203 169.774 239.982 169.617Z" fill="white"/>
<path opacity="0.3" d="M244.999 227.137C244.778 226.981 244.715 226.658 244.858 226.418C245.001 226.177 245.297 226.108 245.518 226.264C245.738 226.421 245.801 226.743 245.658 226.984C245.515 227.225 245.219 227.294 244.999 227.137Z" fill="white"/>
<path opacity="0.3" d="M290.804 265.776C290.583 265.619 290.52 265.297 290.663 265.056C290.807 264.815 291.102 264.746 291.323 264.903C291.544 265.059 291.606 265.382 291.463 265.623C291.32 265.864 291.025 265.932 290.804 265.776Z" fill="white"/>
<path opacity="0.3" d="M319.792 244.747C319.571 244.591 319.508 244.269 319.652 244.028C319.795 243.787 320.09 243.718 320.311 243.875C320.532 244.031 320.595 244.353 320.451 244.594C320.308 244.835 320.013 244.904 319.792 244.747Z" fill="white"/>
<path opacity="0.3" d="M71.7866 67.2527C71.5658 67.0963 71.5029 66.7742 71.6462 66.5332C71.7895 66.2922 72.0847 66.2236 72.3056 66.38C72.5265 66.5364 72.5894 66.8586 72.4461 67.0996C72.3028 67.3406 72.0075 67.4091 71.7866 67.2527Z" fill="white"/>
<path opacity="0.11" d="M146.825 94.9597C146.604 94.8033 146.541 94.4811 146.685 94.2401C146.828 93.9991 147.123 93.9305 147.344 94.087C147.565 94.2434 147.628 94.5655 147.485 94.8065C147.341 95.0475 147.046 95.1161 146.825 94.9597Z" fill="white"/>
<path opacity="0.11" d="M71.4244 93.6666C71.2035 93.5102 71.1406 93.188 71.2839 92.947C71.4273 92.706 71.7225 92.6375 71.9434 92.7939C72.1642 92.9503 72.2271 93.2725 72.0838 93.5134C71.9405 93.7544 71.6452 93.823 71.4244 93.6666Z" fill="white"/>
<path opacity="0.3" d="M170.284 169.262C169.842 168.949 169.716 168.304 170.003 167.822C170.289 167.339 170.88 167.202 171.322 167.515C171.764 167.828 171.89 168.473 171.603 168.955C171.316 169.437 170.726 169.575 170.284 169.262Z" fill="white"/>
<path opacity="0.11" d="M154.47 139.455C154.028 139.142 153.902 138.497 154.189 138.015C154.476 137.532 155.066 137.395 155.508 137.708C155.95 138.021 156.076 138.666 155.789 139.148C155.502 139.63 154.912 139.768 154.47 139.455Z" fill="white"/>
<path d="M163.753 124.319C163.421 124.084 163.327 123.601 163.542 123.239C163.757 122.878 164.2 122.775 164.531 123.01C164.863 123.244 164.957 123.728 164.742 124.089C164.527 124.451 164.084 124.554 163.753 124.319Z" fill="white"/>
<path d="M164.095 189.694C163.764 189.459 163.67 188.976 163.885 188.614C164.1 188.253 164.543 188.15 164.874 188.384C165.205 188.619 165.3 189.102 165.085 189.464C164.87 189.826 164.427 189.929 164.095 189.694Z" fill="white"/>
<path d="M26.1124 104.383C25.781 104.148 25.6867 103.665 25.9018 103.303C26.1168 102.941 26.5598 102.839 26.8912 103.073C27.2226 103.308 27.3169 103.791 27.1018 104.153C26.8868 104.515 26.4438 104.617 26.1124 104.383Z" fill="white"/>
<path d="M290.115 280.796C289.784 280.561 289.69 280.078 289.905 279.716C290.12 279.355 290.563 279.252 290.894 279.487C291.226 279.721 291.32 280.205 291.105 280.566C290.89 280.928 290.447 281.031 290.115 280.796Z" fill="white"/>
<path d="M349.278 308.429C348.947 308.195 348.853 307.711 349.068 307.349C349.283 306.988 349.726 306.885 350.057 307.12C350.389 307.354 350.483 307.838 350.268 308.199C350.053 308.561 349.61 308.664 349.278 308.429Z" fill="white"/>
<path d="M366.462 295.786C366.13 295.551 366.036 295.068 366.251 294.706C366.466 294.344 366.909 294.241 367.24 294.476C367.572 294.711 367.666 295.194 367.451 295.556C367.236 295.917 366.793 296.02 366.462 295.786Z" fill="white"/>
<path d="M177.758 146.645C177.427 146.41 177.333 145.927 177.548 145.565C177.763 145.203 178.206 145.101 178.537 145.335C178.869 145.57 178.963 146.053 178.748 146.415C178.533 146.777 178.09 146.879 177.758 146.645Z" fill="white"/>
<path d="M228.149 228.23C227.818 227.996 227.723 227.512 227.938 227.151C228.153 226.789 228.596 226.686 228.928 226.921C229.259 227.156 229.353 227.639 229.138 228.001C228.923 228.362 228.48 228.465 228.149 228.23Z" fill="white"/>
<path d="M116.192 175.619C115.86 175.385 115.766 174.901 115.981 174.54C116.196 174.178 116.639 174.075 116.97 174.31C117.302 174.544 117.396 175.028 117.181 175.389C116.966 175.751 116.523 175.854 116.192 175.619Z" fill="white"/>
<path d="M27.8502 70.8749C27.5188 70.6402 27.4245 70.1568 27.6396 69.7952C27.8546 69.4336 28.2976 69.3306 28.629 69.5653C28.9604 69.8 29.0547 70.2834 28.8396 70.645C28.6245 71.0067 28.1816 71.1096 27.8502 70.8749Z" fill="white"/>
<path d="M32.525 40.0711C32.1936 39.8364 32.0993 39.353 32.3144 38.9913C32.5294 38.6297 32.9724 38.5268 33.3038 38.7615C33.6352 38.9962 33.7295 39.4796 33.5144 39.8412C33.2994 40.2028 32.8564 40.3057 32.525 40.0711Z" fill="white"/>
<path opacity="0.3" d="M130.499 101.386C130.057 101.073 129.932 100.428 130.218 99.9456C130.505 99.4633 131.096 99.3261 131.538 99.6391C131.98 99.9521 132.106 100.597 131.819 101.079C131.532 101.561 130.941 101.699 130.499 101.386Z" fill="white"/>
<path d="M148.926 70.3971C148.484 70.0841 148.358 69.4394 148.645 68.9571C148.932 68.4748 149.523 68.3376 149.965 68.6506C150.407 68.9636 150.533 69.6083 150.246 70.0906C149.959 70.5729 149.368 70.7101 148.926 70.3971Z" fill="white"/>
<path d="M104.184 96.4013C103.853 96.1666 103.759 95.6832 103.974 95.3215C104.189 94.9599 104.632 94.857 104.963 95.0917C105.294 95.3264 105.389 95.8098 105.174 96.1714C104.959 96.533 104.516 96.6359 104.184 96.4013Z" fill="white"/>
<path opacity="0.3" d="M94.9076 65.6404C94.4657 65.3274 94.3399 64.6827 94.6267 64.2004C94.9135 63.7181 95.5043 63.5808 95.9463 63.8938C96.3883 64.2068 96.5141 64.8516 96.2272 65.3339C95.9404 65.8162 95.3496 65.9534 94.9076 65.6404Z" fill="white"/>
<path opacity="0.3" d="M36.8798 68.5881C36.4378 68.2751 36.3121 67.6303 36.5989 67.148C36.8857 66.6657 37.4765 66.5285 37.9185 66.8415C38.3605 67.1545 38.4862 67.7992 38.1994 68.2815C37.9126 68.7638 37.3218 68.9011 36.8798 68.5881Z" fill="white"/>
<path opacity="0.3" d="M83.1601 102.601C82.7181 102.288 82.5923 101.644 82.8792 101.161C83.166 100.679 83.7568 100.542 84.1988 100.855C84.6407 101.168 84.7665 101.812 84.4797 102.295C84.1929 102.777 83.6021 102.914 83.1601 102.601Z" fill="white"/>
<path opacity="0.3" d="M308.336 272.61C307.894 272.297 307.769 271.653 308.055 271.17C308.342 270.688 308.933 270.551 309.375 270.864C309.817 271.177 309.943 271.822 309.656 272.304C309.369 272.786 308.778 272.923 308.336 272.61Z" fill="white"/>
<path opacity="0.3" d="M355.016 271.55C354.574 271.237 354.448 270.592 354.735 270.11C355.021 269.628 355.612 269.49 356.054 269.803C356.496 270.116 356.622 270.761 356.335 271.243C356.048 271.726 355.458 271.863 355.016 271.55Z" fill="white"/>
<path opacity="0.11" d="M61.0668 67.1073C60.6248 66.7943 60.4991 66.1496 60.7859 65.6673C61.0727 65.185 61.6635 65.0477 62.1055 65.3607C62.5475 65.6737 62.6732 66.3184 62.3864 66.8007C62.0996 67.283 61.5088 67.4203 61.0668 67.1073Z" fill="white"/>
<path opacity="0.3" d="M306.643 216.204C306.201 215.891 306.075 215.246 306.362 214.764C306.649 214.281 307.24 214.144 307.682 214.457C308.124 214.77 308.249 215.415 307.963 215.897C307.676 216.38 307.085 216.517 306.643 216.204Z" fill="white"/>
<path opacity="0.11" d="M322.634 215.122C322.192 214.809 322.066 214.164 322.353 213.682C322.64 213.2 323.23 213.063 323.672 213.376C324.114 213.689 324.24 214.333 323.953 214.816C323.666 215.298 323.076 215.435 322.634 215.122Z" fill="white"/>
<path opacity="0.3" d="M309.218 245.321C308.776 245.008 308.65 244.364 308.937 243.881C309.224 243.399 309.815 243.262 310.257 243.575C310.699 243.888 310.825 244.533 310.538 245.015C310.251 245.497 309.66 245.634 309.218 245.321Z" fill="white"/>
<path d="M284.483 227.182C284.152 226.948 284.057 226.464 284.272 226.103C284.487 225.741 284.93 225.638 285.262 225.873C285.593 226.107 285.687 226.591 285.472 226.953C285.257 227.314 284.814 227.417 284.483 227.182Z" fill="white"/>
</g>
</g>
<circle cx="334.864" cy="299.636" r="86.7604" stroke="#979591" stroke-opacity="0.5" stroke-width="0.434889" stroke-dasharray="5.22 5.22"/>
<circle cx="334.864" cy="299.636" r="217.227" stroke="#979591" stroke-opacity="0.5" stroke-width="0.434889" stroke-dasharray="5.22 5.22"/>
<circle cx="334.864" cy="299.636" r="151.994" stroke="#979591" stroke-opacity="0.5" stroke-width="0.434889"/>
<circle cx="334.864" cy="299.636" r="282.461" stroke="#979591" stroke-opacity="0.5" stroke-width="0.434889"/>
<defs>
<radialGradient id="paint0_radial_12_11669" cx="0" cy="0" r="1" gradientUnits="userSpaceOnUse" gradientTransform="translate(354 299.179) rotate(40.2025) scale(463.491 457.007)">
<stop stop-color="#0082A0"/>
<stop offset="0.7" stop-color="#001B31" stop-opacity="0"/>
</radialGradient>
<clipPath id="clip0_12_11669">
<rect width="708" height="598.358" fill="white" transform="matrix(-1 0 0 1 708 0.955811)"/>
</clipPath>
</defs>
</svg>
