<svg width="46" height="46" viewBox="0 0 46 46" fill="none" xmlns="http://www.w3.org/2000/svg">
<g clip-path="url(#clip0_20472_20211)">
<path d="M23 46C35.7025 46 46 35.7025 46 23C46 10.2975 35.7025 0 23 0C10.2975 0 0 10.2975 0 23C0 35.7025 10.2975 46 23 46Z" fill="#75B73B"/>
<path d="M32.3659 13.6399C31.0323 13.3064 29.0712 12.1546 27.8018 11.6929C22.8456 10.1441 16.1856 11.3831 14.327 17.1138C14.1721 17.2687 13.8624 17.2687 13.7075 17.2687C9.99027 21.6054 12.4684 26.8714 12.1586 31.6727C12.0529 33.3653 11.1629 34.8619 10.0176 36.1279L19.6562 45.7564C20.7482 45.9155 21.8644 45.9993 23.0004 45.9993C34.3599 45.9993 43.795 37.7638 45.6633 26.9379L32.3659 13.6399Z" fill="#52891D"/>
<path d="M22.3555 9.74387C15.3451 10.0774 9.81293 15.9158 9.83404 22.9339C9.84051 25.0715 10.3566 27.0891 11.2671 28.8721L9.86935 35.6566C9.79379 36.0237 10.1248 36.3451 10.4894 36.2586L17.1374 34.6837C18.8454 35.5346 20.7638 36.0259 22.7941 36.0569C29.9594 36.1664 35.9338 30.4771 36.1575 23.3144C36.3966 15.6365 30.0599 9.37686 22.3555 9.74387ZM30.2881 30.1823C28.3412 32.1292 25.7525 33.2014 22.999 33.2014C21.3869 33.2014 19.8432 32.8396 18.4111 32.1264L17.4855 31.6651L13.4093 32.6307L14.2672 28.4659L13.8112 27.5726C13.0677 26.1165 12.6907 24.5423 12.6907 22.8931C12.6907 20.1396 13.763 17.5511 15.7098 15.6041C17.6393 13.6744 20.2702 12.585 22.9992 12.585C25.7524 12.585 28.3411 13.6573 30.288 15.6041C32.2348 17.5509 33.3071 20.1397 33.3071 22.8929C33.3073 25.622 32.2176 28.2528 30.2881 30.1823Z" fill="white"/>
<path d="M29.3874 25.7475L26.8373 25.0153C26.5022 24.9193 26.1411 25.0144 25.8968 25.2633L25.2731 25.8985C25.0102 26.1666 24.6113 26.2526 24.2632 26.1118C23.0569 25.6236 20.5193 23.3672 19.8716 22.239C19.6844 21.9134 19.7153 21.5066 19.945 21.2092L20.4893 20.5049C20.7025 20.2291 20.7475 19.8583 20.6065 19.5394L19.5337 17.1129C19.2767 16.5317 18.5341 16.3625 18.0488 16.7729C17.3372 17.3749 16.4927 18.2894 16.3902 19.3029C16.2092 21.0896 16.9756 23.3417 19.8728 26.0461C23.2201 29.1707 25.9007 29.5832 27.6463 29.1605C28.6363 28.9208 29.4275 27.9597 29.9264 27.1726C30.267 26.6356 29.9979 25.9229 29.3874 25.7475Z" fill="white"/>
<path d="M31.9842 13.2715L29.9876 15.3179C30.0892 15.4118 30.1904 15.5063 30.2886 15.6046C32.2356 17.5515 33.3078 20.1402 33.3078 22.8934C33.3078 25.6224 32.2181 28.2531 30.2886 30.1828C28.3418 32.1296 25.7531 33.2019 22.9996 33.2019C21.3875 33.2019 19.8439 32.8401 18.4117 32.1268L17.4861 31.6656L13.4099 32.6311L13.4941 32.222L9.88477 35.9211C9.96437 36.1603 10.2176 36.3231 10.4898 36.2587L17.1378 34.6838C18.8458 35.5347 20.7642 36.0259 22.7945 36.0569C29.9598 36.1665 35.9344 30.4772 36.1579 23.3145C36.2814 19.3493 34.6509 15.7626 31.9842 13.2715Z" fill="#D1D1D1"/>
<path d="M29.3882 25.7482L26.838 25.016C26.503 24.92 26.1419 25.0151 25.8976 25.264L25.2739 25.8992C25.011 26.1673 24.6121 26.2533 24.264 26.1125C23.5672 25.8304 22.4266 24.9584 21.4622 24.0547L19.6895 25.8718C19.7503 25.93 19.8109 25.9881 19.8736 26.0468C23.2209 29.1714 25.9016 29.5839 27.6472 29.1611C28.6372 28.9215 29.4283 27.9604 29.9273 27.1733C30.2678 26.6363 29.9987 25.9236 29.3882 25.7482Z" fill="#D1D1D1"/>
</g>
<defs>
<clipPath id="clip0_20472_20211">
<rect width="46" height="46" fill="white"/>
</clipPath>
</defs>
</svg>
