<svg width="46" height="47" viewBox="0 0 46 47" fill="none" xmlns="http://www.w3.org/2000/svg">
<g clip-path="url(#clip0_20472_20179)">
<path d="M37.7723 45.4116C27.934 46.4617 18.066 46.4617 8.22772 45.4116C4.30478 44.993 1.20622 41.8944 0.787536 37.9711C-0.262512 28.1329 -0.262512 18.2652 0.787536 8.42694C1.20622 4.50399 4.30478 1.40544 8.22772 0.986755C18.066 -0.0632932 27.9337 -0.0632932 37.7719 0.986755C41.6952 1.40544 44.7937 4.50399 45.2124 8.42694C46.2625 18.2652 46.2625 28.1329 45.2124 37.9711C44.7937 41.8944 41.6955 44.993 37.7723 45.4116Z" fill="url(#paint0_linear_20472_20179)"/>
<path d="M42.7098 10.0901C42.3385 6.609 39.5891 3.85929 36.1077 3.48763C27.3774 2.55621 18.6211 2.55621 9.89087 3.48763C6.40978 3.85929 3.66007 6.609 3.28841 10.0901C2.35699 18.8204 2.35699 27.5766 3.28841 36.3065C3.66007 39.788 6.40978 42.5377 9.89087 42.909C18.6211 43.8408 27.3774 43.8408 36.1073 42.909C39.5888 42.5377 42.3385 39.788 42.7098 36.3065C43.6416 27.5766 43.6416 18.8204 42.7098 10.0901Z" fill="url(#paint1_linear_20472_20179)"/>
<path d="M0.689453 37.0176C0.721039 37.3355 0.753677 37.6535 0.78772 37.9715C1.20641 41.8944 4.30496 44.993 8.22825 45.4116C18.0665 46.4617 27.9342 46.4617 37.7724 45.4116C41.6957 44.993 44.7939 41.8944 45.2126 37.9715C45.2467 37.6535 45.2793 37.3355 45.3112 37.0176H0.689453Z" fill="url(#paint2_linear_20472_20179)"/>
<path d="M37.772 45.4109C41.6953 44.9922 44.7935 41.8936 45.2122 37.9703C45.6716 33.6684 45.9299 29.3608 45.9874 25.0522L35.9951 15.0602C35.482 14.4243 35.0181 14.3653 34.0565 14.1776C33.2774 14.0253 32.4804 13.9214 31.6875 13.8901C29.1526 13.7901 26.6159 13.695 24.0793 13.6708C20.3546 13.6353 16.6293 13.6476 12.9193 14.0786C11.3197 14.2642 9.62883 15.5189 9.44738 17.2291C9.35438 18.1079 9.19294 18.9817 9.14276 19.8626C8.95921 23.0707 8.92096 26.277 9.36947 29.4724C9.51968 30.5424 9.68498 31.032 10.4062 31.6286L24.9619 46.1844C29.234 46.1237 33.5058 45.8661 37.772 45.4109Z" fill="url(#paint3_linear_20472_20179)"/>
<path d="M23.789 33.1009C20.076 32.9763 17.202 32.9054 14.3316 32.7685C13.4556 32.7264 12.554 32.6074 11.7244 32.3379C10.1974 31.8424 9.3263 30.7256 9.09994 29.113C8.65142 25.9176 8.68968 22.7113 8.87323 19.5033C8.92376 18.6224 9.0852 17.7485 9.1782 16.8697C9.35894 15.1595 11.0502 13.9045 12.6498 13.7192C16.3601 13.2883 20.0851 13.276 23.8101 13.3114C26.3468 13.3356 28.8831 13.4307 31.418 13.5308C32.2108 13.562 33.0078 13.6662 33.7869 13.8182C35.5038 14.1533 36.497 15.2273 36.7995 16.9522C37.2087 19.286 37.3158 21.6423 37.2298 23.9997C37.1649 25.7839 36.981 27.5653 36.796 29.3425C36.5918 31.304 34.8935 32.4657 33.3641 32.5664C29.8977 32.7949 26.4275 32.957 23.789 33.1009Z" fill="url(#paint4_linear_20472_20179)"/>
<path d="M20.2871 27.5387C22.6841 26.0671 25.0225 24.6307 27.4311 23.1518C25.0274 21.6746 22.6894 20.2378 20.2871 18.7617V27.5387Z" fill="white"/>
</g>
<defs>
<linearGradient id="paint0_linear_20472_20179" x1="10.4643" y1="-0.951223" x2="43.6097" y2="62.9044" gradientUnits="userSpaceOnUse">
<stop stop-color="#FFFCF8"/>
<stop offset="0.1875" stop-color="#FAF8F6"/>
<stop offset="0.4041" stop-color="#ECEEF2"/>
<stop offset="0.6353" stop-color="#D5DCEA"/>
<stop offset="0.875" stop-color="#B5C4DF"/>
<stop offset="1" stop-color="#A1B5D8"/>
</linearGradient>
<linearGradient id="paint1_linear_20472_20179" x1="17.6421" y1="20.1851" x2="-60.2872" y2="-23.6502" gradientUnits="userSpaceOnUse">
<stop stop-color="#A1B5D8" stop-opacity="0"/>
<stop offset="0.3094" stop-color="#90A2BD" stop-opacity="0.309804"/>
<stop offset="0.7554" stop-color="#7C8B9C" stop-opacity="0.756863"/>
<stop offset="1" stop-color="#748290"/>
</linearGradient>
<linearGradient id="paint2_linear_20472_20179" x1="23.0002" y1="40.8055" x2="23.0002" y2="47.9757" gradientUnits="userSpaceOnUse">
<stop stop-color="#A1B5D8" stop-opacity="0"/>
<stop offset="0.3094" stop-color="#90A2BD" stop-opacity="0.309804"/>
<stop offset="0.7554" stop-color="#7C8B9C" stop-opacity="0.756863"/>
<stop offset="1" stop-color="#748290"/>
</linearGradient>
<linearGradient id="paint3_linear_20472_20179" x1="38.0491" y1="38.1947" x2="6.49146" y2="6.63708" gradientUnits="userSpaceOnUse">
<stop stop-color="#A1B5D8" stop-opacity="0"/>
<stop offset="0.3094" stop-color="#90A2BD" stop-opacity="0.309804"/>
<stop offset="0.7554" stop-color="#7C8B9C" stop-opacity="0.756863"/>
<stop offset="1" stop-color="#748290"/>
</linearGradient>
<linearGradient id="paint4_linear_20472_20179" x1="21.2611" y1="18.1588" x2="25.4855" y2="30.4592" gradientUnits="userSpaceOnUse">
<stop stop-color="#E52D27"/>
<stop offset="1" stop-color="#B31217"/>
</linearGradient>
<clipPath id="clip0_20472_20179">
<rect width="46" height="46" fill="white" transform="translate(0 0.199219)"/>
</clipPath>
</defs>
</svg>
